%TF.GenerationSoftware,KiCad,Pcbnew,(5.1.6)-1*%
%TF.CreationDate,2021-06-02T18:30:26+10:00*%
%TF.ProjectId,L2_board,4c325f62-6f61-4726-942e-6b696361645f,2.0*%
%TF.SameCoordinates,Original*%
%TF.FileFunction,Paste,Top*%
%TF.FilePolarity,Positive*%
%FSLAX46Y46*%
G04 Gerber Fmt 4.6, Leading zero omitted, Abs format (unit mm)*
G04 Created by KiCad (PCBNEW (5.1.6)-1) date 2021-06-02 18:30:26*
%MOMM*%
%LPD*%
G01*
G04 APERTURE LIST*
%ADD10C,0.152400*%
%ADD11C,0.000100*%
%ADD12R,1.900000X0.800000*%
%ADD13R,2.743200X2.641600*%
%ADD14R,0.254000X0.711200*%
%ADD15R,0.711200X0.254000*%
%ADD16R,2.000000X1.500000*%
%ADD17R,2.000000X3.800000*%
%ADD18R,2.000000X0.900000*%
%ADD19R,0.900000X2.000000*%
%ADD20R,5.000000X5.000000*%
%ADD21R,2.800000X1.000000*%
%ADD22R,0.900000X0.800000*%
%ADD23R,1.500000X1.900000*%
%ADD24R,0.400000X1.350000*%
%ADD25R,0.900000X1.200000*%
G04 APERTURE END LIST*
D10*
%TO.C,U6*%
X156030600Y-82472200D02*
X156030600Y-83593000D01*
X156030600Y-83593000D02*
X157202200Y-83593000D01*
X157202200Y-83593000D02*
X157202200Y-82472200D01*
X157202200Y-82472200D02*
X156030600Y-82472200D01*
X156030600Y-83793000D02*
X156030600Y-84913800D01*
X156030600Y-84913800D02*
X157202200Y-84913800D01*
X157202200Y-84913800D02*
X157202200Y-83793000D01*
X157202200Y-83793000D02*
X156030600Y-83793000D01*
X157402200Y-82472200D02*
X157402200Y-83593000D01*
X157402200Y-83593000D02*
X158573800Y-83593000D01*
X158573800Y-83593000D02*
X158573800Y-82472200D01*
X158573800Y-82472200D02*
X157402200Y-82472200D01*
X157402200Y-83793000D02*
X157402200Y-84913800D01*
X157402200Y-84913800D02*
X158573800Y-84913800D01*
X158573800Y-84913800D02*
X158573800Y-83793000D01*
X158573800Y-83793000D02*
X157402200Y-83793000D01*
D11*
%TO.C,U5*%
G36*
X173617000Y-104901000D02*
G01*
X173617000Y-104001000D01*
X173619739Y-103948736D01*
X173627926Y-103897044D01*
X173641472Y-103846492D01*
X173660227Y-103797632D01*
X173683987Y-103751000D01*
X173712492Y-103707107D01*
X173745428Y-103666435D01*
X173782435Y-103629428D01*
X173823107Y-103596492D01*
X173867000Y-103567987D01*
X173913632Y-103544227D01*
X173962492Y-103525472D01*
X174013044Y-103511926D01*
X174064736Y-103503739D01*
X174117000Y-103501000D01*
X174169264Y-103503739D01*
X174220956Y-103511926D01*
X174271508Y-103525472D01*
X174320368Y-103544227D01*
X174367000Y-103567987D01*
X174410893Y-103596492D01*
X174451565Y-103629428D01*
X174488572Y-103666435D01*
X174521508Y-103707107D01*
X174550013Y-103751000D01*
X174573773Y-103797632D01*
X174592528Y-103846492D01*
X174606074Y-103897044D01*
X174614261Y-103948736D01*
X174617000Y-104001000D01*
X174617000Y-105801000D01*
X174614261Y-105853264D01*
X174606074Y-105904956D01*
X174592528Y-105955508D01*
X174573773Y-106004368D01*
X174550013Y-106051000D01*
X174521508Y-106094893D01*
X174488572Y-106135565D01*
X174451565Y-106172572D01*
X174410893Y-106205508D01*
X174367000Y-106234013D01*
X174320368Y-106257773D01*
X174271508Y-106276528D01*
X174220956Y-106290074D01*
X174169264Y-106298261D01*
X174117000Y-106301000D01*
X174064736Y-106298261D01*
X174013044Y-106290074D01*
X173962492Y-106276528D01*
X173913632Y-106257773D01*
X173867000Y-106234013D01*
X173823107Y-106205508D01*
X173782435Y-106172572D01*
X173745428Y-106135565D01*
X173712492Y-106094893D01*
X173683987Y-106051000D01*
X173660227Y-106004368D01*
X173641472Y-105955508D01*
X173627926Y-105904956D01*
X173619739Y-105853264D01*
X173617000Y-105801000D01*
X173617000Y-104901000D01*
G37*
X173617000Y-104901000D02*
X173617000Y-104001000D01*
X173619739Y-103948736D01*
X173627926Y-103897044D01*
X173641472Y-103846492D01*
X173660227Y-103797632D01*
X173683987Y-103751000D01*
X173712492Y-103707107D01*
X173745428Y-103666435D01*
X173782435Y-103629428D01*
X173823107Y-103596492D01*
X173867000Y-103567987D01*
X173913632Y-103544227D01*
X173962492Y-103525472D01*
X174013044Y-103511926D01*
X174064736Y-103503739D01*
X174117000Y-103501000D01*
X174169264Y-103503739D01*
X174220956Y-103511926D01*
X174271508Y-103525472D01*
X174320368Y-103544227D01*
X174367000Y-103567987D01*
X174410893Y-103596492D01*
X174451565Y-103629428D01*
X174488572Y-103666435D01*
X174521508Y-103707107D01*
X174550013Y-103751000D01*
X174573773Y-103797632D01*
X174592528Y-103846492D01*
X174606074Y-103897044D01*
X174614261Y-103948736D01*
X174617000Y-104001000D01*
X174617000Y-105801000D01*
X174614261Y-105853264D01*
X174606074Y-105904956D01*
X174592528Y-105955508D01*
X174573773Y-106004368D01*
X174550013Y-106051000D01*
X174521508Y-106094893D01*
X174488572Y-106135565D01*
X174451565Y-106172572D01*
X174410893Y-106205508D01*
X174367000Y-106234013D01*
X174320368Y-106257773D01*
X174271508Y-106276528D01*
X174220956Y-106290074D01*
X174169264Y-106298261D01*
X174117000Y-106301000D01*
X174064736Y-106298261D01*
X174013044Y-106290074D01*
X173962492Y-106276528D01*
X173913632Y-106257773D01*
X173867000Y-106234013D01*
X173823107Y-106205508D01*
X173782435Y-106172572D01*
X173745428Y-106135565D01*
X173712492Y-106094893D01*
X173683987Y-106051000D01*
X173660227Y-106004368D01*
X173641472Y-105955508D01*
X173627926Y-105904956D01*
X173619739Y-105853264D01*
X173617000Y-105801000D01*
X173617000Y-104901000D01*
G36*
X173617000Y-88901000D02*
G01*
X173617000Y-88001000D01*
X173619739Y-87948736D01*
X173627926Y-87897044D01*
X173641472Y-87846492D01*
X173660227Y-87797632D01*
X173683987Y-87751000D01*
X173712492Y-87707107D01*
X173745428Y-87666435D01*
X173782435Y-87629428D01*
X173823107Y-87596492D01*
X173867000Y-87567987D01*
X173913632Y-87544227D01*
X173962492Y-87525472D01*
X174013044Y-87511926D01*
X174064736Y-87503739D01*
X174117000Y-87501000D01*
X174169264Y-87503739D01*
X174220956Y-87511926D01*
X174271508Y-87525472D01*
X174320368Y-87544227D01*
X174367000Y-87567987D01*
X174410893Y-87596492D01*
X174451565Y-87629428D01*
X174488572Y-87666435D01*
X174521508Y-87707107D01*
X174550013Y-87751000D01*
X174573773Y-87797632D01*
X174592528Y-87846492D01*
X174606074Y-87897044D01*
X174614261Y-87948736D01*
X174617000Y-88001000D01*
X174617000Y-89801000D01*
X174614261Y-89853264D01*
X174606074Y-89904956D01*
X174592528Y-89955508D01*
X174573773Y-90004368D01*
X174550013Y-90051000D01*
X174521508Y-90094893D01*
X174488572Y-90135565D01*
X174451565Y-90172572D01*
X174410893Y-90205508D01*
X174367000Y-90234013D01*
X174320368Y-90257773D01*
X174271508Y-90276528D01*
X174220956Y-90290074D01*
X174169264Y-90298261D01*
X174117000Y-90301000D01*
X174064736Y-90298261D01*
X174013044Y-90290074D01*
X173962492Y-90276528D01*
X173913632Y-90257773D01*
X173867000Y-90234013D01*
X173823107Y-90205508D01*
X173782435Y-90172572D01*
X173745428Y-90135565D01*
X173712492Y-90094893D01*
X173683987Y-90051000D01*
X173660227Y-90004368D01*
X173641472Y-89955508D01*
X173627926Y-89904956D01*
X173619739Y-89853264D01*
X173617000Y-89801000D01*
X173617000Y-88901000D01*
G37*
X173617000Y-88901000D02*
X173617000Y-88001000D01*
X173619739Y-87948736D01*
X173627926Y-87897044D01*
X173641472Y-87846492D01*
X173660227Y-87797632D01*
X173683987Y-87751000D01*
X173712492Y-87707107D01*
X173745428Y-87666435D01*
X173782435Y-87629428D01*
X173823107Y-87596492D01*
X173867000Y-87567987D01*
X173913632Y-87544227D01*
X173962492Y-87525472D01*
X174013044Y-87511926D01*
X174064736Y-87503739D01*
X174117000Y-87501000D01*
X174169264Y-87503739D01*
X174220956Y-87511926D01*
X174271508Y-87525472D01*
X174320368Y-87544227D01*
X174367000Y-87567987D01*
X174410893Y-87596492D01*
X174451565Y-87629428D01*
X174488572Y-87666435D01*
X174521508Y-87707107D01*
X174550013Y-87751000D01*
X174573773Y-87797632D01*
X174592528Y-87846492D01*
X174606074Y-87897044D01*
X174614261Y-87948736D01*
X174617000Y-88001000D01*
X174617000Y-89801000D01*
X174614261Y-89853264D01*
X174606074Y-89904956D01*
X174592528Y-89955508D01*
X174573773Y-90004368D01*
X174550013Y-90051000D01*
X174521508Y-90094893D01*
X174488572Y-90135565D01*
X174451565Y-90172572D01*
X174410893Y-90205508D01*
X174367000Y-90234013D01*
X174320368Y-90257773D01*
X174271508Y-90276528D01*
X174220956Y-90290074D01*
X174169264Y-90298261D01*
X174117000Y-90301000D01*
X174064736Y-90298261D01*
X174013044Y-90290074D01*
X173962492Y-90276528D01*
X173913632Y-90257773D01*
X173867000Y-90234013D01*
X173823107Y-90205508D01*
X173782435Y-90172572D01*
X173745428Y-90135565D01*
X173712492Y-90094893D01*
X173683987Y-90051000D01*
X173660227Y-90004368D01*
X173641472Y-89955508D01*
X173627926Y-89904956D01*
X173619739Y-89853264D01*
X173617000Y-89801000D01*
X173617000Y-88901000D01*
G36*
X171077000Y-88901000D02*
G01*
X171077000Y-88001000D01*
X171079739Y-87948736D01*
X171087926Y-87897044D01*
X171101472Y-87846492D01*
X171120227Y-87797632D01*
X171143987Y-87751000D01*
X171172492Y-87707107D01*
X171205428Y-87666435D01*
X171242435Y-87629428D01*
X171283107Y-87596492D01*
X171327000Y-87567987D01*
X171373632Y-87544227D01*
X171422492Y-87525472D01*
X171473044Y-87511926D01*
X171524736Y-87503739D01*
X171577000Y-87501000D01*
X171629264Y-87503739D01*
X171680956Y-87511926D01*
X171731508Y-87525472D01*
X171780368Y-87544227D01*
X171827000Y-87567987D01*
X171870893Y-87596492D01*
X171911565Y-87629428D01*
X171948572Y-87666435D01*
X171981508Y-87707107D01*
X172010013Y-87751000D01*
X172033773Y-87797632D01*
X172052528Y-87846492D01*
X172066074Y-87897044D01*
X172074261Y-87948736D01*
X172077000Y-88001000D01*
X172077000Y-89801000D01*
X172074261Y-89853264D01*
X172066074Y-89904956D01*
X172052528Y-89955508D01*
X172033773Y-90004368D01*
X172010013Y-90051000D01*
X171981508Y-90094893D01*
X171948572Y-90135565D01*
X171911565Y-90172572D01*
X171870893Y-90205508D01*
X171827000Y-90234013D01*
X171780368Y-90257773D01*
X171731508Y-90276528D01*
X171680956Y-90290074D01*
X171629264Y-90298261D01*
X171577000Y-90301000D01*
X171524736Y-90298261D01*
X171473044Y-90290074D01*
X171422492Y-90276528D01*
X171373632Y-90257773D01*
X171327000Y-90234013D01*
X171283107Y-90205508D01*
X171242435Y-90172572D01*
X171205428Y-90135565D01*
X171172492Y-90094893D01*
X171143987Y-90051000D01*
X171120227Y-90004368D01*
X171101472Y-89955508D01*
X171087926Y-89904956D01*
X171079739Y-89853264D01*
X171077000Y-89801000D01*
X171077000Y-88901000D01*
G37*
X171077000Y-88901000D02*
X171077000Y-88001000D01*
X171079739Y-87948736D01*
X171087926Y-87897044D01*
X171101472Y-87846492D01*
X171120227Y-87797632D01*
X171143987Y-87751000D01*
X171172492Y-87707107D01*
X171205428Y-87666435D01*
X171242435Y-87629428D01*
X171283107Y-87596492D01*
X171327000Y-87567987D01*
X171373632Y-87544227D01*
X171422492Y-87525472D01*
X171473044Y-87511926D01*
X171524736Y-87503739D01*
X171577000Y-87501000D01*
X171629264Y-87503739D01*
X171680956Y-87511926D01*
X171731508Y-87525472D01*
X171780368Y-87544227D01*
X171827000Y-87567987D01*
X171870893Y-87596492D01*
X171911565Y-87629428D01*
X171948572Y-87666435D01*
X171981508Y-87707107D01*
X172010013Y-87751000D01*
X172033773Y-87797632D01*
X172052528Y-87846492D01*
X172066074Y-87897044D01*
X172074261Y-87948736D01*
X172077000Y-88001000D01*
X172077000Y-89801000D01*
X172074261Y-89853264D01*
X172066074Y-89904956D01*
X172052528Y-89955508D01*
X172033773Y-90004368D01*
X172010013Y-90051000D01*
X171981508Y-90094893D01*
X171948572Y-90135565D01*
X171911565Y-90172572D01*
X171870893Y-90205508D01*
X171827000Y-90234013D01*
X171780368Y-90257773D01*
X171731508Y-90276528D01*
X171680956Y-90290074D01*
X171629264Y-90298261D01*
X171577000Y-90301000D01*
X171524736Y-90298261D01*
X171473044Y-90290074D01*
X171422492Y-90276528D01*
X171373632Y-90257773D01*
X171327000Y-90234013D01*
X171283107Y-90205508D01*
X171242435Y-90172572D01*
X171205428Y-90135565D01*
X171172492Y-90094893D01*
X171143987Y-90051000D01*
X171120227Y-90004368D01*
X171101472Y-89955508D01*
X171087926Y-89904956D01*
X171079739Y-89853264D01*
X171077000Y-89801000D01*
X171077000Y-88901000D01*
G36*
X168537000Y-88901000D02*
G01*
X168537000Y-88001000D01*
X168539739Y-87948736D01*
X168547926Y-87897044D01*
X168561472Y-87846492D01*
X168580227Y-87797632D01*
X168603987Y-87751000D01*
X168632492Y-87707107D01*
X168665428Y-87666435D01*
X168702435Y-87629428D01*
X168743107Y-87596492D01*
X168787000Y-87567987D01*
X168833632Y-87544227D01*
X168882492Y-87525472D01*
X168933044Y-87511926D01*
X168984736Y-87503739D01*
X169037000Y-87501000D01*
X169089264Y-87503739D01*
X169140956Y-87511926D01*
X169191508Y-87525472D01*
X169240368Y-87544227D01*
X169287000Y-87567987D01*
X169330893Y-87596492D01*
X169371565Y-87629428D01*
X169408572Y-87666435D01*
X169441508Y-87707107D01*
X169470013Y-87751000D01*
X169493773Y-87797632D01*
X169512528Y-87846492D01*
X169526074Y-87897044D01*
X169534261Y-87948736D01*
X169537000Y-88001000D01*
X169537000Y-89801000D01*
X169534261Y-89853264D01*
X169526074Y-89904956D01*
X169512528Y-89955508D01*
X169493773Y-90004368D01*
X169470013Y-90051000D01*
X169441508Y-90094893D01*
X169408572Y-90135565D01*
X169371565Y-90172572D01*
X169330893Y-90205508D01*
X169287000Y-90234013D01*
X169240368Y-90257773D01*
X169191508Y-90276528D01*
X169140956Y-90290074D01*
X169089264Y-90298261D01*
X169037000Y-90301000D01*
X168984736Y-90298261D01*
X168933044Y-90290074D01*
X168882492Y-90276528D01*
X168833632Y-90257773D01*
X168787000Y-90234013D01*
X168743107Y-90205508D01*
X168702435Y-90172572D01*
X168665428Y-90135565D01*
X168632492Y-90094893D01*
X168603987Y-90051000D01*
X168580227Y-90004368D01*
X168561472Y-89955508D01*
X168547926Y-89904956D01*
X168539739Y-89853264D01*
X168537000Y-89801000D01*
X168537000Y-88901000D01*
G37*
X168537000Y-88901000D02*
X168537000Y-88001000D01*
X168539739Y-87948736D01*
X168547926Y-87897044D01*
X168561472Y-87846492D01*
X168580227Y-87797632D01*
X168603987Y-87751000D01*
X168632492Y-87707107D01*
X168665428Y-87666435D01*
X168702435Y-87629428D01*
X168743107Y-87596492D01*
X168787000Y-87567987D01*
X168833632Y-87544227D01*
X168882492Y-87525472D01*
X168933044Y-87511926D01*
X168984736Y-87503739D01*
X169037000Y-87501000D01*
X169089264Y-87503739D01*
X169140956Y-87511926D01*
X169191508Y-87525472D01*
X169240368Y-87544227D01*
X169287000Y-87567987D01*
X169330893Y-87596492D01*
X169371565Y-87629428D01*
X169408572Y-87666435D01*
X169441508Y-87707107D01*
X169470013Y-87751000D01*
X169493773Y-87797632D01*
X169512528Y-87846492D01*
X169526074Y-87897044D01*
X169534261Y-87948736D01*
X169537000Y-88001000D01*
X169537000Y-89801000D01*
X169534261Y-89853264D01*
X169526074Y-89904956D01*
X169512528Y-89955508D01*
X169493773Y-90004368D01*
X169470013Y-90051000D01*
X169441508Y-90094893D01*
X169408572Y-90135565D01*
X169371565Y-90172572D01*
X169330893Y-90205508D01*
X169287000Y-90234013D01*
X169240368Y-90257773D01*
X169191508Y-90276528D01*
X169140956Y-90290074D01*
X169089264Y-90298261D01*
X169037000Y-90301000D01*
X168984736Y-90298261D01*
X168933044Y-90290074D01*
X168882492Y-90276528D01*
X168833632Y-90257773D01*
X168787000Y-90234013D01*
X168743107Y-90205508D01*
X168702435Y-90172572D01*
X168665428Y-90135565D01*
X168632492Y-90094893D01*
X168603987Y-90051000D01*
X168580227Y-90004368D01*
X168561472Y-89955508D01*
X168547926Y-89904956D01*
X168539739Y-89853264D01*
X168537000Y-89801000D01*
X168537000Y-88901000D01*
G36*
X176157000Y-88901000D02*
G01*
X176157000Y-88001000D01*
X176159739Y-87948736D01*
X176167926Y-87897044D01*
X176181472Y-87846492D01*
X176200227Y-87797632D01*
X176223987Y-87751000D01*
X176252492Y-87707107D01*
X176285428Y-87666435D01*
X176322435Y-87629428D01*
X176363107Y-87596492D01*
X176407000Y-87567987D01*
X176453632Y-87544227D01*
X176502492Y-87525472D01*
X176553044Y-87511926D01*
X176604736Y-87503739D01*
X176657000Y-87501000D01*
X176709264Y-87503739D01*
X176760956Y-87511926D01*
X176811508Y-87525472D01*
X176860368Y-87544227D01*
X176907000Y-87567987D01*
X176950893Y-87596492D01*
X176991565Y-87629428D01*
X177028572Y-87666435D01*
X177061508Y-87707107D01*
X177090013Y-87751000D01*
X177113773Y-87797632D01*
X177132528Y-87846492D01*
X177146074Y-87897044D01*
X177154261Y-87948736D01*
X177157000Y-88001000D01*
X177157000Y-89801000D01*
X177154261Y-89853264D01*
X177146074Y-89904956D01*
X177132528Y-89955508D01*
X177113773Y-90004368D01*
X177090013Y-90051000D01*
X177061508Y-90094893D01*
X177028572Y-90135565D01*
X176991565Y-90172572D01*
X176950893Y-90205508D01*
X176907000Y-90234013D01*
X176860368Y-90257773D01*
X176811508Y-90276528D01*
X176760956Y-90290074D01*
X176709264Y-90298261D01*
X176657000Y-90301000D01*
X176604736Y-90298261D01*
X176553044Y-90290074D01*
X176502492Y-90276528D01*
X176453632Y-90257773D01*
X176407000Y-90234013D01*
X176363107Y-90205508D01*
X176322435Y-90172572D01*
X176285428Y-90135565D01*
X176252492Y-90094893D01*
X176223987Y-90051000D01*
X176200227Y-90004368D01*
X176181472Y-89955508D01*
X176167926Y-89904956D01*
X176159739Y-89853264D01*
X176157000Y-89801000D01*
X176157000Y-88901000D01*
G37*
X176157000Y-88901000D02*
X176157000Y-88001000D01*
X176159739Y-87948736D01*
X176167926Y-87897044D01*
X176181472Y-87846492D01*
X176200227Y-87797632D01*
X176223987Y-87751000D01*
X176252492Y-87707107D01*
X176285428Y-87666435D01*
X176322435Y-87629428D01*
X176363107Y-87596492D01*
X176407000Y-87567987D01*
X176453632Y-87544227D01*
X176502492Y-87525472D01*
X176553044Y-87511926D01*
X176604736Y-87503739D01*
X176657000Y-87501000D01*
X176709264Y-87503739D01*
X176760956Y-87511926D01*
X176811508Y-87525472D01*
X176860368Y-87544227D01*
X176907000Y-87567987D01*
X176950893Y-87596492D01*
X176991565Y-87629428D01*
X177028572Y-87666435D01*
X177061508Y-87707107D01*
X177090013Y-87751000D01*
X177113773Y-87797632D01*
X177132528Y-87846492D01*
X177146074Y-87897044D01*
X177154261Y-87948736D01*
X177157000Y-88001000D01*
X177157000Y-89801000D01*
X177154261Y-89853264D01*
X177146074Y-89904956D01*
X177132528Y-89955508D01*
X177113773Y-90004368D01*
X177090013Y-90051000D01*
X177061508Y-90094893D01*
X177028572Y-90135565D01*
X176991565Y-90172572D01*
X176950893Y-90205508D01*
X176907000Y-90234013D01*
X176860368Y-90257773D01*
X176811508Y-90276528D01*
X176760956Y-90290074D01*
X176709264Y-90298261D01*
X176657000Y-90301000D01*
X176604736Y-90298261D01*
X176553044Y-90290074D01*
X176502492Y-90276528D01*
X176453632Y-90257773D01*
X176407000Y-90234013D01*
X176363107Y-90205508D01*
X176322435Y-90172572D01*
X176285428Y-90135565D01*
X176252492Y-90094893D01*
X176223987Y-90051000D01*
X176200227Y-90004368D01*
X176181472Y-89955508D01*
X176167926Y-89904956D01*
X176159739Y-89853264D01*
X176157000Y-89801000D01*
X176157000Y-88901000D01*
G36*
X178697000Y-88901000D02*
G01*
X178697000Y-88001000D01*
X178699739Y-87948736D01*
X178707926Y-87897044D01*
X178721472Y-87846492D01*
X178740227Y-87797632D01*
X178763987Y-87751000D01*
X178792492Y-87707107D01*
X178825428Y-87666435D01*
X178862435Y-87629428D01*
X178903107Y-87596492D01*
X178947000Y-87567987D01*
X178993632Y-87544227D01*
X179042492Y-87525472D01*
X179093044Y-87511926D01*
X179144736Y-87503739D01*
X179197000Y-87501000D01*
X179249264Y-87503739D01*
X179300956Y-87511926D01*
X179351508Y-87525472D01*
X179400368Y-87544227D01*
X179447000Y-87567987D01*
X179490893Y-87596492D01*
X179531565Y-87629428D01*
X179568572Y-87666435D01*
X179601508Y-87707107D01*
X179630013Y-87751000D01*
X179653773Y-87797632D01*
X179672528Y-87846492D01*
X179686074Y-87897044D01*
X179694261Y-87948736D01*
X179697000Y-88001000D01*
X179697000Y-89801000D01*
X179694261Y-89853264D01*
X179686074Y-89904956D01*
X179672528Y-89955508D01*
X179653773Y-90004368D01*
X179630013Y-90051000D01*
X179601508Y-90094893D01*
X179568572Y-90135565D01*
X179531565Y-90172572D01*
X179490893Y-90205508D01*
X179447000Y-90234013D01*
X179400368Y-90257773D01*
X179351508Y-90276528D01*
X179300956Y-90290074D01*
X179249264Y-90298261D01*
X179197000Y-90301000D01*
X179144736Y-90298261D01*
X179093044Y-90290074D01*
X179042492Y-90276528D01*
X178993632Y-90257773D01*
X178947000Y-90234013D01*
X178903107Y-90205508D01*
X178862435Y-90172572D01*
X178825428Y-90135565D01*
X178792492Y-90094893D01*
X178763987Y-90051000D01*
X178740227Y-90004368D01*
X178721472Y-89955508D01*
X178707926Y-89904956D01*
X178699739Y-89853264D01*
X178697000Y-89801000D01*
X178697000Y-88901000D01*
G37*
X178697000Y-88901000D02*
X178697000Y-88001000D01*
X178699739Y-87948736D01*
X178707926Y-87897044D01*
X178721472Y-87846492D01*
X178740227Y-87797632D01*
X178763987Y-87751000D01*
X178792492Y-87707107D01*
X178825428Y-87666435D01*
X178862435Y-87629428D01*
X178903107Y-87596492D01*
X178947000Y-87567987D01*
X178993632Y-87544227D01*
X179042492Y-87525472D01*
X179093044Y-87511926D01*
X179144736Y-87503739D01*
X179197000Y-87501000D01*
X179249264Y-87503739D01*
X179300956Y-87511926D01*
X179351508Y-87525472D01*
X179400368Y-87544227D01*
X179447000Y-87567987D01*
X179490893Y-87596492D01*
X179531565Y-87629428D01*
X179568572Y-87666435D01*
X179601508Y-87707107D01*
X179630013Y-87751000D01*
X179653773Y-87797632D01*
X179672528Y-87846492D01*
X179686074Y-87897044D01*
X179694261Y-87948736D01*
X179697000Y-88001000D01*
X179697000Y-89801000D01*
X179694261Y-89853264D01*
X179686074Y-89904956D01*
X179672528Y-89955508D01*
X179653773Y-90004368D01*
X179630013Y-90051000D01*
X179601508Y-90094893D01*
X179568572Y-90135565D01*
X179531565Y-90172572D01*
X179490893Y-90205508D01*
X179447000Y-90234013D01*
X179400368Y-90257773D01*
X179351508Y-90276528D01*
X179300956Y-90290074D01*
X179249264Y-90298261D01*
X179197000Y-90301000D01*
X179144736Y-90298261D01*
X179093044Y-90290074D01*
X179042492Y-90276528D01*
X178993632Y-90257773D01*
X178947000Y-90234013D01*
X178903107Y-90205508D01*
X178862435Y-90172572D01*
X178825428Y-90135565D01*
X178792492Y-90094893D01*
X178763987Y-90051000D01*
X178740227Y-90004368D01*
X178721472Y-89955508D01*
X178707926Y-89904956D01*
X178699739Y-89853264D01*
X178697000Y-89801000D01*
X178697000Y-88901000D01*
G36*
X181237000Y-88901000D02*
G01*
X181237000Y-88001000D01*
X181239739Y-87948736D01*
X181247926Y-87897044D01*
X181261472Y-87846492D01*
X181280227Y-87797632D01*
X181303987Y-87751000D01*
X181332492Y-87707107D01*
X181365428Y-87666435D01*
X181402435Y-87629428D01*
X181443107Y-87596492D01*
X181487000Y-87567987D01*
X181533632Y-87544227D01*
X181582492Y-87525472D01*
X181633044Y-87511926D01*
X181684736Y-87503739D01*
X181737000Y-87501000D01*
X181789264Y-87503739D01*
X181840956Y-87511926D01*
X181891508Y-87525472D01*
X181940368Y-87544227D01*
X181987000Y-87567987D01*
X182030893Y-87596492D01*
X182071565Y-87629428D01*
X182108572Y-87666435D01*
X182141508Y-87707107D01*
X182170013Y-87751000D01*
X182193773Y-87797632D01*
X182212528Y-87846492D01*
X182226074Y-87897044D01*
X182234261Y-87948736D01*
X182237000Y-88001000D01*
X182237000Y-89801000D01*
X182234261Y-89853264D01*
X182226074Y-89904956D01*
X182212528Y-89955508D01*
X182193773Y-90004368D01*
X182170013Y-90051000D01*
X182141508Y-90094893D01*
X182108572Y-90135565D01*
X182071565Y-90172572D01*
X182030893Y-90205508D01*
X181987000Y-90234013D01*
X181940368Y-90257773D01*
X181891508Y-90276528D01*
X181840956Y-90290074D01*
X181789264Y-90298261D01*
X181737000Y-90301000D01*
X181684736Y-90298261D01*
X181633044Y-90290074D01*
X181582492Y-90276528D01*
X181533632Y-90257773D01*
X181487000Y-90234013D01*
X181443107Y-90205508D01*
X181402435Y-90172572D01*
X181365428Y-90135565D01*
X181332492Y-90094893D01*
X181303987Y-90051000D01*
X181280227Y-90004368D01*
X181261472Y-89955508D01*
X181247926Y-89904956D01*
X181239739Y-89853264D01*
X181237000Y-89801000D01*
X181237000Y-88901000D01*
G37*
X181237000Y-88901000D02*
X181237000Y-88001000D01*
X181239739Y-87948736D01*
X181247926Y-87897044D01*
X181261472Y-87846492D01*
X181280227Y-87797632D01*
X181303987Y-87751000D01*
X181332492Y-87707107D01*
X181365428Y-87666435D01*
X181402435Y-87629428D01*
X181443107Y-87596492D01*
X181487000Y-87567987D01*
X181533632Y-87544227D01*
X181582492Y-87525472D01*
X181633044Y-87511926D01*
X181684736Y-87503739D01*
X181737000Y-87501000D01*
X181789264Y-87503739D01*
X181840956Y-87511926D01*
X181891508Y-87525472D01*
X181940368Y-87544227D01*
X181987000Y-87567987D01*
X182030893Y-87596492D01*
X182071565Y-87629428D01*
X182108572Y-87666435D01*
X182141508Y-87707107D01*
X182170013Y-87751000D01*
X182193773Y-87797632D01*
X182212528Y-87846492D01*
X182226074Y-87897044D01*
X182234261Y-87948736D01*
X182237000Y-88001000D01*
X182237000Y-89801000D01*
X182234261Y-89853264D01*
X182226074Y-89904956D01*
X182212528Y-89955508D01*
X182193773Y-90004368D01*
X182170013Y-90051000D01*
X182141508Y-90094893D01*
X182108572Y-90135565D01*
X182071565Y-90172572D01*
X182030893Y-90205508D01*
X181987000Y-90234013D01*
X181940368Y-90257773D01*
X181891508Y-90276528D01*
X181840956Y-90290074D01*
X181789264Y-90298261D01*
X181737000Y-90301000D01*
X181684736Y-90298261D01*
X181633044Y-90290074D01*
X181582492Y-90276528D01*
X181533632Y-90257773D01*
X181487000Y-90234013D01*
X181443107Y-90205508D01*
X181402435Y-90172572D01*
X181365428Y-90135565D01*
X181332492Y-90094893D01*
X181303987Y-90051000D01*
X181280227Y-90004368D01*
X181261472Y-89955508D01*
X181247926Y-89904956D01*
X181239739Y-89853264D01*
X181237000Y-89801000D01*
X181237000Y-88901000D01*
G36*
X176157000Y-104901000D02*
G01*
X176157000Y-104001000D01*
X176159739Y-103948736D01*
X176167926Y-103897044D01*
X176181472Y-103846492D01*
X176200227Y-103797632D01*
X176223987Y-103751000D01*
X176252492Y-103707107D01*
X176285428Y-103666435D01*
X176322435Y-103629428D01*
X176363107Y-103596492D01*
X176407000Y-103567987D01*
X176453632Y-103544227D01*
X176502492Y-103525472D01*
X176553044Y-103511926D01*
X176604736Y-103503739D01*
X176657000Y-103501000D01*
X176709264Y-103503739D01*
X176760956Y-103511926D01*
X176811508Y-103525472D01*
X176860368Y-103544227D01*
X176907000Y-103567987D01*
X176950893Y-103596492D01*
X176991565Y-103629428D01*
X177028572Y-103666435D01*
X177061508Y-103707107D01*
X177090013Y-103751000D01*
X177113773Y-103797632D01*
X177132528Y-103846492D01*
X177146074Y-103897044D01*
X177154261Y-103948736D01*
X177157000Y-104001000D01*
X177157000Y-105801000D01*
X177154261Y-105853264D01*
X177146074Y-105904956D01*
X177132528Y-105955508D01*
X177113773Y-106004368D01*
X177090013Y-106051000D01*
X177061508Y-106094893D01*
X177028572Y-106135565D01*
X176991565Y-106172572D01*
X176950893Y-106205508D01*
X176907000Y-106234013D01*
X176860368Y-106257773D01*
X176811508Y-106276528D01*
X176760956Y-106290074D01*
X176709264Y-106298261D01*
X176657000Y-106301000D01*
X176604736Y-106298261D01*
X176553044Y-106290074D01*
X176502492Y-106276528D01*
X176453632Y-106257773D01*
X176407000Y-106234013D01*
X176363107Y-106205508D01*
X176322435Y-106172572D01*
X176285428Y-106135565D01*
X176252492Y-106094893D01*
X176223987Y-106051000D01*
X176200227Y-106004368D01*
X176181472Y-105955508D01*
X176167926Y-105904956D01*
X176159739Y-105853264D01*
X176157000Y-105801000D01*
X176157000Y-104901000D01*
G37*
X176157000Y-104901000D02*
X176157000Y-104001000D01*
X176159739Y-103948736D01*
X176167926Y-103897044D01*
X176181472Y-103846492D01*
X176200227Y-103797632D01*
X176223987Y-103751000D01*
X176252492Y-103707107D01*
X176285428Y-103666435D01*
X176322435Y-103629428D01*
X176363107Y-103596492D01*
X176407000Y-103567987D01*
X176453632Y-103544227D01*
X176502492Y-103525472D01*
X176553044Y-103511926D01*
X176604736Y-103503739D01*
X176657000Y-103501000D01*
X176709264Y-103503739D01*
X176760956Y-103511926D01*
X176811508Y-103525472D01*
X176860368Y-103544227D01*
X176907000Y-103567987D01*
X176950893Y-103596492D01*
X176991565Y-103629428D01*
X177028572Y-103666435D01*
X177061508Y-103707107D01*
X177090013Y-103751000D01*
X177113773Y-103797632D01*
X177132528Y-103846492D01*
X177146074Y-103897044D01*
X177154261Y-103948736D01*
X177157000Y-104001000D01*
X177157000Y-105801000D01*
X177154261Y-105853264D01*
X177146074Y-105904956D01*
X177132528Y-105955508D01*
X177113773Y-106004368D01*
X177090013Y-106051000D01*
X177061508Y-106094893D01*
X177028572Y-106135565D01*
X176991565Y-106172572D01*
X176950893Y-106205508D01*
X176907000Y-106234013D01*
X176860368Y-106257773D01*
X176811508Y-106276528D01*
X176760956Y-106290074D01*
X176709264Y-106298261D01*
X176657000Y-106301000D01*
X176604736Y-106298261D01*
X176553044Y-106290074D01*
X176502492Y-106276528D01*
X176453632Y-106257773D01*
X176407000Y-106234013D01*
X176363107Y-106205508D01*
X176322435Y-106172572D01*
X176285428Y-106135565D01*
X176252492Y-106094893D01*
X176223987Y-106051000D01*
X176200227Y-106004368D01*
X176181472Y-105955508D01*
X176167926Y-105904956D01*
X176159739Y-105853264D01*
X176157000Y-105801000D01*
X176157000Y-104901000D01*
G36*
X178697000Y-104901000D02*
G01*
X178697000Y-104001000D01*
X178699739Y-103948736D01*
X178707926Y-103897044D01*
X178721472Y-103846492D01*
X178740227Y-103797632D01*
X178763987Y-103751000D01*
X178792492Y-103707107D01*
X178825428Y-103666435D01*
X178862435Y-103629428D01*
X178903107Y-103596492D01*
X178947000Y-103567987D01*
X178993632Y-103544227D01*
X179042492Y-103525472D01*
X179093044Y-103511926D01*
X179144736Y-103503739D01*
X179197000Y-103501000D01*
X179249264Y-103503739D01*
X179300956Y-103511926D01*
X179351508Y-103525472D01*
X179400368Y-103544227D01*
X179447000Y-103567987D01*
X179490893Y-103596492D01*
X179531565Y-103629428D01*
X179568572Y-103666435D01*
X179601508Y-103707107D01*
X179630013Y-103751000D01*
X179653773Y-103797632D01*
X179672528Y-103846492D01*
X179686074Y-103897044D01*
X179694261Y-103948736D01*
X179697000Y-104001000D01*
X179697000Y-105801000D01*
X179694261Y-105853264D01*
X179686074Y-105904956D01*
X179672528Y-105955508D01*
X179653773Y-106004368D01*
X179630013Y-106051000D01*
X179601508Y-106094893D01*
X179568572Y-106135565D01*
X179531565Y-106172572D01*
X179490893Y-106205508D01*
X179447000Y-106234013D01*
X179400368Y-106257773D01*
X179351508Y-106276528D01*
X179300956Y-106290074D01*
X179249264Y-106298261D01*
X179197000Y-106301000D01*
X179144736Y-106298261D01*
X179093044Y-106290074D01*
X179042492Y-106276528D01*
X178993632Y-106257773D01*
X178947000Y-106234013D01*
X178903107Y-106205508D01*
X178862435Y-106172572D01*
X178825428Y-106135565D01*
X178792492Y-106094893D01*
X178763987Y-106051000D01*
X178740227Y-106004368D01*
X178721472Y-105955508D01*
X178707926Y-105904956D01*
X178699739Y-105853264D01*
X178697000Y-105801000D01*
X178697000Y-104901000D01*
G37*
X178697000Y-104901000D02*
X178697000Y-104001000D01*
X178699739Y-103948736D01*
X178707926Y-103897044D01*
X178721472Y-103846492D01*
X178740227Y-103797632D01*
X178763987Y-103751000D01*
X178792492Y-103707107D01*
X178825428Y-103666435D01*
X178862435Y-103629428D01*
X178903107Y-103596492D01*
X178947000Y-103567987D01*
X178993632Y-103544227D01*
X179042492Y-103525472D01*
X179093044Y-103511926D01*
X179144736Y-103503739D01*
X179197000Y-103501000D01*
X179249264Y-103503739D01*
X179300956Y-103511926D01*
X179351508Y-103525472D01*
X179400368Y-103544227D01*
X179447000Y-103567987D01*
X179490893Y-103596492D01*
X179531565Y-103629428D01*
X179568572Y-103666435D01*
X179601508Y-103707107D01*
X179630013Y-103751000D01*
X179653773Y-103797632D01*
X179672528Y-103846492D01*
X179686074Y-103897044D01*
X179694261Y-103948736D01*
X179697000Y-104001000D01*
X179697000Y-105801000D01*
X179694261Y-105853264D01*
X179686074Y-105904956D01*
X179672528Y-105955508D01*
X179653773Y-106004368D01*
X179630013Y-106051000D01*
X179601508Y-106094893D01*
X179568572Y-106135565D01*
X179531565Y-106172572D01*
X179490893Y-106205508D01*
X179447000Y-106234013D01*
X179400368Y-106257773D01*
X179351508Y-106276528D01*
X179300956Y-106290074D01*
X179249264Y-106298261D01*
X179197000Y-106301000D01*
X179144736Y-106298261D01*
X179093044Y-106290074D01*
X179042492Y-106276528D01*
X178993632Y-106257773D01*
X178947000Y-106234013D01*
X178903107Y-106205508D01*
X178862435Y-106172572D01*
X178825428Y-106135565D01*
X178792492Y-106094893D01*
X178763987Y-106051000D01*
X178740227Y-106004368D01*
X178721472Y-105955508D01*
X178707926Y-105904956D01*
X178699739Y-105853264D01*
X178697000Y-105801000D01*
X178697000Y-104901000D01*
G36*
X181237000Y-104901000D02*
G01*
X181237000Y-104001000D01*
X181239739Y-103948736D01*
X181247926Y-103897044D01*
X181261472Y-103846492D01*
X181280227Y-103797632D01*
X181303987Y-103751000D01*
X181332492Y-103707107D01*
X181365428Y-103666435D01*
X181402435Y-103629428D01*
X181443107Y-103596492D01*
X181487000Y-103567987D01*
X181533632Y-103544227D01*
X181582492Y-103525472D01*
X181633044Y-103511926D01*
X181684736Y-103503739D01*
X181737000Y-103501000D01*
X181789264Y-103503739D01*
X181840956Y-103511926D01*
X181891508Y-103525472D01*
X181940368Y-103544227D01*
X181987000Y-103567987D01*
X182030893Y-103596492D01*
X182071565Y-103629428D01*
X182108572Y-103666435D01*
X182141508Y-103707107D01*
X182170013Y-103751000D01*
X182193773Y-103797632D01*
X182212528Y-103846492D01*
X182226074Y-103897044D01*
X182234261Y-103948736D01*
X182237000Y-104001000D01*
X182237000Y-105801000D01*
X182234261Y-105853264D01*
X182226074Y-105904956D01*
X182212528Y-105955508D01*
X182193773Y-106004368D01*
X182170013Y-106051000D01*
X182141508Y-106094893D01*
X182108572Y-106135565D01*
X182071565Y-106172572D01*
X182030893Y-106205508D01*
X181987000Y-106234013D01*
X181940368Y-106257773D01*
X181891508Y-106276528D01*
X181840956Y-106290074D01*
X181789264Y-106298261D01*
X181737000Y-106301000D01*
X181684736Y-106298261D01*
X181633044Y-106290074D01*
X181582492Y-106276528D01*
X181533632Y-106257773D01*
X181487000Y-106234013D01*
X181443107Y-106205508D01*
X181402435Y-106172572D01*
X181365428Y-106135565D01*
X181332492Y-106094893D01*
X181303987Y-106051000D01*
X181280227Y-106004368D01*
X181261472Y-105955508D01*
X181247926Y-105904956D01*
X181239739Y-105853264D01*
X181237000Y-105801000D01*
X181237000Y-104901000D01*
G37*
X181237000Y-104901000D02*
X181237000Y-104001000D01*
X181239739Y-103948736D01*
X181247926Y-103897044D01*
X181261472Y-103846492D01*
X181280227Y-103797632D01*
X181303987Y-103751000D01*
X181332492Y-103707107D01*
X181365428Y-103666435D01*
X181402435Y-103629428D01*
X181443107Y-103596492D01*
X181487000Y-103567987D01*
X181533632Y-103544227D01*
X181582492Y-103525472D01*
X181633044Y-103511926D01*
X181684736Y-103503739D01*
X181737000Y-103501000D01*
X181789264Y-103503739D01*
X181840956Y-103511926D01*
X181891508Y-103525472D01*
X181940368Y-103544227D01*
X181987000Y-103567987D01*
X182030893Y-103596492D01*
X182071565Y-103629428D01*
X182108572Y-103666435D01*
X182141508Y-103707107D01*
X182170013Y-103751000D01*
X182193773Y-103797632D01*
X182212528Y-103846492D01*
X182226074Y-103897044D01*
X182234261Y-103948736D01*
X182237000Y-104001000D01*
X182237000Y-105801000D01*
X182234261Y-105853264D01*
X182226074Y-105904956D01*
X182212528Y-105955508D01*
X182193773Y-106004368D01*
X182170013Y-106051000D01*
X182141508Y-106094893D01*
X182108572Y-106135565D01*
X182071565Y-106172572D01*
X182030893Y-106205508D01*
X181987000Y-106234013D01*
X181940368Y-106257773D01*
X181891508Y-106276528D01*
X181840956Y-106290074D01*
X181789264Y-106298261D01*
X181737000Y-106301000D01*
X181684736Y-106298261D01*
X181633044Y-106290074D01*
X181582492Y-106276528D01*
X181533632Y-106257773D01*
X181487000Y-106234013D01*
X181443107Y-106205508D01*
X181402435Y-106172572D01*
X181365428Y-106135565D01*
X181332492Y-106094893D01*
X181303987Y-106051000D01*
X181280227Y-106004368D01*
X181261472Y-105955508D01*
X181247926Y-105904956D01*
X181239739Y-105853264D01*
X181237000Y-105801000D01*
X181237000Y-104901000D01*
G36*
X171077000Y-104901000D02*
G01*
X171077000Y-104001000D01*
X171079739Y-103948736D01*
X171087926Y-103897044D01*
X171101472Y-103846492D01*
X171120227Y-103797632D01*
X171143987Y-103751000D01*
X171172492Y-103707107D01*
X171205428Y-103666435D01*
X171242435Y-103629428D01*
X171283107Y-103596492D01*
X171327000Y-103567987D01*
X171373632Y-103544227D01*
X171422492Y-103525472D01*
X171473044Y-103511926D01*
X171524736Y-103503739D01*
X171577000Y-103501000D01*
X171629264Y-103503739D01*
X171680956Y-103511926D01*
X171731508Y-103525472D01*
X171780368Y-103544227D01*
X171827000Y-103567987D01*
X171870893Y-103596492D01*
X171911565Y-103629428D01*
X171948572Y-103666435D01*
X171981508Y-103707107D01*
X172010013Y-103751000D01*
X172033773Y-103797632D01*
X172052528Y-103846492D01*
X172066074Y-103897044D01*
X172074261Y-103948736D01*
X172077000Y-104001000D01*
X172077000Y-105801000D01*
X172074261Y-105853264D01*
X172066074Y-105904956D01*
X172052528Y-105955508D01*
X172033773Y-106004368D01*
X172010013Y-106051000D01*
X171981508Y-106094893D01*
X171948572Y-106135565D01*
X171911565Y-106172572D01*
X171870893Y-106205508D01*
X171827000Y-106234013D01*
X171780368Y-106257773D01*
X171731508Y-106276528D01*
X171680956Y-106290074D01*
X171629264Y-106298261D01*
X171577000Y-106301000D01*
X171524736Y-106298261D01*
X171473044Y-106290074D01*
X171422492Y-106276528D01*
X171373632Y-106257773D01*
X171327000Y-106234013D01*
X171283107Y-106205508D01*
X171242435Y-106172572D01*
X171205428Y-106135565D01*
X171172492Y-106094893D01*
X171143987Y-106051000D01*
X171120227Y-106004368D01*
X171101472Y-105955508D01*
X171087926Y-105904956D01*
X171079739Y-105853264D01*
X171077000Y-105801000D01*
X171077000Y-104901000D01*
G37*
X171077000Y-104901000D02*
X171077000Y-104001000D01*
X171079739Y-103948736D01*
X171087926Y-103897044D01*
X171101472Y-103846492D01*
X171120227Y-103797632D01*
X171143987Y-103751000D01*
X171172492Y-103707107D01*
X171205428Y-103666435D01*
X171242435Y-103629428D01*
X171283107Y-103596492D01*
X171327000Y-103567987D01*
X171373632Y-103544227D01*
X171422492Y-103525472D01*
X171473044Y-103511926D01*
X171524736Y-103503739D01*
X171577000Y-103501000D01*
X171629264Y-103503739D01*
X171680956Y-103511926D01*
X171731508Y-103525472D01*
X171780368Y-103544227D01*
X171827000Y-103567987D01*
X171870893Y-103596492D01*
X171911565Y-103629428D01*
X171948572Y-103666435D01*
X171981508Y-103707107D01*
X172010013Y-103751000D01*
X172033773Y-103797632D01*
X172052528Y-103846492D01*
X172066074Y-103897044D01*
X172074261Y-103948736D01*
X172077000Y-104001000D01*
X172077000Y-105801000D01*
X172074261Y-105853264D01*
X172066074Y-105904956D01*
X172052528Y-105955508D01*
X172033773Y-106004368D01*
X172010013Y-106051000D01*
X171981508Y-106094893D01*
X171948572Y-106135565D01*
X171911565Y-106172572D01*
X171870893Y-106205508D01*
X171827000Y-106234013D01*
X171780368Y-106257773D01*
X171731508Y-106276528D01*
X171680956Y-106290074D01*
X171629264Y-106298261D01*
X171577000Y-106301000D01*
X171524736Y-106298261D01*
X171473044Y-106290074D01*
X171422492Y-106276528D01*
X171373632Y-106257773D01*
X171327000Y-106234013D01*
X171283107Y-106205508D01*
X171242435Y-106172572D01*
X171205428Y-106135565D01*
X171172492Y-106094893D01*
X171143987Y-106051000D01*
X171120227Y-106004368D01*
X171101472Y-105955508D01*
X171087926Y-105904956D01*
X171079739Y-105853264D01*
X171077000Y-105801000D01*
X171077000Y-104901000D01*
G36*
X168537000Y-104901000D02*
G01*
X168537000Y-104001000D01*
X168539739Y-103948736D01*
X168547926Y-103897044D01*
X168561472Y-103846492D01*
X168580227Y-103797632D01*
X168603987Y-103751000D01*
X168632492Y-103707107D01*
X168665428Y-103666435D01*
X168702435Y-103629428D01*
X168743107Y-103596492D01*
X168787000Y-103567987D01*
X168833632Y-103544227D01*
X168882492Y-103525472D01*
X168933044Y-103511926D01*
X168984736Y-103503739D01*
X169037000Y-103501000D01*
X169089264Y-103503739D01*
X169140956Y-103511926D01*
X169191508Y-103525472D01*
X169240368Y-103544227D01*
X169287000Y-103567987D01*
X169330893Y-103596492D01*
X169371565Y-103629428D01*
X169408572Y-103666435D01*
X169441508Y-103707107D01*
X169470013Y-103751000D01*
X169493773Y-103797632D01*
X169512528Y-103846492D01*
X169526074Y-103897044D01*
X169534261Y-103948736D01*
X169537000Y-104001000D01*
X169537000Y-105801000D01*
X169534261Y-105853264D01*
X169526074Y-105904956D01*
X169512528Y-105955508D01*
X169493773Y-106004368D01*
X169470013Y-106051000D01*
X169441508Y-106094893D01*
X169408572Y-106135565D01*
X169371565Y-106172572D01*
X169330893Y-106205508D01*
X169287000Y-106234013D01*
X169240368Y-106257773D01*
X169191508Y-106276528D01*
X169140956Y-106290074D01*
X169089264Y-106298261D01*
X169037000Y-106301000D01*
X168984736Y-106298261D01*
X168933044Y-106290074D01*
X168882492Y-106276528D01*
X168833632Y-106257773D01*
X168787000Y-106234013D01*
X168743107Y-106205508D01*
X168702435Y-106172572D01*
X168665428Y-106135565D01*
X168632492Y-106094893D01*
X168603987Y-106051000D01*
X168580227Y-106004368D01*
X168561472Y-105955508D01*
X168547926Y-105904956D01*
X168539739Y-105853264D01*
X168537000Y-105801000D01*
X168537000Y-104901000D01*
G37*
X168537000Y-104901000D02*
X168537000Y-104001000D01*
X168539739Y-103948736D01*
X168547926Y-103897044D01*
X168561472Y-103846492D01*
X168580227Y-103797632D01*
X168603987Y-103751000D01*
X168632492Y-103707107D01*
X168665428Y-103666435D01*
X168702435Y-103629428D01*
X168743107Y-103596492D01*
X168787000Y-103567987D01*
X168833632Y-103544227D01*
X168882492Y-103525472D01*
X168933044Y-103511926D01*
X168984736Y-103503739D01*
X169037000Y-103501000D01*
X169089264Y-103503739D01*
X169140956Y-103511926D01*
X169191508Y-103525472D01*
X169240368Y-103544227D01*
X169287000Y-103567987D01*
X169330893Y-103596492D01*
X169371565Y-103629428D01*
X169408572Y-103666435D01*
X169441508Y-103707107D01*
X169470013Y-103751000D01*
X169493773Y-103797632D01*
X169512528Y-103846492D01*
X169526074Y-103897044D01*
X169534261Y-103948736D01*
X169537000Y-104001000D01*
X169537000Y-105801000D01*
X169534261Y-105853264D01*
X169526074Y-105904956D01*
X169512528Y-105955508D01*
X169493773Y-106004368D01*
X169470013Y-106051000D01*
X169441508Y-106094893D01*
X169408572Y-106135565D01*
X169371565Y-106172572D01*
X169330893Y-106205508D01*
X169287000Y-106234013D01*
X169240368Y-106257773D01*
X169191508Y-106276528D01*
X169140956Y-106290074D01*
X169089264Y-106298261D01*
X169037000Y-106301000D01*
X168984736Y-106298261D01*
X168933044Y-106290074D01*
X168882492Y-106276528D01*
X168833632Y-106257773D01*
X168787000Y-106234013D01*
X168743107Y-106205508D01*
X168702435Y-106172572D01*
X168665428Y-106135565D01*
X168632492Y-106094893D01*
X168603987Y-106051000D01*
X168580227Y-106004368D01*
X168561472Y-105955508D01*
X168547926Y-105904956D01*
X168539739Y-105853264D01*
X168537000Y-105801000D01*
X168537000Y-104901000D01*
%TD*%
%TO.C,C18*%
G36*
G01*
X194219600Y-96589401D02*
X194219600Y-95739399D01*
G75*
G02*
X194469599Y-95489400I249999J0D01*
G01*
X195369601Y-95489400D01*
G75*
G02*
X195619600Y-95739399I0J-249999D01*
G01*
X195619600Y-96589401D01*
G75*
G02*
X195369601Y-96839400I-249999J0D01*
G01*
X194469599Y-96839400D01*
G75*
G02*
X194219600Y-96589401I0J249999D01*
G01*
G37*
G36*
G01*
X196919600Y-96589401D02*
X196919600Y-95739399D01*
G75*
G02*
X197169599Y-95489400I249999J0D01*
G01*
X198069601Y-95489400D01*
G75*
G02*
X198319600Y-95739399I0J-249999D01*
G01*
X198319600Y-96589401D01*
G75*
G02*
X198069601Y-96839400I-249999J0D01*
G01*
X197169599Y-96839400D01*
G75*
G02*
X196919600Y-96589401I0J249999D01*
G01*
G37*
%TD*%
%TO.C,C17*%
G36*
G01*
X117045300Y-81370999D02*
X117045300Y-83221001D01*
G75*
G02*
X116795301Y-83471000I-249999J0D01*
G01*
X115970299Y-83471000D01*
G75*
G02*
X115720300Y-83221001I0J249999D01*
G01*
X115720300Y-81370999D01*
G75*
G02*
X115970299Y-81121000I249999J0D01*
G01*
X116795301Y-81121000D01*
G75*
G02*
X117045300Y-81370999I0J-249999D01*
G01*
G37*
G36*
G01*
X120120300Y-81370999D02*
X120120300Y-83221001D01*
G75*
G02*
X119870301Y-83471000I-249999J0D01*
G01*
X119045299Y-83471000D01*
G75*
G02*
X118795300Y-83221001I0J249999D01*
G01*
X118795300Y-81370999D01*
G75*
G02*
X119045299Y-81121000I249999J0D01*
G01*
X119870301Y-81121000D01*
G75*
G02*
X120120300Y-81370999I0J-249999D01*
G01*
G37*
%TD*%
D12*
%TO.C,Q4*%
X184507000Y-82423000D03*
X181507000Y-83373000D03*
X181507000Y-81473000D03*
%TD*%
D13*
%TO.C,U6*%
X157302200Y-83693000D03*
D14*
X156052200Y-81699100D03*
X156552199Y-81699100D03*
X157052200Y-81699100D03*
X157552200Y-81699100D03*
X158052201Y-81699100D03*
X158552200Y-81699100D03*
D15*
X159296100Y-82443000D03*
X159296100Y-82942999D03*
X159296100Y-83443000D03*
X159296100Y-83943000D03*
X159296100Y-84443001D03*
X159296100Y-84943000D03*
D14*
X158552200Y-85686900D03*
X158052201Y-85686900D03*
X157552200Y-85686900D03*
X157052200Y-85686900D03*
X156552199Y-85686900D03*
X156052200Y-85686900D03*
D15*
X155308300Y-84943000D03*
X155308300Y-84443001D03*
X155308300Y-83943000D03*
X155308300Y-83443000D03*
X155308300Y-82942999D03*
X155308300Y-82443000D03*
%TD*%
%TO.C,U4*%
G36*
G01*
X130060000Y-98246000D02*
X130060000Y-97796000D01*
G75*
G02*
X130285000Y-97571000I225000J0D01*
G01*
X130735000Y-97571000D01*
G75*
G02*
X130960000Y-97796000I0J-225000D01*
G01*
X130960000Y-98246000D01*
G75*
G02*
X130735000Y-98471000I-225000J0D01*
G01*
X130285000Y-98471000D01*
G75*
G02*
X130060000Y-98246000I0J225000D01*
G01*
G37*
G36*
G01*
X130060000Y-97126000D02*
X130060000Y-96676000D01*
G75*
G02*
X130285000Y-96451000I225000J0D01*
G01*
X130735000Y-96451000D01*
G75*
G02*
X130960000Y-96676000I0J-225000D01*
G01*
X130960000Y-97126000D01*
G75*
G02*
X130735000Y-97351000I-225000J0D01*
G01*
X130285000Y-97351000D01*
G75*
G02*
X130060000Y-97126000I0J225000D01*
G01*
G37*
G36*
G01*
X130060000Y-96006000D02*
X130060000Y-95556000D01*
G75*
G02*
X130285000Y-95331000I225000J0D01*
G01*
X130735000Y-95331000D01*
G75*
G02*
X130960000Y-95556000I0J-225000D01*
G01*
X130960000Y-96006000D01*
G75*
G02*
X130735000Y-96231000I-225000J0D01*
G01*
X130285000Y-96231000D01*
G75*
G02*
X130060000Y-96006000I0J225000D01*
G01*
G37*
G36*
G01*
X128940000Y-98246000D02*
X128940000Y-97796000D01*
G75*
G02*
X129165000Y-97571000I225000J0D01*
G01*
X129615000Y-97571000D01*
G75*
G02*
X129840000Y-97796000I0J-225000D01*
G01*
X129840000Y-98246000D01*
G75*
G02*
X129615000Y-98471000I-225000J0D01*
G01*
X129165000Y-98471000D01*
G75*
G02*
X128940000Y-98246000I0J225000D01*
G01*
G37*
G36*
G01*
X128940000Y-97126000D02*
X128940000Y-96676000D01*
G75*
G02*
X129165000Y-96451000I225000J0D01*
G01*
X129615000Y-96451000D01*
G75*
G02*
X129840000Y-96676000I0J-225000D01*
G01*
X129840000Y-97126000D01*
G75*
G02*
X129615000Y-97351000I-225000J0D01*
G01*
X129165000Y-97351000D01*
G75*
G02*
X128940000Y-97126000I0J225000D01*
G01*
G37*
G36*
G01*
X128940000Y-96006000D02*
X128940000Y-95556000D01*
G75*
G02*
X129165000Y-95331000I225000J0D01*
G01*
X129615000Y-95331000D01*
G75*
G02*
X129840000Y-95556000I0J-225000D01*
G01*
X129840000Y-96006000D01*
G75*
G02*
X129615000Y-96231000I-225000J0D01*
G01*
X129165000Y-96231000D01*
G75*
G02*
X128940000Y-96006000I0J225000D01*
G01*
G37*
G36*
G01*
X127820000Y-98246000D02*
X127820000Y-97796000D01*
G75*
G02*
X128045000Y-97571000I225000J0D01*
G01*
X128495000Y-97571000D01*
G75*
G02*
X128720000Y-97796000I0J-225000D01*
G01*
X128720000Y-98246000D01*
G75*
G02*
X128495000Y-98471000I-225000J0D01*
G01*
X128045000Y-98471000D01*
G75*
G02*
X127820000Y-98246000I0J225000D01*
G01*
G37*
G36*
G01*
X127820000Y-97126000D02*
X127820000Y-96676000D01*
G75*
G02*
X128045000Y-96451000I225000J0D01*
G01*
X128495000Y-96451000D01*
G75*
G02*
X128720000Y-96676000I0J-225000D01*
G01*
X128720000Y-97126000D01*
G75*
G02*
X128495000Y-97351000I-225000J0D01*
G01*
X128045000Y-97351000D01*
G75*
G02*
X127820000Y-97126000I0J225000D01*
G01*
G37*
G36*
G01*
X127820000Y-96006000D02*
X127820000Y-95556000D01*
G75*
G02*
X128045000Y-95331000I225000J0D01*
G01*
X128495000Y-95331000D01*
G75*
G02*
X128720000Y-95556000I0J-225000D01*
G01*
X128720000Y-96006000D01*
G75*
G02*
X128495000Y-96231000I-225000J0D01*
G01*
X128045000Y-96231000D01*
G75*
G02*
X127820000Y-96006000I0J225000D01*
G01*
G37*
G36*
G01*
X127765000Y-94788500D02*
X127765000Y-94113500D01*
G75*
G02*
X127827500Y-94051000I62500J0D01*
G01*
X127952500Y-94051000D01*
G75*
G02*
X128015000Y-94113500I0J-62500D01*
G01*
X128015000Y-94788500D01*
G75*
G02*
X127952500Y-94851000I-62500J0D01*
G01*
X127827500Y-94851000D01*
G75*
G02*
X127765000Y-94788500I0J62500D01*
G01*
G37*
G36*
G01*
X128265000Y-94788500D02*
X128265000Y-94113500D01*
G75*
G02*
X128327500Y-94051000I62500J0D01*
G01*
X128452500Y-94051000D01*
G75*
G02*
X128515000Y-94113500I0J-62500D01*
G01*
X128515000Y-94788500D01*
G75*
G02*
X128452500Y-94851000I-62500J0D01*
G01*
X128327500Y-94851000D01*
G75*
G02*
X128265000Y-94788500I0J62500D01*
G01*
G37*
G36*
G01*
X128765000Y-94788500D02*
X128765000Y-94113500D01*
G75*
G02*
X128827500Y-94051000I62500J0D01*
G01*
X128952500Y-94051000D01*
G75*
G02*
X129015000Y-94113500I0J-62500D01*
G01*
X129015000Y-94788500D01*
G75*
G02*
X128952500Y-94851000I-62500J0D01*
G01*
X128827500Y-94851000D01*
G75*
G02*
X128765000Y-94788500I0J62500D01*
G01*
G37*
G36*
G01*
X129265000Y-94788500D02*
X129265000Y-94113500D01*
G75*
G02*
X129327500Y-94051000I62500J0D01*
G01*
X129452500Y-94051000D01*
G75*
G02*
X129515000Y-94113500I0J-62500D01*
G01*
X129515000Y-94788500D01*
G75*
G02*
X129452500Y-94851000I-62500J0D01*
G01*
X129327500Y-94851000D01*
G75*
G02*
X129265000Y-94788500I0J62500D01*
G01*
G37*
G36*
G01*
X129765000Y-94788500D02*
X129765000Y-94113500D01*
G75*
G02*
X129827500Y-94051000I62500J0D01*
G01*
X129952500Y-94051000D01*
G75*
G02*
X130015000Y-94113500I0J-62500D01*
G01*
X130015000Y-94788500D01*
G75*
G02*
X129952500Y-94851000I-62500J0D01*
G01*
X129827500Y-94851000D01*
G75*
G02*
X129765000Y-94788500I0J62500D01*
G01*
G37*
G36*
G01*
X130265000Y-94788500D02*
X130265000Y-94113500D01*
G75*
G02*
X130327500Y-94051000I62500J0D01*
G01*
X130452500Y-94051000D01*
G75*
G02*
X130515000Y-94113500I0J-62500D01*
G01*
X130515000Y-94788500D01*
G75*
G02*
X130452500Y-94851000I-62500J0D01*
G01*
X130327500Y-94851000D01*
G75*
G02*
X130265000Y-94788500I0J62500D01*
G01*
G37*
G36*
G01*
X130765000Y-94788500D02*
X130765000Y-94113500D01*
G75*
G02*
X130827500Y-94051000I62500J0D01*
G01*
X130952500Y-94051000D01*
G75*
G02*
X131015000Y-94113500I0J-62500D01*
G01*
X131015000Y-94788500D01*
G75*
G02*
X130952500Y-94851000I-62500J0D01*
G01*
X130827500Y-94851000D01*
G75*
G02*
X130765000Y-94788500I0J62500D01*
G01*
G37*
G36*
G01*
X131440000Y-95463500D02*
X131440000Y-95338500D01*
G75*
G02*
X131502500Y-95276000I62500J0D01*
G01*
X132177500Y-95276000D01*
G75*
G02*
X132240000Y-95338500I0J-62500D01*
G01*
X132240000Y-95463500D01*
G75*
G02*
X132177500Y-95526000I-62500J0D01*
G01*
X131502500Y-95526000D01*
G75*
G02*
X131440000Y-95463500I0J62500D01*
G01*
G37*
G36*
G01*
X131440000Y-95963500D02*
X131440000Y-95838500D01*
G75*
G02*
X131502500Y-95776000I62500J0D01*
G01*
X132177500Y-95776000D01*
G75*
G02*
X132240000Y-95838500I0J-62500D01*
G01*
X132240000Y-95963500D01*
G75*
G02*
X132177500Y-96026000I-62500J0D01*
G01*
X131502500Y-96026000D01*
G75*
G02*
X131440000Y-95963500I0J62500D01*
G01*
G37*
G36*
G01*
X131440000Y-96463500D02*
X131440000Y-96338500D01*
G75*
G02*
X131502500Y-96276000I62500J0D01*
G01*
X132177500Y-96276000D01*
G75*
G02*
X132240000Y-96338500I0J-62500D01*
G01*
X132240000Y-96463500D01*
G75*
G02*
X132177500Y-96526000I-62500J0D01*
G01*
X131502500Y-96526000D01*
G75*
G02*
X131440000Y-96463500I0J62500D01*
G01*
G37*
G36*
G01*
X131440000Y-96963500D02*
X131440000Y-96838500D01*
G75*
G02*
X131502500Y-96776000I62500J0D01*
G01*
X132177500Y-96776000D01*
G75*
G02*
X132240000Y-96838500I0J-62500D01*
G01*
X132240000Y-96963500D01*
G75*
G02*
X132177500Y-97026000I-62500J0D01*
G01*
X131502500Y-97026000D01*
G75*
G02*
X131440000Y-96963500I0J62500D01*
G01*
G37*
G36*
G01*
X131440000Y-97463500D02*
X131440000Y-97338500D01*
G75*
G02*
X131502500Y-97276000I62500J0D01*
G01*
X132177500Y-97276000D01*
G75*
G02*
X132240000Y-97338500I0J-62500D01*
G01*
X132240000Y-97463500D01*
G75*
G02*
X132177500Y-97526000I-62500J0D01*
G01*
X131502500Y-97526000D01*
G75*
G02*
X131440000Y-97463500I0J62500D01*
G01*
G37*
G36*
G01*
X131440000Y-97963500D02*
X131440000Y-97838500D01*
G75*
G02*
X131502500Y-97776000I62500J0D01*
G01*
X132177500Y-97776000D01*
G75*
G02*
X132240000Y-97838500I0J-62500D01*
G01*
X132240000Y-97963500D01*
G75*
G02*
X132177500Y-98026000I-62500J0D01*
G01*
X131502500Y-98026000D01*
G75*
G02*
X131440000Y-97963500I0J62500D01*
G01*
G37*
G36*
G01*
X131440000Y-98463500D02*
X131440000Y-98338500D01*
G75*
G02*
X131502500Y-98276000I62500J0D01*
G01*
X132177500Y-98276000D01*
G75*
G02*
X132240000Y-98338500I0J-62500D01*
G01*
X132240000Y-98463500D01*
G75*
G02*
X132177500Y-98526000I-62500J0D01*
G01*
X131502500Y-98526000D01*
G75*
G02*
X131440000Y-98463500I0J62500D01*
G01*
G37*
G36*
G01*
X130765000Y-99688500D02*
X130765000Y-99013500D01*
G75*
G02*
X130827500Y-98951000I62500J0D01*
G01*
X130952500Y-98951000D01*
G75*
G02*
X131015000Y-99013500I0J-62500D01*
G01*
X131015000Y-99688500D01*
G75*
G02*
X130952500Y-99751000I-62500J0D01*
G01*
X130827500Y-99751000D01*
G75*
G02*
X130765000Y-99688500I0J62500D01*
G01*
G37*
G36*
G01*
X130265000Y-99688500D02*
X130265000Y-99013500D01*
G75*
G02*
X130327500Y-98951000I62500J0D01*
G01*
X130452500Y-98951000D01*
G75*
G02*
X130515000Y-99013500I0J-62500D01*
G01*
X130515000Y-99688500D01*
G75*
G02*
X130452500Y-99751000I-62500J0D01*
G01*
X130327500Y-99751000D01*
G75*
G02*
X130265000Y-99688500I0J62500D01*
G01*
G37*
G36*
G01*
X129765000Y-99688500D02*
X129765000Y-99013500D01*
G75*
G02*
X129827500Y-98951000I62500J0D01*
G01*
X129952500Y-98951000D01*
G75*
G02*
X130015000Y-99013500I0J-62500D01*
G01*
X130015000Y-99688500D01*
G75*
G02*
X129952500Y-99751000I-62500J0D01*
G01*
X129827500Y-99751000D01*
G75*
G02*
X129765000Y-99688500I0J62500D01*
G01*
G37*
G36*
G01*
X129265000Y-99688500D02*
X129265000Y-99013500D01*
G75*
G02*
X129327500Y-98951000I62500J0D01*
G01*
X129452500Y-98951000D01*
G75*
G02*
X129515000Y-99013500I0J-62500D01*
G01*
X129515000Y-99688500D01*
G75*
G02*
X129452500Y-99751000I-62500J0D01*
G01*
X129327500Y-99751000D01*
G75*
G02*
X129265000Y-99688500I0J62500D01*
G01*
G37*
G36*
G01*
X128765000Y-99688500D02*
X128765000Y-99013500D01*
G75*
G02*
X128827500Y-98951000I62500J0D01*
G01*
X128952500Y-98951000D01*
G75*
G02*
X129015000Y-99013500I0J-62500D01*
G01*
X129015000Y-99688500D01*
G75*
G02*
X128952500Y-99751000I-62500J0D01*
G01*
X128827500Y-99751000D01*
G75*
G02*
X128765000Y-99688500I0J62500D01*
G01*
G37*
G36*
G01*
X128265000Y-99688500D02*
X128265000Y-99013500D01*
G75*
G02*
X128327500Y-98951000I62500J0D01*
G01*
X128452500Y-98951000D01*
G75*
G02*
X128515000Y-99013500I0J-62500D01*
G01*
X128515000Y-99688500D01*
G75*
G02*
X128452500Y-99751000I-62500J0D01*
G01*
X128327500Y-99751000D01*
G75*
G02*
X128265000Y-99688500I0J62500D01*
G01*
G37*
G36*
G01*
X127765000Y-99688500D02*
X127765000Y-99013500D01*
G75*
G02*
X127827500Y-98951000I62500J0D01*
G01*
X127952500Y-98951000D01*
G75*
G02*
X128015000Y-99013500I0J-62500D01*
G01*
X128015000Y-99688500D01*
G75*
G02*
X127952500Y-99751000I-62500J0D01*
G01*
X127827500Y-99751000D01*
G75*
G02*
X127765000Y-99688500I0J62500D01*
G01*
G37*
G36*
G01*
X126540000Y-98463500D02*
X126540000Y-98338500D01*
G75*
G02*
X126602500Y-98276000I62500J0D01*
G01*
X127277500Y-98276000D01*
G75*
G02*
X127340000Y-98338500I0J-62500D01*
G01*
X127340000Y-98463500D01*
G75*
G02*
X127277500Y-98526000I-62500J0D01*
G01*
X126602500Y-98526000D01*
G75*
G02*
X126540000Y-98463500I0J62500D01*
G01*
G37*
G36*
G01*
X126540000Y-97963500D02*
X126540000Y-97838500D01*
G75*
G02*
X126602500Y-97776000I62500J0D01*
G01*
X127277500Y-97776000D01*
G75*
G02*
X127340000Y-97838500I0J-62500D01*
G01*
X127340000Y-97963500D01*
G75*
G02*
X127277500Y-98026000I-62500J0D01*
G01*
X126602500Y-98026000D01*
G75*
G02*
X126540000Y-97963500I0J62500D01*
G01*
G37*
G36*
G01*
X126540000Y-97463500D02*
X126540000Y-97338500D01*
G75*
G02*
X126602500Y-97276000I62500J0D01*
G01*
X127277500Y-97276000D01*
G75*
G02*
X127340000Y-97338500I0J-62500D01*
G01*
X127340000Y-97463500D01*
G75*
G02*
X127277500Y-97526000I-62500J0D01*
G01*
X126602500Y-97526000D01*
G75*
G02*
X126540000Y-97463500I0J62500D01*
G01*
G37*
G36*
G01*
X126540000Y-96963500D02*
X126540000Y-96838500D01*
G75*
G02*
X126602500Y-96776000I62500J0D01*
G01*
X127277500Y-96776000D01*
G75*
G02*
X127340000Y-96838500I0J-62500D01*
G01*
X127340000Y-96963500D01*
G75*
G02*
X127277500Y-97026000I-62500J0D01*
G01*
X126602500Y-97026000D01*
G75*
G02*
X126540000Y-96963500I0J62500D01*
G01*
G37*
G36*
G01*
X126540000Y-96463500D02*
X126540000Y-96338500D01*
G75*
G02*
X126602500Y-96276000I62500J0D01*
G01*
X127277500Y-96276000D01*
G75*
G02*
X127340000Y-96338500I0J-62500D01*
G01*
X127340000Y-96463500D01*
G75*
G02*
X127277500Y-96526000I-62500J0D01*
G01*
X126602500Y-96526000D01*
G75*
G02*
X126540000Y-96463500I0J62500D01*
G01*
G37*
G36*
G01*
X126540000Y-95963500D02*
X126540000Y-95838500D01*
G75*
G02*
X126602500Y-95776000I62500J0D01*
G01*
X127277500Y-95776000D01*
G75*
G02*
X127340000Y-95838500I0J-62500D01*
G01*
X127340000Y-95963500D01*
G75*
G02*
X127277500Y-96026000I-62500J0D01*
G01*
X126602500Y-96026000D01*
G75*
G02*
X126540000Y-95963500I0J62500D01*
G01*
G37*
G36*
G01*
X126540000Y-95463500D02*
X126540000Y-95338500D01*
G75*
G02*
X126602500Y-95276000I62500J0D01*
G01*
X127277500Y-95276000D01*
G75*
G02*
X127340000Y-95338500I0J-62500D01*
G01*
X127340000Y-95463500D01*
G75*
G02*
X127277500Y-95526000I-62500J0D01*
G01*
X126602500Y-95526000D01*
G75*
G02*
X126540000Y-95463500I0J62500D01*
G01*
G37*
%TD*%
D16*
%TO.C,U2*%
X126517000Y-87362000D03*
X126517000Y-91962000D03*
X126517000Y-89662000D03*
D17*
X132817000Y-89662000D03*
%TD*%
D18*
%TO.C,U1*%
X135772000Y-99187000D03*
X135772000Y-97917000D03*
X135772000Y-96647000D03*
X135772000Y-95377000D03*
X135772000Y-94107000D03*
X135772000Y-92837000D03*
X135772000Y-91567000D03*
X135772000Y-90297000D03*
X135772000Y-89027000D03*
X135772000Y-87757000D03*
X135772000Y-86487000D03*
X135772000Y-85217000D03*
X135772000Y-83947000D03*
X135772000Y-82677000D03*
D19*
X138557000Y-81677000D03*
X139827000Y-81677000D03*
X141097000Y-81677000D03*
X142367000Y-81677000D03*
X143637000Y-81677000D03*
X144907000Y-81677000D03*
X146177000Y-81677000D03*
X147447000Y-81677000D03*
X148717000Y-81677000D03*
X149987000Y-81677000D03*
D18*
X152772000Y-82677000D03*
X152772000Y-83947000D03*
X152772000Y-85217000D03*
X152772000Y-86487000D03*
X152772000Y-87757000D03*
X152772000Y-89027000D03*
X152772000Y-90297000D03*
X152772000Y-91567000D03*
X152772000Y-92837000D03*
X152772000Y-94107000D03*
X152772000Y-95377000D03*
X152772000Y-96647000D03*
X152772000Y-97917000D03*
X152772000Y-99187000D03*
D20*
X145272000Y-91687000D03*
%TD*%
D21*
%TO.C,BOOT*%
X114787000Y-104616000D03*
X108987000Y-104616000D03*
X114787000Y-100616000D03*
X108987000Y-100616000D03*
%TD*%
%TO.C,SW1*%
X114787000Y-96488000D03*
X108987000Y-96488000D03*
X114787000Y-92488000D03*
X108987000Y-92488000D03*
%TD*%
%TO.C,R13*%
G36*
G01*
X177196000Y-81277750D02*
X177196000Y-81790250D01*
G75*
G02*
X176977250Y-82009000I-218750J0D01*
G01*
X176539750Y-82009000D01*
G75*
G02*
X176321000Y-81790250I0J218750D01*
G01*
X176321000Y-81277750D01*
G75*
G02*
X176539750Y-81059000I218750J0D01*
G01*
X176977250Y-81059000D01*
G75*
G02*
X177196000Y-81277750I0J-218750D01*
G01*
G37*
G36*
G01*
X178771000Y-81277750D02*
X178771000Y-81790250D01*
G75*
G02*
X178552250Y-82009000I-218750J0D01*
G01*
X178114750Y-82009000D01*
G75*
G02*
X177896000Y-81790250I0J218750D01*
G01*
X177896000Y-81277750D01*
G75*
G02*
X178114750Y-81059000I218750J0D01*
G01*
X178552250Y-81059000D01*
G75*
G02*
X178771000Y-81277750I0J-218750D01*
G01*
G37*
%TD*%
%TO.C,R12*%
G36*
G01*
X155377300Y-99565750D02*
X155377300Y-100078250D01*
G75*
G02*
X155158550Y-100297000I-218750J0D01*
G01*
X154721050Y-100297000D01*
G75*
G02*
X154502300Y-100078250I0J218750D01*
G01*
X154502300Y-99565750D01*
G75*
G02*
X154721050Y-99347000I218750J0D01*
G01*
X155158550Y-99347000D01*
G75*
G02*
X155377300Y-99565750I0J-218750D01*
G01*
G37*
G36*
G01*
X156952300Y-99565750D02*
X156952300Y-100078250D01*
G75*
G02*
X156733550Y-100297000I-218750J0D01*
G01*
X156296050Y-100297000D01*
G75*
G02*
X156077300Y-100078250I0J218750D01*
G01*
X156077300Y-99565750D01*
G75*
G02*
X156296050Y-99347000I218750J0D01*
G01*
X156733550Y-99347000D01*
G75*
G02*
X156952300Y-99565750I0J-218750D01*
G01*
G37*
%TD*%
%TO.C,R11*%
G36*
G01*
X156077300Y-98528850D02*
X156077300Y-98016350D01*
G75*
G02*
X156296050Y-97797600I218750J0D01*
G01*
X156733550Y-97797600D01*
G75*
G02*
X156952300Y-98016350I0J-218750D01*
G01*
X156952300Y-98528850D01*
G75*
G02*
X156733550Y-98747600I-218750J0D01*
G01*
X156296050Y-98747600D01*
G75*
G02*
X156077300Y-98528850I0J218750D01*
G01*
G37*
G36*
G01*
X154502300Y-98528850D02*
X154502300Y-98016350D01*
G75*
G02*
X154721050Y-97797600I218750J0D01*
G01*
X155158550Y-97797600D01*
G75*
G02*
X155377300Y-98016350I0J-218750D01*
G01*
X155377300Y-98528850D01*
G75*
G02*
X155158550Y-98747600I-218750J0D01*
G01*
X154721050Y-98747600D01*
G75*
G02*
X154502300Y-98528850I0J218750D01*
G01*
G37*
%TD*%
%TO.C,R10*%
G36*
G01*
X123286000Y-94236250D02*
X123286000Y-93723750D01*
G75*
G02*
X123504750Y-93505000I218750J0D01*
G01*
X123942250Y-93505000D01*
G75*
G02*
X124161000Y-93723750I0J-218750D01*
G01*
X124161000Y-94236250D01*
G75*
G02*
X123942250Y-94455000I-218750J0D01*
G01*
X123504750Y-94455000D01*
G75*
G02*
X123286000Y-94236250I0J218750D01*
G01*
G37*
G36*
G01*
X121711000Y-94236250D02*
X121711000Y-93723750D01*
G75*
G02*
X121929750Y-93505000I218750J0D01*
G01*
X122367250Y-93505000D01*
G75*
G02*
X122586000Y-93723750I0J-218750D01*
G01*
X122586000Y-94236250D01*
G75*
G02*
X122367250Y-94455000I-218750J0D01*
G01*
X121929750Y-94455000D01*
G75*
G02*
X121711000Y-94236250I0J218750D01*
G01*
G37*
%TD*%
%TO.C,R9*%
G36*
G01*
X123286000Y-96776250D02*
X123286000Y-96263750D01*
G75*
G02*
X123504750Y-96045000I218750J0D01*
G01*
X123942250Y-96045000D01*
G75*
G02*
X124161000Y-96263750I0J-218750D01*
G01*
X124161000Y-96776250D01*
G75*
G02*
X123942250Y-96995000I-218750J0D01*
G01*
X123504750Y-96995000D01*
G75*
G02*
X123286000Y-96776250I0J218750D01*
G01*
G37*
G36*
G01*
X121711000Y-96776250D02*
X121711000Y-96263750D01*
G75*
G02*
X121929750Y-96045000I218750J0D01*
G01*
X122367250Y-96045000D01*
G75*
G02*
X122586000Y-96263750I0J-218750D01*
G01*
X122586000Y-96776250D01*
G75*
G02*
X122367250Y-96995000I-218750J0D01*
G01*
X121929750Y-96995000D01*
G75*
G02*
X121711000Y-96776250I0J218750D01*
G01*
G37*
%TD*%
%TO.C,R8*%
G36*
G01*
X119538000Y-98295750D02*
X119538000Y-98808250D01*
G75*
G02*
X119319250Y-99027000I-218750J0D01*
G01*
X118881750Y-99027000D01*
G75*
G02*
X118663000Y-98808250I0J218750D01*
G01*
X118663000Y-98295750D01*
G75*
G02*
X118881750Y-98077000I218750J0D01*
G01*
X119319250Y-98077000D01*
G75*
G02*
X119538000Y-98295750I0J-218750D01*
G01*
G37*
G36*
G01*
X121113000Y-98295750D02*
X121113000Y-98808250D01*
G75*
G02*
X120894250Y-99027000I-218750J0D01*
G01*
X120456750Y-99027000D01*
G75*
G02*
X120238000Y-98808250I0J218750D01*
G01*
X120238000Y-98295750D01*
G75*
G02*
X120456750Y-98077000I218750J0D01*
G01*
X120894250Y-98077000D01*
G75*
G02*
X121113000Y-98295750I0J-218750D01*
G01*
G37*
%TD*%
%TO.C,R7*%
G36*
G01*
X123286000Y-99824250D02*
X123286000Y-99311750D01*
G75*
G02*
X123504750Y-99093000I218750J0D01*
G01*
X123942250Y-99093000D01*
G75*
G02*
X124161000Y-99311750I0J-218750D01*
G01*
X124161000Y-99824250D01*
G75*
G02*
X123942250Y-100043000I-218750J0D01*
G01*
X123504750Y-100043000D01*
G75*
G02*
X123286000Y-99824250I0J218750D01*
G01*
G37*
G36*
G01*
X121711000Y-99824250D02*
X121711000Y-99311750D01*
G75*
G02*
X121929750Y-99093000I218750J0D01*
G01*
X122367250Y-99093000D01*
G75*
G02*
X122586000Y-99311750I0J-218750D01*
G01*
X122586000Y-99824250D01*
G75*
G02*
X122367250Y-100043000I-218750J0D01*
G01*
X121929750Y-100043000D01*
G75*
G02*
X121711000Y-99824250I0J218750D01*
G01*
G37*
%TD*%
%TO.C,R6*%
G36*
G01*
X123286000Y-98300250D02*
X123286000Y-97787750D01*
G75*
G02*
X123504750Y-97569000I218750J0D01*
G01*
X123942250Y-97569000D01*
G75*
G02*
X124161000Y-97787750I0J-218750D01*
G01*
X124161000Y-98300250D01*
G75*
G02*
X123942250Y-98519000I-218750J0D01*
G01*
X123504750Y-98519000D01*
G75*
G02*
X123286000Y-98300250I0J218750D01*
G01*
G37*
G36*
G01*
X121711000Y-98300250D02*
X121711000Y-97787750D01*
G75*
G02*
X121929750Y-97569000I218750J0D01*
G01*
X122367250Y-97569000D01*
G75*
G02*
X122586000Y-97787750I0J-218750D01*
G01*
X122586000Y-98300250D01*
G75*
G02*
X122367250Y-98519000I-218750J0D01*
G01*
X121929750Y-98519000D01*
G75*
G02*
X121711000Y-98300250I0J218750D01*
G01*
G37*
%TD*%
%TO.C,R5*%
G36*
G01*
X161651200Y-84046350D02*
X161651200Y-84558850D01*
G75*
G02*
X161432450Y-84777600I-218750J0D01*
G01*
X160994950Y-84777600D01*
G75*
G02*
X160776200Y-84558850I0J218750D01*
G01*
X160776200Y-84046350D01*
G75*
G02*
X160994950Y-83827600I218750J0D01*
G01*
X161432450Y-83827600D01*
G75*
G02*
X161651200Y-84046350I0J-218750D01*
G01*
G37*
G36*
G01*
X163226200Y-84046350D02*
X163226200Y-84558850D01*
G75*
G02*
X163007450Y-84777600I-218750J0D01*
G01*
X162569950Y-84777600D01*
G75*
G02*
X162351200Y-84558850I0J218750D01*
G01*
X162351200Y-84046350D01*
G75*
G02*
X162569950Y-83827600I218750J0D01*
G01*
X163007450Y-83827600D01*
G75*
G02*
X163226200Y-84046350I0J-218750D01*
G01*
G37*
%TD*%
%TO.C,R4*%
G36*
G01*
X161386000Y-104701050D02*
X161386000Y-104188550D01*
G75*
G02*
X161604750Y-103969800I218750J0D01*
G01*
X162042250Y-103969800D01*
G75*
G02*
X162261000Y-104188550I0J-218750D01*
G01*
X162261000Y-104701050D01*
G75*
G02*
X162042250Y-104919800I-218750J0D01*
G01*
X161604750Y-104919800D01*
G75*
G02*
X161386000Y-104701050I0J218750D01*
G01*
G37*
G36*
G01*
X159811000Y-104701050D02*
X159811000Y-104188550D01*
G75*
G02*
X160029750Y-103969800I218750J0D01*
G01*
X160467250Y-103969800D01*
G75*
G02*
X160686000Y-104188550I0J-218750D01*
G01*
X160686000Y-104701050D01*
G75*
G02*
X160467250Y-104919800I-218750J0D01*
G01*
X160029750Y-104919800D01*
G75*
G02*
X159811000Y-104701050I0J218750D01*
G01*
G37*
%TD*%
%TO.C,R3*%
G36*
G01*
X122586000Y-100835750D02*
X122586000Y-101348250D01*
G75*
G02*
X122367250Y-101567000I-218750J0D01*
G01*
X121929750Y-101567000D01*
G75*
G02*
X121711000Y-101348250I0J218750D01*
G01*
X121711000Y-100835750D01*
G75*
G02*
X121929750Y-100617000I218750J0D01*
G01*
X122367250Y-100617000D01*
G75*
G02*
X122586000Y-100835750I0J-218750D01*
G01*
G37*
G36*
G01*
X124161000Y-100835750D02*
X124161000Y-101348250D01*
G75*
G02*
X123942250Y-101567000I-218750J0D01*
G01*
X123504750Y-101567000D01*
G75*
G02*
X123286000Y-101348250I0J218750D01*
G01*
X123286000Y-100835750D01*
G75*
G02*
X123504750Y-100617000I218750J0D01*
G01*
X123942250Y-100617000D01*
G75*
G02*
X124161000Y-100835750I0J-218750D01*
G01*
G37*
%TD*%
%TO.C,R2*%
G36*
G01*
X119450500Y-85092250D02*
X119450500Y-84579750D01*
G75*
G02*
X119669250Y-84361000I218750J0D01*
G01*
X120106750Y-84361000D01*
G75*
G02*
X120325500Y-84579750I0J-218750D01*
G01*
X120325500Y-85092250D01*
G75*
G02*
X120106750Y-85311000I-218750J0D01*
G01*
X119669250Y-85311000D01*
G75*
G02*
X119450500Y-85092250I0J218750D01*
G01*
G37*
G36*
G01*
X117875500Y-85092250D02*
X117875500Y-84579750D01*
G75*
G02*
X118094250Y-84361000I218750J0D01*
G01*
X118531750Y-84361000D01*
G75*
G02*
X118750500Y-84579750I0J-218750D01*
G01*
X118750500Y-85092250D01*
G75*
G02*
X118531750Y-85311000I-218750J0D01*
G01*
X118094250Y-85311000D01*
G75*
G02*
X117875500Y-85092250I0J218750D01*
G01*
G37*
%TD*%
%TO.C,R1*%
G36*
G01*
X156077300Y-96979450D02*
X156077300Y-96466950D01*
G75*
G02*
X156296050Y-96248200I218750J0D01*
G01*
X156733550Y-96248200D01*
G75*
G02*
X156952300Y-96466950I0J-218750D01*
G01*
X156952300Y-96979450D01*
G75*
G02*
X156733550Y-97198200I-218750J0D01*
G01*
X156296050Y-97198200D01*
G75*
G02*
X156077300Y-96979450I0J218750D01*
G01*
G37*
G36*
G01*
X154502300Y-96979450D02*
X154502300Y-96466950D01*
G75*
G02*
X154721050Y-96248200I218750J0D01*
G01*
X155158550Y-96248200D01*
G75*
G02*
X155377300Y-96466950I0J-218750D01*
G01*
X155377300Y-96979450D01*
G75*
G02*
X155158550Y-97198200I-218750J0D01*
G01*
X154721050Y-97198200D01*
G75*
G02*
X154502300Y-96979450I0J218750D01*
G01*
G37*
%TD*%
D22*
%TO.C,Q1*%
X124063000Y-85852000D03*
X122063000Y-86802000D03*
X122063000Y-84902000D03*
%TD*%
D23*
%TO.C,J2*%
X111617000Y-82963500D03*
D24*
X110617000Y-85663500D03*
X109967000Y-85663500D03*
X109317000Y-85663500D03*
X111917000Y-85663500D03*
X111267000Y-85663500D03*
D23*
X109617000Y-82963500D03*
%TD*%
D25*
%TO.C,D5*%
X168274000Y-81661000D03*
X164974000Y-81661000D03*
%TD*%
%TO.C,D4*%
G36*
G01*
X120238000Y-100332250D02*
X120238000Y-99819750D01*
G75*
G02*
X120456750Y-99601000I218750J0D01*
G01*
X120894250Y-99601000D01*
G75*
G02*
X121113000Y-99819750I0J-218750D01*
G01*
X121113000Y-100332250D01*
G75*
G02*
X120894250Y-100551000I-218750J0D01*
G01*
X120456750Y-100551000D01*
G75*
G02*
X120238000Y-100332250I0J218750D01*
G01*
G37*
G36*
G01*
X118663000Y-100332250D02*
X118663000Y-99819750D01*
G75*
G02*
X118881750Y-99601000I218750J0D01*
G01*
X119319250Y-99601000D01*
G75*
G02*
X119538000Y-99819750I0J-218750D01*
G01*
X119538000Y-100332250D01*
G75*
G02*
X119319250Y-100551000I-218750J0D01*
G01*
X118881750Y-100551000D01*
G75*
G02*
X118663000Y-100332250I0J218750D01*
G01*
G37*
%TD*%
%TO.C,D3*%
X116968000Y-86995000D03*
X120268000Y-86995000D03*
%TD*%
%TO.C,D2*%
G36*
G01*
X162351200Y-83034850D02*
X162351200Y-82522350D01*
G75*
G02*
X162569950Y-82303600I218750J0D01*
G01*
X163007450Y-82303600D01*
G75*
G02*
X163226200Y-82522350I0J-218750D01*
G01*
X163226200Y-83034850D01*
G75*
G02*
X163007450Y-83253600I-218750J0D01*
G01*
X162569950Y-83253600D01*
G75*
G02*
X162351200Y-83034850I0J218750D01*
G01*
G37*
G36*
G01*
X160776200Y-83034850D02*
X160776200Y-82522350D01*
G75*
G02*
X160994950Y-82303600I218750J0D01*
G01*
X161432450Y-82303600D01*
G75*
G02*
X161651200Y-82522350I0J-218750D01*
G01*
X161651200Y-83034850D01*
G75*
G02*
X161432450Y-83253600I-218750J0D01*
G01*
X160994950Y-83253600D01*
G75*
G02*
X160776200Y-83034850I0J218750D01*
G01*
G37*
%TD*%
%TO.C,D1*%
G36*
G01*
X161386000Y-106301250D02*
X161386000Y-105788750D01*
G75*
G02*
X161604750Y-105570000I218750J0D01*
G01*
X162042250Y-105570000D01*
G75*
G02*
X162261000Y-105788750I0J-218750D01*
G01*
X162261000Y-106301250D01*
G75*
G02*
X162042250Y-106520000I-218750J0D01*
G01*
X161604750Y-106520000D01*
G75*
G02*
X161386000Y-106301250I0J218750D01*
G01*
G37*
G36*
G01*
X159811000Y-106301250D02*
X159811000Y-105788750D01*
G75*
G02*
X160029750Y-105570000I218750J0D01*
G01*
X160467250Y-105570000D01*
G75*
G02*
X160686000Y-105788750I0J-218750D01*
G01*
X160686000Y-106301250D01*
G75*
G02*
X160467250Y-106520000I-218750J0D01*
G01*
X160029750Y-106520000D01*
G75*
G02*
X159811000Y-106301250I0J218750D01*
G01*
G37*
%TD*%
%TO.C,C16*%
G36*
G01*
X162351200Y-86082850D02*
X162351200Y-85570350D01*
G75*
G02*
X162569950Y-85351600I218750J0D01*
G01*
X163007450Y-85351600D01*
G75*
G02*
X163226200Y-85570350I0J-218750D01*
G01*
X163226200Y-86082850D01*
G75*
G02*
X163007450Y-86301600I-218750J0D01*
G01*
X162569950Y-86301600D01*
G75*
G02*
X162351200Y-86082850I0J218750D01*
G01*
G37*
G36*
G01*
X160776200Y-86082850D02*
X160776200Y-85570350D01*
G75*
G02*
X160994950Y-85351600I218750J0D01*
G01*
X161432450Y-85351600D01*
G75*
G02*
X161651200Y-85570350I0J-218750D01*
G01*
X161651200Y-86082850D01*
G75*
G02*
X161432450Y-86301600I-218750J0D01*
G01*
X160994950Y-86301600D01*
G75*
G02*
X160776200Y-86082850I0J218750D01*
G01*
G37*
%TD*%
%TO.C,C15*%
G36*
G01*
X156077300Y-92331250D02*
X156077300Y-91818750D01*
G75*
G02*
X156296050Y-91600000I218750J0D01*
G01*
X156733550Y-91600000D01*
G75*
G02*
X156952300Y-91818750I0J-218750D01*
G01*
X156952300Y-92331250D01*
G75*
G02*
X156733550Y-92550000I-218750J0D01*
G01*
X156296050Y-92550000D01*
G75*
G02*
X156077300Y-92331250I0J218750D01*
G01*
G37*
G36*
G01*
X154502300Y-92331250D02*
X154502300Y-91818750D01*
G75*
G02*
X154721050Y-91600000I218750J0D01*
G01*
X155158550Y-91600000D01*
G75*
G02*
X155377300Y-91818750I0J-218750D01*
G01*
X155377300Y-92331250D01*
G75*
G02*
X155158550Y-92550000I-218750J0D01*
G01*
X154721050Y-92550000D01*
G75*
G02*
X154502300Y-92331250I0J218750D01*
G01*
G37*
%TD*%
%TO.C,C14*%
G36*
G01*
X156077300Y-93880650D02*
X156077300Y-93368150D01*
G75*
G02*
X156296050Y-93149400I218750J0D01*
G01*
X156733550Y-93149400D01*
G75*
G02*
X156952300Y-93368150I0J-218750D01*
G01*
X156952300Y-93880650D01*
G75*
G02*
X156733550Y-94099400I-218750J0D01*
G01*
X156296050Y-94099400D01*
G75*
G02*
X156077300Y-93880650I0J218750D01*
G01*
G37*
G36*
G01*
X154502300Y-93880650D02*
X154502300Y-93368150D01*
G75*
G02*
X154721050Y-93149400I218750J0D01*
G01*
X155158550Y-93149400D01*
G75*
G02*
X155377300Y-93368150I0J-218750D01*
G01*
X155377300Y-93880650D01*
G75*
G02*
X155158550Y-94099400I-218750J0D01*
G01*
X154721050Y-94099400D01*
G75*
G02*
X154502300Y-93880650I0J218750D01*
G01*
G37*
%TD*%
%TO.C,C13*%
G36*
G01*
X119538000Y-95247750D02*
X119538000Y-95760250D01*
G75*
G02*
X119319250Y-95979000I-218750J0D01*
G01*
X118881750Y-95979000D01*
G75*
G02*
X118663000Y-95760250I0J218750D01*
G01*
X118663000Y-95247750D01*
G75*
G02*
X118881750Y-95029000I218750J0D01*
G01*
X119319250Y-95029000D01*
G75*
G02*
X119538000Y-95247750I0J-218750D01*
G01*
G37*
G36*
G01*
X121113000Y-95247750D02*
X121113000Y-95760250D01*
G75*
G02*
X120894250Y-95979000I-218750J0D01*
G01*
X120456750Y-95979000D01*
G75*
G02*
X120238000Y-95760250I0J218750D01*
G01*
X120238000Y-95247750D01*
G75*
G02*
X120456750Y-95029000I218750J0D01*
G01*
X120894250Y-95029000D01*
G75*
G02*
X121113000Y-95247750I0J-218750D01*
G01*
G37*
%TD*%
%TO.C,C12*%
G36*
G01*
X161386000Y-103177050D02*
X161386000Y-102664550D01*
G75*
G02*
X161604750Y-102445800I218750J0D01*
G01*
X162042250Y-102445800D01*
G75*
G02*
X162261000Y-102664550I0J-218750D01*
G01*
X162261000Y-103177050D01*
G75*
G02*
X162042250Y-103395800I-218750J0D01*
G01*
X161604750Y-103395800D01*
G75*
G02*
X161386000Y-103177050I0J218750D01*
G01*
G37*
G36*
G01*
X159811000Y-103177050D02*
X159811000Y-102664550D01*
G75*
G02*
X160029750Y-102445800I218750J0D01*
G01*
X160467250Y-102445800D01*
G75*
G02*
X160686000Y-102664550I0J-218750D01*
G01*
X160686000Y-103177050D01*
G75*
G02*
X160467250Y-103395800I-218750J0D01*
G01*
X160029750Y-103395800D01*
G75*
G02*
X159811000Y-103177050I0J218750D01*
G01*
G37*
%TD*%
%TO.C,C11*%
G36*
G01*
X156102700Y-87683050D02*
X156102700Y-87170550D01*
G75*
G02*
X156321450Y-86951800I218750J0D01*
G01*
X156758950Y-86951800D01*
G75*
G02*
X156977700Y-87170550I0J-218750D01*
G01*
X156977700Y-87683050D01*
G75*
G02*
X156758950Y-87901800I-218750J0D01*
G01*
X156321450Y-87901800D01*
G75*
G02*
X156102700Y-87683050I0J218750D01*
G01*
G37*
G36*
G01*
X154527700Y-87683050D02*
X154527700Y-87170550D01*
G75*
G02*
X154746450Y-86951800I218750J0D01*
G01*
X155183950Y-86951800D01*
G75*
G02*
X155402700Y-87170550I0J-218750D01*
G01*
X155402700Y-87683050D01*
G75*
G02*
X155183950Y-87901800I-218750J0D01*
G01*
X154746450Y-87901800D01*
G75*
G02*
X154527700Y-87683050I0J218750D01*
G01*
G37*
%TD*%
%TO.C,C10*%
G36*
G01*
X122586000Y-92199750D02*
X122586000Y-92712250D01*
G75*
G02*
X122367250Y-92931000I-218750J0D01*
G01*
X121929750Y-92931000D01*
G75*
G02*
X121711000Y-92712250I0J218750D01*
G01*
X121711000Y-92199750D01*
G75*
G02*
X121929750Y-91981000I218750J0D01*
G01*
X122367250Y-91981000D01*
G75*
G02*
X122586000Y-92199750I0J-218750D01*
G01*
G37*
G36*
G01*
X124161000Y-92199750D02*
X124161000Y-92712250D01*
G75*
G02*
X123942250Y-92931000I-218750J0D01*
G01*
X123504750Y-92931000D01*
G75*
G02*
X123286000Y-92712250I0J218750D01*
G01*
X123286000Y-92199750D01*
G75*
G02*
X123504750Y-91981000I218750J0D01*
G01*
X123942250Y-91981000D01*
G75*
G02*
X124161000Y-92199750I0J-218750D01*
G01*
G37*
%TD*%
%TO.C,C9*%
G36*
G01*
X161386000Y-101653050D02*
X161386000Y-101140550D01*
G75*
G02*
X161604750Y-100921800I218750J0D01*
G01*
X162042250Y-100921800D01*
G75*
G02*
X162261000Y-101140550I0J-218750D01*
G01*
X162261000Y-101653050D01*
G75*
G02*
X162042250Y-101871800I-218750J0D01*
G01*
X161604750Y-101871800D01*
G75*
G02*
X161386000Y-101653050I0J218750D01*
G01*
G37*
G36*
G01*
X159811000Y-101653050D02*
X159811000Y-101140550D01*
G75*
G02*
X160029750Y-100921800I218750J0D01*
G01*
X160467250Y-100921800D01*
G75*
G02*
X160686000Y-101140550I0J-218750D01*
G01*
X160686000Y-101653050D01*
G75*
G02*
X160467250Y-101871800I-218750J0D01*
G01*
X160029750Y-101871800D01*
G75*
G02*
X159811000Y-101653050I0J218750D01*
G01*
G37*
%TD*%
%TO.C,C8*%
G36*
G01*
X161651200Y-80896750D02*
X161651200Y-81409250D01*
G75*
G02*
X161432450Y-81628000I-218750J0D01*
G01*
X160994950Y-81628000D01*
G75*
G02*
X160776200Y-81409250I0J218750D01*
G01*
X160776200Y-80896750D01*
G75*
G02*
X160994950Y-80678000I218750J0D01*
G01*
X161432450Y-80678000D01*
G75*
G02*
X161651200Y-80896750I0J-218750D01*
G01*
G37*
G36*
G01*
X163226200Y-80896750D02*
X163226200Y-81409250D01*
G75*
G02*
X163007450Y-81628000I-218750J0D01*
G01*
X162569950Y-81628000D01*
G75*
G02*
X162351200Y-81409250I0J218750D01*
G01*
X162351200Y-80896750D01*
G75*
G02*
X162569950Y-80678000I218750J0D01*
G01*
X163007450Y-80678000D01*
G75*
G02*
X163226200Y-80896750I0J-218750D01*
G01*
G37*
%TD*%
%TO.C,C7*%
G36*
G01*
X155377300Y-88719950D02*
X155377300Y-89232450D01*
G75*
G02*
X155158550Y-89451200I-218750J0D01*
G01*
X154721050Y-89451200D01*
G75*
G02*
X154502300Y-89232450I0J218750D01*
G01*
X154502300Y-88719950D01*
G75*
G02*
X154721050Y-88501200I218750J0D01*
G01*
X155158550Y-88501200D01*
G75*
G02*
X155377300Y-88719950I0J-218750D01*
G01*
G37*
G36*
G01*
X156952300Y-88719950D02*
X156952300Y-89232450D01*
G75*
G02*
X156733550Y-89451200I-218750J0D01*
G01*
X156296050Y-89451200D01*
G75*
G02*
X156077300Y-89232450I0J218750D01*
G01*
X156077300Y-88719950D01*
G75*
G02*
X156296050Y-88501200I218750J0D01*
G01*
X156733550Y-88501200D01*
G75*
G02*
X156952300Y-88719950I0J-218750D01*
G01*
G37*
%TD*%
%TO.C,C6*%
G36*
G01*
X156077300Y-90781850D02*
X156077300Y-90269350D01*
G75*
G02*
X156296050Y-90050600I218750J0D01*
G01*
X156733550Y-90050600D01*
G75*
G02*
X156952300Y-90269350I0J-218750D01*
G01*
X156952300Y-90781850D01*
G75*
G02*
X156733550Y-91000600I-218750J0D01*
G01*
X156296050Y-91000600D01*
G75*
G02*
X156077300Y-90781850I0J218750D01*
G01*
G37*
G36*
G01*
X154502300Y-90781850D02*
X154502300Y-90269350D01*
G75*
G02*
X154721050Y-90050600I218750J0D01*
G01*
X155158550Y-90050600D01*
G75*
G02*
X155377300Y-90269350I0J-218750D01*
G01*
X155377300Y-90781850D01*
G75*
G02*
X155158550Y-91000600I-218750J0D01*
G01*
X154721050Y-91000600D01*
G75*
G02*
X154502300Y-90781850I0J218750D01*
G01*
G37*
%TD*%
%TO.C,C5*%
G36*
G01*
X119538000Y-96771750D02*
X119538000Y-97284250D01*
G75*
G02*
X119319250Y-97503000I-218750J0D01*
G01*
X118881750Y-97503000D01*
G75*
G02*
X118663000Y-97284250I0J218750D01*
G01*
X118663000Y-96771750D01*
G75*
G02*
X118881750Y-96553000I218750J0D01*
G01*
X119319250Y-96553000D01*
G75*
G02*
X119538000Y-96771750I0J-218750D01*
G01*
G37*
G36*
G01*
X121113000Y-96771750D02*
X121113000Y-97284250D01*
G75*
G02*
X120894250Y-97503000I-218750J0D01*
G01*
X120456750Y-97503000D01*
G75*
G02*
X120238000Y-97284250I0J218750D01*
G01*
X120238000Y-96771750D01*
G75*
G02*
X120456750Y-96553000I218750J0D01*
G01*
X120894250Y-96553000D01*
G75*
G02*
X121113000Y-96771750I0J-218750D01*
G01*
G37*
%TD*%
%TO.C,C4*%
G36*
G01*
X122586000Y-90675750D02*
X122586000Y-91188250D01*
G75*
G02*
X122367250Y-91407000I-218750J0D01*
G01*
X121929750Y-91407000D01*
G75*
G02*
X121711000Y-91188250I0J218750D01*
G01*
X121711000Y-90675750D01*
G75*
G02*
X121929750Y-90457000I218750J0D01*
G01*
X122367250Y-90457000D01*
G75*
G02*
X122586000Y-90675750I0J-218750D01*
G01*
G37*
G36*
G01*
X124161000Y-90675750D02*
X124161000Y-91188250D01*
G75*
G02*
X123942250Y-91407000I-218750J0D01*
G01*
X123504750Y-91407000D01*
G75*
G02*
X123286000Y-91188250I0J218750D01*
G01*
X123286000Y-90675750D01*
G75*
G02*
X123504750Y-90457000I218750J0D01*
G01*
X123942250Y-90457000D01*
G75*
G02*
X124161000Y-90675750I0J-218750D01*
G01*
G37*
%TD*%
%TO.C,C3*%
G36*
G01*
X122586000Y-89151750D02*
X122586000Y-89664250D01*
G75*
G02*
X122367250Y-89883000I-218750J0D01*
G01*
X121929750Y-89883000D01*
G75*
G02*
X121711000Y-89664250I0J218750D01*
G01*
X121711000Y-89151750D01*
G75*
G02*
X121929750Y-88933000I218750J0D01*
G01*
X122367250Y-88933000D01*
G75*
G02*
X122586000Y-89151750I0J-218750D01*
G01*
G37*
G36*
G01*
X124161000Y-89151750D02*
X124161000Y-89664250D01*
G75*
G02*
X123942250Y-89883000I-218750J0D01*
G01*
X123504750Y-89883000D01*
G75*
G02*
X123286000Y-89664250I0J218750D01*
G01*
X123286000Y-89151750D01*
G75*
G02*
X123504750Y-88933000I218750J0D01*
G01*
X123942250Y-88933000D01*
G75*
G02*
X124161000Y-89151750I0J-218750D01*
G01*
G37*
%TD*%
%TO.C,C2*%
G36*
G01*
X155377300Y-94917550D02*
X155377300Y-95430050D01*
G75*
G02*
X155158550Y-95648800I-218750J0D01*
G01*
X154721050Y-95648800D01*
G75*
G02*
X154502300Y-95430050I0J218750D01*
G01*
X154502300Y-94917550D01*
G75*
G02*
X154721050Y-94698800I218750J0D01*
G01*
X155158550Y-94698800D01*
G75*
G02*
X155377300Y-94917550I0J-218750D01*
G01*
G37*
G36*
G01*
X156952300Y-94917550D02*
X156952300Y-95430050D01*
G75*
G02*
X156733550Y-95648800I-218750J0D01*
G01*
X156296050Y-95648800D01*
G75*
G02*
X156077300Y-95430050I0J218750D01*
G01*
X156077300Y-94917550D01*
G75*
G02*
X156296050Y-94698800I218750J0D01*
G01*
X156733550Y-94698800D01*
G75*
G02*
X156952300Y-94917550I0J-218750D01*
G01*
G37*
%TD*%
%TO.C,C1*%
G36*
G01*
X119538000Y-93723750D02*
X119538000Y-94236250D01*
G75*
G02*
X119319250Y-94455000I-218750J0D01*
G01*
X118881750Y-94455000D01*
G75*
G02*
X118663000Y-94236250I0J218750D01*
G01*
X118663000Y-93723750D01*
G75*
G02*
X118881750Y-93505000I218750J0D01*
G01*
X119319250Y-93505000D01*
G75*
G02*
X119538000Y-93723750I0J-218750D01*
G01*
G37*
G36*
G01*
X121113000Y-93723750D02*
X121113000Y-94236250D01*
G75*
G02*
X120894250Y-94455000I-218750J0D01*
G01*
X120456750Y-94455000D01*
G75*
G02*
X120238000Y-94236250I0J218750D01*
G01*
X120238000Y-93723750D01*
G75*
G02*
X120456750Y-93505000I218750J0D01*
G01*
X120894250Y-93505000D01*
G75*
G02*
X121113000Y-93723750I0J-218750D01*
G01*
G37*
%TD*%
M02*
