%TF.GenerationSoftware,KiCad,Pcbnew,(5.1.6)-1*%
%TF.CreationDate,2021-06-02T18:30:26+10:00*%
%TF.ProjectId,L2_board,4c325f62-6f61-4726-942e-6b696361645f,2.0*%
%TF.SameCoordinates,Original*%
%TF.FileFunction,Legend,Top*%
%TF.FilePolarity,Positive*%
%FSLAX46Y46*%
G04 Gerber Fmt 4.6, Leading zero omitted, Abs format (unit mm)*
G04 Created by KiCad (PCBNEW (5.1.6)-1) date 2021-06-02 18:30:26*
%MOMM*%
%LPD*%
G01*
G04 APERTURE LIST*
%ADD10C,0.200000*%
%ADD11C,0.100000*%
%ADD12C,0.120000*%
%ADD13C,0.152400*%
%ADD14C,0.127000*%
%ADD15C,0.150000*%
%ADD16C,0.300000*%
G04 APERTURE END LIST*
D10*
X144740380Y-96059047D02*
X145454666Y-96059047D01*
X145597523Y-96106666D01*
X145692761Y-96201904D01*
X145740380Y-96344761D01*
X145740380Y-96440000D01*
X145740380Y-95106666D02*
X145740380Y-95582857D01*
X144740380Y-95582857D01*
X145645142Y-94201904D02*
X145692761Y-94249523D01*
X145740380Y-94392380D01*
X145740380Y-94487619D01*
X145692761Y-94630476D01*
X145597523Y-94725714D01*
X145502285Y-94773333D01*
X145311809Y-94820952D01*
X145168952Y-94820952D01*
X144978476Y-94773333D01*
X144883238Y-94725714D01*
X144788000Y-94630476D01*
X144740380Y-94487619D01*
X144740380Y-94392380D01*
X144788000Y-94249523D01*
X144835619Y-94201904D01*
X144740380Y-93487619D02*
X145454666Y-93487619D01*
X145597523Y-93535238D01*
X145692761Y-93630476D01*
X145740380Y-93773333D01*
X145740380Y-93868571D01*
X145740380Y-92535238D02*
X145740380Y-93011428D01*
X144740380Y-93011428D01*
X145645142Y-91630476D02*
X145692761Y-91678095D01*
X145740380Y-91820952D01*
X145740380Y-91916190D01*
X145692761Y-92059047D01*
X145597523Y-92154285D01*
X145502285Y-92201904D01*
X145311809Y-92249523D01*
X145168952Y-92249523D01*
X144978476Y-92201904D01*
X144883238Y-92154285D01*
X144788000Y-92059047D01*
X144740380Y-91916190D01*
X144740380Y-91820952D01*
X144788000Y-91678095D01*
X144835619Y-91630476D01*
X144740380Y-90916190D02*
X145454666Y-90916190D01*
X145597523Y-90963809D01*
X145692761Y-91059047D01*
X145740380Y-91201904D01*
X145740380Y-91297142D01*
X145740380Y-89963809D02*
X145740380Y-90440000D01*
X144740380Y-90440000D01*
X145645142Y-89059047D02*
X145692761Y-89106666D01*
X145740380Y-89249523D01*
X145740380Y-89344761D01*
X145692761Y-89487619D01*
X145597523Y-89582857D01*
X145502285Y-89630476D01*
X145311809Y-89678095D01*
X145168952Y-89678095D01*
X144978476Y-89630476D01*
X144883238Y-89582857D01*
X144788000Y-89487619D01*
X144740380Y-89344761D01*
X144740380Y-89249523D01*
X144788000Y-89106666D01*
X144835619Y-89059047D01*
X144740380Y-88344761D02*
X145454666Y-88344761D01*
X145597523Y-88392380D01*
X145692761Y-88487619D01*
X145740380Y-88630476D01*
X145740380Y-88725714D01*
X145740380Y-87392380D02*
X145740380Y-87868571D01*
X144740380Y-87868571D01*
X145645142Y-86487619D02*
X145692761Y-86535238D01*
X145740380Y-86678095D01*
X145740380Y-86773333D01*
X145692761Y-86916190D01*
X145597523Y-87011428D01*
X145502285Y-87059047D01*
X145311809Y-87106666D01*
X145168952Y-87106666D01*
X144978476Y-87059047D01*
X144883238Y-87011428D01*
X144788000Y-86916190D01*
X144740380Y-86773333D01*
X144740380Y-86678095D01*
X144788000Y-86535238D01*
X144835619Y-86487619D01*
D11*
X193445142Y-106624380D02*
X193635619Y-106624380D01*
X193730857Y-106576761D01*
X193778476Y-106529142D01*
X193873714Y-106386285D01*
X193921333Y-106195809D01*
X193921333Y-105814857D01*
X193873714Y-105719619D01*
X193826095Y-105672000D01*
X193730857Y-105624380D01*
X193540380Y-105624380D01*
X193445142Y-105672000D01*
X193397523Y-105719619D01*
X193349904Y-105814857D01*
X193349904Y-106052952D01*
X193397523Y-106148190D01*
X193445142Y-106195809D01*
X193540380Y-106243428D01*
X193730857Y-106243428D01*
X193826095Y-106195809D01*
X193873714Y-106148190D01*
X193921333Y-106052952D01*
X194873714Y-106624380D02*
X194302285Y-106624380D01*
X194588000Y-106624380D02*
X194588000Y-105624380D01*
X194492761Y-105767238D01*
X194397523Y-105862476D01*
X194302285Y-105910095D01*
X195778476Y-105624380D02*
X195302285Y-105624380D01*
X195254666Y-106100571D01*
X195302285Y-106052952D01*
X195397523Y-106005333D01*
X195635619Y-106005333D01*
X195730857Y-106052952D01*
X195778476Y-106100571D01*
X195826095Y-106195809D01*
X195826095Y-106433904D01*
X195778476Y-106529142D01*
X195730857Y-106576761D01*
X195635619Y-106624380D01*
X195397523Y-106624380D01*
X195302285Y-106576761D01*
X195254666Y-106529142D01*
X196254666Y-106624380D02*
X196254666Y-105624380D01*
X196588000Y-106338666D01*
X196921333Y-105624380D01*
X196921333Y-106624380D01*
X197397523Y-106624380D02*
X197397523Y-105624380D01*
X197397523Y-106100571D02*
X197968952Y-106100571D01*
X197968952Y-106624380D02*
X197968952Y-105624380D01*
X198349904Y-105957714D02*
X198873714Y-105957714D01*
X198349904Y-106624380D01*
X198873714Y-106624380D01*
D10*
X190419904Y-93790476D02*
X190358000Y-93728571D01*
X190296095Y-93604761D01*
X190296095Y-93295238D01*
X190358000Y-93171428D01*
X190419904Y-93109523D01*
X190543714Y-93047619D01*
X190667523Y-93047619D01*
X190853238Y-93109523D01*
X191596095Y-93852380D01*
X191596095Y-93047619D01*
X191100857Y-92490476D02*
X191100857Y-91500000D01*
X190296095Y-91004761D02*
X190296095Y-90200000D01*
X190791333Y-90633333D01*
X190791333Y-90447619D01*
X190853238Y-90323809D01*
X190915142Y-90261904D01*
X191038952Y-90200000D01*
X191348476Y-90200000D01*
X191472285Y-90261904D01*
X191534190Y-90323809D01*
X191596095Y-90447619D01*
X191596095Y-90819047D01*
X191534190Y-90942857D01*
X191472285Y-91004761D01*
X191534190Y-89704761D02*
X191596095Y-89580952D01*
X191596095Y-89333333D01*
X191534190Y-89209523D01*
X191410380Y-89147619D01*
X191348476Y-89147619D01*
X191224666Y-89209523D01*
X191162761Y-89333333D01*
X191162761Y-89519047D01*
X191100857Y-89642857D01*
X190977047Y-89704761D01*
X190915142Y-89704761D01*
X190791333Y-89642857D01*
X190729428Y-89519047D01*
X190729428Y-89333333D01*
X190791333Y-89209523D01*
X191596095Y-86980952D02*
X191596095Y-87600000D01*
X190296095Y-87600000D01*
X191596095Y-86547619D02*
X190729428Y-86547619D01*
X190296095Y-86547619D02*
X190358000Y-86609523D01*
X190419904Y-86547619D01*
X190358000Y-86485714D01*
X190296095Y-86547619D01*
X190419904Y-86547619D01*
X191596095Y-85928571D02*
X190296095Y-85928571D01*
X190296095Y-85433333D01*
X190358000Y-85309523D01*
X190419904Y-85247619D01*
X190543714Y-85185714D01*
X190729428Y-85185714D01*
X190853238Y-85247619D01*
X190915142Y-85309523D01*
X190977047Y-85433333D01*
X190977047Y-85928571D01*
X191596095Y-84442857D02*
X191534190Y-84566666D01*
X191472285Y-84628571D01*
X191348476Y-84690476D01*
X190977047Y-84690476D01*
X190853238Y-84628571D01*
X190791333Y-84566666D01*
X190729428Y-84442857D01*
X190729428Y-84257142D01*
X190791333Y-84133333D01*
X190853238Y-84071428D01*
X190977047Y-84009523D01*
X191348476Y-84009523D01*
X191472285Y-84071428D01*
X191534190Y-84133333D01*
X191596095Y-84257142D01*
X191596095Y-84442857D01*
D12*
%TO.C,C18*%
X193959600Y-97099400D02*
X197869600Y-97099400D01*
X193959600Y-95229400D02*
X193959600Y-97099400D01*
X197869600Y-95229400D02*
X193959600Y-95229400D01*
%TO.C,C17*%
X116170300Y-83806000D02*
X120380300Y-83806000D01*
X120380300Y-83806000D02*
X120380300Y-80786000D01*
X120380300Y-80786000D02*
X116170300Y-80786000D01*
%TO.C,Q4*%
X183767000Y-84003000D02*
X183767000Y-83073000D01*
X183767000Y-80843000D02*
X183767000Y-81773000D01*
X183767000Y-80843000D02*
X180607000Y-80843000D01*
X183767000Y-84003000D02*
X182307000Y-84003000D01*
D13*
%TO.C,U6*%
X155130500Y-85864700D02*
X155592460Y-85864700D01*
X159473900Y-85864700D02*
X159473900Y-85402740D01*
X159473900Y-81521300D02*
X159011940Y-81521300D01*
X155130500Y-81521300D02*
X155130500Y-81983260D01*
X155130500Y-85402740D02*
X155130500Y-85864700D01*
X159011940Y-85864700D02*
X159473900Y-85864700D01*
X159473900Y-81983260D02*
X159473900Y-81521300D01*
X155592460Y-81521300D02*
X155130500Y-81521300D01*
X157361699Y-86296500D02*
X157361699Y-86550500D01*
X157361699Y-86550500D02*
X157742700Y-86550500D01*
X157742700Y-86550500D02*
X157742700Y-86296500D01*
X157742700Y-86296500D02*
X157361699Y-86296500D01*
X157861701Y-81089500D02*
X157861701Y-80835500D01*
X157861701Y-80835500D02*
X158242701Y-80835500D01*
X158242701Y-80835500D02*
X158242701Y-81089500D01*
X158242701Y-81089500D02*
X157861701Y-81089500D01*
D14*
%TO.C,U5*%
X166812000Y-104976000D02*
X166812000Y-88826000D01*
X182962000Y-88826000D02*
X182962000Y-104976000D01*
X166812000Y-104976000D02*
X167987000Y-104976000D01*
X166812000Y-88826000D02*
X167987000Y-88826000D01*
X182962000Y-88826000D02*
X182787000Y-88826000D01*
X182962000Y-104976000D02*
X182787000Y-104976000D01*
D10*
X167987000Y-106301000D02*
G75*
G03*
X167987000Y-106301000I-100000J0D01*
G01*
D12*
%TO.C,U4*%
X131275000Y-94291000D02*
X132000000Y-94291000D01*
X132000000Y-94291000D02*
X132000000Y-95016000D01*
X127505000Y-99511000D02*
X126780000Y-99511000D01*
X126780000Y-99511000D02*
X126780000Y-98786000D01*
X131275000Y-99511000D02*
X132000000Y-99511000D01*
X132000000Y-99511000D02*
X132000000Y-98786000D01*
X127505000Y-94291000D02*
X126780000Y-94291000D01*
%TO.C,U2*%
X131577000Y-93072000D02*
X131577000Y-91812000D01*
X131577000Y-86252000D02*
X131577000Y-87512000D01*
X127817000Y-93072000D02*
X131577000Y-93072000D01*
X125567000Y-86252000D02*
X131577000Y-86252000D01*
%TO.C,U1*%
X153392000Y-81832000D02*
X153392000Y-81052000D01*
X153392000Y-81052000D02*
X152392000Y-81052000D01*
X135152000Y-81832000D02*
X135152000Y-81052000D01*
X135152000Y-81052000D02*
X136152000Y-81052000D01*
X153392000Y-106797000D02*
X135152000Y-106797000D01*
X135152000Y-106797000D02*
X135152000Y-100377000D01*
X153392000Y-106797000D02*
X153392000Y-100377000D01*
X153392000Y-100377000D02*
X153772000Y-100377000D01*
%TO.C,BOOT*%
X108677000Y-105416000D02*
X108677000Y-105826000D01*
X108677000Y-105826000D02*
X115097000Y-105826000D01*
X115097000Y-105826000D02*
X115097000Y-105546000D01*
X115097000Y-103816000D02*
X115097000Y-101416000D01*
X115097000Y-99816000D02*
X115097000Y-99406000D01*
X115097000Y-99406000D02*
X108677000Y-99406000D01*
X108677000Y-99406000D02*
X108677000Y-99816000D01*
X108677000Y-101416000D02*
X108677000Y-103816000D01*
%TO.C,SW1*%
X108677000Y-97288000D02*
X108677000Y-97698000D01*
X108677000Y-97698000D02*
X115097000Y-97698000D01*
X115097000Y-97698000D02*
X115097000Y-97418000D01*
X115097000Y-95688000D02*
X115097000Y-93288000D01*
X115097000Y-91688000D02*
X115097000Y-91278000D01*
X115097000Y-91278000D02*
X108677000Y-91278000D01*
X108677000Y-91278000D02*
X108677000Y-91688000D01*
X108677000Y-93288000D02*
X108677000Y-95688000D01*
%TO.C,R13*%
X177708779Y-82044000D02*
X177383221Y-82044000D01*
X177708779Y-81024000D02*
X177383221Y-81024000D01*
%TO.C,R12*%
X155890079Y-100332000D02*
X155564521Y-100332000D01*
X155890079Y-99312000D02*
X155564521Y-99312000D01*
%TO.C,R11*%
X155564521Y-97762600D02*
X155890079Y-97762600D01*
X155564521Y-98782600D02*
X155890079Y-98782600D01*
%TO.C,R10*%
X122773221Y-93470000D02*
X123098779Y-93470000D01*
X122773221Y-94490000D02*
X123098779Y-94490000D01*
%TO.C,R9*%
X122773221Y-96010000D02*
X123098779Y-96010000D01*
X122773221Y-97030000D02*
X123098779Y-97030000D01*
%TO.C,R8*%
X120050779Y-99062000D02*
X119725221Y-99062000D01*
X120050779Y-98042000D02*
X119725221Y-98042000D01*
%TO.C,R7*%
X122773221Y-99058000D02*
X123098779Y-99058000D01*
X122773221Y-100078000D02*
X123098779Y-100078000D01*
%TO.C,R6*%
X122773221Y-97534000D02*
X123098779Y-97534000D01*
X122773221Y-98554000D02*
X123098779Y-98554000D01*
%TO.C,R5*%
X162163979Y-84812600D02*
X161838421Y-84812600D01*
X162163979Y-83792600D02*
X161838421Y-83792600D01*
%TO.C,R4*%
X160873221Y-103934800D02*
X161198779Y-103934800D01*
X160873221Y-104954800D02*
X161198779Y-104954800D01*
%TO.C,R3*%
X123098779Y-101602000D02*
X122773221Y-101602000D01*
X123098779Y-100582000D02*
X122773221Y-100582000D01*
%TO.C,R2*%
X118937721Y-84326000D02*
X119263279Y-84326000D01*
X118937721Y-85346000D02*
X119263279Y-85346000D01*
%TO.C,R1*%
X155564521Y-96213200D02*
X155890079Y-96213200D01*
X155564521Y-97233200D02*
X155890079Y-97233200D01*
%TO.C,Q1*%
X123823000Y-87432000D02*
X123823000Y-86502000D01*
X123823000Y-84272000D02*
X123823000Y-85202000D01*
X123823000Y-84272000D02*
X121663000Y-84272000D01*
X123823000Y-87432000D02*
X122363000Y-87432000D01*
%TO.C,J9*%
X207266000Y-82737000D02*
X207266000Y-92857000D01*
X198046000Y-82737000D02*
X198046000Y-92857000D01*
X202946000Y-82737000D02*
X198046000Y-82737000D01*
X207266000Y-82737000D02*
X205166000Y-82737000D01*
X202946000Y-92857000D02*
X198046000Y-92857000D01*
X202946000Y-92857000D02*
X202946000Y-93447000D01*
X205166000Y-92857000D02*
X205166000Y-93447000D01*
X205166000Y-82147000D02*
X205166000Y-82737000D01*
X202946000Y-82147000D02*
X202946000Y-82737000D01*
X207266000Y-92857000D02*
X205166000Y-92857000D01*
X205166000Y-93447000D02*
G75*
G02*
X202946000Y-93447000I-1110000J0D01*
G01*
X202946000Y-82147000D02*
G75*
G02*
X205166000Y-82147000I1110000J0D01*
G01*
%TO.C,J8*%
X205174540Y-105726540D02*
X207834540Y-105726540D01*
X205174540Y-98046540D02*
X205174540Y-105726540D01*
X207834540Y-98046540D02*
X207834540Y-105726540D01*
X205174540Y-98046540D02*
X207834540Y-98046540D01*
X205174540Y-96776540D02*
X205174540Y-95446540D01*
X205174540Y-95446540D02*
X206504540Y-95446540D01*
%TO.C,J7*%
X189671000Y-86300000D02*
X187011000Y-86300000D01*
X189671000Y-96520000D02*
X189671000Y-86300000D01*
X187011000Y-96520000D02*
X187011000Y-86300000D01*
X189671000Y-96520000D02*
X187011000Y-96520000D01*
X189671000Y-97790000D02*
X189671000Y-99120000D01*
X189671000Y-99120000D02*
X188341000Y-99120000D01*
%TO.C,J6*%
X192579600Y-100092400D02*
X192579600Y-103412400D01*
X199799600Y-100092400D02*
X199799600Y-103412400D01*
X194529600Y-105362400D02*
X197849600Y-105362400D01*
X194529600Y-98142400D02*
X197849600Y-98142400D01*
%TO.C,BUZZER*%
X172593000Y-80966000D02*
X172593000Y-83626000D01*
X172593000Y-80966000D02*
X169993000Y-80966000D01*
X169993000Y-80966000D02*
X169993000Y-83626000D01*
X172593000Y-83626000D02*
X169993000Y-83626000D01*
X175193000Y-83626000D02*
X173863000Y-83626000D01*
X175193000Y-82296000D02*
X175193000Y-83626000D01*
%TO.C,J3*%
X158184600Y-99697600D02*
X162904600Y-99697600D01*
X162904600Y-99697600D02*
X162904600Y-87577600D01*
X162904600Y-87577600D02*
X158184600Y-87577600D01*
X158184600Y-87577600D02*
X158184600Y-99697600D01*
X158184600Y-97937600D02*
X157984600Y-97937600D01*
X157984600Y-97937600D02*
X157984600Y-98237600D01*
X157984600Y-98237600D02*
X158184600Y-98237600D01*
X158084600Y-97937600D02*
X158084600Y-98237600D01*
X158184600Y-97137600D02*
X158794600Y-97137600D01*
X158794600Y-97137600D02*
X158794600Y-99087600D01*
X158794600Y-99087600D02*
X162294600Y-99087600D01*
X162294600Y-99087600D02*
X162294600Y-88187600D01*
X162294600Y-88187600D02*
X158794600Y-88187600D01*
X158794600Y-88187600D02*
X158794600Y-90137600D01*
X158794600Y-90137600D02*
X158184600Y-90137600D01*
X159494600Y-99697600D02*
X159494600Y-99087600D01*
X160794600Y-99697600D02*
X160794600Y-99087600D01*
X159494600Y-87577600D02*
X159494600Y-88187600D01*
X160794600Y-87577600D02*
X160794600Y-88187600D01*
X162294600Y-96737600D02*
X161794600Y-96737600D01*
X161794600Y-96737600D02*
X161794600Y-96537600D01*
X161794600Y-96537600D02*
X162294600Y-96537600D01*
X162294600Y-96637600D02*
X161794600Y-96637600D01*
X162294600Y-94737600D02*
X161794600Y-94737600D01*
X161794600Y-94737600D02*
X161794600Y-94537600D01*
X161794600Y-94537600D02*
X162294600Y-94537600D01*
X162294600Y-94637600D02*
X161794600Y-94637600D01*
X162294600Y-92737600D02*
X161794600Y-92737600D01*
X161794600Y-92737600D02*
X161794600Y-92537600D01*
X161794600Y-92537600D02*
X162294600Y-92537600D01*
X162294600Y-92637600D02*
X161794600Y-92637600D01*
X162294600Y-90737600D02*
X161794600Y-90737600D01*
X161794600Y-90737600D02*
X161794600Y-90537600D01*
X161794600Y-90537600D02*
X162294600Y-90537600D01*
X162294600Y-90637600D02*
X161794600Y-90637600D01*
X157884600Y-98747600D02*
X157884600Y-99997600D01*
X157884600Y-99997600D02*
X159134600Y-99997600D01*
%TO.C,J2*%
X114517000Y-85963500D02*
X114067000Y-85963500D01*
X114517000Y-84113500D02*
X114517000Y-85963500D01*
X106717000Y-81563500D02*
X106717000Y-81813500D01*
X114517000Y-81563500D02*
X114517000Y-81813500D01*
X106717000Y-84113500D02*
X106717000Y-85963500D01*
X106717000Y-85963500D02*
X107167000Y-85963500D01*
X112317000Y-86513500D02*
X111867000Y-86513500D01*
X112317000Y-86513500D02*
X112317000Y-86063500D01*
%TO.C,J1*%
X201235000Y-105851000D02*
X203895000Y-105851000D01*
X201235000Y-98171000D02*
X201235000Y-105851000D01*
X203895000Y-98171000D02*
X203895000Y-105851000D01*
X201235000Y-98171000D02*
X203895000Y-98171000D01*
X201235000Y-96901000D02*
X201235000Y-95571000D01*
X201235000Y-95571000D02*
X202565000Y-95571000D01*
%TO.C,D5*%
X164374000Y-80661000D02*
X164374000Y-82661000D01*
X164374000Y-82661000D02*
X168274000Y-82661000D01*
X164374000Y-80661000D02*
X168274000Y-80661000D01*
%TO.C,D4*%
X120688000Y-99341000D02*
X118403000Y-99341000D01*
X118403000Y-99341000D02*
X118403000Y-100811000D01*
X118403000Y-100811000D02*
X120688000Y-100811000D01*
%TO.C,D3*%
X120868000Y-87995000D02*
X120868000Y-85995000D01*
X120868000Y-85995000D02*
X116968000Y-85995000D01*
X120868000Y-87995000D02*
X116968000Y-87995000D01*
%TO.C,D2*%
X162801200Y-82043600D02*
X160516200Y-82043600D01*
X160516200Y-82043600D02*
X160516200Y-83513600D01*
X160516200Y-83513600D02*
X162801200Y-83513600D01*
%TO.C,D1*%
X161836000Y-105310000D02*
X159551000Y-105310000D01*
X159551000Y-105310000D02*
X159551000Y-106780000D01*
X159551000Y-106780000D02*
X161836000Y-106780000D01*
%TO.C,C16*%
X161838421Y-85316600D02*
X162163979Y-85316600D01*
X161838421Y-86336600D02*
X162163979Y-86336600D01*
%TO.C,C15*%
X155564521Y-91565000D02*
X155890079Y-91565000D01*
X155564521Y-92585000D02*
X155890079Y-92585000D01*
%TO.C,C14*%
X155564521Y-93114400D02*
X155890079Y-93114400D01*
X155564521Y-94134400D02*
X155890079Y-94134400D01*
%TO.C,C13*%
X120050779Y-96014000D02*
X119725221Y-96014000D01*
X120050779Y-94994000D02*
X119725221Y-94994000D01*
%TO.C,C12*%
X160873221Y-102410800D02*
X161198779Y-102410800D01*
X160873221Y-103430800D02*
X161198779Y-103430800D01*
%TO.C,C11*%
X155589921Y-86916800D02*
X155915479Y-86916800D01*
X155589921Y-87936800D02*
X155915479Y-87936800D01*
%TO.C,C10*%
X123098779Y-92966000D02*
X122773221Y-92966000D01*
X123098779Y-91946000D02*
X122773221Y-91946000D01*
%TO.C,C9*%
X160873221Y-100886800D02*
X161198779Y-100886800D01*
X160873221Y-101906800D02*
X161198779Y-101906800D01*
%TO.C,C8*%
X162163979Y-81663000D02*
X161838421Y-81663000D01*
X162163979Y-80643000D02*
X161838421Y-80643000D01*
%TO.C,C7*%
X155890079Y-89486200D02*
X155564521Y-89486200D01*
X155890079Y-88466200D02*
X155564521Y-88466200D01*
%TO.C,C6*%
X155564521Y-90015600D02*
X155890079Y-90015600D01*
X155564521Y-91035600D02*
X155890079Y-91035600D01*
%TO.C,C5*%
X120050779Y-97538000D02*
X119725221Y-97538000D01*
X120050779Y-96518000D02*
X119725221Y-96518000D01*
%TO.C,C4*%
X123098779Y-91442000D02*
X122773221Y-91442000D01*
X123098779Y-90422000D02*
X122773221Y-90422000D01*
%TO.C,C3*%
X123098779Y-89918000D02*
X122773221Y-89918000D01*
X123098779Y-88898000D02*
X122773221Y-88898000D01*
%TO.C,C2*%
X155890079Y-95683800D02*
X155564521Y-95683800D01*
X155890079Y-94663800D02*
X155564521Y-94663800D01*
%TO.C,C1*%
X120050779Y-94490000D02*
X119725221Y-94490000D01*
X120050779Y-93470000D02*
X119725221Y-93470000D01*
%TO.C,U6*%
D15*
X156540295Y-83145380D02*
X156540295Y-83954904D01*
X156587914Y-84050142D01*
X156635533Y-84097761D01*
X156730771Y-84145380D01*
X156921247Y-84145380D01*
X157016485Y-84097761D01*
X157064104Y-84050142D01*
X157111723Y-83954904D01*
X157111723Y-83145380D01*
X158016485Y-83145380D02*
X157826009Y-83145380D01*
X157730771Y-83193000D01*
X157683152Y-83240619D01*
X157587914Y-83383476D01*
X157540295Y-83573952D01*
X157540295Y-83954904D01*
X157587914Y-84050142D01*
X157635533Y-84097761D01*
X157730771Y-84145380D01*
X157921247Y-84145380D01*
X158016485Y-84097761D01*
X158064104Y-84050142D01*
X158111723Y-83954904D01*
X158111723Y-83716809D01*
X158064104Y-83621571D01*
X158016485Y-83573952D01*
X157921247Y-83526333D01*
X157730771Y-83526333D01*
X157635533Y-83573952D01*
X157587914Y-83621571D01*
X157540295Y-83716809D01*
X154317700Y-81645380D02*
X154317700Y-81883476D01*
X154079604Y-81788238D02*
X154317700Y-81883476D01*
X154555795Y-81788238D01*
X154174842Y-82073952D02*
X154317700Y-81883476D01*
X154460557Y-82073952D01*
X154317700Y-81645380D02*
X154317700Y-81883476D01*
X154079604Y-81788238D02*
X154317700Y-81883476D01*
X154555795Y-81788238D01*
X154174842Y-82073952D02*
X154317700Y-81883476D01*
X154460557Y-82073952D01*
%TO.C,BOOT*%
X110529857Y-90352571D02*
X110672714Y-90400190D01*
X110720333Y-90447809D01*
X110767952Y-90543047D01*
X110767952Y-90685904D01*
X110720333Y-90781142D01*
X110672714Y-90828761D01*
X110577476Y-90876380D01*
X110196523Y-90876380D01*
X110196523Y-89876380D01*
X110529857Y-89876380D01*
X110625095Y-89924000D01*
X110672714Y-89971619D01*
X110720333Y-90066857D01*
X110720333Y-90162095D01*
X110672714Y-90257333D01*
X110625095Y-90304952D01*
X110529857Y-90352571D01*
X110196523Y-90352571D01*
X111387000Y-89876380D02*
X111577476Y-89876380D01*
X111672714Y-89924000D01*
X111767952Y-90019238D01*
X111815571Y-90209714D01*
X111815571Y-90543047D01*
X111767952Y-90733523D01*
X111672714Y-90828761D01*
X111577476Y-90876380D01*
X111387000Y-90876380D01*
X111291761Y-90828761D01*
X111196523Y-90733523D01*
X111148904Y-90543047D01*
X111148904Y-90209714D01*
X111196523Y-90019238D01*
X111291761Y-89924000D01*
X111387000Y-89876380D01*
X112434619Y-89876380D02*
X112625095Y-89876380D01*
X112720333Y-89924000D01*
X112815571Y-90019238D01*
X112863190Y-90209714D01*
X112863190Y-90543047D01*
X112815571Y-90733523D01*
X112720333Y-90828761D01*
X112625095Y-90876380D01*
X112434619Y-90876380D01*
X112339380Y-90828761D01*
X112244142Y-90733523D01*
X112196523Y-90543047D01*
X112196523Y-90209714D01*
X112244142Y-90019238D01*
X112339380Y-89924000D01*
X112434619Y-89876380D01*
X113148904Y-89876380D02*
X113720333Y-89876380D01*
X113434619Y-90876380D02*
X113434619Y-89876380D01*
X110434619Y-99004380D02*
X110101285Y-98528190D01*
X109863190Y-99004380D02*
X109863190Y-98004380D01*
X110244142Y-98004380D01*
X110339380Y-98052000D01*
X110387000Y-98099619D01*
X110434619Y-98194857D01*
X110434619Y-98337714D01*
X110387000Y-98432952D01*
X110339380Y-98480571D01*
X110244142Y-98528190D01*
X109863190Y-98528190D01*
X110863190Y-98480571D02*
X111196523Y-98480571D01*
X111339380Y-99004380D02*
X110863190Y-99004380D01*
X110863190Y-98004380D01*
X111339380Y-98004380D01*
X111720333Y-98956761D02*
X111863190Y-99004380D01*
X112101285Y-99004380D01*
X112196523Y-98956761D01*
X112244142Y-98909142D01*
X112291761Y-98813904D01*
X112291761Y-98718666D01*
X112244142Y-98623428D01*
X112196523Y-98575809D01*
X112101285Y-98528190D01*
X111910809Y-98480571D01*
X111815571Y-98432952D01*
X111767952Y-98385333D01*
X111720333Y-98290095D01*
X111720333Y-98194857D01*
X111767952Y-98099619D01*
X111815571Y-98052000D01*
X111910809Y-98004380D01*
X112148904Y-98004380D01*
X112291761Y-98052000D01*
X112720333Y-98480571D02*
X113053666Y-98480571D01*
X113196523Y-99004380D02*
X112720333Y-99004380D01*
X112720333Y-98004380D01*
X113196523Y-98004380D01*
X113482238Y-98004380D02*
X114053666Y-98004380D01*
X113767952Y-99004380D02*
X113767952Y-98004380D01*
%TO.C,J9*%
D16*
X194198857Y-82549904D02*
X194198857Y-81026095D01*
X194960761Y-81788000D02*
X193436952Y-81788000D01*
X194198857Y-94741904D02*
X194198857Y-93218095D01*
%TO.C,BUZZER*%
D15*
X170362857Y-84764571D02*
X170505714Y-84812190D01*
X170553333Y-84859809D01*
X170600952Y-84955047D01*
X170600952Y-85097904D01*
X170553333Y-85193142D01*
X170505714Y-85240761D01*
X170410476Y-85288380D01*
X170029523Y-85288380D01*
X170029523Y-84288380D01*
X170362857Y-84288380D01*
X170458095Y-84336000D01*
X170505714Y-84383619D01*
X170553333Y-84478857D01*
X170553333Y-84574095D01*
X170505714Y-84669333D01*
X170458095Y-84716952D01*
X170362857Y-84764571D01*
X170029523Y-84764571D01*
X171029523Y-84288380D02*
X171029523Y-85097904D01*
X171077142Y-85193142D01*
X171124761Y-85240761D01*
X171220000Y-85288380D01*
X171410476Y-85288380D01*
X171505714Y-85240761D01*
X171553333Y-85193142D01*
X171600952Y-85097904D01*
X171600952Y-84288380D01*
X171981904Y-84288380D02*
X172648571Y-84288380D01*
X171981904Y-85288380D01*
X172648571Y-85288380D01*
X172934285Y-84288380D02*
X173600952Y-84288380D01*
X172934285Y-85288380D01*
X173600952Y-85288380D01*
X173981904Y-84764571D02*
X174315238Y-84764571D01*
X174458095Y-85288380D02*
X173981904Y-85288380D01*
X173981904Y-84288380D01*
X174458095Y-84288380D01*
X175458095Y-85288380D02*
X175124761Y-84812190D01*
X174886666Y-85288380D02*
X174886666Y-84288380D01*
X175267619Y-84288380D01*
X175362857Y-84336000D01*
X175410476Y-84383619D01*
X175458095Y-84478857D01*
X175458095Y-84621714D01*
X175410476Y-84716952D01*
X175362857Y-84764571D01*
X175267619Y-84812190D01*
X174886666Y-84812190D01*
%TO.C,J3*%
X164446980Y-94804266D02*
X163970790Y-95137600D01*
X164446980Y-95375695D02*
X163446980Y-95375695D01*
X163446980Y-94994742D01*
X163494600Y-94899504D01*
X163542219Y-94851885D01*
X163637457Y-94804266D01*
X163780314Y-94804266D01*
X163875552Y-94851885D01*
X163923171Y-94899504D01*
X163970790Y-94994742D01*
X163970790Y-95375695D01*
X164446980Y-93804266D02*
X163970790Y-94137600D01*
X164446980Y-94375695D02*
X163446980Y-94375695D01*
X163446980Y-93994742D01*
X163494600Y-93899504D01*
X163542219Y-93851885D01*
X163637457Y-93804266D01*
X163780314Y-93804266D01*
X163875552Y-93851885D01*
X163923171Y-93899504D01*
X163970790Y-93994742D01*
X163970790Y-94375695D01*
X164351742Y-92804266D02*
X164399361Y-92851885D01*
X164446980Y-92994742D01*
X164446980Y-93089980D01*
X164399361Y-93232838D01*
X164304123Y-93328076D01*
X164208885Y-93375695D01*
X164018409Y-93423314D01*
X163875552Y-93423314D01*
X163685076Y-93375695D01*
X163589838Y-93328076D01*
X163494600Y-93232838D01*
X163446980Y-93089980D01*
X163446980Y-92994742D01*
X163494600Y-92851885D01*
X163542219Y-92804266D01*
X163446980Y-92470933D02*
X163446980Y-91851885D01*
X163827933Y-92185219D01*
X163827933Y-92042361D01*
X163875552Y-91947123D01*
X163923171Y-91899504D01*
X164018409Y-91851885D01*
X164256504Y-91851885D01*
X164351742Y-91899504D01*
X164399361Y-91947123D01*
X164446980Y-92042361D01*
X164446980Y-92328076D01*
X164399361Y-92423314D01*
X164351742Y-92470933D01*
%TD*%
M02*
