%TF.GenerationSoftware,KiCad,Pcbnew,(5.1.6)-1*%
%TF.CreationDate,2021-06-02T18:30:26+10:00*%
%TF.ProjectId,L2_board,4c325f62-6f61-4726-942e-6b696361645f,2.0*%
%TF.SameCoordinates,Original*%
%TF.FileFunction,Paste,Bot*%
%TF.FilePolarity,Positive*%
%FSLAX46Y46*%
G04 Gerber Fmt 4.6, Leading zero omitted, Abs format (unit mm)*
G04 Created by KiCad (PCBNEW (5.1.6)-1) date 2021-06-02 18:30:26*
%MOMM*%
%LPD*%
G01*
G04 APERTURE LIST*
%ADD10C,0.152400*%
%ADD11R,1.000000X2.000000*%
%ADD12R,0.800000X1.900000*%
%ADD13R,1.092200X0.609600*%
%ADD14R,1.800000X1.200000*%
%ADD15R,2.200000X1.200000*%
%ADD16R,1.500000X1.600000*%
%ADD17R,1.600000X0.700000*%
G04 APERTURE END LIST*
D10*
%TO.C,U3*%
X150363100Y-95356200D02*
X150363100Y-95965800D01*
X150363100Y-95965800D02*
X149270900Y-95965800D01*
X149270900Y-95965800D02*
X149270900Y-95356200D01*
X149270900Y-95356200D02*
X150363100Y-95356200D01*
X150363100Y-96606200D02*
X150363100Y-97215800D01*
X150363100Y-97215800D02*
X149270900Y-97215800D01*
X149270900Y-97215800D02*
X149270900Y-96606200D01*
X149270900Y-96606200D02*
X150363100Y-96606200D01*
X150363100Y-97856200D02*
X150363100Y-98465800D01*
X150363100Y-98465800D02*
X149270900Y-98465800D01*
X149270900Y-98465800D02*
X149270900Y-97856200D01*
X149270900Y-97856200D02*
X150363100Y-97856200D01*
X150363100Y-99106200D02*
X150363100Y-99715800D01*
X150363100Y-99715800D02*
X149270900Y-99715800D01*
X149270900Y-99715800D02*
X149270900Y-99106200D01*
X149270900Y-99106200D02*
X150363100Y-99106200D01*
X148163100Y-99106200D02*
X148163100Y-99715800D01*
X148163100Y-99715800D02*
X147070900Y-99715800D01*
X147070900Y-99715800D02*
X147070900Y-99106200D01*
X147070900Y-99106200D02*
X148163100Y-99106200D01*
X148163100Y-97856200D02*
X148163100Y-98465800D01*
X148163100Y-98465800D02*
X147070900Y-98465800D01*
X147070900Y-98465800D02*
X147070900Y-97856200D01*
X147070900Y-97856200D02*
X148163100Y-97856200D01*
X148163100Y-96606200D02*
X148163100Y-97215800D01*
X148163100Y-97215800D02*
X147070900Y-97215800D01*
X147070900Y-97215800D02*
X147070900Y-96606200D01*
X147070900Y-96606200D02*
X148163100Y-96606200D01*
X148163100Y-95356200D02*
X148163100Y-95965800D01*
X148163100Y-95965800D02*
X147070900Y-95965800D01*
X147070900Y-95965800D02*
X147070900Y-95356200D01*
X147070900Y-95356200D02*
X148163100Y-95356200D01*
%TD*%
D11*
%TO.C,U7*%
X170292000Y-101980000D03*
X172292000Y-101980000D03*
X174292000Y-101980000D03*
X176292000Y-101980000D03*
X178292000Y-101980000D03*
X180292000Y-101980000D03*
X182292000Y-101980000D03*
X184292000Y-101980000D03*
X184292000Y-85980000D03*
X182292000Y-85980000D03*
X180292000Y-85980000D03*
X178292000Y-85980000D03*
X176292000Y-85980000D03*
X174292000Y-85980000D03*
X172292000Y-85980000D03*
X170292000Y-85980000D03*
%TD*%
D12*
%TO.C,Q3*%
X140589000Y-83717000D03*
X139639000Y-86717000D03*
X141539000Y-86717000D03*
%TD*%
%TO.C,Q2*%
X146812000Y-83844000D03*
X145862000Y-86844000D03*
X147762000Y-86844000D03*
%TD*%
D13*
%TO.C,U3*%
X147617000Y-95661000D03*
X147617000Y-96911000D03*
X147617000Y-98161000D03*
X147617000Y-99411000D03*
X149817000Y-99411000D03*
X149817000Y-98161000D03*
X149817000Y-96911000D03*
X149817000Y-95661000D03*
%TD*%
D14*
%TO.C,J4*%
X120242000Y-105511000D03*
D15*
X110942000Y-105511000D03*
X110942000Y-90011000D03*
D16*
X120492000Y-90911000D03*
D17*
X121542000Y-104311000D03*
X121542000Y-103211000D03*
X121542000Y-102111000D03*
X121542000Y-101011000D03*
X121542000Y-99911000D03*
X121542000Y-98811000D03*
X121542000Y-97711000D03*
X121542000Y-96611000D03*
X121542000Y-95511000D03*
%TD*%
M02*
