%TF.GenerationSoftware,KiCad,Pcbnew,(5.1.6)-1*%
%TF.CreationDate,2021-06-02T18:30:26+10:00*%
%TF.ProjectId,L2_board,4c325f62-6f61-4726-942e-6b696361645f,2.0*%
%TF.SameCoordinates,Original*%
%TF.FileFunction,Soldermask,Top*%
%TF.FilePolarity,Negative*%
%FSLAX46Y46*%
G04 Gerber Fmt 4.6, Leading zero omitted, Abs format (unit mm)*
G04 Created by KiCad (PCBNEW (5.1.6)-1) date 2021-06-02 18:30:26*
%MOMM*%
%LPD*%
G01*
G04 APERTURE LIST*
%ADD10C,3.300000*%
%ADD11R,2.000000X0.900000*%
%ADD12R,2.843200X2.741600*%
%ADD13R,0.354000X0.811200*%
%ADD14R,0.811200X0.354000*%
%ADD15C,1.100000*%
%ADD16R,1.100000X2.600000*%
%ADD17R,3.450000X3.450000*%
%ADD18R,2.100000X1.600000*%
%ADD19R,2.100000X3.900000*%
%ADD20R,2.100000X1.000000*%
%ADD21R,1.000000X2.100000*%
%ADD22R,5.100000X5.100000*%
%ADD23R,2.900000X1.100000*%
%ADD24R,1.000000X0.900000*%
%ADD25C,3.600000*%
%ADD26R,3.600000X3.600000*%
%ADD27C,1.500000*%
%ADD28O,1.800000X1.800000*%
%ADD29R,1.800000X1.800000*%
%ADD30C,2.350000*%
%ADD31C,2.150000*%
%ADD32O,1.850000X1.300000*%
%ADD33R,1.300000X2.000000*%
%ADD34O,1.300000X2.000000*%
%ADD35R,1.600000X2.000000*%
%ADD36C,1.550000*%
%ADD37R,0.500000X1.450000*%
%ADD38R,1.000000X1.300000*%
G04 APERTURE END LIST*
%TO.C,C18*%
G36*
G01*
X194169600Y-96620882D02*
X194169600Y-95707918D01*
G75*
G02*
X194438118Y-95439400I268518J0D01*
G01*
X195401082Y-95439400D01*
G75*
G02*
X195669600Y-95707918I0J-268518D01*
G01*
X195669600Y-96620882D01*
G75*
G02*
X195401082Y-96889400I-268518J0D01*
G01*
X194438118Y-96889400D01*
G75*
G02*
X194169600Y-96620882I0J268518D01*
G01*
G37*
G36*
G01*
X196869600Y-96620882D02*
X196869600Y-95707918D01*
G75*
G02*
X197138118Y-95439400I268518J0D01*
G01*
X198101082Y-95439400D01*
G75*
G02*
X198369600Y-95707918I0J-268518D01*
G01*
X198369600Y-96620882D01*
G75*
G02*
X198101082Y-96889400I-268518J0D01*
G01*
X197138118Y-96889400D01*
G75*
G02*
X196869600Y-96620882I0J268518D01*
G01*
G37*
%TD*%
%TO.C,C17*%
G36*
G01*
X117095300Y-81339867D02*
X117095300Y-83252133D01*
G75*
G02*
X116826433Y-83521000I-268867J0D01*
G01*
X115939167Y-83521000D01*
G75*
G02*
X115670300Y-83252133I0J268867D01*
G01*
X115670300Y-81339867D01*
G75*
G02*
X115939167Y-81071000I268867J0D01*
G01*
X116826433Y-81071000D01*
G75*
G02*
X117095300Y-81339867I0J-268867D01*
G01*
G37*
G36*
G01*
X120170300Y-81339867D02*
X120170300Y-83252133D01*
G75*
G02*
X119901433Y-83521000I-268867J0D01*
G01*
X119014167Y-83521000D01*
G75*
G02*
X118745300Y-83252133I0J268867D01*
G01*
X118745300Y-81339867D01*
G75*
G02*
X119014167Y-81071000I268867J0D01*
G01*
X119901433Y-81071000D01*
G75*
G02*
X120170300Y-81339867I0J-268867D01*
G01*
G37*
%TD*%
D10*
%TO.C,REF\u002A\u002A*%
X127472000Y-83016000D03*
%TD*%
%TO.C,REF\u002A\u002A*%
X188722000Y-83016000D03*
%TD*%
%TO.C,REF\u002A\u002A*%
X188722000Y-104016000D03*
%TD*%
%TO.C,REF\u002A\u002A*%
X127472000Y-104016000D03*
%TD*%
D11*
%TO.C,Q4*%
X184507000Y-82423000D03*
X181507000Y-83373000D03*
X181507000Y-81473000D03*
%TD*%
D12*
%TO.C,U6*%
X157302200Y-83693000D03*
D13*
X156052200Y-81699100D03*
X156552199Y-81699100D03*
X157052200Y-81699100D03*
X157552200Y-81699100D03*
X158052201Y-81699100D03*
X158552200Y-81699100D03*
D14*
X159296100Y-82443000D03*
X159296100Y-82942999D03*
X159296100Y-83443000D03*
X159296100Y-83943000D03*
X159296100Y-84443001D03*
X159296100Y-84943000D03*
D13*
X158552200Y-85686900D03*
X158052201Y-85686900D03*
X157552200Y-85686900D03*
X157052200Y-85686900D03*
X156552199Y-85686900D03*
X156052200Y-85686900D03*
D14*
X155308300Y-84943000D03*
X155308300Y-84443001D03*
X155308300Y-83943000D03*
X155308300Y-83443000D03*
X155308300Y-82942999D03*
X155308300Y-82443000D03*
%TD*%
D15*
%TO.C,J4*%
X110542000Y-102711000D03*
X110542000Y-94711000D03*
%TD*%
D16*
%TO.C,U5*%
X181737000Y-89151000D03*
X179197000Y-89151000D03*
X176657000Y-89151000D03*
X169037000Y-89151000D03*
X171577000Y-89151000D03*
X181737000Y-104651000D03*
X179197000Y-104651000D03*
X169037000Y-104651000D03*
X171577000Y-104651000D03*
X176657000Y-104651000D03*
X174117000Y-89151000D03*
X174117000Y-104651000D03*
%TD*%
D17*
%TO.C,U4*%
X129390000Y-96901000D03*
G36*
G01*
X127715000Y-94813500D02*
X127715000Y-94088500D01*
G75*
G02*
X127802500Y-94001000I87500J0D01*
G01*
X127977500Y-94001000D01*
G75*
G02*
X128065000Y-94088500I0J-87500D01*
G01*
X128065000Y-94813500D01*
G75*
G02*
X127977500Y-94901000I-87500J0D01*
G01*
X127802500Y-94901000D01*
G75*
G02*
X127715000Y-94813500I0J87500D01*
G01*
G37*
G36*
G01*
X128215000Y-94813500D02*
X128215000Y-94088500D01*
G75*
G02*
X128302500Y-94001000I87500J0D01*
G01*
X128477500Y-94001000D01*
G75*
G02*
X128565000Y-94088500I0J-87500D01*
G01*
X128565000Y-94813500D01*
G75*
G02*
X128477500Y-94901000I-87500J0D01*
G01*
X128302500Y-94901000D01*
G75*
G02*
X128215000Y-94813500I0J87500D01*
G01*
G37*
G36*
G01*
X128715000Y-94813500D02*
X128715000Y-94088500D01*
G75*
G02*
X128802500Y-94001000I87500J0D01*
G01*
X128977500Y-94001000D01*
G75*
G02*
X129065000Y-94088500I0J-87500D01*
G01*
X129065000Y-94813500D01*
G75*
G02*
X128977500Y-94901000I-87500J0D01*
G01*
X128802500Y-94901000D01*
G75*
G02*
X128715000Y-94813500I0J87500D01*
G01*
G37*
G36*
G01*
X129215000Y-94813500D02*
X129215000Y-94088500D01*
G75*
G02*
X129302500Y-94001000I87500J0D01*
G01*
X129477500Y-94001000D01*
G75*
G02*
X129565000Y-94088500I0J-87500D01*
G01*
X129565000Y-94813500D01*
G75*
G02*
X129477500Y-94901000I-87500J0D01*
G01*
X129302500Y-94901000D01*
G75*
G02*
X129215000Y-94813500I0J87500D01*
G01*
G37*
G36*
G01*
X129715000Y-94813500D02*
X129715000Y-94088500D01*
G75*
G02*
X129802500Y-94001000I87500J0D01*
G01*
X129977500Y-94001000D01*
G75*
G02*
X130065000Y-94088500I0J-87500D01*
G01*
X130065000Y-94813500D01*
G75*
G02*
X129977500Y-94901000I-87500J0D01*
G01*
X129802500Y-94901000D01*
G75*
G02*
X129715000Y-94813500I0J87500D01*
G01*
G37*
G36*
G01*
X130215000Y-94813500D02*
X130215000Y-94088500D01*
G75*
G02*
X130302500Y-94001000I87500J0D01*
G01*
X130477500Y-94001000D01*
G75*
G02*
X130565000Y-94088500I0J-87500D01*
G01*
X130565000Y-94813500D01*
G75*
G02*
X130477500Y-94901000I-87500J0D01*
G01*
X130302500Y-94901000D01*
G75*
G02*
X130215000Y-94813500I0J87500D01*
G01*
G37*
G36*
G01*
X130715000Y-94813500D02*
X130715000Y-94088500D01*
G75*
G02*
X130802500Y-94001000I87500J0D01*
G01*
X130977500Y-94001000D01*
G75*
G02*
X131065000Y-94088500I0J-87500D01*
G01*
X131065000Y-94813500D01*
G75*
G02*
X130977500Y-94901000I-87500J0D01*
G01*
X130802500Y-94901000D01*
G75*
G02*
X130715000Y-94813500I0J87500D01*
G01*
G37*
G36*
G01*
X131390000Y-95488500D02*
X131390000Y-95313500D01*
G75*
G02*
X131477500Y-95226000I87500J0D01*
G01*
X132202500Y-95226000D01*
G75*
G02*
X132290000Y-95313500I0J-87500D01*
G01*
X132290000Y-95488500D01*
G75*
G02*
X132202500Y-95576000I-87500J0D01*
G01*
X131477500Y-95576000D01*
G75*
G02*
X131390000Y-95488500I0J87500D01*
G01*
G37*
G36*
G01*
X131390000Y-95988500D02*
X131390000Y-95813500D01*
G75*
G02*
X131477500Y-95726000I87500J0D01*
G01*
X132202500Y-95726000D01*
G75*
G02*
X132290000Y-95813500I0J-87500D01*
G01*
X132290000Y-95988500D01*
G75*
G02*
X132202500Y-96076000I-87500J0D01*
G01*
X131477500Y-96076000D01*
G75*
G02*
X131390000Y-95988500I0J87500D01*
G01*
G37*
G36*
G01*
X131390000Y-96488500D02*
X131390000Y-96313500D01*
G75*
G02*
X131477500Y-96226000I87500J0D01*
G01*
X132202500Y-96226000D01*
G75*
G02*
X132290000Y-96313500I0J-87500D01*
G01*
X132290000Y-96488500D01*
G75*
G02*
X132202500Y-96576000I-87500J0D01*
G01*
X131477500Y-96576000D01*
G75*
G02*
X131390000Y-96488500I0J87500D01*
G01*
G37*
G36*
G01*
X131390000Y-96988500D02*
X131390000Y-96813500D01*
G75*
G02*
X131477500Y-96726000I87500J0D01*
G01*
X132202500Y-96726000D01*
G75*
G02*
X132290000Y-96813500I0J-87500D01*
G01*
X132290000Y-96988500D01*
G75*
G02*
X132202500Y-97076000I-87500J0D01*
G01*
X131477500Y-97076000D01*
G75*
G02*
X131390000Y-96988500I0J87500D01*
G01*
G37*
G36*
G01*
X131390000Y-97488500D02*
X131390000Y-97313500D01*
G75*
G02*
X131477500Y-97226000I87500J0D01*
G01*
X132202500Y-97226000D01*
G75*
G02*
X132290000Y-97313500I0J-87500D01*
G01*
X132290000Y-97488500D01*
G75*
G02*
X132202500Y-97576000I-87500J0D01*
G01*
X131477500Y-97576000D01*
G75*
G02*
X131390000Y-97488500I0J87500D01*
G01*
G37*
G36*
G01*
X131390000Y-97988500D02*
X131390000Y-97813500D01*
G75*
G02*
X131477500Y-97726000I87500J0D01*
G01*
X132202500Y-97726000D01*
G75*
G02*
X132290000Y-97813500I0J-87500D01*
G01*
X132290000Y-97988500D01*
G75*
G02*
X132202500Y-98076000I-87500J0D01*
G01*
X131477500Y-98076000D01*
G75*
G02*
X131390000Y-97988500I0J87500D01*
G01*
G37*
G36*
G01*
X131390000Y-98488500D02*
X131390000Y-98313500D01*
G75*
G02*
X131477500Y-98226000I87500J0D01*
G01*
X132202500Y-98226000D01*
G75*
G02*
X132290000Y-98313500I0J-87500D01*
G01*
X132290000Y-98488500D01*
G75*
G02*
X132202500Y-98576000I-87500J0D01*
G01*
X131477500Y-98576000D01*
G75*
G02*
X131390000Y-98488500I0J87500D01*
G01*
G37*
G36*
G01*
X130715000Y-99713500D02*
X130715000Y-98988500D01*
G75*
G02*
X130802500Y-98901000I87500J0D01*
G01*
X130977500Y-98901000D01*
G75*
G02*
X131065000Y-98988500I0J-87500D01*
G01*
X131065000Y-99713500D01*
G75*
G02*
X130977500Y-99801000I-87500J0D01*
G01*
X130802500Y-99801000D01*
G75*
G02*
X130715000Y-99713500I0J87500D01*
G01*
G37*
G36*
G01*
X130215000Y-99713500D02*
X130215000Y-98988500D01*
G75*
G02*
X130302500Y-98901000I87500J0D01*
G01*
X130477500Y-98901000D01*
G75*
G02*
X130565000Y-98988500I0J-87500D01*
G01*
X130565000Y-99713500D01*
G75*
G02*
X130477500Y-99801000I-87500J0D01*
G01*
X130302500Y-99801000D01*
G75*
G02*
X130215000Y-99713500I0J87500D01*
G01*
G37*
G36*
G01*
X129715000Y-99713500D02*
X129715000Y-98988500D01*
G75*
G02*
X129802500Y-98901000I87500J0D01*
G01*
X129977500Y-98901000D01*
G75*
G02*
X130065000Y-98988500I0J-87500D01*
G01*
X130065000Y-99713500D01*
G75*
G02*
X129977500Y-99801000I-87500J0D01*
G01*
X129802500Y-99801000D01*
G75*
G02*
X129715000Y-99713500I0J87500D01*
G01*
G37*
G36*
G01*
X129215000Y-99713500D02*
X129215000Y-98988500D01*
G75*
G02*
X129302500Y-98901000I87500J0D01*
G01*
X129477500Y-98901000D01*
G75*
G02*
X129565000Y-98988500I0J-87500D01*
G01*
X129565000Y-99713500D01*
G75*
G02*
X129477500Y-99801000I-87500J0D01*
G01*
X129302500Y-99801000D01*
G75*
G02*
X129215000Y-99713500I0J87500D01*
G01*
G37*
G36*
G01*
X128715000Y-99713500D02*
X128715000Y-98988500D01*
G75*
G02*
X128802500Y-98901000I87500J0D01*
G01*
X128977500Y-98901000D01*
G75*
G02*
X129065000Y-98988500I0J-87500D01*
G01*
X129065000Y-99713500D01*
G75*
G02*
X128977500Y-99801000I-87500J0D01*
G01*
X128802500Y-99801000D01*
G75*
G02*
X128715000Y-99713500I0J87500D01*
G01*
G37*
G36*
G01*
X128215000Y-99713500D02*
X128215000Y-98988500D01*
G75*
G02*
X128302500Y-98901000I87500J0D01*
G01*
X128477500Y-98901000D01*
G75*
G02*
X128565000Y-98988500I0J-87500D01*
G01*
X128565000Y-99713500D01*
G75*
G02*
X128477500Y-99801000I-87500J0D01*
G01*
X128302500Y-99801000D01*
G75*
G02*
X128215000Y-99713500I0J87500D01*
G01*
G37*
G36*
G01*
X127715000Y-99713500D02*
X127715000Y-98988500D01*
G75*
G02*
X127802500Y-98901000I87500J0D01*
G01*
X127977500Y-98901000D01*
G75*
G02*
X128065000Y-98988500I0J-87500D01*
G01*
X128065000Y-99713500D01*
G75*
G02*
X127977500Y-99801000I-87500J0D01*
G01*
X127802500Y-99801000D01*
G75*
G02*
X127715000Y-99713500I0J87500D01*
G01*
G37*
G36*
G01*
X126490000Y-98488500D02*
X126490000Y-98313500D01*
G75*
G02*
X126577500Y-98226000I87500J0D01*
G01*
X127302500Y-98226000D01*
G75*
G02*
X127390000Y-98313500I0J-87500D01*
G01*
X127390000Y-98488500D01*
G75*
G02*
X127302500Y-98576000I-87500J0D01*
G01*
X126577500Y-98576000D01*
G75*
G02*
X126490000Y-98488500I0J87500D01*
G01*
G37*
G36*
G01*
X126490000Y-97988500D02*
X126490000Y-97813500D01*
G75*
G02*
X126577500Y-97726000I87500J0D01*
G01*
X127302500Y-97726000D01*
G75*
G02*
X127390000Y-97813500I0J-87500D01*
G01*
X127390000Y-97988500D01*
G75*
G02*
X127302500Y-98076000I-87500J0D01*
G01*
X126577500Y-98076000D01*
G75*
G02*
X126490000Y-97988500I0J87500D01*
G01*
G37*
G36*
G01*
X126490000Y-97488500D02*
X126490000Y-97313500D01*
G75*
G02*
X126577500Y-97226000I87500J0D01*
G01*
X127302500Y-97226000D01*
G75*
G02*
X127390000Y-97313500I0J-87500D01*
G01*
X127390000Y-97488500D01*
G75*
G02*
X127302500Y-97576000I-87500J0D01*
G01*
X126577500Y-97576000D01*
G75*
G02*
X126490000Y-97488500I0J87500D01*
G01*
G37*
G36*
G01*
X126490000Y-96988500D02*
X126490000Y-96813500D01*
G75*
G02*
X126577500Y-96726000I87500J0D01*
G01*
X127302500Y-96726000D01*
G75*
G02*
X127390000Y-96813500I0J-87500D01*
G01*
X127390000Y-96988500D01*
G75*
G02*
X127302500Y-97076000I-87500J0D01*
G01*
X126577500Y-97076000D01*
G75*
G02*
X126490000Y-96988500I0J87500D01*
G01*
G37*
G36*
G01*
X126490000Y-96488500D02*
X126490000Y-96313500D01*
G75*
G02*
X126577500Y-96226000I87500J0D01*
G01*
X127302500Y-96226000D01*
G75*
G02*
X127390000Y-96313500I0J-87500D01*
G01*
X127390000Y-96488500D01*
G75*
G02*
X127302500Y-96576000I-87500J0D01*
G01*
X126577500Y-96576000D01*
G75*
G02*
X126490000Y-96488500I0J87500D01*
G01*
G37*
G36*
G01*
X126490000Y-95988500D02*
X126490000Y-95813500D01*
G75*
G02*
X126577500Y-95726000I87500J0D01*
G01*
X127302500Y-95726000D01*
G75*
G02*
X127390000Y-95813500I0J-87500D01*
G01*
X127390000Y-95988500D01*
G75*
G02*
X127302500Y-96076000I-87500J0D01*
G01*
X126577500Y-96076000D01*
G75*
G02*
X126490000Y-95988500I0J87500D01*
G01*
G37*
G36*
G01*
X126490000Y-95488500D02*
X126490000Y-95313500D01*
G75*
G02*
X126577500Y-95226000I87500J0D01*
G01*
X127302500Y-95226000D01*
G75*
G02*
X127390000Y-95313500I0J-87500D01*
G01*
X127390000Y-95488500D01*
G75*
G02*
X127302500Y-95576000I-87500J0D01*
G01*
X126577500Y-95576000D01*
G75*
G02*
X126490000Y-95488500I0J87500D01*
G01*
G37*
%TD*%
D18*
%TO.C,U2*%
X126517000Y-87362000D03*
X126517000Y-91962000D03*
X126517000Y-89662000D03*
D19*
X132817000Y-89662000D03*
%TD*%
D20*
%TO.C,U1*%
X135772000Y-99187000D03*
X135772000Y-97917000D03*
X135772000Y-96647000D03*
X135772000Y-95377000D03*
X135772000Y-94107000D03*
X135772000Y-92837000D03*
X135772000Y-91567000D03*
X135772000Y-90297000D03*
X135772000Y-89027000D03*
X135772000Y-87757000D03*
X135772000Y-86487000D03*
X135772000Y-85217000D03*
X135772000Y-83947000D03*
X135772000Y-82677000D03*
D21*
X138557000Y-81677000D03*
X139827000Y-81677000D03*
X141097000Y-81677000D03*
X142367000Y-81677000D03*
X143637000Y-81677000D03*
X144907000Y-81677000D03*
X146177000Y-81677000D03*
X147447000Y-81677000D03*
X148717000Y-81677000D03*
X149987000Y-81677000D03*
D20*
X152772000Y-82677000D03*
X152772000Y-83947000D03*
X152772000Y-85217000D03*
X152772000Y-86487000D03*
X152772000Y-87757000D03*
X152772000Y-89027000D03*
X152772000Y-90297000D03*
X152772000Y-91567000D03*
X152772000Y-92837000D03*
X152772000Y-94107000D03*
X152772000Y-95377000D03*
X152772000Y-96647000D03*
X152772000Y-97917000D03*
X152772000Y-99187000D03*
D22*
X145272000Y-91687000D03*
%TD*%
D23*
%TO.C,BOOT*%
X114787000Y-104616000D03*
X108987000Y-104616000D03*
X114787000Y-100616000D03*
X108987000Y-100616000D03*
%TD*%
%TO.C,SW1*%
X114787000Y-96488000D03*
X108987000Y-96488000D03*
X114787000Y-92488000D03*
X108987000Y-92488000D03*
%TD*%
%TO.C,R13*%
G36*
G01*
X177246000Y-81252750D02*
X177246000Y-81815250D01*
G75*
G02*
X177002250Y-82059000I-243750J0D01*
G01*
X176514750Y-82059000D01*
G75*
G02*
X176271000Y-81815250I0J243750D01*
G01*
X176271000Y-81252750D01*
G75*
G02*
X176514750Y-81009000I243750J0D01*
G01*
X177002250Y-81009000D01*
G75*
G02*
X177246000Y-81252750I0J-243750D01*
G01*
G37*
G36*
G01*
X178821000Y-81252750D02*
X178821000Y-81815250D01*
G75*
G02*
X178577250Y-82059000I-243750J0D01*
G01*
X178089750Y-82059000D01*
G75*
G02*
X177846000Y-81815250I0J243750D01*
G01*
X177846000Y-81252750D01*
G75*
G02*
X178089750Y-81009000I243750J0D01*
G01*
X178577250Y-81009000D01*
G75*
G02*
X178821000Y-81252750I0J-243750D01*
G01*
G37*
%TD*%
%TO.C,R12*%
G36*
G01*
X155427300Y-99540750D02*
X155427300Y-100103250D01*
G75*
G02*
X155183550Y-100347000I-243750J0D01*
G01*
X154696050Y-100347000D01*
G75*
G02*
X154452300Y-100103250I0J243750D01*
G01*
X154452300Y-99540750D01*
G75*
G02*
X154696050Y-99297000I243750J0D01*
G01*
X155183550Y-99297000D01*
G75*
G02*
X155427300Y-99540750I0J-243750D01*
G01*
G37*
G36*
G01*
X157002300Y-99540750D02*
X157002300Y-100103250D01*
G75*
G02*
X156758550Y-100347000I-243750J0D01*
G01*
X156271050Y-100347000D01*
G75*
G02*
X156027300Y-100103250I0J243750D01*
G01*
X156027300Y-99540750D01*
G75*
G02*
X156271050Y-99297000I243750J0D01*
G01*
X156758550Y-99297000D01*
G75*
G02*
X157002300Y-99540750I0J-243750D01*
G01*
G37*
%TD*%
%TO.C,R11*%
G36*
G01*
X156027300Y-98553850D02*
X156027300Y-97991350D01*
G75*
G02*
X156271050Y-97747600I243750J0D01*
G01*
X156758550Y-97747600D01*
G75*
G02*
X157002300Y-97991350I0J-243750D01*
G01*
X157002300Y-98553850D01*
G75*
G02*
X156758550Y-98797600I-243750J0D01*
G01*
X156271050Y-98797600D01*
G75*
G02*
X156027300Y-98553850I0J243750D01*
G01*
G37*
G36*
G01*
X154452300Y-98553850D02*
X154452300Y-97991350D01*
G75*
G02*
X154696050Y-97747600I243750J0D01*
G01*
X155183550Y-97747600D01*
G75*
G02*
X155427300Y-97991350I0J-243750D01*
G01*
X155427300Y-98553850D01*
G75*
G02*
X155183550Y-98797600I-243750J0D01*
G01*
X154696050Y-98797600D01*
G75*
G02*
X154452300Y-98553850I0J243750D01*
G01*
G37*
%TD*%
%TO.C,R10*%
G36*
G01*
X123236000Y-94261250D02*
X123236000Y-93698750D01*
G75*
G02*
X123479750Y-93455000I243750J0D01*
G01*
X123967250Y-93455000D01*
G75*
G02*
X124211000Y-93698750I0J-243750D01*
G01*
X124211000Y-94261250D01*
G75*
G02*
X123967250Y-94505000I-243750J0D01*
G01*
X123479750Y-94505000D01*
G75*
G02*
X123236000Y-94261250I0J243750D01*
G01*
G37*
G36*
G01*
X121661000Y-94261250D02*
X121661000Y-93698750D01*
G75*
G02*
X121904750Y-93455000I243750J0D01*
G01*
X122392250Y-93455000D01*
G75*
G02*
X122636000Y-93698750I0J-243750D01*
G01*
X122636000Y-94261250D01*
G75*
G02*
X122392250Y-94505000I-243750J0D01*
G01*
X121904750Y-94505000D01*
G75*
G02*
X121661000Y-94261250I0J243750D01*
G01*
G37*
%TD*%
%TO.C,R9*%
G36*
G01*
X123236000Y-96801250D02*
X123236000Y-96238750D01*
G75*
G02*
X123479750Y-95995000I243750J0D01*
G01*
X123967250Y-95995000D01*
G75*
G02*
X124211000Y-96238750I0J-243750D01*
G01*
X124211000Y-96801250D01*
G75*
G02*
X123967250Y-97045000I-243750J0D01*
G01*
X123479750Y-97045000D01*
G75*
G02*
X123236000Y-96801250I0J243750D01*
G01*
G37*
G36*
G01*
X121661000Y-96801250D02*
X121661000Y-96238750D01*
G75*
G02*
X121904750Y-95995000I243750J0D01*
G01*
X122392250Y-95995000D01*
G75*
G02*
X122636000Y-96238750I0J-243750D01*
G01*
X122636000Y-96801250D01*
G75*
G02*
X122392250Y-97045000I-243750J0D01*
G01*
X121904750Y-97045000D01*
G75*
G02*
X121661000Y-96801250I0J243750D01*
G01*
G37*
%TD*%
%TO.C,R8*%
G36*
G01*
X119588000Y-98270750D02*
X119588000Y-98833250D01*
G75*
G02*
X119344250Y-99077000I-243750J0D01*
G01*
X118856750Y-99077000D01*
G75*
G02*
X118613000Y-98833250I0J243750D01*
G01*
X118613000Y-98270750D01*
G75*
G02*
X118856750Y-98027000I243750J0D01*
G01*
X119344250Y-98027000D01*
G75*
G02*
X119588000Y-98270750I0J-243750D01*
G01*
G37*
G36*
G01*
X121163000Y-98270750D02*
X121163000Y-98833250D01*
G75*
G02*
X120919250Y-99077000I-243750J0D01*
G01*
X120431750Y-99077000D01*
G75*
G02*
X120188000Y-98833250I0J243750D01*
G01*
X120188000Y-98270750D01*
G75*
G02*
X120431750Y-98027000I243750J0D01*
G01*
X120919250Y-98027000D01*
G75*
G02*
X121163000Y-98270750I0J-243750D01*
G01*
G37*
%TD*%
%TO.C,R7*%
G36*
G01*
X123236000Y-99849250D02*
X123236000Y-99286750D01*
G75*
G02*
X123479750Y-99043000I243750J0D01*
G01*
X123967250Y-99043000D01*
G75*
G02*
X124211000Y-99286750I0J-243750D01*
G01*
X124211000Y-99849250D01*
G75*
G02*
X123967250Y-100093000I-243750J0D01*
G01*
X123479750Y-100093000D01*
G75*
G02*
X123236000Y-99849250I0J243750D01*
G01*
G37*
G36*
G01*
X121661000Y-99849250D02*
X121661000Y-99286750D01*
G75*
G02*
X121904750Y-99043000I243750J0D01*
G01*
X122392250Y-99043000D01*
G75*
G02*
X122636000Y-99286750I0J-243750D01*
G01*
X122636000Y-99849250D01*
G75*
G02*
X122392250Y-100093000I-243750J0D01*
G01*
X121904750Y-100093000D01*
G75*
G02*
X121661000Y-99849250I0J243750D01*
G01*
G37*
%TD*%
%TO.C,R6*%
G36*
G01*
X123236000Y-98325250D02*
X123236000Y-97762750D01*
G75*
G02*
X123479750Y-97519000I243750J0D01*
G01*
X123967250Y-97519000D01*
G75*
G02*
X124211000Y-97762750I0J-243750D01*
G01*
X124211000Y-98325250D01*
G75*
G02*
X123967250Y-98569000I-243750J0D01*
G01*
X123479750Y-98569000D01*
G75*
G02*
X123236000Y-98325250I0J243750D01*
G01*
G37*
G36*
G01*
X121661000Y-98325250D02*
X121661000Y-97762750D01*
G75*
G02*
X121904750Y-97519000I243750J0D01*
G01*
X122392250Y-97519000D01*
G75*
G02*
X122636000Y-97762750I0J-243750D01*
G01*
X122636000Y-98325250D01*
G75*
G02*
X122392250Y-98569000I-243750J0D01*
G01*
X121904750Y-98569000D01*
G75*
G02*
X121661000Y-98325250I0J243750D01*
G01*
G37*
%TD*%
%TO.C,R5*%
G36*
G01*
X161701200Y-84021350D02*
X161701200Y-84583850D01*
G75*
G02*
X161457450Y-84827600I-243750J0D01*
G01*
X160969950Y-84827600D01*
G75*
G02*
X160726200Y-84583850I0J243750D01*
G01*
X160726200Y-84021350D01*
G75*
G02*
X160969950Y-83777600I243750J0D01*
G01*
X161457450Y-83777600D01*
G75*
G02*
X161701200Y-84021350I0J-243750D01*
G01*
G37*
G36*
G01*
X163276200Y-84021350D02*
X163276200Y-84583850D01*
G75*
G02*
X163032450Y-84827600I-243750J0D01*
G01*
X162544950Y-84827600D01*
G75*
G02*
X162301200Y-84583850I0J243750D01*
G01*
X162301200Y-84021350D01*
G75*
G02*
X162544950Y-83777600I243750J0D01*
G01*
X163032450Y-83777600D01*
G75*
G02*
X163276200Y-84021350I0J-243750D01*
G01*
G37*
%TD*%
%TO.C,R4*%
G36*
G01*
X161336000Y-104726050D02*
X161336000Y-104163550D01*
G75*
G02*
X161579750Y-103919800I243750J0D01*
G01*
X162067250Y-103919800D01*
G75*
G02*
X162311000Y-104163550I0J-243750D01*
G01*
X162311000Y-104726050D01*
G75*
G02*
X162067250Y-104969800I-243750J0D01*
G01*
X161579750Y-104969800D01*
G75*
G02*
X161336000Y-104726050I0J243750D01*
G01*
G37*
G36*
G01*
X159761000Y-104726050D02*
X159761000Y-104163550D01*
G75*
G02*
X160004750Y-103919800I243750J0D01*
G01*
X160492250Y-103919800D01*
G75*
G02*
X160736000Y-104163550I0J-243750D01*
G01*
X160736000Y-104726050D01*
G75*
G02*
X160492250Y-104969800I-243750J0D01*
G01*
X160004750Y-104969800D01*
G75*
G02*
X159761000Y-104726050I0J243750D01*
G01*
G37*
%TD*%
%TO.C,R3*%
G36*
G01*
X122636000Y-100810750D02*
X122636000Y-101373250D01*
G75*
G02*
X122392250Y-101617000I-243750J0D01*
G01*
X121904750Y-101617000D01*
G75*
G02*
X121661000Y-101373250I0J243750D01*
G01*
X121661000Y-100810750D01*
G75*
G02*
X121904750Y-100567000I243750J0D01*
G01*
X122392250Y-100567000D01*
G75*
G02*
X122636000Y-100810750I0J-243750D01*
G01*
G37*
G36*
G01*
X124211000Y-100810750D02*
X124211000Y-101373250D01*
G75*
G02*
X123967250Y-101617000I-243750J0D01*
G01*
X123479750Y-101617000D01*
G75*
G02*
X123236000Y-101373250I0J243750D01*
G01*
X123236000Y-100810750D01*
G75*
G02*
X123479750Y-100567000I243750J0D01*
G01*
X123967250Y-100567000D01*
G75*
G02*
X124211000Y-100810750I0J-243750D01*
G01*
G37*
%TD*%
%TO.C,R2*%
G36*
G01*
X119400500Y-85117250D02*
X119400500Y-84554750D01*
G75*
G02*
X119644250Y-84311000I243750J0D01*
G01*
X120131750Y-84311000D01*
G75*
G02*
X120375500Y-84554750I0J-243750D01*
G01*
X120375500Y-85117250D01*
G75*
G02*
X120131750Y-85361000I-243750J0D01*
G01*
X119644250Y-85361000D01*
G75*
G02*
X119400500Y-85117250I0J243750D01*
G01*
G37*
G36*
G01*
X117825500Y-85117250D02*
X117825500Y-84554750D01*
G75*
G02*
X118069250Y-84311000I243750J0D01*
G01*
X118556750Y-84311000D01*
G75*
G02*
X118800500Y-84554750I0J-243750D01*
G01*
X118800500Y-85117250D01*
G75*
G02*
X118556750Y-85361000I-243750J0D01*
G01*
X118069250Y-85361000D01*
G75*
G02*
X117825500Y-85117250I0J243750D01*
G01*
G37*
%TD*%
%TO.C,R1*%
G36*
G01*
X156027300Y-97004450D02*
X156027300Y-96441950D01*
G75*
G02*
X156271050Y-96198200I243750J0D01*
G01*
X156758550Y-96198200D01*
G75*
G02*
X157002300Y-96441950I0J-243750D01*
G01*
X157002300Y-97004450D01*
G75*
G02*
X156758550Y-97248200I-243750J0D01*
G01*
X156271050Y-97248200D01*
G75*
G02*
X156027300Y-97004450I0J243750D01*
G01*
G37*
G36*
G01*
X154452300Y-97004450D02*
X154452300Y-96441950D01*
G75*
G02*
X154696050Y-96198200I243750J0D01*
G01*
X155183550Y-96198200D01*
G75*
G02*
X155427300Y-96441950I0J-243750D01*
G01*
X155427300Y-97004450D01*
G75*
G02*
X155183550Y-97248200I-243750J0D01*
G01*
X154696050Y-97248200D01*
G75*
G02*
X154452300Y-97004450I0J243750D01*
G01*
G37*
%TD*%
D24*
%TO.C,Q1*%
X124063000Y-85852000D03*
X122063000Y-86802000D03*
X122063000Y-84902000D03*
%TD*%
D25*
%TO.C,J9*%
X194056000Y-85297000D03*
D26*
X194056000Y-90297000D03*
D27*
X204056000Y-82297000D03*
X204056000Y-93297000D03*
%TD*%
D28*
%TO.C,J8*%
X206504540Y-104396540D03*
X206504540Y-101856540D03*
X206504540Y-99316540D03*
D29*
X206504540Y-96776540D03*
%TD*%
D28*
%TO.C,J7*%
X188341000Y-87630000D03*
X188341000Y-90170000D03*
X188341000Y-92710000D03*
X188341000Y-95250000D03*
D29*
X188341000Y-97790000D03*
%TD*%
D30*
%TO.C,J6*%
X193649600Y-104292400D03*
X193649600Y-99212400D03*
X198729600Y-99212400D03*
X198729600Y-104292400D03*
D31*
X196189600Y-101752400D03*
%TD*%
D28*
%TO.C,BUZZER*%
X171323000Y-82296000D03*
D29*
X173863000Y-82296000D03*
%TD*%
D32*
%TO.C,J3*%
X159994600Y-89637600D03*
X159994600Y-91637600D03*
X159994600Y-93637600D03*
X159994600Y-95637600D03*
G36*
G01*
X160648768Y-98287600D02*
X159340432Y-98287600D01*
G75*
G02*
X159069600Y-98016768I0J270832D01*
G01*
X159069600Y-97258432D01*
G75*
G02*
X159340432Y-96987600I270832J0D01*
G01*
X160648768Y-96987600D01*
G75*
G02*
X160919600Y-97258432I0J-270832D01*
G01*
X160919600Y-98016768D01*
G75*
G02*
X160648768Y-98287600I-270832J0D01*
G01*
G37*
%TD*%
D33*
%TO.C,J2*%
X113517000Y-82963500D03*
X107717000Y-82963500D03*
D34*
X107117000Y-82963500D03*
X114117000Y-82963500D03*
D35*
X111617000Y-82963500D03*
D36*
X108117000Y-85663500D03*
D37*
X110617000Y-85663500D03*
X109967000Y-85663500D03*
X109317000Y-85663500D03*
X111917000Y-85663500D03*
X111267000Y-85663500D03*
D36*
X113117000Y-85663500D03*
D35*
X109617000Y-82963500D03*
%TD*%
D28*
%TO.C,J1*%
X202565000Y-104521000D03*
X202565000Y-101981000D03*
X202565000Y-99441000D03*
D29*
X202565000Y-96901000D03*
%TD*%
D38*
%TO.C,D5*%
X168274000Y-81661000D03*
X164974000Y-81661000D03*
%TD*%
%TO.C,D4*%
G36*
G01*
X120188000Y-100357250D02*
X120188000Y-99794750D01*
G75*
G02*
X120431750Y-99551000I243750J0D01*
G01*
X120919250Y-99551000D01*
G75*
G02*
X121163000Y-99794750I0J-243750D01*
G01*
X121163000Y-100357250D01*
G75*
G02*
X120919250Y-100601000I-243750J0D01*
G01*
X120431750Y-100601000D01*
G75*
G02*
X120188000Y-100357250I0J243750D01*
G01*
G37*
G36*
G01*
X118613000Y-100357250D02*
X118613000Y-99794750D01*
G75*
G02*
X118856750Y-99551000I243750J0D01*
G01*
X119344250Y-99551000D01*
G75*
G02*
X119588000Y-99794750I0J-243750D01*
G01*
X119588000Y-100357250D01*
G75*
G02*
X119344250Y-100601000I-243750J0D01*
G01*
X118856750Y-100601000D01*
G75*
G02*
X118613000Y-100357250I0J243750D01*
G01*
G37*
%TD*%
%TO.C,D3*%
X116968000Y-86995000D03*
X120268000Y-86995000D03*
%TD*%
%TO.C,D2*%
G36*
G01*
X162301200Y-83059850D02*
X162301200Y-82497350D01*
G75*
G02*
X162544950Y-82253600I243750J0D01*
G01*
X163032450Y-82253600D01*
G75*
G02*
X163276200Y-82497350I0J-243750D01*
G01*
X163276200Y-83059850D01*
G75*
G02*
X163032450Y-83303600I-243750J0D01*
G01*
X162544950Y-83303600D01*
G75*
G02*
X162301200Y-83059850I0J243750D01*
G01*
G37*
G36*
G01*
X160726200Y-83059850D02*
X160726200Y-82497350D01*
G75*
G02*
X160969950Y-82253600I243750J0D01*
G01*
X161457450Y-82253600D01*
G75*
G02*
X161701200Y-82497350I0J-243750D01*
G01*
X161701200Y-83059850D01*
G75*
G02*
X161457450Y-83303600I-243750J0D01*
G01*
X160969950Y-83303600D01*
G75*
G02*
X160726200Y-83059850I0J243750D01*
G01*
G37*
%TD*%
%TO.C,D1*%
G36*
G01*
X161336000Y-106326250D02*
X161336000Y-105763750D01*
G75*
G02*
X161579750Y-105520000I243750J0D01*
G01*
X162067250Y-105520000D01*
G75*
G02*
X162311000Y-105763750I0J-243750D01*
G01*
X162311000Y-106326250D01*
G75*
G02*
X162067250Y-106570000I-243750J0D01*
G01*
X161579750Y-106570000D01*
G75*
G02*
X161336000Y-106326250I0J243750D01*
G01*
G37*
G36*
G01*
X159761000Y-106326250D02*
X159761000Y-105763750D01*
G75*
G02*
X160004750Y-105520000I243750J0D01*
G01*
X160492250Y-105520000D01*
G75*
G02*
X160736000Y-105763750I0J-243750D01*
G01*
X160736000Y-106326250D01*
G75*
G02*
X160492250Y-106570000I-243750J0D01*
G01*
X160004750Y-106570000D01*
G75*
G02*
X159761000Y-106326250I0J243750D01*
G01*
G37*
%TD*%
%TO.C,C16*%
G36*
G01*
X162301200Y-86107850D02*
X162301200Y-85545350D01*
G75*
G02*
X162544950Y-85301600I243750J0D01*
G01*
X163032450Y-85301600D01*
G75*
G02*
X163276200Y-85545350I0J-243750D01*
G01*
X163276200Y-86107850D01*
G75*
G02*
X163032450Y-86351600I-243750J0D01*
G01*
X162544950Y-86351600D01*
G75*
G02*
X162301200Y-86107850I0J243750D01*
G01*
G37*
G36*
G01*
X160726200Y-86107850D02*
X160726200Y-85545350D01*
G75*
G02*
X160969950Y-85301600I243750J0D01*
G01*
X161457450Y-85301600D01*
G75*
G02*
X161701200Y-85545350I0J-243750D01*
G01*
X161701200Y-86107850D01*
G75*
G02*
X161457450Y-86351600I-243750J0D01*
G01*
X160969950Y-86351600D01*
G75*
G02*
X160726200Y-86107850I0J243750D01*
G01*
G37*
%TD*%
%TO.C,C15*%
G36*
G01*
X156027300Y-92356250D02*
X156027300Y-91793750D01*
G75*
G02*
X156271050Y-91550000I243750J0D01*
G01*
X156758550Y-91550000D01*
G75*
G02*
X157002300Y-91793750I0J-243750D01*
G01*
X157002300Y-92356250D01*
G75*
G02*
X156758550Y-92600000I-243750J0D01*
G01*
X156271050Y-92600000D01*
G75*
G02*
X156027300Y-92356250I0J243750D01*
G01*
G37*
G36*
G01*
X154452300Y-92356250D02*
X154452300Y-91793750D01*
G75*
G02*
X154696050Y-91550000I243750J0D01*
G01*
X155183550Y-91550000D01*
G75*
G02*
X155427300Y-91793750I0J-243750D01*
G01*
X155427300Y-92356250D01*
G75*
G02*
X155183550Y-92600000I-243750J0D01*
G01*
X154696050Y-92600000D01*
G75*
G02*
X154452300Y-92356250I0J243750D01*
G01*
G37*
%TD*%
%TO.C,C14*%
G36*
G01*
X156027300Y-93905650D02*
X156027300Y-93343150D01*
G75*
G02*
X156271050Y-93099400I243750J0D01*
G01*
X156758550Y-93099400D01*
G75*
G02*
X157002300Y-93343150I0J-243750D01*
G01*
X157002300Y-93905650D01*
G75*
G02*
X156758550Y-94149400I-243750J0D01*
G01*
X156271050Y-94149400D01*
G75*
G02*
X156027300Y-93905650I0J243750D01*
G01*
G37*
G36*
G01*
X154452300Y-93905650D02*
X154452300Y-93343150D01*
G75*
G02*
X154696050Y-93099400I243750J0D01*
G01*
X155183550Y-93099400D01*
G75*
G02*
X155427300Y-93343150I0J-243750D01*
G01*
X155427300Y-93905650D01*
G75*
G02*
X155183550Y-94149400I-243750J0D01*
G01*
X154696050Y-94149400D01*
G75*
G02*
X154452300Y-93905650I0J243750D01*
G01*
G37*
%TD*%
%TO.C,C13*%
G36*
G01*
X119588000Y-95222750D02*
X119588000Y-95785250D01*
G75*
G02*
X119344250Y-96029000I-243750J0D01*
G01*
X118856750Y-96029000D01*
G75*
G02*
X118613000Y-95785250I0J243750D01*
G01*
X118613000Y-95222750D01*
G75*
G02*
X118856750Y-94979000I243750J0D01*
G01*
X119344250Y-94979000D01*
G75*
G02*
X119588000Y-95222750I0J-243750D01*
G01*
G37*
G36*
G01*
X121163000Y-95222750D02*
X121163000Y-95785250D01*
G75*
G02*
X120919250Y-96029000I-243750J0D01*
G01*
X120431750Y-96029000D01*
G75*
G02*
X120188000Y-95785250I0J243750D01*
G01*
X120188000Y-95222750D01*
G75*
G02*
X120431750Y-94979000I243750J0D01*
G01*
X120919250Y-94979000D01*
G75*
G02*
X121163000Y-95222750I0J-243750D01*
G01*
G37*
%TD*%
%TO.C,C12*%
G36*
G01*
X161336000Y-103202050D02*
X161336000Y-102639550D01*
G75*
G02*
X161579750Y-102395800I243750J0D01*
G01*
X162067250Y-102395800D01*
G75*
G02*
X162311000Y-102639550I0J-243750D01*
G01*
X162311000Y-103202050D01*
G75*
G02*
X162067250Y-103445800I-243750J0D01*
G01*
X161579750Y-103445800D01*
G75*
G02*
X161336000Y-103202050I0J243750D01*
G01*
G37*
G36*
G01*
X159761000Y-103202050D02*
X159761000Y-102639550D01*
G75*
G02*
X160004750Y-102395800I243750J0D01*
G01*
X160492250Y-102395800D01*
G75*
G02*
X160736000Y-102639550I0J-243750D01*
G01*
X160736000Y-103202050D01*
G75*
G02*
X160492250Y-103445800I-243750J0D01*
G01*
X160004750Y-103445800D01*
G75*
G02*
X159761000Y-103202050I0J243750D01*
G01*
G37*
%TD*%
%TO.C,C11*%
G36*
G01*
X156052700Y-87708050D02*
X156052700Y-87145550D01*
G75*
G02*
X156296450Y-86901800I243750J0D01*
G01*
X156783950Y-86901800D01*
G75*
G02*
X157027700Y-87145550I0J-243750D01*
G01*
X157027700Y-87708050D01*
G75*
G02*
X156783950Y-87951800I-243750J0D01*
G01*
X156296450Y-87951800D01*
G75*
G02*
X156052700Y-87708050I0J243750D01*
G01*
G37*
G36*
G01*
X154477700Y-87708050D02*
X154477700Y-87145550D01*
G75*
G02*
X154721450Y-86901800I243750J0D01*
G01*
X155208950Y-86901800D01*
G75*
G02*
X155452700Y-87145550I0J-243750D01*
G01*
X155452700Y-87708050D01*
G75*
G02*
X155208950Y-87951800I-243750J0D01*
G01*
X154721450Y-87951800D01*
G75*
G02*
X154477700Y-87708050I0J243750D01*
G01*
G37*
%TD*%
%TO.C,C10*%
G36*
G01*
X122636000Y-92174750D02*
X122636000Y-92737250D01*
G75*
G02*
X122392250Y-92981000I-243750J0D01*
G01*
X121904750Y-92981000D01*
G75*
G02*
X121661000Y-92737250I0J243750D01*
G01*
X121661000Y-92174750D01*
G75*
G02*
X121904750Y-91931000I243750J0D01*
G01*
X122392250Y-91931000D01*
G75*
G02*
X122636000Y-92174750I0J-243750D01*
G01*
G37*
G36*
G01*
X124211000Y-92174750D02*
X124211000Y-92737250D01*
G75*
G02*
X123967250Y-92981000I-243750J0D01*
G01*
X123479750Y-92981000D01*
G75*
G02*
X123236000Y-92737250I0J243750D01*
G01*
X123236000Y-92174750D01*
G75*
G02*
X123479750Y-91931000I243750J0D01*
G01*
X123967250Y-91931000D01*
G75*
G02*
X124211000Y-92174750I0J-243750D01*
G01*
G37*
%TD*%
%TO.C,C9*%
G36*
G01*
X161336000Y-101678050D02*
X161336000Y-101115550D01*
G75*
G02*
X161579750Y-100871800I243750J0D01*
G01*
X162067250Y-100871800D01*
G75*
G02*
X162311000Y-101115550I0J-243750D01*
G01*
X162311000Y-101678050D01*
G75*
G02*
X162067250Y-101921800I-243750J0D01*
G01*
X161579750Y-101921800D01*
G75*
G02*
X161336000Y-101678050I0J243750D01*
G01*
G37*
G36*
G01*
X159761000Y-101678050D02*
X159761000Y-101115550D01*
G75*
G02*
X160004750Y-100871800I243750J0D01*
G01*
X160492250Y-100871800D01*
G75*
G02*
X160736000Y-101115550I0J-243750D01*
G01*
X160736000Y-101678050D01*
G75*
G02*
X160492250Y-101921800I-243750J0D01*
G01*
X160004750Y-101921800D01*
G75*
G02*
X159761000Y-101678050I0J243750D01*
G01*
G37*
%TD*%
%TO.C,C8*%
G36*
G01*
X161701200Y-80871750D02*
X161701200Y-81434250D01*
G75*
G02*
X161457450Y-81678000I-243750J0D01*
G01*
X160969950Y-81678000D01*
G75*
G02*
X160726200Y-81434250I0J243750D01*
G01*
X160726200Y-80871750D01*
G75*
G02*
X160969950Y-80628000I243750J0D01*
G01*
X161457450Y-80628000D01*
G75*
G02*
X161701200Y-80871750I0J-243750D01*
G01*
G37*
G36*
G01*
X163276200Y-80871750D02*
X163276200Y-81434250D01*
G75*
G02*
X163032450Y-81678000I-243750J0D01*
G01*
X162544950Y-81678000D01*
G75*
G02*
X162301200Y-81434250I0J243750D01*
G01*
X162301200Y-80871750D01*
G75*
G02*
X162544950Y-80628000I243750J0D01*
G01*
X163032450Y-80628000D01*
G75*
G02*
X163276200Y-80871750I0J-243750D01*
G01*
G37*
%TD*%
%TO.C,C7*%
G36*
G01*
X155427300Y-88694950D02*
X155427300Y-89257450D01*
G75*
G02*
X155183550Y-89501200I-243750J0D01*
G01*
X154696050Y-89501200D01*
G75*
G02*
X154452300Y-89257450I0J243750D01*
G01*
X154452300Y-88694950D01*
G75*
G02*
X154696050Y-88451200I243750J0D01*
G01*
X155183550Y-88451200D01*
G75*
G02*
X155427300Y-88694950I0J-243750D01*
G01*
G37*
G36*
G01*
X157002300Y-88694950D02*
X157002300Y-89257450D01*
G75*
G02*
X156758550Y-89501200I-243750J0D01*
G01*
X156271050Y-89501200D01*
G75*
G02*
X156027300Y-89257450I0J243750D01*
G01*
X156027300Y-88694950D01*
G75*
G02*
X156271050Y-88451200I243750J0D01*
G01*
X156758550Y-88451200D01*
G75*
G02*
X157002300Y-88694950I0J-243750D01*
G01*
G37*
%TD*%
%TO.C,C6*%
G36*
G01*
X156027300Y-90806850D02*
X156027300Y-90244350D01*
G75*
G02*
X156271050Y-90000600I243750J0D01*
G01*
X156758550Y-90000600D01*
G75*
G02*
X157002300Y-90244350I0J-243750D01*
G01*
X157002300Y-90806850D01*
G75*
G02*
X156758550Y-91050600I-243750J0D01*
G01*
X156271050Y-91050600D01*
G75*
G02*
X156027300Y-90806850I0J243750D01*
G01*
G37*
G36*
G01*
X154452300Y-90806850D02*
X154452300Y-90244350D01*
G75*
G02*
X154696050Y-90000600I243750J0D01*
G01*
X155183550Y-90000600D01*
G75*
G02*
X155427300Y-90244350I0J-243750D01*
G01*
X155427300Y-90806850D01*
G75*
G02*
X155183550Y-91050600I-243750J0D01*
G01*
X154696050Y-91050600D01*
G75*
G02*
X154452300Y-90806850I0J243750D01*
G01*
G37*
%TD*%
%TO.C,C5*%
G36*
G01*
X119588000Y-96746750D02*
X119588000Y-97309250D01*
G75*
G02*
X119344250Y-97553000I-243750J0D01*
G01*
X118856750Y-97553000D01*
G75*
G02*
X118613000Y-97309250I0J243750D01*
G01*
X118613000Y-96746750D01*
G75*
G02*
X118856750Y-96503000I243750J0D01*
G01*
X119344250Y-96503000D01*
G75*
G02*
X119588000Y-96746750I0J-243750D01*
G01*
G37*
G36*
G01*
X121163000Y-96746750D02*
X121163000Y-97309250D01*
G75*
G02*
X120919250Y-97553000I-243750J0D01*
G01*
X120431750Y-97553000D01*
G75*
G02*
X120188000Y-97309250I0J243750D01*
G01*
X120188000Y-96746750D01*
G75*
G02*
X120431750Y-96503000I243750J0D01*
G01*
X120919250Y-96503000D01*
G75*
G02*
X121163000Y-96746750I0J-243750D01*
G01*
G37*
%TD*%
%TO.C,C4*%
G36*
G01*
X122636000Y-90650750D02*
X122636000Y-91213250D01*
G75*
G02*
X122392250Y-91457000I-243750J0D01*
G01*
X121904750Y-91457000D01*
G75*
G02*
X121661000Y-91213250I0J243750D01*
G01*
X121661000Y-90650750D01*
G75*
G02*
X121904750Y-90407000I243750J0D01*
G01*
X122392250Y-90407000D01*
G75*
G02*
X122636000Y-90650750I0J-243750D01*
G01*
G37*
G36*
G01*
X124211000Y-90650750D02*
X124211000Y-91213250D01*
G75*
G02*
X123967250Y-91457000I-243750J0D01*
G01*
X123479750Y-91457000D01*
G75*
G02*
X123236000Y-91213250I0J243750D01*
G01*
X123236000Y-90650750D01*
G75*
G02*
X123479750Y-90407000I243750J0D01*
G01*
X123967250Y-90407000D01*
G75*
G02*
X124211000Y-90650750I0J-243750D01*
G01*
G37*
%TD*%
%TO.C,C3*%
G36*
G01*
X122636000Y-89126750D02*
X122636000Y-89689250D01*
G75*
G02*
X122392250Y-89933000I-243750J0D01*
G01*
X121904750Y-89933000D01*
G75*
G02*
X121661000Y-89689250I0J243750D01*
G01*
X121661000Y-89126750D01*
G75*
G02*
X121904750Y-88883000I243750J0D01*
G01*
X122392250Y-88883000D01*
G75*
G02*
X122636000Y-89126750I0J-243750D01*
G01*
G37*
G36*
G01*
X124211000Y-89126750D02*
X124211000Y-89689250D01*
G75*
G02*
X123967250Y-89933000I-243750J0D01*
G01*
X123479750Y-89933000D01*
G75*
G02*
X123236000Y-89689250I0J243750D01*
G01*
X123236000Y-89126750D01*
G75*
G02*
X123479750Y-88883000I243750J0D01*
G01*
X123967250Y-88883000D01*
G75*
G02*
X124211000Y-89126750I0J-243750D01*
G01*
G37*
%TD*%
%TO.C,C2*%
G36*
G01*
X155427300Y-94892550D02*
X155427300Y-95455050D01*
G75*
G02*
X155183550Y-95698800I-243750J0D01*
G01*
X154696050Y-95698800D01*
G75*
G02*
X154452300Y-95455050I0J243750D01*
G01*
X154452300Y-94892550D01*
G75*
G02*
X154696050Y-94648800I243750J0D01*
G01*
X155183550Y-94648800D01*
G75*
G02*
X155427300Y-94892550I0J-243750D01*
G01*
G37*
G36*
G01*
X157002300Y-94892550D02*
X157002300Y-95455050D01*
G75*
G02*
X156758550Y-95698800I-243750J0D01*
G01*
X156271050Y-95698800D01*
G75*
G02*
X156027300Y-95455050I0J243750D01*
G01*
X156027300Y-94892550D01*
G75*
G02*
X156271050Y-94648800I243750J0D01*
G01*
X156758550Y-94648800D01*
G75*
G02*
X157002300Y-94892550I0J-243750D01*
G01*
G37*
%TD*%
%TO.C,C1*%
G36*
G01*
X119588000Y-93698750D02*
X119588000Y-94261250D01*
G75*
G02*
X119344250Y-94505000I-243750J0D01*
G01*
X118856750Y-94505000D01*
G75*
G02*
X118613000Y-94261250I0J243750D01*
G01*
X118613000Y-93698750D01*
G75*
G02*
X118856750Y-93455000I243750J0D01*
G01*
X119344250Y-93455000D01*
G75*
G02*
X119588000Y-93698750I0J-243750D01*
G01*
G37*
G36*
G01*
X121163000Y-93698750D02*
X121163000Y-94261250D01*
G75*
G02*
X120919250Y-94505000I-243750J0D01*
G01*
X120431750Y-94505000D01*
G75*
G02*
X120188000Y-94261250I0J243750D01*
G01*
X120188000Y-93698750D01*
G75*
G02*
X120431750Y-93455000I243750J0D01*
G01*
X120919250Y-93455000D01*
G75*
G02*
X121163000Y-93698750I0J-243750D01*
G01*
G37*
%TD*%
M02*
