%TF.GenerationSoftware,KiCad,Pcbnew,(5.1.6)-1*%
%TF.CreationDate,2021-06-02T18:30:26+10:00*%
%TF.ProjectId,L2_board,4c325f62-6f61-4726-942e-6b696361645f,2.0*%
%TF.SameCoordinates,Original*%
%TF.FileFunction,Legend,Bot*%
%TF.FilePolarity,Positive*%
%FSLAX46Y46*%
G04 Gerber Fmt 4.6, Leading zero omitted, Abs format (unit mm)*
G04 Created by KiCad (PCBNEW (5.1.6)-1) date 2021-06-02 18:30:26*
%MOMM*%
%LPD*%
G01*
G04 APERTURE LIST*
%ADD10C,0.200000*%
%ADD11C,0.010000*%
%ADD12C,0.120000*%
%ADD13C,0.152400*%
%ADD14C,0.100000*%
%ADD15C,0.150000*%
G04 APERTURE END LIST*
D10*
%TO.C,REF\u002A\u002A*%
X157480000Y-88900000D02*
X157830000Y-88900000D01*
X156083534Y-90392916D02*
X156477856Y-90400000D01*
X156477856Y-90400000D02*
X156909511Y-90394940D01*
X157830000Y-90309570D02*
X157823020Y-91048411D01*
X157823020Y-91048411D02*
X157797129Y-91493614D01*
X157830000Y-88900000D02*
X157830000Y-90309570D01*
X141630000Y-94000000D02*
X141630000Y-91450000D01*
X150230000Y-93600000D02*
X150230000Y-94000000D01*
X150230000Y-93200000D02*
X150230000Y-93600000D01*
X154061335Y-92596998D02*
X153894268Y-92600000D01*
X145854843Y-92240756D02*
X145751441Y-92166345D01*
X154202003Y-92587743D02*
X154061335Y-92596998D01*
X152130000Y-92435161D02*
X152130000Y-94000000D01*
X141630000Y-88900000D02*
X143330000Y-88900000D01*
X149830000Y-93200000D02*
X150230000Y-93200000D01*
X153977477Y-89873193D02*
X153836347Y-90112345D01*
X153229924Y-91174477D02*
X153779962Y-91845514D01*
X143730000Y-89700000D02*
X142430000Y-89700000D01*
X153141327Y-89718439D02*
X153580000Y-88902807D01*
X154424850Y-89135418D02*
X154082415Y-89700000D01*
X142030000Y-94000000D02*
X141630000Y-94000000D01*
X142430000Y-91850000D02*
X142430000Y-94000000D01*
X154082415Y-89700000D02*
X153977477Y-89873193D01*
X145030000Y-88900000D02*
X145030000Y-89300000D01*
X149430000Y-93200000D02*
X149830000Y-93200000D01*
X152702655Y-90534070D02*
X153141327Y-89718439D01*
X141630000Y-91450000D02*
X141630000Y-88900000D01*
X151230000Y-88900000D02*
X151680000Y-88900000D01*
X145030000Y-89700000D02*
X143730000Y-89700000D01*
X151680000Y-88900000D02*
X152130000Y-88900000D01*
X153779962Y-91845514D02*
X153990801Y-92105746D01*
X152794268Y-91735161D02*
X152130000Y-90870322D01*
X151680000Y-94000000D02*
X151230000Y-94000000D01*
X154168426Y-92331690D02*
X154320264Y-92529485D01*
X153548140Y-90612238D02*
X153229924Y-91174477D01*
X149430000Y-94000000D02*
X149430000Y-93600000D01*
X149430000Y-93600000D02*
X149430000Y-93200000D01*
X153836347Y-90112345D02*
X153685795Y-90371342D01*
X149830000Y-94000000D02*
X149430000Y-94000000D01*
X142430000Y-94000000D02*
X142030000Y-94000000D01*
X153685795Y-90371342D02*
X153548140Y-90612238D01*
X143330000Y-88900000D02*
X145030000Y-88900000D01*
X152130000Y-88900000D02*
X152132690Y-89375000D01*
X145030000Y-89300000D02*
X145030000Y-89700000D01*
X151230000Y-91450000D02*
X151230000Y-88900000D01*
X153990801Y-92105746D02*
X154168426Y-92331690D01*
X152130000Y-90870322D02*
X152130000Y-92435161D01*
X150230000Y-94000000D02*
X149830000Y-94000000D01*
X152130000Y-94000000D02*
X151680000Y-94000000D01*
X151230000Y-94000000D02*
X151230000Y-91450000D01*
X153580000Y-88902807D02*
X154058518Y-88901403D01*
X153229372Y-92289733D02*
X152794268Y-91735161D01*
X146155000Y-92402692D02*
X145992173Y-92322427D01*
X152419017Y-90192035D02*
X152702655Y-90534070D01*
X154315385Y-92574921D02*
X154202003Y-92587743D01*
X142430000Y-89700000D02*
X142430000Y-91850000D01*
X145743938Y-92075144D02*
X145802576Y-91992371D01*
X145882461Y-91898032D02*
X145977068Y-91802754D01*
X148080000Y-88900000D02*
X148430000Y-88900000D01*
X148423020Y-91048411D02*
X148397129Y-91493614D01*
X147479942Y-89040766D02*
X147624873Y-89131577D01*
X148430000Y-90309570D02*
X148423020Y-91048411D01*
X148430000Y-88900000D02*
X148430000Y-90309570D01*
X145977068Y-91802754D02*
X146114815Y-91683982D01*
X150230000Y-90750000D02*
X150230000Y-92600000D01*
X155254843Y-92240756D02*
X155151441Y-92166345D01*
X149830000Y-92600000D02*
X149430000Y-92600000D01*
X155143938Y-92075144D02*
X155202576Y-91992371D01*
X149830000Y-88900000D02*
X150230000Y-88900000D01*
X155555000Y-92402692D02*
X155392173Y-92322427D01*
X146683534Y-90392916D02*
X147077856Y-90400000D01*
X155377068Y-91802754D02*
X155514815Y-91683982D01*
X149430000Y-92600000D02*
X149430000Y-90750000D01*
X156879942Y-89040766D02*
X157024873Y-89131577D01*
X149430000Y-90750000D02*
X149430000Y-88900000D01*
X149430000Y-88900000D02*
X149830000Y-88900000D01*
X150230000Y-92600000D02*
X149830000Y-92600000D01*
X147077856Y-90400000D02*
X147509511Y-90394940D01*
X150230000Y-88900000D02*
X150230000Y-90750000D01*
X155282461Y-91898032D02*
X155377068Y-91802754D01*
X157117221Y-91353374D02*
G75*
G03*
X157112977Y-91206351I-122572J70035D01*
G01*
X156703975Y-91795647D02*
G75*
G03*
X156825841Y-91726275I-154100J412433D01*
G01*
X156172750Y-91822906D02*
G75*
G03*
X156340708Y-91836405I208887J1547459D01*
G01*
X155687109Y-91643684D02*
G75*
G03*
X155606566Y-91638282I-48360J-117895D01*
G01*
X155864447Y-91748021D02*
G75*
G03*
X156006520Y-91791369I462443J1261166D01*
G01*
X155777782Y-91698159D02*
G75*
G03*
X155864447Y-91748021I188019J226549D01*
G01*
X155606565Y-91638282D02*
G75*
G03*
X155514815Y-91683982I63040J-241512D01*
G01*
X156457512Y-88885435D02*
G75*
G03*
X155911587Y-88888710I-260505J-2078426D01*
G01*
X154982077Y-90428858D02*
G75*
G03*
X155105000Y-90693856I587903J111698D01*
G01*
X156825841Y-91726275D02*
G75*
G03*
X156939994Y-91612490I-475852J591542D01*
G01*
X156551746Y-91830026D02*
G75*
G03*
X156703976Y-91795647I-50005J575639D01*
G01*
X155105000Y-90693856D02*
G75*
G03*
X155316569Y-90862431I487851J395225D01*
G01*
X156340707Y-91836406D02*
G75*
G03*
X156551745Y-91830027I49061J1871077D01*
G01*
X147648342Y-90363969D02*
G75*
G03*
X147711302Y-90286798I-44309J100418D01*
G01*
X155652836Y-90988731D02*
G75*
G03*
X156087872Y-91069485I724964J2693309D01*
G01*
X155394144Y-89031333D02*
G75*
G03*
X155058180Y-89291334I325872J-768141D01*
G01*
X156972957Y-91119636D02*
G75*
G03*
X156605000Y-91097614I-383127J-3316495D01*
G01*
X155143938Y-92075144D02*
G75*
G03*
X155130000Y-92122320I72867J-47176D01*
G01*
X147509511Y-90394940D02*
G75*
G03*
X147648342Y-90363968I-8557J364998D01*
G01*
X157024873Y-89131577D02*
G75*
G03*
X157087060Y-89150322I68318J114120D01*
G01*
X156879943Y-89040767D02*
G75*
G03*
X156457512Y-88885435I-546423J-833944D01*
G01*
X156939993Y-91612489D02*
G75*
G03*
X157117220Y-91353374I-1511849J1224221D01*
G01*
X155911587Y-88888710D02*
G75*
G03*
X155394144Y-89031333I277273J-2015918D01*
G01*
X154933322Y-89989690D02*
G75*
G03*
X154982076Y-90428858I2863385J95589D01*
G01*
X155316569Y-90862432D02*
G75*
G03*
X155652836Y-90988731I821516J1676449D01*
G01*
X156006520Y-91791369D02*
G75*
G03*
X156172749Y-91822907I378571J1541500D01*
G01*
X155254844Y-92240756D02*
G75*
G03*
X155392173Y-92322427I943511J1430213D01*
G01*
X155058180Y-89291334D02*
G75*
G03*
X154952313Y-89550854I420607J-322932D01*
G01*
X147711302Y-90286798D02*
G75*
G03*
X147730000Y-90112244I-805415J174553D01*
G01*
X155777782Y-91698159D02*
G75*
G03*
X155687108Y-91643684I-223471J-269266D01*
G01*
X146506344Y-90360394D02*
G75*
G03*
X146683534Y-90392916I199489J587921D01*
G01*
X155130000Y-92122320D02*
G75*
G03*
X155151441Y-92166345I55919J0D01*
G01*
X154952314Y-89550855D02*
G75*
G03*
X154933322Y-89989690I2848592J-343105D01*
G01*
X156087872Y-91069486D02*
G75*
G03*
X156605000Y-91097614I540769J5174136D01*
G01*
X157112976Y-91206351D02*
G75*
G03*
X156972956Y-91119636I-162231J-105553D01*
G01*
X155282462Y-91898032D02*
G75*
G03*
X155202576Y-91992371I1019712J-944477D01*
G01*
X146155000Y-92402692D02*
G75*
G03*
X146762307Y-92575032I875358J1928458D01*
G01*
X147918325Y-88908187D02*
G75*
G03*
X147812450Y-88935878I35892J-353476D01*
G01*
X147057512Y-88885435D02*
G75*
G03*
X146511587Y-88888710I-260505J-2078426D01*
G01*
X146687872Y-91069486D02*
G75*
G03*
X147205000Y-91097614I540769J5174136D01*
G01*
X146464447Y-91748021D02*
G75*
G03*
X146606520Y-91791369I462443J1261166D01*
G01*
X147303975Y-91795647D02*
G75*
G03*
X147425841Y-91726275I-154100J412433D01*
G01*
X147687059Y-89150321D02*
G75*
G03*
X147719406Y-89127145I1482J32093D01*
G01*
X146862555Y-89517225D02*
G75*
G03*
X146706694Y-89534717I-5086J-657824D01*
G01*
X146377782Y-91698159D02*
G75*
G03*
X146287108Y-91643684I-223471J-269266D01*
G01*
X147690701Y-89879115D02*
G75*
G03*
X147577421Y-89712129I-367901J-127661D01*
G01*
X145994144Y-89031333D02*
G75*
G03*
X145658180Y-89291334I325872J-768141D01*
G01*
X147479943Y-89040767D02*
G75*
G03*
X147057512Y-88885435I-546423J-833944D01*
G01*
X146706694Y-89534717D02*
G75*
G03*
X146569357Y-89586825I128494J-545703D01*
G01*
X146306452Y-90138253D02*
G75*
G03*
X146397957Y-90285280I611680J278701D01*
G01*
X145552314Y-89550855D02*
G75*
G03*
X145533322Y-89989690I2848592J-343105D01*
G01*
X148348480Y-91790099D02*
G75*
G03*
X148397129Y-91493614I-2240718J519904D01*
G01*
X146249110Y-89985362D02*
G75*
G03*
X146306452Y-90138252I1139510J340179D01*
G01*
X147539993Y-91612489D02*
G75*
G03*
X147717220Y-91353374I-1511849J1224221D01*
G01*
X145743938Y-92075144D02*
G75*
G03*
X145730000Y-92122320I72867J-47176D01*
G01*
X146247952Y-89887097D02*
G75*
G03*
X146249110Y-89985362I172530J-47105D01*
G01*
X147729999Y-90112244D02*
G75*
G03*
X147690701Y-89879115I-711144J0D01*
G01*
X147752390Y-88983888D02*
G75*
G03*
X147730000Y-89052305I93335J-68417D01*
G01*
X146569357Y-89586824D02*
G75*
G03*
X146432050Y-89678231I419671J-779246D01*
G01*
X147381397Y-92555672D02*
G75*
G03*
X147911722Y-92353509I-307307J1602812D01*
G01*
X146606520Y-91791369D02*
G75*
G03*
X146772749Y-91822907I378571J1541500D01*
G01*
X148079999Y-88900000D02*
G75*
G03*
X147918324Y-88908187I2J-1600398D01*
G01*
X145658180Y-89291334D02*
G75*
G03*
X145552313Y-89550854I420607J-322932D01*
G01*
X146762307Y-92575032D02*
G75*
G03*
X147381397Y-92555672I248856J1950379D01*
G01*
X147911722Y-92353508D02*
G75*
G03*
X148265215Y-91998099I-521732J872416D01*
G01*
X148265215Y-91998100D02*
G75*
G03*
X148348480Y-91790099I-633755J374368D01*
G01*
X145916568Y-90862431D02*
G75*
G03*
X146252835Y-90988731I821517J1676448D01*
G01*
X146252836Y-90988731D02*
G75*
G03*
X146687872Y-91069485I724964J2693309D01*
G01*
X145533322Y-89989690D02*
G75*
G03*
X145582076Y-90428858I2863385J95589D01*
G01*
X146377782Y-91698159D02*
G75*
G03*
X146464447Y-91748021I188019J226549D01*
G01*
X147425841Y-91726275D02*
G75*
G03*
X147539994Y-91612490I-475852J591542D01*
G01*
X146772750Y-91822906D02*
G75*
G03*
X146940708Y-91836405I208887J1547459D01*
G01*
X147717221Y-91353374D02*
G75*
G03*
X147712977Y-91206351I-122572J70035D01*
G01*
X147712976Y-91206351D02*
G75*
G03*
X147572956Y-91119636I-162231J-105553D01*
G01*
X146940707Y-91836406D02*
G75*
G03*
X147151745Y-91830027I49061J1871077D01*
G01*
X147719407Y-89127145D02*
G75*
G03*
X147730000Y-89052305I-259074J74840D01*
G01*
X145582077Y-90428858D02*
G75*
G03*
X145705000Y-90693856I587903J111698D01*
G01*
X145705000Y-90693856D02*
G75*
G03*
X145916569Y-90862431I487851J395225D01*
G01*
X147572957Y-91119636D02*
G75*
G03*
X147205000Y-91097614I-383127J-3316495D01*
G01*
X145882462Y-91898032D02*
G75*
G03*
X145802576Y-91992371I1019712J-944477D01*
G01*
X146287109Y-91643684D02*
G75*
G03*
X146206566Y-91638282I-48360J-117895D01*
G01*
X146206565Y-91638282D02*
G75*
G03*
X146114815Y-91683982I63040J-241512D01*
G01*
X146299019Y-89798614D02*
G75*
G03*
X146247951Y-89887097I142854J-141428D01*
G01*
X146511587Y-88888710D02*
G75*
G03*
X145994144Y-89031333I277273J-2015918D01*
G01*
X147373852Y-89599868D02*
G75*
G03*
X147057375Y-89530989I-582648J-1915578D01*
G01*
X147812450Y-88935879D02*
G75*
G03*
X147752390Y-88983888I58809J-135143D01*
G01*
X147624873Y-89131577D02*
G75*
G03*
X147687060Y-89150322I68318J114120D01*
G01*
X146397956Y-90285280D02*
G75*
G03*
X146506344Y-90360394I185347J151694D01*
G01*
X147151746Y-91830026D02*
G75*
G03*
X147303976Y-91795647I-50005J575639D01*
G01*
X147057375Y-89530988D02*
G75*
G03*
X146862555Y-89517225I-206852J-1542211D01*
G01*
X146432050Y-89678231D02*
G75*
G03*
X146299020Y-89798614I1029245J-1271064D01*
G01*
X147577421Y-89712128D02*
G75*
G03*
X147373852Y-89599868I-366829J-424492D01*
G01*
X153615213Y-92572830D02*
G75*
G03*
X153894268Y-92600000I279055J1419469D01*
G01*
X145730000Y-92122320D02*
G75*
G03*
X145751441Y-92166345I55919J0D01*
G01*
X145854844Y-92240756D02*
G75*
G03*
X145992173Y-92322427I943511J1430213D01*
G01*
X153428746Y-92487268D02*
G75*
G03*
X153615213Y-92572830I271068J344776D01*
G01*
X154392349Y-88915635D02*
G75*
G03*
X154058518Y-88901403I-323070J-3655591D01*
G01*
X153229373Y-92289733D02*
G75*
G03*
X153428747Y-92487267I958653J768204D01*
G01*
X154315385Y-92574921D02*
G75*
G03*
X154330000Y-92558275I-2172J16646D01*
G01*
X154424849Y-89135418D02*
G75*
G03*
X154462546Y-88990045I-230507J137347D01*
G01*
X154330000Y-92558274D02*
G75*
G03*
X154320264Y-92529485I-47437J-1D01*
G01*
X154462546Y-88990045D02*
G75*
G03*
X154392349Y-88915636I-76977J-2303D01*
G01*
X152148187Y-89627334D02*
G75*
G03*
X152193296Y-89822589I906261J106532D01*
G01*
X152278710Y-89999006D02*
G75*
G03*
X152419017Y-90192035I1580815J1001532D01*
G01*
X152193296Y-89822590D02*
G75*
G03*
X152278711Y-89999006I814290J285366D01*
G01*
X152132689Y-89374999D02*
G75*
G03*
X152148187Y-89627334I2271523J12864D01*
G01*
X155832050Y-89678231D02*
G75*
G03*
X155699020Y-89798614I1029245J-1271064D01*
G01*
X156909511Y-90394940D02*
G75*
G03*
X157048342Y-90363968I-8557J364998D01*
G01*
X156262555Y-89517225D02*
G75*
G03*
X156106694Y-89534717I-5086J-657824D01*
G01*
X157748480Y-91790099D02*
G75*
G03*
X157797129Y-91493614I-2240718J519904D01*
G01*
X155555000Y-92402692D02*
G75*
G03*
X156162307Y-92575032I875358J1928458D01*
G01*
X156781397Y-92555672D02*
G75*
G03*
X157311722Y-92353509I-307307J1602812D01*
G01*
X156106694Y-89534717D02*
G75*
G03*
X155969357Y-89586825I128494J-545703D01*
G01*
X157311722Y-92353508D02*
G75*
G03*
X157665215Y-91998099I-521732J872416D01*
G01*
X156977421Y-89712128D02*
G75*
G03*
X156773852Y-89599868I-366829J-424492D01*
G01*
X155797956Y-90285280D02*
G75*
G03*
X155906344Y-90360394I185347J151694D01*
G01*
X156773852Y-89599868D02*
G75*
G03*
X156457375Y-89530989I-582648J-1915578D01*
G01*
X157090701Y-89879115D02*
G75*
G03*
X156977421Y-89712129I-367901J-127661D01*
G01*
X157129999Y-90112244D02*
G75*
G03*
X157090701Y-89879115I-711144J0D01*
G01*
X155906344Y-90360394D02*
G75*
G03*
X156083534Y-90392916I199489J587921D01*
G01*
X155699019Y-89798614D02*
G75*
G03*
X155647951Y-89887097I142854J-141428D01*
G01*
X157318325Y-88908187D02*
G75*
G03*
X157212450Y-88935878I35892J-353476D01*
G01*
X155706452Y-90138253D02*
G75*
G03*
X155797957Y-90285280I611680J278701D01*
G01*
X155969357Y-89586824D02*
G75*
G03*
X155832050Y-89678231I419671J-779246D01*
G01*
X156457375Y-89530988D02*
G75*
G03*
X156262555Y-89517225I-206852J-1542211D01*
G01*
X156162307Y-92575032D02*
G75*
G03*
X156781397Y-92555672I248856J1950379D01*
G01*
X157119407Y-89127145D02*
G75*
G03*
X157130000Y-89052305I-259074J74840D01*
G01*
X155647952Y-89887097D02*
G75*
G03*
X155649110Y-89985362I172530J-47105D01*
G01*
X157665215Y-91998100D02*
G75*
G03*
X157748480Y-91790099I-633755J374368D01*
G01*
X155649110Y-89985362D02*
G75*
G03*
X155706452Y-90138252I1139510J340179D01*
G01*
X157212450Y-88935879D02*
G75*
G03*
X157152390Y-88983888I58809J-135143D01*
G01*
X157087059Y-89150321D02*
G75*
G03*
X157119406Y-89127145I1482J32093D01*
G01*
X157479999Y-88900000D02*
G75*
G03*
X157318324Y-88908187I2J-1600398D01*
G01*
X157048342Y-90363969D02*
G75*
G03*
X157111302Y-90286798I-44309J100418D01*
G01*
X157152390Y-88983888D02*
G75*
G03*
X157130000Y-89052305I93335J-68417D01*
G01*
X157111302Y-90286798D02*
G75*
G03*
X157130000Y-90112244I-805415J174553D01*
G01*
D11*
%TO.C,G\u002A\u002A\u002A*%
G36*
X137148150Y-92567051D02*
G01*
X137221580Y-92527834D01*
X137223500Y-92519500D01*
X137175178Y-92457846D01*
X137160000Y-92456000D01*
X137121152Y-92400028D01*
X137100128Y-92259464D01*
X137096098Y-92075341D01*
X137108229Y-91888688D01*
X137135690Y-91740538D01*
X137175875Y-91672555D01*
X137171288Y-91653039D01*
X137066156Y-91641693D01*
X137001250Y-91640527D01*
X136863022Y-91647204D01*
X136814683Y-91664007D01*
X136826625Y-91672555D01*
X136888002Y-91753749D01*
X136906000Y-91858042D01*
X136878469Y-91975234D01*
X136772051Y-92011018D01*
X136747250Y-92011500D01*
X136626017Y-91984888D01*
X136588998Y-91882017D01*
X136588500Y-91858042D01*
X136617686Y-91727602D01*
X136667875Y-91672555D01*
X136663288Y-91653039D01*
X136558156Y-91641693D01*
X136493250Y-91640527D01*
X136355022Y-91647204D01*
X136306683Y-91664007D01*
X136318625Y-91672555D01*
X136360070Y-91744794D01*
X136386987Y-91895070D01*
X136398543Y-92082351D01*
X136393907Y-92265606D01*
X136372248Y-92403805D01*
X136334500Y-92456000D01*
X136272845Y-92504322D01*
X136271000Y-92519500D01*
X136326821Y-92561472D01*
X136464082Y-92582452D01*
X136493250Y-92583000D01*
X136640150Y-92567051D01*
X136713580Y-92527834D01*
X136715500Y-92519500D01*
X136667178Y-92457846D01*
X136652000Y-92456000D01*
X136604265Y-92401658D01*
X136588500Y-92297250D01*
X136614727Y-92176409D01*
X136717994Y-92139171D01*
X136747250Y-92138500D01*
X136868091Y-92164728D01*
X136905329Y-92267995D01*
X136906000Y-92297250D01*
X136884263Y-92416587D01*
X136842500Y-92456000D01*
X136780845Y-92504322D01*
X136779000Y-92519500D01*
X136834821Y-92561472D01*
X136972082Y-92582452D01*
X137001250Y-92583000D01*
X137148150Y-92567051D01*
G37*
X137148150Y-92567051D02*
X137221580Y-92527834D01*
X137223500Y-92519500D01*
X137175178Y-92457846D01*
X137160000Y-92456000D01*
X137121152Y-92400028D01*
X137100128Y-92259464D01*
X137096098Y-92075341D01*
X137108229Y-91888688D01*
X137135690Y-91740538D01*
X137175875Y-91672555D01*
X137171288Y-91653039D01*
X137066156Y-91641693D01*
X137001250Y-91640527D01*
X136863022Y-91647204D01*
X136814683Y-91664007D01*
X136826625Y-91672555D01*
X136888002Y-91753749D01*
X136906000Y-91858042D01*
X136878469Y-91975234D01*
X136772051Y-92011018D01*
X136747250Y-92011500D01*
X136626017Y-91984888D01*
X136588998Y-91882017D01*
X136588500Y-91858042D01*
X136617686Y-91727602D01*
X136667875Y-91672555D01*
X136663288Y-91653039D01*
X136558156Y-91641693D01*
X136493250Y-91640527D01*
X136355022Y-91647204D01*
X136306683Y-91664007D01*
X136318625Y-91672555D01*
X136360070Y-91744794D01*
X136386987Y-91895070D01*
X136398543Y-92082351D01*
X136393907Y-92265606D01*
X136372248Y-92403805D01*
X136334500Y-92456000D01*
X136272845Y-92504322D01*
X136271000Y-92519500D01*
X136326821Y-92561472D01*
X136464082Y-92582452D01*
X136493250Y-92583000D01*
X136640150Y-92567051D01*
X136713580Y-92527834D01*
X136715500Y-92519500D01*
X136667178Y-92457846D01*
X136652000Y-92456000D01*
X136604265Y-92401658D01*
X136588500Y-92297250D01*
X136614727Y-92176409D01*
X136717994Y-92139171D01*
X136747250Y-92138500D01*
X136868091Y-92164728D01*
X136905329Y-92267995D01*
X136906000Y-92297250D01*
X136884263Y-92416587D01*
X136842500Y-92456000D01*
X136780845Y-92504322D01*
X136779000Y-92519500D01*
X136834821Y-92561472D01*
X136972082Y-92582452D01*
X137001250Y-92583000D01*
X137148150Y-92567051D01*
G36*
X135188057Y-92458844D02*
G01*
X135191500Y-92429451D01*
X135218606Y-92332355D01*
X135289120Y-92162663D01*
X135372179Y-91988699D01*
X135552858Y-91630500D01*
X135368431Y-91630500D01*
X135249653Y-91647092D01*
X135219033Y-91687119D01*
X135219708Y-91688270D01*
X135232440Y-91806887D01*
X135155165Y-91908848D01*
X135032750Y-91948000D01*
X134908207Y-91907952D01*
X134839857Y-91816852D01*
X134851650Y-91718269D01*
X134887724Y-91684175D01*
X134905580Y-91645477D01*
X134800271Y-91631489D01*
X134797865Y-91631473D01*
X134626480Y-91630500D01*
X134725648Y-91868625D01*
X134817467Y-92075000D01*
X134969250Y-92075000D01*
X134983645Y-92020638D01*
X135029002Y-92011500D01*
X135115884Y-92044654D01*
X135128000Y-92075000D01*
X135082424Y-92136683D01*
X135068247Y-92138500D01*
X134982247Y-92092342D01*
X134969250Y-92075000D01*
X134817467Y-92075000D01*
X134868464Y-92189621D01*
X134988580Y-92414822D01*
X135080599Y-92535147D01*
X135130434Y-92549746D01*
X135188057Y-92458844D01*
G37*
X135188057Y-92458844D02*
X135191500Y-92429451D01*
X135218606Y-92332355D01*
X135289120Y-92162663D01*
X135372179Y-91988699D01*
X135552858Y-91630500D01*
X135368431Y-91630500D01*
X135249653Y-91647092D01*
X135219033Y-91687119D01*
X135219708Y-91688270D01*
X135232440Y-91806887D01*
X135155165Y-91908848D01*
X135032750Y-91948000D01*
X134908207Y-91907952D01*
X134839857Y-91816852D01*
X134851650Y-91718269D01*
X134887724Y-91684175D01*
X134905580Y-91645477D01*
X134800271Y-91631489D01*
X134797865Y-91631473D01*
X134626480Y-91630500D01*
X134725648Y-91868625D01*
X134817467Y-92075000D01*
X134969250Y-92075000D01*
X134983645Y-92020638D01*
X135029002Y-92011500D01*
X135115884Y-92044654D01*
X135128000Y-92075000D01*
X135082424Y-92136683D01*
X135068247Y-92138500D01*
X134982247Y-92092342D01*
X134969250Y-92075000D01*
X134817467Y-92075000D01*
X134868464Y-92189621D01*
X134988580Y-92414822D01*
X135080599Y-92535147D01*
X135130434Y-92549746D01*
X135188057Y-92458844D01*
G36*
X134563256Y-92564607D02*
G01*
X134619985Y-92520291D01*
X134620000Y-92519500D01*
X134571678Y-92457846D01*
X134556500Y-92456000D01*
X134523421Y-92397609D01*
X134500737Y-92242605D01*
X134493000Y-92037959D01*
X134485256Y-91830205D01*
X134464958Y-91687615D01*
X134436547Y-91641084D01*
X134367601Y-91698356D01*
X134249289Y-91823723D01*
X134150797Y-91938133D01*
X133921500Y-92214016D01*
X133921500Y-91959300D01*
X133939878Y-91785922D01*
X133986593Y-91682142D01*
X134000875Y-91672555D01*
X134000088Y-91650711D01*
X133898291Y-91636886D01*
X133861175Y-91635514D01*
X133722508Y-91641302D01*
X133692784Y-91673339D01*
X133718300Y-91706700D01*
X133771197Y-91821127D01*
X133794623Y-91997372D01*
X133789796Y-92188998D01*
X133757935Y-92349565D01*
X133700257Y-92432637D01*
X133699250Y-92433037D01*
X133610324Y-92497301D01*
X133634569Y-92556669D01*
X133760300Y-92582999D01*
X133761518Y-92583000D01*
X133885446Y-92547069D01*
X134023788Y-92427530D01*
X134158393Y-92261278D01*
X134397750Y-91939556D01*
X134418623Y-92147350D01*
X134401292Y-92342707D01*
X134339248Y-92428448D01*
X134249199Y-92516763D01*
X134277876Y-92566962D01*
X134427587Y-92582999D01*
X134429500Y-92583000D01*
X134563256Y-92564607D01*
G37*
X134563256Y-92564607D02*
X134619985Y-92520291D01*
X134620000Y-92519500D01*
X134571678Y-92457846D01*
X134556500Y-92456000D01*
X134523421Y-92397609D01*
X134500737Y-92242605D01*
X134493000Y-92037959D01*
X134485256Y-91830205D01*
X134464958Y-91687615D01*
X134436547Y-91641084D01*
X134367601Y-91698356D01*
X134249289Y-91823723D01*
X134150797Y-91938133D01*
X133921500Y-92214016D01*
X133921500Y-91959300D01*
X133939878Y-91785922D01*
X133986593Y-91682142D01*
X134000875Y-91672555D01*
X134000088Y-91650711D01*
X133898291Y-91636886D01*
X133861175Y-91635514D01*
X133722508Y-91641302D01*
X133692784Y-91673339D01*
X133718300Y-91706700D01*
X133771197Y-91821127D01*
X133794623Y-91997372D01*
X133789796Y-92188998D01*
X133757935Y-92349565D01*
X133700257Y-92432637D01*
X133699250Y-92433037D01*
X133610324Y-92497301D01*
X133634569Y-92556669D01*
X133760300Y-92582999D01*
X133761518Y-92583000D01*
X133885446Y-92547069D01*
X134023788Y-92427530D01*
X134158393Y-92261278D01*
X134397750Y-91939556D01*
X134418623Y-92147350D01*
X134401292Y-92342707D01*
X134339248Y-92428448D01*
X134249199Y-92516763D01*
X134277876Y-92566962D01*
X134427587Y-92582999D01*
X134429500Y-92583000D01*
X134563256Y-92564607D01*
G36*
X132726537Y-92563818D02*
G01*
X132778500Y-92519500D01*
X132727067Y-92463165D01*
X132683250Y-92456000D01*
X132621434Y-92400740D01*
X132586525Y-92261794D01*
X132577704Y-92079411D01*
X132594154Y-91893842D01*
X132635058Y-91745339D01*
X132699125Y-91674273D01*
X132718408Y-91654299D01*
X132630265Y-91640099D01*
X132584875Y-91637867D01*
X132438140Y-91640196D01*
X132378404Y-91684638D01*
X132372844Y-91807645D01*
X132377077Y-91868625D01*
X132394653Y-92106750D01*
X132284951Y-91868949D01*
X132209049Y-91720980D01*
X132151451Y-91637582D01*
X132140106Y-91630824D01*
X132089169Y-91679905D01*
X132002171Y-91803894D01*
X131961962Y-91868625D01*
X131818962Y-92106750D01*
X131841480Y-91868625D01*
X131848184Y-91713143D01*
X131813859Y-91647267D01*
X131717057Y-91635123D01*
X131702124Y-91635514D01*
X131610080Y-91648944D01*
X131619625Y-91672555D01*
X131661070Y-91744794D01*
X131687987Y-91895070D01*
X131699543Y-92082351D01*
X131694907Y-92265606D01*
X131673248Y-92403805D01*
X131635500Y-92456000D01*
X131573845Y-92504322D01*
X131572000Y-92519500D01*
X131625931Y-92568671D01*
X131718147Y-92583000D01*
X131817015Y-92556776D01*
X131903498Y-92461148D01*
X131999784Y-92270679D01*
X132008990Y-92249625D01*
X132153687Y-91916250D01*
X132284097Y-92249625D01*
X132367190Y-92442335D01*
X132440071Y-92542599D01*
X132529862Y-92579362D01*
X132596503Y-92583000D01*
X132726537Y-92563818D01*
G37*
X132726537Y-92563818D02*
X132778500Y-92519500D01*
X132727067Y-92463165D01*
X132683250Y-92456000D01*
X132621434Y-92400740D01*
X132586525Y-92261794D01*
X132577704Y-92079411D01*
X132594154Y-91893842D01*
X132635058Y-91745339D01*
X132699125Y-91674273D01*
X132718408Y-91654299D01*
X132630265Y-91640099D01*
X132584875Y-91637867D01*
X132438140Y-91640196D01*
X132378404Y-91684638D01*
X132372844Y-91807645D01*
X132377077Y-91868625D01*
X132394653Y-92106750D01*
X132284951Y-91868949D01*
X132209049Y-91720980D01*
X132151451Y-91637582D01*
X132140106Y-91630824D01*
X132089169Y-91679905D01*
X132002171Y-91803894D01*
X131961962Y-91868625D01*
X131818962Y-92106750D01*
X131841480Y-91868625D01*
X131848184Y-91713143D01*
X131813859Y-91647267D01*
X131717057Y-91635123D01*
X131702124Y-91635514D01*
X131610080Y-91648944D01*
X131619625Y-91672555D01*
X131661070Y-91744794D01*
X131687987Y-91895070D01*
X131699543Y-92082351D01*
X131694907Y-92265606D01*
X131673248Y-92403805D01*
X131635500Y-92456000D01*
X131573845Y-92504322D01*
X131572000Y-92519500D01*
X131625931Y-92568671D01*
X131718147Y-92583000D01*
X131817015Y-92556776D01*
X131903498Y-92461148D01*
X131999784Y-92270679D01*
X132008990Y-92249625D01*
X132153687Y-91916250D01*
X132284097Y-92249625D01*
X132367190Y-92442335D01*
X132440071Y-92542599D01*
X132529862Y-92579362D01*
X132596503Y-92583000D01*
X132726537Y-92563818D01*
G36*
X136138773Y-92558971D02*
G01*
X136197285Y-92484808D01*
X136207500Y-92388554D01*
X136194925Y-92243591D01*
X136148275Y-92214865D01*
X136054157Y-92299325D01*
X136015810Y-92344875D01*
X135916180Y-92437972D01*
X135839325Y-92427510D01*
X135823688Y-92413757D01*
X135800346Y-92348973D01*
X135868968Y-92267611D01*
X135976537Y-92191507D01*
X136126289Y-92080410D01*
X136224054Y-91982398D01*
X136237628Y-91959275D01*
X136235728Y-91835025D01*
X136172419Y-91704417D01*
X136079735Y-91628491D01*
X136062390Y-91625342D01*
X135943922Y-91617027D01*
X135810625Y-91607370D01*
X135687812Y-91613898D01*
X135642371Y-91683696D01*
X135637411Y-91787154D01*
X135638823Y-91979750D01*
X135755698Y-91827743D01*
X135859835Y-91732749D01*
X135944786Y-91720365D01*
X136013521Y-91813037D01*
X135962526Y-91923402D01*
X135826098Y-92024422D01*
X135690396Y-92147541D01*
X135627620Y-92297589D01*
X135641129Y-92437593D01*
X135734285Y-92530578D01*
X135778875Y-92543892D01*
X136007209Y-92575800D01*
X136138773Y-92558971D01*
G37*
X136138773Y-92558971D02*
X136197285Y-92484808D01*
X136207500Y-92388554D01*
X136194925Y-92243591D01*
X136148275Y-92214865D01*
X136054157Y-92299325D01*
X136015810Y-92344875D01*
X135916180Y-92437972D01*
X135839325Y-92427510D01*
X135823688Y-92413757D01*
X135800346Y-92348973D01*
X135868968Y-92267611D01*
X135976537Y-92191507D01*
X136126289Y-92080410D01*
X136224054Y-91982398D01*
X136237628Y-91959275D01*
X136235728Y-91835025D01*
X136172419Y-91704417D01*
X136079735Y-91628491D01*
X136062390Y-91625342D01*
X135943922Y-91617027D01*
X135810625Y-91607370D01*
X135687812Y-91613898D01*
X135642371Y-91683696D01*
X135637411Y-91787154D01*
X135638823Y-91979750D01*
X135755698Y-91827743D01*
X135859835Y-91732749D01*
X135944786Y-91720365D01*
X136013521Y-91813037D01*
X135962526Y-91923402D01*
X135826098Y-92024422D01*
X135690396Y-92147541D01*
X135627620Y-92297589D01*
X135641129Y-92437593D01*
X135734285Y-92530578D01*
X135778875Y-92543892D01*
X136007209Y-92575800D01*
X136138773Y-92558971D01*
G36*
X133331057Y-92554761D02*
G01*
X133497330Y-92453619D01*
X133609132Y-92290089D01*
X133645332Y-92085604D01*
X133584797Y-91861596D01*
X133566396Y-91828191D01*
X133408239Y-91660586D01*
X133209204Y-91601055D01*
X133093603Y-91618419D01*
X132899725Y-91732937D01*
X132797529Y-91931662D01*
X132778500Y-92112992D01*
X132782088Y-92150906D01*
X132981070Y-92150906D01*
X132991458Y-91934905D01*
X133058372Y-91779839D01*
X133163536Y-91705238D01*
X133288674Y-91730632D01*
X133337300Y-91770200D01*
X133394539Y-91890275D01*
X133415634Y-92066014D01*
X133402610Y-92248658D01*
X133357494Y-92389444D01*
X133309618Y-92436349D01*
X133158145Y-92437943D01*
X133040095Y-92334895D01*
X132981070Y-92150906D01*
X132782088Y-92150906D01*
X132797601Y-92314827D01*
X132866574Y-92439891D01*
X132919629Y-92484150D01*
X133131446Y-92572082D01*
X133331057Y-92554761D01*
G37*
X133331057Y-92554761D02*
X133497330Y-92453619D01*
X133609132Y-92290089D01*
X133645332Y-92085604D01*
X133584797Y-91861596D01*
X133566396Y-91828191D01*
X133408239Y-91660586D01*
X133209204Y-91601055D01*
X133093603Y-91618419D01*
X132899725Y-91732937D01*
X132797529Y-91931662D01*
X132778500Y-92112992D01*
X132782088Y-92150906D01*
X132981070Y-92150906D01*
X132991458Y-91934905D01*
X133058372Y-91779839D01*
X133163536Y-91705238D01*
X133288674Y-91730632D01*
X133337300Y-91770200D01*
X133394539Y-91890275D01*
X133415634Y-92066014D01*
X133402610Y-92248658D01*
X133357494Y-92389444D01*
X133309618Y-92436349D01*
X133158145Y-92437943D01*
X133040095Y-92334895D01*
X132981070Y-92150906D01*
X132782088Y-92150906D01*
X132797601Y-92314827D01*
X132866574Y-92439891D01*
X132919629Y-92484150D01*
X133131446Y-92572082D01*
X133331057Y-92554761D01*
G36*
X136330774Y-91500461D02*
G01*
X136718313Y-91491825D01*
X137028516Y-91478310D01*
X137244987Y-91460638D01*
X137351331Y-91439529D01*
X137352538Y-91438909D01*
X137455923Y-91323223D01*
X137546922Y-91110355D01*
X137617321Y-90830054D01*
X137658908Y-90512070D01*
X137666605Y-90301350D01*
X137630716Y-89920129D01*
X137532193Y-89593472D01*
X137380739Y-89347810D01*
X137284625Y-89261085D01*
X137141507Y-89160841D01*
X137468253Y-88783673D01*
X137622188Y-88601062D01*
X137737104Y-88455359D01*
X137792725Y-88372546D01*
X137795000Y-88365031D01*
X137736361Y-88348470D01*
X137579582Y-88339405D01*
X137353363Y-88339031D01*
X137239959Y-88341903D01*
X136684919Y-88360250D01*
X136398584Y-88754457D01*
X136252029Y-88943177D01*
X136125091Y-89083421D01*
X136041583Y-89149347D01*
X136032875Y-89151332D01*
X135985356Y-89104461D01*
X135959721Y-88952359D01*
X135953500Y-88741250D01*
X135953500Y-88328500D01*
X134874000Y-88328500D01*
X134874000Y-90805000D01*
X135953500Y-90805000D01*
X135953500Y-89725500D01*
X136588500Y-89725500D01*
X136588500Y-90805000D01*
X135953500Y-90805000D01*
X134874000Y-90805000D01*
X134874000Y-91147301D01*
X134703369Y-91325401D01*
X134532739Y-91503500D01*
X135882294Y-91503500D01*
X136330774Y-91500461D01*
G37*
X136330774Y-91500461D02*
X136718313Y-91491825D01*
X137028516Y-91478310D01*
X137244987Y-91460638D01*
X137351331Y-91439529D01*
X137352538Y-91438909D01*
X137455923Y-91323223D01*
X137546922Y-91110355D01*
X137617321Y-90830054D01*
X137658908Y-90512070D01*
X137666605Y-90301350D01*
X137630716Y-89920129D01*
X137532193Y-89593472D01*
X137380739Y-89347810D01*
X137284625Y-89261085D01*
X137141507Y-89160841D01*
X137468253Y-88783673D01*
X137622188Y-88601062D01*
X137737104Y-88455359D01*
X137792725Y-88372546D01*
X137795000Y-88365031D01*
X137736361Y-88348470D01*
X137579582Y-88339405D01*
X137353363Y-88339031D01*
X137239959Y-88341903D01*
X136684919Y-88360250D01*
X136398584Y-88754457D01*
X136252029Y-88943177D01*
X136125091Y-89083421D01*
X136041583Y-89149347D01*
X136032875Y-89151332D01*
X135985356Y-89104461D01*
X135959721Y-88952359D01*
X135953500Y-88741250D01*
X135953500Y-88328500D01*
X134874000Y-88328500D01*
X134874000Y-90805000D01*
X135953500Y-90805000D01*
X135953500Y-89725500D01*
X136588500Y-89725500D01*
X136588500Y-90805000D01*
X135953500Y-90805000D01*
X134874000Y-90805000D01*
X134874000Y-91147301D01*
X134703369Y-91325401D01*
X134532739Y-91503500D01*
X135882294Y-91503500D01*
X136330774Y-91500461D01*
G36*
X133305336Y-91503067D02*
G01*
X133644958Y-91500656D01*
X133892355Y-91494599D01*
X134064917Y-91483230D01*
X134180030Y-91464881D01*
X134255083Y-91437885D01*
X134307463Y-91400574D01*
X134346134Y-91360625D01*
X134489465Y-91142057D01*
X134577865Y-90853835D01*
X134616799Y-90474842D01*
X134619762Y-90303400D01*
X134609937Y-90011232D01*
X134575531Y-89803033D01*
X134508636Y-89636872D01*
X134486815Y-89598500D01*
X134357962Y-89404044D01*
X134228378Y-89276228D01*
X134067314Y-89201345D01*
X133844018Y-89165686D01*
X133527742Y-89155544D01*
X133492875Y-89155412D01*
X132905500Y-89154000D01*
X132905500Y-88328500D01*
X131889500Y-88328500D01*
X131889500Y-90805000D01*
X132905500Y-90805000D01*
X132905500Y-89725500D01*
X133540500Y-89725500D01*
X133540500Y-90805000D01*
X132905500Y-90805000D01*
X131889500Y-90805000D01*
X131889500Y-91054581D01*
X131692421Y-91279041D01*
X131495343Y-91503500D01*
X132856102Y-91503500D01*
X133305336Y-91503067D01*
G37*
X133305336Y-91503067D02*
X133644958Y-91500656D01*
X133892355Y-91494599D01*
X134064917Y-91483230D01*
X134180030Y-91464881D01*
X134255083Y-91437885D01*
X134307463Y-91400574D01*
X134346134Y-91360625D01*
X134489465Y-91142057D01*
X134577865Y-90853835D01*
X134616799Y-90474842D01*
X134619762Y-90303400D01*
X134609937Y-90011232D01*
X134575531Y-89803033D01*
X134508636Y-89636872D01*
X134486815Y-89598500D01*
X134357962Y-89404044D01*
X134228378Y-89276228D01*
X134067314Y-89201345D01*
X133844018Y-89165686D01*
X133527742Y-89155544D01*
X133492875Y-89155412D01*
X132905500Y-89154000D01*
X132905500Y-88328500D01*
X131889500Y-88328500D01*
X131889500Y-90805000D01*
X132905500Y-90805000D01*
X132905500Y-89725500D01*
X133540500Y-89725500D01*
X133540500Y-90805000D01*
X132905500Y-90805000D01*
X131889500Y-90805000D01*
X131889500Y-91054581D01*
X131692421Y-91279041D01*
X131495343Y-91503500D01*
X132856102Y-91503500D01*
X133305336Y-91503067D01*
G36*
X131445000Y-88328500D02*
G01*
X130365500Y-88328500D01*
X130365500Y-89344500D01*
X129794000Y-89344500D01*
X129794000Y-88328500D01*
X128714500Y-88328500D01*
X128714500Y-89757250D01*
X128712482Y-90167912D01*
X128706829Y-90532452D01*
X128698138Y-90832942D01*
X128687005Y-91051456D01*
X128674028Y-91170067D01*
X128666875Y-91186316D01*
X128591302Y-91223353D01*
X128463682Y-91314776D01*
X128428750Y-91342782D01*
X128238250Y-91498933D01*
X129016125Y-91501217D01*
X129794000Y-91503500D01*
X129794000Y-89916000D01*
X130429000Y-89916000D01*
X130429000Y-90500352D01*
X130427061Y-90777533D01*
X130415583Y-90960940D01*
X130386070Y-91083797D01*
X130330028Y-91179325D01*
X130238962Y-91280748D01*
X130226043Y-91294102D01*
X130023086Y-91503500D01*
X131445000Y-91503500D01*
X131445000Y-88328500D01*
G37*
X131445000Y-88328500D02*
X130365500Y-88328500D01*
X130365500Y-89344500D01*
X129794000Y-89344500D01*
X129794000Y-88328500D01*
X128714500Y-88328500D01*
X128714500Y-89757250D01*
X128712482Y-90167912D01*
X128706829Y-90532452D01*
X128698138Y-90832942D01*
X128687005Y-91051456D01*
X128674028Y-91170067D01*
X128666875Y-91186316D01*
X128591302Y-91223353D01*
X128463682Y-91314776D01*
X128428750Y-91342782D01*
X128238250Y-91498933D01*
X129016125Y-91501217D01*
X129794000Y-91503500D01*
X129794000Y-89916000D01*
X130429000Y-89916000D01*
X130429000Y-90500352D01*
X130427061Y-90777533D01*
X130415583Y-90960940D01*
X130386070Y-91083797D01*
X130330028Y-91179325D01*
X130238962Y-91280748D01*
X130226043Y-91294102D01*
X130023086Y-91503500D01*
X131445000Y-91503500D01*
X131445000Y-88328500D01*
G36*
X132868460Y-102250897D02*
G01*
X133891064Y-102100464D01*
X134371030Y-101987985D01*
X134746418Y-101888331D01*
X135029266Y-101808062D01*
X135250419Y-101736468D01*
X135440720Y-101662837D01*
X135631012Y-101576459D01*
X135807761Y-101489067D01*
X135970183Y-101410492D01*
X136099584Y-101365708D01*
X136234919Y-101350745D01*
X136415142Y-101361631D01*
X136679207Y-101394392D01*
X136703958Y-101397685D01*
X137049020Y-101434472D01*
X137421856Y-101458920D01*
X137797359Y-101471092D01*
X138150423Y-101471055D01*
X138455941Y-101458872D01*
X138688807Y-101434608D01*
X138823914Y-101398328D01*
X138833734Y-101392195D01*
X138881893Y-101345988D01*
X138896677Y-101282839D01*
X138872739Y-101177615D01*
X138804733Y-101005184D01*
X138702017Y-100773070D01*
X138580405Y-100512054D01*
X138463256Y-100276412D01*
X138369708Y-100104096D01*
X138343043Y-100061193D01*
X138226292Y-99887635D01*
X138621300Y-99457943D01*
X138840133Y-99207726D01*
X139061984Y-98934175D01*
X139245172Y-98689060D01*
X139274012Y-98647250D01*
X139406024Y-98456129D01*
X139512494Y-98309386D01*
X139572024Y-98236427D01*
X139574327Y-98234500D01*
X139641995Y-98145998D01*
X139746104Y-97964882D01*
X139874837Y-97716016D01*
X140016378Y-97424260D01*
X140158908Y-97114476D01*
X140290610Y-96811525D01*
X140399666Y-96540269D01*
X140459781Y-96371686D01*
X140594861Y-95952620D01*
X140696181Y-95616016D01*
X140769127Y-95329689D01*
X140819083Y-95061456D01*
X140851437Y-94779131D01*
X140871574Y-94450531D01*
X140884879Y-94043471D01*
X140890747Y-93796332D01*
X140899213Y-93197350D01*
X140892267Y-92695650D01*
X140865782Y-92262017D01*
X140815629Y-91867235D01*
X140737683Y-91482089D01*
X140627814Y-91077362D01*
X140481896Y-90623841D01*
X140415137Y-90429760D01*
X140335911Y-90225781D01*
X140223751Y-89967210D01*
X140091222Y-89679706D01*
X139950889Y-89388930D01*
X139815318Y-89120540D01*
X139697073Y-88900196D01*
X139608720Y-88753557D01*
X139572738Y-88709500D01*
X139519862Y-88644908D01*
X139417076Y-88502702D01*
X139284665Y-88311106D01*
X139256588Y-88269604D01*
X139073409Y-88026723D01*
X138820751Y-87730573D01*
X138526049Y-87409967D01*
X138216735Y-87093717D01*
X137920241Y-86810636D01*
X137664001Y-86589537D01*
X137636250Y-86567757D01*
X136785425Y-85983329D01*
X135880172Y-85500352D01*
X134934105Y-85122573D01*
X133960840Y-84853743D01*
X132973990Y-84697611D01*
X131987171Y-84657925D01*
X131013998Y-84738436D01*
X131000500Y-84740439D01*
X129989272Y-84940458D01*
X129051930Y-85230984D01*
X128165086Y-85620872D01*
X127305350Y-86118978D01*
X127231166Y-86167656D01*
X126402127Y-86791854D01*
X125659926Y-87508237D01*
X125006666Y-88314386D01*
X124444451Y-89207886D01*
X124236523Y-89607508D01*
X124011727Y-90092435D01*
X123837193Y-90539035D01*
X123693646Y-91002420D01*
X123562365Y-91535250D01*
X123406279Y-92421728D01*
X123338414Y-93285624D01*
X123348524Y-93647342D01*
X124243673Y-93647342D01*
X124243716Y-93472000D01*
X124247317Y-93070531D01*
X124256337Y-92697015D01*
X124269743Y-92376107D01*
X124286500Y-92132460D01*
X124305573Y-91990731D01*
X124305914Y-91989336D01*
X124366451Y-91744922D01*
X124619600Y-92396613D01*
X124997160Y-93204387D01*
X125469881Y-93928246D01*
X126038422Y-94569116D01*
X126380855Y-94877137D01*
X126667715Y-95083866D01*
X126902858Y-95180476D01*
X127094233Y-95168958D01*
X127217714Y-95086715D01*
X127307445Y-94960902D01*
X127320586Y-94824852D01*
X127250270Y-94663435D01*
X127089628Y-94461518D01*
X126831795Y-94203970D01*
X126806221Y-94180003D01*
X126309458Y-93671012D01*
X125910424Y-93153468D01*
X125583402Y-92588984D01*
X125302675Y-91939177D01*
X125299829Y-91931627D01*
X125225318Y-91720978D01*
X125175870Y-91536302D01*
X125146599Y-91341696D01*
X125132619Y-91101257D01*
X125129044Y-90779083D01*
X125129214Y-90678000D01*
X125131658Y-90344286D01*
X125140636Y-90103737D01*
X125162257Y-89922519D01*
X125202635Y-89766798D01*
X125267882Y-89602739D01*
X125358631Y-89408000D01*
X125536951Y-89067695D01*
X125741166Y-88751867D01*
X125992590Y-88432339D01*
X126312539Y-88080932D01*
X126530531Y-87858772D01*
X126806140Y-87586574D01*
X127027186Y-87379447D01*
X127226668Y-87210475D01*
X127437583Y-87052737D01*
X127692929Y-86879317D01*
X127883622Y-86754965D01*
X128615800Y-86343820D01*
X129428354Y-85999496D01*
X130286717Y-85734808D01*
X131064000Y-85576160D01*
X131261642Y-85558408D01*
X131552890Y-85547813D01*
X131904573Y-85544006D01*
X132283520Y-85546615D01*
X132656559Y-85555272D01*
X132990520Y-85569607D01*
X133252232Y-85589251D01*
X133350000Y-85601639D01*
X133856637Y-85697160D01*
X134344811Y-85815614D01*
X134777490Y-85947034D01*
X135096644Y-86071709D01*
X135290908Y-86157111D01*
X135438367Y-86215582D01*
X135498751Y-86233000D01*
X135580746Y-86265801D01*
X135743795Y-86354092D01*
X135963423Y-86482704D01*
X136215156Y-86636471D01*
X136474518Y-86800225D01*
X136717033Y-86958798D01*
X136918228Y-87097022D01*
X137038495Y-87187203D01*
X137212323Y-87338461D01*
X137443626Y-87553476D01*
X137702927Y-87803441D01*
X137960748Y-88059548D01*
X138187612Y-88292991D01*
X138341832Y-88460902D01*
X138521639Y-88692930D01*
X138733366Y-89007260D01*
X138956852Y-89370367D01*
X139171934Y-89748725D01*
X139358448Y-90108809D01*
X139445769Y-90296476D01*
X139630961Y-90779399D01*
X139799978Y-91336822D01*
X139944295Y-91930012D01*
X140055390Y-92520235D01*
X140124740Y-93068756D01*
X140144500Y-93472000D01*
X140117176Y-93954899D01*
X140040889Y-94512309D01*
X139924160Y-95105494D01*
X139775513Y-95695723D01*
X139603470Y-96244260D01*
X139445769Y-96647525D01*
X139283549Y-96986274D01*
X139084090Y-97360089D01*
X138883569Y-97702075D01*
X138829501Y-97787100D01*
X138639995Y-98074057D01*
X138488161Y-98290482D01*
X138344771Y-98473794D01*
X138180596Y-98661411D01*
X137972179Y-98884661D01*
X137736608Y-99133333D01*
X136860929Y-98252102D01*
X136561859Y-97957611D01*
X136264962Y-97676821D01*
X135992056Y-97429534D01*
X135764958Y-97235548D01*
X135613586Y-97120060D01*
X135206084Y-96847311D01*
X134893837Y-96643616D01*
X134668886Y-96504030D01*
X134523273Y-96423609D01*
X134450666Y-96397472D01*
X134364534Y-96350622D01*
X134355416Y-96333467D01*
X134288689Y-96278701D01*
X134126866Y-96186769D01*
X133892598Y-96068095D01*
X133608537Y-95933103D01*
X133297333Y-95792217D01*
X132981637Y-95655862D01*
X132684101Y-95534460D01*
X132427374Y-95438437D01*
X132363084Y-95416592D01*
X132079998Y-95313946D01*
X131894960Y-95220799D01*
X131781360Y-95122359D01*
X131747754Y-95074560D01*
X131614072Y-94889247D01*
X131401332Y-94638335D01*
X131126803Y-94338990D01*
X130807757Y-94008375D01*
X130461465Y-93663655D01*
X130105196Y-93321993D01*
X129756223Y-93000554D01*
X129431815Y-92716503D01*
X129149243Y-92487003D01*
X129127250Y-92470214D01*
X128947175Y-92339108D01*
X128714680Y-92177697D01*
X128451800Y-92000343D01*
X128180570Y-91821407D01*
X127923027Y-91655250D01*
X127701208Y-91516233D01*
X127537147Y-91418717D01*
X127452881Y-91377064D01*
X127449041Y-91376500D01*
X127383753Y-91422150D01*
X127381000Y-91440000D01*
X127422226Y-91501723D01*
X127434867Y-91503500D01*
X127479540Y-91539480D01*
X127543428Y-91654261D01*
X127630882Y-91858108D01*
X127746251Y-92161285D01*
X127893884Y-92574057D01*
X127919235Y-92646500D01*
X128079680Y-93182136D01*
X128216977Y-93807782D01*
X128334382Y-94539024D01*
X128367404Y-94790828D01*
X128381865Y-94917504D01*
X128399778Y-95011586D01*
X128438209Y-95086072D01*
X128514220Y-95153961D01*
X128644878Y-95228251D01*
X128847245Y-95321938D01*
X129138386Y-95448022D01*
X129349500Y-95538892D01*
X129570421Y-95639141D01*
X129752909Y-95730660D01*
X129857473Y-95793644D01*
X129857500Y-95793665D01*
X129970834Y-95868031D01*
X130144538Y-95965533D01*
X130221611Y-96005375D01*
X130402298Y-96106330D01*
X130660024Y-96263616D01*
X130968317Y-96459983D01*
X131300705Y-96678181D01*
X131630714Y-96900959D01*
X131931873Y-97111067D01*
X132057531Y-97201712D01*
X132512677Y-97537500D01*
X132867837Y-97805982D01*
X133128146Y-98011112D01*
X133298743Y-98156844D01*
X133301712Y-98159585D01*
X133422473Y-98254750D01*
X133502848Y-98288135D01*
X133511887Y-98284280D01*
X133510236Y-98211240D01*
X133473235Y-98050328D01*
X133408471Y-97833191D01*
X133391213Y-97780909D01*
X133319774Y-97557658D01*
X133271537Y-97386116D01*
X133254928Y-97296895D01*
X133256428Y-97291277D01*
X133318170Y-97312161D01*
X133461595Y-97393703D01*
X133665682Y-97521855D01*
X133909410Y-97682568D01*
X134171758Y-97861794D01*
X134431707Y-98045485D01*
X134668234Y-98219594D01*
X134811312Y-98330398D01*
X135025366Y-98510617D01*
X135294122Y-98750738D01*
X135583598Y-99019756D01*
X135859815Y-99286664D01*
X135866170Y-99292956D01*
X136120907Y-99549833D01*
X136289812Y-99732222D01*
X136381308Y-99850747D01*
X136403822Y-99916034D01*
X136377046Y-99937232D01*
X136249056Y-99938133D01*
X136037186Y-99916159D01*
X135781161Y-99877597D01*
X135520707Y-99828733D01*
X135295552Y-99775852D01*
X135223250Y-99754657D01*
X135078778Y-99711582D01*
X134850005Y-99646830D01*
X134575407Y-99571204D01*
X134429500Y-99531764D01*
X134135610Y-99447639D01*
X133858113Y-99359150D01*
X133640435Y-99280495D01*
X133572250Y-99251479D01*
X133376662Y-99163772D01*
X133123263Y-99054603D01*
X132905500Y-98963574D01*
X132567112Y-98809004D01*
X132162576Y-98599750D01*
X131728220Y-98356143D01*
X131300375Y-98098513D01*
X130937000Y-97861994D01*
X130668764Y-97675461D01*
X130393014Y-97477645D01*
X130133477Y-97286233D01*
X129913884Y-97118914D01*
X129757963Y-96993374D01*
X129698458Y-96938797D01*
X129628799Y-96868546D01*
X129488814Y-96731365D01*
X129299923Y-96548139D01*
X129117431Y-96372291D01*
X128600195Y-95875332D01*
X127974722Y-96012398D01*
X127047052Y-96155839D01*
X126102996Y-96187553D01*
X125173581Y-96107306D01*
X124777500Y-96036515D01*
X124672621Y-96020744D01*
X124677166Y-96049611D01*
X124719569Y-96087049D01*
X125270563Y-96505827D01*
X125897306Y-96915832D01*
X126509286Y-97263175D01*
X126725962Y-97378930D01*
X126896130Y-97473479D01*
X126990817Y-97530604D01*
X127000000Y-97537832D01*
X127069267Y-97577350D01*
X127225393Y-97652775D01*
X127438559Y-97749858D01*
X127508000Y-97780561D01*
X127771988Y-97897350D01*
X128026582Y-98011417D01*
X128221294Y-98100125D01*
X128238250Y-98107996D01*
X128526960Y-98228314D01*
X128908521Y-98366937D01*
X129351857Y-98514389D01*
X129825894Y-98661196D01*
X130299559Y-98797883D01*
X130741775Y-98914975D01*
X131121469Y-99002998D01*
X131264880Y-99030818D01*
X131454312Y-99087056D01*
X131604320Y-99168833D01*
X131614130Y-99177162D01*
X131795745Y-99315311D01*
X132070913Y-99492323D01*
X132416879Y-99696054D01*
X132810889Y-99914365D01*
X133230188Y-100135112D01*
X133652021Y-100346155D01*
X134053632Y-100535350D01*
X134412267Y-100690557D01*
X134556500Y-100747180D01*
X135032750Y-100926287D01*
X134588250Y-101066152D01*
X133869432Y-101245088D01*
X133081202Y-101358498D01*
X132261076Y-101405268D01*
X131446571Y-101384280D01*
X130675204Y-101294419D01*
X130206750Y-101196534D01*
X129556668Y-100996043D01*
X128889245Y-100725542D01*
X128240932Y-100403089D01*
X127648184Y-100046745D01*
X127165531Y-99689764D01*
X126801818Y-99362480D01*
X126424952Y-98982721D01*
X126063882Y-98582547D01*
X125747555Y-98194023D01*
X125507620Y-97853500D01*
X125370031Y-97636130D01*
X125232619Y-97420330D01*
X125184693Y-97345500D01*
X125084985Y-97167747D01*
X124968233Y-96927349D01*
X124874003Y-96710500D01*
X124774999Y-96469594D01*
X124682457Y-96248485D01*
X124621737Y-96107250D01*
X124569629Y-95961997D01*
X124500454Y-95731915D01*
X124425594Y-95455950D01*
X124389729Y-95313500D01*
X124336605Y-95081970D01*
X124297844Y-94867918D01*
X124271307Y-94644387D01*
X124254858Y-94384419D01*
X124246359Y-94061056D01*
X124243673Y-93647342D01*
X123348524Y-93647342D01*
X123361069Y-94096151D01*
X123366550Y-94154625D01*
X123517879Y-95196405D01*
X123762434Y-96162868D01*
X124107587Y-97072282D01*
X124560709Y-97942916D01*
X125129172Y-98793036D01*
X125358842Y-99091750D01*
X125974439Y-99770664D01*
X126689766Y-100390740D01*
X127486616Y-100940253D01*
X128346780Y-101407475D01*
X129252049Y-101780678D01*
X129799843Y-101951993D01*
X130831921Y-102176733D01*
X131851770Y-102276344D01*
X132868460Y-102250897D01*
G37*
X132868460Y-102250897D02*
X133891064Y-102100464D01*
X134371030Y-101987985D01*
X134746418Y-101888331D01*
X135029266Y-101808062D01*
X135250419Y-101736468D01*
X135440720Y-101662837D01*
X135631012Y-101576459D01*
X135807761Y-101489067D01*
X135970183Y-101410492D01*
X136099584Y-101365708D01*
X136234919Y-101350745D01*
X136415142Y-101361631D01*
X136679207Y-101394392D01*
X136703958Y-101397685D01*
X137049020Y-101434472D01*
X137421856Y-101458920D01*
X137797359Y-101471092D01*
X138150423Y-101471055D01*
X138455941Y-101458872D01*
X138688807Y-101434608D01*
X138823914Y-101398328D01*
X138833734Y-101392195D01*
X138881893Y-101345988D01*
X138896677Y-101282839D01*
X138872739Y-101177615D01*
X138804733Y-101005184D01*
X138702017Y-100773070D01*
X138580405Y-100512054D01*
X138463256Y-100276412D01*
X138369708Y-100104096D01*
X138343043Y-100061193D01*
X138226292Y-99887635D01*
X138621300Y-99457943D01*
X138840133Y-99207726D01*
X139061984Y-98934175D01*
X139245172Y-98689060D01*
X139274012Y-98647250D01*
X139406024Y-98456129D01*
X139512494Y-98309386D01*
X139572024Y-98236427D01*
X139574327Y-98234500D01*
X139641995Y-98145998D01*
X139746104Y-97964882D01*
X139874837Y-97716016D01*
X140016378Y-97424260D01*
X140158908Y-97114476D01*
X140290610Y-96811525D01*
X140399666Y-96540269D01*
X140459781Y-96371686D01*
X140594861Y-95952620D01*
X140696181Y-95616016D01*
X140769127Y-95329689D01*
X140819083Y-95061456D01*
X140851437Y-94779131D01*
X140871574Y-94450531D01*
X140884879Y-94043471D01*
X140890747Y-93796332D01*
X140899213Y-93197350D01*
X140892267Y-92695650D01*
X140865782Y-92262017D01*
X140815629Y-91867235D01*
X140737683Y-91482089D01*
X140627814Y-91077362D01*
X140481896Y-90623841D01*
X140415137Y-90429760D01*
X140335911Y-90225781D01*
X140223751Y-89967210D01*
X140091222Y-89679706D01*
X139950889Y-89388930D01*
X139815318Y-89120540D01*
X139697073Y-88900196D01*
X139608720Y-88753557D01*
X139572738Y-88709500D01*
X139519862Y-88644908D01*
X139417076Y-88502702D01*
X139284665Y-88311106D01*
X139256588Y-88269604D01*
X139073409Y-88026723D01*
X138820751Y-87730573D01*
X138526049Y-87409967D01*
X138216735Y-87093717D01*
X137920241Y-86810636D01*
X137664001Y-86589537D01*
X137636250Y-86567757D01*
X136785425Y-85983329D01*
X135880172Y-85500352D01*
X134934105Y-85122573D01*
X133960840Y-84853743D01*
X132973990Y-84697611D01*
X131987171Y-84657925D01*
X131013998Y-84738436D01*
X131000500Y-84740439D01*
X129989272Y-84940458D01*
X129051930Y-85230984D01*
X128165086Y-85620872D01*
X127305350Y-86118978D01*
X127231166Y-86167656D01*
X126402127Y-86791854D01*
X125659926Y-87508237D01*
X125006666Y-88314386D01*
X124444451Y-89207886D01*
X124236523Y-89607508D01*
X124011727Y-90092435D01*
X123837193Y-90539035D01*
X123693646Y-91002420D01*
X123562365Y-91535250D01*
X123406279Y-92421728D01*
X123338414Y-93285624D01*
X123348524Y-93647342D01*
X124243673Y-93647342D01*
X124243716Y-93472000D01*
X124247317Y-93070531D01*
X124256337Y-92697015D01*
X124269743Y-92376107D01*
X124286500Y-92132460D01*
X124305573Y-91990731D01*
X124305914Y-91989336D01*
X124366451Y-91744922D01*
X124619600Y-92396613D01*
X124997160Y-93204387D01*
X125469881Y-93928246D01*
X126038422Y-94569116D01*
X126380855Y-94877137D01*
X126667715Y-95083866D01*
X126902858Y-95180476D01*
X127094233Y-95168958D01*
X127217714Y-95086715D01*
X127307445Y-94960902D01*
X127320586Y-94824852D01*
X127250270Y-94663435D01*
X127089628Y-94461518D01*
X126831795Y-94203970D01*
X126806221Y-94180003D01*
X126309458Y-93671012D01*
X125910424Y-93153468D01*
X125583402Y-92588984D01*
X125302675Y-91939177D01*
X125299829Y-91931627D01*
X125225318Y-91720978D01*
X125175870Y-91536302D01*
X125146599Y-91341696D01*
X125132619Y-91101257D01*
X125129044Y-90779083D01*
X125129214Y-90678000D01*
X125131658Y-90344286D01*
X125140636Y-90103737D01*
X125162257Y-89922519D01*
X125202635Y-89766798D01*
X125267882Y-89602739D01*
X125358631Y-89408000D01*
X125536951Y-89067695D01*
X125741166Y-88751867D01*
X125992590Y-88432339D01*
X126312539Y-88080932D01*
X126530531Y-87858772D01*
X126806140Y-87586574D01*
X127027186Y-87379447D01*
X127226668Y-87210475D01*
X127437583Y-87052737D01*
X127692929Y-86879317D01*
X127883622Y-86754965D01*
X128615800Y-86343820D01*
X129428354Y-85999496D01*
X130286717Y-85734808D01*
X131064000Y-85576160D01*
X131261642Y-85558408D01*
X131552890Y-85547813D01*
X131904573Y-85544006D01*
X132283520Y-85546615D01*
X132656559Y-85555272D01*
X132990520Y-85569607D01*
X133252232Y-85589251D01*
X133350000Y-85601639D01*
X133856637Y-85697160D01*
X134344811Y-85815614D01*
X134777490Y-85947034D01*
X135096644Y-86071709D01*
X135290908Y-86157111D01*
X135438367Y-86215582D01*
X135498751Y-86233000D01*
X135580746Y-86265801D01*
X135743795Y-86354092D01*
X135963423Y-86482704D01*
X136215156Y-86636471D01*
X136474518Y-86800225D01*
X136717033Y-86958798D01*
X136918228Y-87097022D01*
X137038495Y-87187203D01*
X137212323Y-87338461D01*
X137443626Y-87553476D01*
X137702927Y-87803441D01*
X137960748Y-88059548D01*
X138187612Y-88292991D01*
X138341832Y-88460902D01*
X138521639Y-88692930D01*
X138733366Y-89007260D01*
X138956852Y-89370367D01*
X139171934Y-89748725D01*
X139358448Y-90108809D01*
X139445769Y-90296476D01*
X139630961Y-90779399D01*
X139799978Y-91336822D01*
X139944295Y-91930012D01*
X140055390Y-92520235D01*
X140124740Y-93068756D01*
X140144500Y-93472000D01*
X140117176Y-93954899D01*
X140040889Y-94512309D01*
X139924160Y-95105494D01*
X139775513Y-95695723D01*
X139603470Y-96244260D01*
X139445769Y-96647525D01*
X139283549Y-96986274D01*
X139084090Y-97360089D01*
X138883569Y-97702075D01*
X138829501Y-97787100D01*
X138639995Y-98074057D01*
X138488161Y-98290482D01*
X138344771Y-98473794D01*
X138180596Y-98661411D01*
X137972179Y-98884661D01*
X137736608Y-99133333D01*
X136860929Y-98252102D01*
X136561859Y-97957611D01*
X136264962Y-97676821D01*
X135992056Y-97429534D01*
X135764958Y-97235548D01*
X135613586Y-97120060D01*
X135206084Y-96847311D01*
X134893837Y-96643616D01*
X134668886Y-96504030D01*
X134523273Y-96423609D01*
X134450666Y-96397472D01*
X134364534Y-96350622D01*
X134355416Y-96333467D01*
X134288689Y-96278701D01*
X134126866Y-96186769D01*
X133892598Y-96068095D01*
X133608537Y-95933103D01*
X133297333Y-95792217D01*
X132981637Y-95655862D01*
X132684101Y-95534460D01*
X132427374Y-95438437D01*
X132363084Y-95416592D01*
X132079998Y-95313946D01*
X131894960Y-95220799D01*
X131781360Y-95122359D01*
X131747754Y-95074560D01*
X131614072Y-94889247D01*
X131401332Y-94638335D01*
X131126803Y-94338990D01*
X130807757Y-94008375D01*
X130461465Y-93663655D01*
X130105196Y-93321993D01*
X129756223Y-93000554D01*
X129431815Y-92716503D01*
X129149243Y-92487003D01*
X129127250Y-92470214D01*
X128947175Y-92339108D01*
X128714680Y-92177697D01*
X128451800Y-92000343D01*
X128180570Y-91821407D01*
X127923027Y-91655250D01*
X127701208Y-91516233D01*
X127537147Y-91418717D01*
X127452881Y-91377064D01*
X127449041Y-91376500D01*
X127383753Y-91422150D01*
X127381000Y-91440000D01*
X127422226Y-91501723D01*
X127434867Y-91503500D01*
X127479540Y-91539480D01*
X127543428Y-91654261D01*
X127630882Y-91858108D01*
X127746251Y-92161285D01*
X127893884Y-92574057D01*
X127919235Y-92646500D01*
X128079680Y-93182136D01*
X128216977Y-93807782D01*
X128334382Y-94539024D01*
X128367404Y-94790828D01*
X128381865Y-94917504D01*
X128399778Y-95011586D01*
X128438209Y-95086072D01*
X128514220Y-95153961D01*
X128644878Y-95228251D01*
X128847245Y-95321938D01*
X129138386Y-95448022D01*
X129349500Y-95538892D01*
X129570421Y-95639141D01*
X129752909Y-95730660D01*
X129857473Y-95793644D01*
X129857500Y-95793665D01*
X129970834Y-95868031D01*
X130144538Y-95965533D01*
X130221611Y-96005375D01*
X130402298Y-96106330D01*
X130660024Y-96263616D01*
X130968317Y-96459983D01*
X131300705Y-96678181D01*
X131630714Y-96900959D01*
X131931873Y-97111067D01*
X132057531Y-97201712D01*
X132512677Y-97537500D01*
X132867837Y-97805982D01*
X133128146Y-98011112D01*
X133298743Y-98156844D01*
X133301712Y-98159585D01*
X133422473Y-98254750D01*
X133502848Y-98288135D01*
X133511887Y-98284280D01*
X133510236Y-98211240D01*
X133473235Y-98050328D01*
X133408471Y-97833191D01*
X133391213Y-97780909D01*
X133319774Y-97557658D01*
X133271537Y-97386116D01*
X133254928Y-97296895D01*
X133256428Y-97291277D01*
X133318170Y-97312161D01*
X133461595Y-97393703D01*
X133665682Y-97521855D01*
X133909410Y-97682568D01*
X134171758Y-97861794D01*
X134431707Y-98045485D01*
X134668234Y-98219594D01*
X134811312Y-98330398D01*
X135025366Y-98510617D01*
X135294122Y-98750738D01*
X135583598Y-99019756D01*
X135859815Y-99286664D01*
X135866170Y-99292956D01*
X136120907Y-99549833D01*
X136289812Y-99732222D01*
X136381308Y-99850747D01*
X136403822Y-99916034D01*
X136377046Y-99937232D01*
X136249056Y-99938133D01*
X136037186Y-99916159D01*
X135781161Y-99877597D01*
X135520707Y-99828733D01*
X135295552Y-99775852D01*
X135223250Y-99754657D01*
X135078778Y-99711582D01*
X134850005Y-99646830D01*
X134575407Y-99571204D01*
X134429500Y-99531764D01*
X134135610Y-99447639D01*
X133858113Y-99359150D01*
X133640435Y-99280495D01*
X133572250Y-99251479D01*
X133376662Y-99163772D01*
X133123263Y-99054603D01*
X132905500Y-98963574D01*
X132567112Y-98809004D01*
X132162576Y-98599750D01*
X131728220Y-98356143D01*
X131300375Y-98098513D01*
X130937000Y-97861994D01*
X130668764Y-97675461D01*
X130393014Y-97477645D01*
X130133477Y-97286233D01*
X129913884Y-97118914D01*
X129757963Y-96993374D01*
X129698458Y-96938797D01*
X129628799Y-96868546D01*
X129488814Y-96731365D01*
X129299923Y-96548139D01*
X129117431Y-96372291D01*
X128600195Y-95875332D01*
X127974722Y-96012398D01*
X127047052Y-96155839D01*
X126102996Y-96187553D01*
X125173581Y-96107306D01*
X124777500Y-96036515D01*
X124672621Y-96020744D01*
X124677166Y-96049611D01*
X124719569Y-96087049D01*
X125270563Y-96505827D01*
X125897306Y-96915832D01*
X126509286Y-97263175D01*
X126725962Y-97378930D01*
X126896130Y-97473479D01*
X126990817Y-97530604D01*
X127000000Y-97537832D01*
X127069267Y-97577350D01*
X127225393Y-97652775D01*
X127438559Y-97749858D01*
X127508000Y-97780561D01*
X127771988Y-97897350D01*
X128026582Y-98011417D01*
X128221294Y-98100125D01*
X128238250Y-98107996D01*
X128526960Y-98228314D01*
X128908521Y-98366937D01*
X129351857Y-98514389D01*
X129825894Y-98661196D01*
X130299559Y-98797883D01*
X130741775Y-98914975D01*
X131121469Y-99002998D01*
X131264880Y-99030818D01*
X131454312Y-99087056D01*
X131604320Y-99168833D01*
X131614130Y-99177162D01*
X131795745Y-99315311D01*
X132070913Y-99492323D01*
X132416879Y-99696054D01*
X132810889Y-99914365D01*
X133230188Y-100135112D01*
X133652021Y-100346155D01*
X134053632Y-100535350D01*
X134412267Y-100690557D01*
X134556500Y-100747180D01*
X135032750Y-100926287D01*
X134588250Y-101066152D01*
X133869432Y-101245088D01*
X133081202Y-101358498D01*
X132261076Y-101405268D01*
X131446571Y-101384280D01*
X130675204Y-101294419D01*
X130206750Y-101196534D01*
X129556668Y-100996043D01*
X128889245Y-100725542D01*
X128240932Y-100403089D01*
X127648184Y-100046745D01*
X127165531Y-99689764D01*
X126801818Y-99362480D01*
X126424952Y-98982721D01*
X126063882Y-98582547D01*
X125747555Y-98194023D01*
X125507620Y-97853500D01*
X125370031Y-97636130D01*
X125232619Y-97420330D01*
X125184693Y-97345500D01*
X125084985Y-97167747D01*
X124968233Y-96927349D01*
X124874003Y-96710500D01*
X124774999Y-96469594D01*
X124682457Y-96248485D01*
X124621737Y-96107250D01*
X124569629Y-95961997D01*
X124500454Y-95731915D01*
X124425594Y-95455950D01*
X124389729Y-95313500D01*
X124336605Y-95081970D01*
X124297844Y-94867918D01*
X124271307Y-94644387D01*
X124254858Y-94384419D01*
X124246359Y-94061056D01*
X124243673Y-93647342D01*
X123348524Y-93647342D01*
X123361069Y-94096151D01*
X123366550Y-94154625D01*
X123517879Y-95196405D01*
X123762434Y-96162868D01*
X124107587Y-97072282D01*
X124560709Y-97942916D01*
X125129172Y-98793036D01*
X125358842Y-99091750D01*
X125974439Y-99770664D01*
X126689766Y-100390740D01*
X127486616Y-100940253D01*
X128346780Y-101407475D01*
X129252049Y-101780678D01*
X129799843Y-101951993D01*
X130831921Y-102176733D01*
X131851770Y-102276344D01*
X132868460Y-102250897D01*
D12*
%TO.C,U7*%
X169192000Y-85880000D02*
X169192000Y-102080000D01*
X169192000Y-102080000D02*
X169592000Y-102080000D01*
X184992000Y-85880000D02*
X185392000Y-85880000D01*
X185392000Y-85880000D02*
X185392000Y-102080000D01*
X185392000Y-102080000D02*
X184992000Y-102080000D01*
X169192000Y-85880000D02*
X169542000Y-85880000D01*
X169542000Y-85880000D02*
X169542000Y-84980000D01*
%TO.C,Q3*%
X139009000Y-84457000D02*
X139939000Y-84457000D01*
X142169000Y-84457000D02*
X141239000Y-84457000D01*
X142169000Y-84457000D02*
X142169000Y-87617000D01*
X139009000Y-84457000D02*
X139009000Y-85917000D01*
%TO.C,Q2*%
X145232000Y-84584000D02*
X146162000Y-84584000D01*
X148392000Y-84584000D02*
X147462000Y-84584000D01*
X148392000Y-84584000D02*
X148392000Y-87744000D01*
X145232000Y-84584000D02*
X145232000Y-86044000D01*
D13*
%TO.C,U3*%
X150596600Y-100418900D02*
X146837400Y-100418900D01*
X146837400Y-100418900D02*
X146837400Y-99952852D01*
X146837400Y-94653100D02*
X150596600Y-94653100D01*
X150596600Y-94653100D02*
X150596600Y-95119148D01*
X150596600Y-99952852D02*
X150596600Y-100418900D01*
X146837400Y-95119148D02*
X146837400Y-94653100D01*
X151165900Y-95661000D02*
G75*
G03*
X151165900Y-95661000I-76200J0D01*
G01*
D14*
%TO.C,J4*%
X118292000Y-104911000D02*
X118292000Y-104911000D01*
X118292000Y-104911000D02*
X113042000Y-104911000D01*
X113042000Y-104911000D02*
X113042000Y-104911000D01*
X113042000Y-104911000D02*
X118292000Y-104911000D01*
X109042000Y-104911000D02*
X109042000Y-104911000D01*
X109042000Y-104911000D02*
X106542000Y-104911000D01*
X106542000Y-104911000D02*
X106542000Y-104911000D01*
X106542000Y-104911000D02*
X109042000Y-104911000D01*
X106542000Y-104911000D02*
X106542000Y-90161000D01*
X106542000Y-90161000D02*
X106542000Y-90161000D01*
X106542000Y-90161000D02*
X106542000Y-104911000D01*
X106542000Y-104911000D02*
X106542000Y-104911000D01*
X106542000Y-90161000D02*
X106542000Y-90161000D01*
X106542000Y-90161000D02*
X108792000Y-90161000D01*
X108792000Y-90161000D02*
X108792000Y-90161000D01*
X108792000Y-90161000D02*
X106542000Y-90161000D01*
X113042000Y-90161000D02*
X113042000Y-90161000D01*
X113042000Y-90161000D02*
X118542000Y-90161000D01*
X118542000Y-90161000D02*
X118542000Y-90161000D01*
X118542000Y-90161000D02*
X113042000Y-90161000D01*
X121042000Y-92536000D02*
X121042000Y-94286000D01*
X121042000Y-94286000D02*
X121042000Y-94286000D01*
X121042000Y-94286000D02*
X121042000Y-92536000D01*
X121042000Y-92536000D02*
X121042000Y-92536000D01*
D10*
X123692000Y-95636000D02*
X123692000Y-95636000D01*
X123692000Y-95536000D02*
X123692000Y-95536000D01*
X123692000Y-95636000D02*
X123692000Y-95636000D01*
X123692000Y-95536000D02*
G75*
G03*
X123692000Y-95636000I0J-50000D01*
G01*
X123692000Y-95636000D02*
G75*
G03*
X123692000Y-95536000I0J50000D01*
G01*
X123692000Y-95536000D02*
G75*
G03*
X123692000Y-95636000I0J-50000D01*
G01*
%TO.C,U3*%
D15*
X146248380Y-94821714D02*
X145248380Y-94821714D01*
X145962666Y-95155047D01*
X145248380Y-95488380D01*
X146248380Y-95488380D01*
X146200761Y-95916952D02*
X146248380Y-96059809D01*
X146248380Y-96297904D01*
X146200761Y-96393142D01*
X146153142Y-96440761D01*
X146057904Y-96488380D01*
X145962666Y-96488380D01*
X145867428Y-96440761D01*
X145819809Y-96393142D01*
X145772190Y-96297904D01*
X145724571Y-96107428D01*
X145676952Y-96012190D01*
X145629333Y-95964571D01*
X145534095Y-95916952D01*
X145438857Y-95916952D01*
X145343619Y-95964571D01*
X145296000Y-96012190D01*
X145248380Y-96107428D01*
X145248380Y-96345523D01*
X145296000Y-96488380D01*
X145248380Y-97393142D02*
X145248380Y-96916952D01*
X145724571Y-96869333D01*
X145676952Y-96916952D01*
X145629333Y-97012190D01*
X145629333Y-97250285D01*
X145676952Y-97345523D01*
X145724571Y-97393142D01*
X145819809Y-97440761D01*
X146057904Y-97440761D01*
X146153142Y-97393142D01*
X146200761Y-97345523D01*
X146248380Y-97250285D01*
X146248380Y-97012190D01*
X146200761Y-96916952D01*
X146153142Y-96869333D01*
X145248380Y-98297904D02*
X145248380Y-98107428D01*
X145296000Y-98012190D01*
X145343619Y-97964571D01*
X145486476Y-97869333D01*
X145676952Y-97821714D01*
X146057904Y-97821714D01*
X146153142Y-97869333D01*
X146200761Y-97916952D01*
X146248380Y-98012190D01*
X146248380Y-98202666D01*
X146200761Y-98297904D01*
X146153142Y-98345523D01*
X146057904Y-98393142D01*
X145819809Y-98393142D01*
X145724571Y-98345523D01*
X145676952Y-98297904D01*
X145629333Y-98202666D01*
X145629333Y-98012190D01*
X145676952Y-97916952D01*
X145724571Y-97869333D01*
X145819809Y-97821714D01*
X146248380Y-99345523D02*
X146248380Y-98774095D01*
X146248380Y-99059809D02*
X145248380Y-99059809D01*
X145391238Y-98964571D01*
X145486476Y-98869333D01*
X145534095Y-98774095D01*
X146248380Y-100297904D02*
X146248380Y-99726476D01*
X146248380Y-100012190D02*
X145248380Y-100012190D01*
X145391238Y-99916952D01*
X145486476Y-99821714D01*
X145534095Y-99726476D01*
%TD*%
M02*
