%TF.GenerationSoftware,KiCad,Pcbnew,(5.1.6)-1*%
%TF.CreationDate,2021-06-02T18:30:26+10:00*%
%TF.ProjectId,L2_board,4c325f62-6f61-4726-942e-6b696361645f,2.0*%
%TF.SameCoordinates,Original*%
%TF.FileFunction,Copper,L4,Bot*%
%TF.FilePolarity,Positive*%
%FSLAX46Y46*%
G04 Gerber Fmt 4.6, Leading zero omitted, Abs format (unit mm)*
G04 Created by KiCad (PCBNEW (5.1.6)-1) date 2021-06-02 18:30:26*
%MOMM*%
%LPD*%
G01*
G04 APERTURE LIST*
%TA.AperFunction,SMDPad,CuDef*%
%ADD10R,1.000000X2.000000*%
%TD*%
%TA.AperFunction,SMDPad,CuDef*%
%ADD11R,0.800000X1.900000*%
%TD*%
%TA.AperFunction,SMDPad,CuDef*%
%ADD12R,1.092200X0.609600*%
%TD*%
%TA.AperFunction,SMDPad,CuDef*%
%ADD13R,1.800000X1.200000*%
%TD*%
%TA.AperFunction,SMDPad,CuDef*%
%ADD14R,2.200000X1.200000*%
%TD*%
%TA.AperFunction,SMDPad,CuDef*%
%ADD15R,1.500000X1.600000*%
%TD*%
%TA.AperFunction,SMDPad,CuDef*%
%ADD16R,1.600000X0.700000*%
%TD*%
%TA.AperFunction,ComponentPad*%
%ADD17C,3.500000*%
%TD*%
%TA.AperFunction,ComponentPad*%
%ADD18R,3.500000X3.500000*%
%TD*%
%TA.AperFunction,ComponentPad*%
%ADD19C,1.400000*%
%TD*%
%TA.AperFunction,ComponentPad*%
%ADD20O,1.700000X1.700000*%
%TD*%
%TA.AperFunction,ComponentPad*%
%ADD21R,1.700000X1.700000*%
%TD*%
%TA.AperFunction,ComponentPad*%
%ADD22C,2.250000*%
%TD*%
%TA.AperFunction,ComponentPad*%
%ADD23C,2.050000*%
%TD*%
%TA.AperFunction,ComponentPad*%
%ADD24O,1.750000X1.200000*%
%TD*%
%TA.AperFunction,ComponentPad*%
%ADD25O,1.200000X1.900000*%
%TD*%
%TA.AperFunction,ComponentPad*%
%ADD26C,1.450000*%
%TD*%
%TA.AperFunction,ViaPad*%
%ADD27C,0.500000*%
%TD*%
%TA.AperFunction,Conductor*%
%ADD28C,0.250000*%
%TD*%
%TA.AperFunction,Conductor*%
%ADD29C,0.500000*%
%TD*%
%TA.AperFunction,Conductor*%
%ADD30C,1.000000*%
%TD*%
%TA.AperFunction,Conductor*%
%ADD31C,0.254000*%
%TD*%
G04 APERTURE END LIST*
D10*
%TO.P,U7,16*%
%TO.N,RF_IO2*%
X170292000Y-101980000D03*
%TO.P,U7,15*%
%TO.N,RF_IO1*%
X172292000Y-101980000D03*
%TO.P,U7,14*%
%TO.N,RF_IO0*%
X174292000Y-101980000D03*
%TO.P,U7,13*%
%TO.N,VDD*%
X176292000Y-101980000D03*
%TO.P,U7,12*%
%TO.N,Net-(U7-Pad12)*%
X178292000Y-101980000D03*
%TO.P,U7,11*%
%TO.N,Net-(U7-Pad11)*%
X180292000Y-101980000D03*
%TO.P,U7,10*%
%TO.N,GND*%
X182292000Y-101980000D03*
%TO.P,U7,9*%
%TO.N,Net-(J6-Pad1)*%
X184292000Y-101980000D03*
%TO.P,U7,8*%
%TO.N,GND*%
X184292000Y-85980000D03*
%TO.P,U7,7*%
%TO.N,Net-(U7-Pad7)*%
X182292000Y-85980000D03*
%TO.P,U7,6*%
%TO.N,RESET_RF*%
X180292000Y-85980000D03*
%TO.P,U7,5*%
%TO.N,CS_RF*%
X178292000Y-85980000D03*
%TO.P,U7,4*%
%TO.N,SCK_RF*%
X176292000Y-85980000D03*
%TO.P,U7,3*%
%TO.N,MOSI_RF*%
X174292000Y-85980000D03*
%TO.P,U7,2*%
%TO.N,MISO_RF*%
X172292000Y-85980000D03*
%TO.P,U7,1*%
%TO.N,GND*%
X170292000Y-85980000D03*
%TD*%
D11*
%TO.P,Q3,3*%
%TO.N,DTR*%
X140589000Y-83717000D03*
%TO.P,Q3,2*%
%TO.N,BOOT*%
X139639000Y-86717000D03*
%TO.P,Q3,1*%
%TO.N,Net-(Q3-Pad1)*%
X141539000Y-86717000D03*
%TD*%
%TO.P,Q2,3*%
%TO.N,RTS*%
X146812000Y-83844000D03*
%TO.P,Q2,2*%
%TO.N,EN*%
X145862000Y-86844000D03*
%TO.P,Q2,1*%
%TO.N,Net-(Q2-Pad1)*%
X147762000Y-86844000D03*
%TD*%
D12*
%TO.P,U3,8*%
%TO.N,SCL*%
X147617000Y-95661000D03*
%TO.P,U3,7*%
%TO.N,SDA*%
X147617000Y-96911000D03*
%TO.P,U3,6*%
%TO.N,Net-(U3-Pad6)*%
X147617000Y-98161000D03*
%TO.P,U3,5*%
%TO.N,GND*%
X147617000Y-99411000D03*
%TO.P,U3,4*%
X149817000Y-99411000D03*
%TO.P,U3,3*%
X149817000Y-98161000D03*
%TO.P,U3,2*%
%TO.N,VDD*%
X149817000Y-96911000D03*
%TO.P,U3,1*%
X149817000Y-95661000D03*
%TD*%
D13*
%TO.P,J4,MP4*%
%TO.N,Net-(J4-PadMP4)*%
X120242000Y-105511000D03*
D14*
%TO.P,J4,MP3*%
%TO.N,Net-(J4-PadMP3)*%
X110942000Y-105511000D03*
%TO.P,J4,MP2*%
%TO.N,Net-(J4-PadMP2)*%
X110942000Y-90011000D03*
D15*
%TO.P,J4,MP1*%
%TO.N,Net-(J4-PadMP1)*%
X120492000Y-90911000D03*
D16*
%TO.P,J4,9*%
%TO.N,CS_SD*%
X121542000Y-104311000D03*
%TO.P,J4,8*%
%TO.N,Net-(J4-Pad8)*%
X121542000Y-103211000D03*
%TO.P,J4,7*%
%TO.N,MISO_SD*%
X121542000Y-102111000D03*
%TO.P,J4,6*%
%TO.N,GND*%
X121542000Y-101011000D03*
%TO.P,J4,5*%
%TO.N,CLK_SD*%
X121542000Y-99911000D03*
%TO.P,J4,4*%
%TO.N,VDD*%
X121542000Y-98811000D03*
%TO.P,J4,3*%
%TO.N,MOSI_SD*%
X121542000Y-97711000D03*
%TO.P,J4,2*%
%TO.N,CS_SD*%
X121542000Y-96611000D03*
%TO.P,J4,1*%
%TO.N,Net-(J4-Pad1)*%
X121542000Y-95511000D03*
%TD*%
D17*
%TO.P,J9,2*%
%TO.N,GND*%
X194056000Y-85297000D03*
D18*
%TO.P,J9,1*%
%TO.N,+BATT*%
X194056000Y-90297000D03*
D19*
%TO.P,J9,*%
%TO.N,*%
X204056000Y-82297000D03*
X204056000Y-93297000D03*
%TD*%
D20*
%TO.P,J8,4*%
%TO.N,GND*%
X206504540Y-104396540D03*
%TO.P,J8,3*%
%TO.N,VDD*%
X206504540Y-101856540D03*
%TO.P,J8,2*%
%TO.N,SCL*%
X206504540Y-99316540D03*
D21*
%TO.P,J8,1*%
%TO.N,SDA*%
X206504540Y-96776540D03*
%TD*%
D20*
%TO.P,J7,5*%
%TO.N,GND*%
X188341000Y-87630000D03*
%TO.P,J7,4*%
%TO.N,VDD*%
X188341000Y-90170000D03*
%TO.P,J7,3*%
%TO.N,RXD0*%
X188341000Y-92710000D03*
%TO.P,J7,2*%
%TO.N,TXD0*%
X188341000Y-95250000D03*
D21*
%TO.P,J7,1*%
%TO.N,DTR*%
X188341000Y-97790000D03*
%TD*%
D22*
%TO.P,J6,2*%
%TO.N,GND*%
X193649600Y-104292400D03*
X193649600Y-99212400D03*
X198729600Y-99212400D03*
X198729600Y-104292400D03*
D23*
%TO.P,J6,1*%
%TO.N,Net-(J6-Pad1)*%
X196189600Y-101752400D03*
%TD*%
D20*
%TO.P,BUZZER,2*%
%TO.N,Net-(D5-Pad2)*%
X171323000Y-82296000D03*
D21*
%TO.P,BUZZER,1*%
%TO.N,VDD*%
X173863000Y-82296000D03*
%TD*%
D24*
%TO.P,J3,5*%
%TO.N,GND*%
X159994600Y-89637600D03*
%TO.P,J3,4*%
%TO.N,TXD1_RRC3*%
X159994600Y-91637600D03*
%TO.P,J3,3*%
%TO.N,RXD1_RRC3*%
X159994600Y-93637600D03*
%TO.P,J3,2*%
%TO.N,VDD*%
X159994600Y-95637600D03*
%TO.P,J3,1*%
%TO.N,+BATT*%
%TA.AperFunction,ComponentPad*%
G36*
G01*
X160619601Y-98237600D02*
X159369599Y-98237600D01*
G75*
G02*
X159119600Y-97987601I0J249999D01*
G01*
X159119600Y-97287599D01*
G75*
G02*
X159369599Y-97037600I249999J0D01*
G01*
X160619601Y-97037600D01*
G75*
G02*
X160869600Y-97287599I0J-249999D01*
G01*
X160869600Y-97987601D01*
G75*
G02*
X160619601Y-98237600I-249999J0D01*
G01*
G37*
%TD.AperFunction*%
%TD*%
D25*
%TO.P,J2,6*%
%TO.N,GND*%
X107117000Y-82963500D03*
X114117000Y-82963500D03*
D26*
X108117000Y-85663500D03*
X113117000Y-85663500D03*
%TD*%
D20*
%TO.P,J1,4*%
%TO.N,SCK_RF*%
X202565000Y-104521000D03*
%TO.P,J1,3*%
%TO.N,MOSI_RF*%
X202565000Y-101981000D03*
%TO.P,J1,2*%
%TO.N,MISO_RF*%
X202565000Y-99441000D03*
D21*
%TO.P,J1,1*%
%TO.N,CS_RF*%
X202565000Y-96901000D03*
%TD*%
D27*
%TO.N,VDD*%
X195376800Y-95707200D03*
X195376800Y-96266000D03*
X194716400Y-95656400D03*
%TO.N,GND*%
X197002400Y-95859600D03*
X198170800Y-95859600D03*
X197612000Y-95859600D03*
X116586000Y-82956400D03*
X116535200Y-81584800D03*
%TO.N,VDD*%
X119481600Y-81635600D03*
X119532400Y-82956400D03*
%TO.N,GND*%
X116535200Y-82194400D03*
%TO.N,VDD*%
X119532400Y-82346800D03*
%TO.N,GND*%
X128041400Y-95504000D03*
X130644900Y-96672400D03*
X129870200Y-97447100D03*
X129082800Y-98209100D03*
X128803400Y-97497900D03*
X128193800Y-98044000D03*
X129959100Y-96266000D03*
X130594100Y-95758000D03*
X147066000Y-93472000D03*
X143764000Y-93218000D03*
X143764000Y-90170000D03*
X118618000Y-97536000D03*
X114787000Y-100605000D03*
X122148500Y-92227500D03*
X118618000Y-100076000D03*
X145288000Y-91694000D03*
X184404000Y-86106000D03*
X162814000Y-85852000D03*
X161213700Y-81153000D03*
X170243500Y-86106000D03*
X182435500Y-102044500D03*
X161823500Y-101676300D03*
X152654000Y-99212400D03*
X156565600Y-98247200D03*
X129387600Y-96901000D03*
X149821900Y-81307940D03*
X160172400Y-106087990D03*
X174086520Y-103759000D03*
X135376920Y-99202240D03*
X126481840Y-86901020D03*
%TO.N,VDD*%
X133502400Y-89458800D03*
X126746000Y-89408000D03*
X120675500Y-98552000D03*
X174091600Y-89611200D03*
X152772000Y-97917000D03*
X154940000Y-96723200D03*
X160299400Y-101765100D03*
X154939800Y-91615970D03*
X154940000Y-93738700D03*
X162788700Y-81153000D03*
X123723500Y-89408000D03*
X176646840Y-103850440D03*
X154482800Y-86546821D03*
X161217796Y-85825399D03*
X126940000Y-98055686D03*
%TO.N,+5V*%
X121997000Y-84836000D03*
X117094000Y-102616000D03*
X116789200Y-86918800D03*
%TO.N,Net-(J2-Pad3)*%
X125730000Y-96139000D03*
X110617000Y-87493810D03*
%TO.N,Net-(J2-Pad2)*%
X112217200Y-88214200D03*
X125330964Y-97011634D03*
%TO.N,+BATT*%
X184564020Y-104698800D03*
X154223222Y-104247783D03*
X124079000Y-85885020D03*
X115737640Y-88938100D03*
X144167860Y-106578400D03*
X107939840Y-106578400D03*
%TO.N,MISO_SD*%
X119888000Y-88773000D03*
X135636000Y-90297000D03*
X119530602Y-103342521D03*
%TO.N,CLK_SD*%
X141416390Y-92132345D03*
%TO.N,MOSI_SD*%
X135763000Y-97917000D03*
X135763000Y-97917000D03*
%TO.N,CS_SD*%
X117729000Y-94361000D03*
X118364000Y-91440000D03*
X135636000Y-87884000D03*
%TO.N,RXD0*%
X183959500Y-98044000D03*
X140856521Y-100411583D03*
%TO.N,TXD0*%
X139373310Y-97727318D03*
%TO.N,SCL*%
X154813000Y-80899000D03*
X123825000Y-99568000D03*
X123825000Y-99568000D03*
X135512790Y-96821398D03*
X191312800Y-106663000D03*
X140200305Y-100655297D03*
X139660242Y-96888159D03*
%TO.N,SDA*%
X151257000Y-81102200D03*
X145519140Y-94782640D03*
X146161760Y-96908620D03*
X123827540Y-98079560D03*
X135829040Y-92875100D03*
X191823340Y-106108500D03*
X142547969Y-99860141D03*
%TO.N,Net-(R5-Pad1)*%
X162941000Y-84264500D03*
X167132000Y-86042500D03*
%TO.N,Net-(C7-Pad2)*%
X157463790Y-87160949D03*
X155356610Y-88538883D03*
%TO.N,Net-(C11-Pad1)*%
X157226000Y-80789000D03*
X154911734Y-87259099D03*
%TO.N,BOOT*%
X138931844Y-84842156D03*
%TO.N,EN*%
X152772000Y-96647000D03*
X156260800Y-96774000D03*
X148233098Y-90755520D03*
X129832100Y-101609166D03*
X124080249Y-104829631D03*
%TO.N,DTR*%
X131691989Y-84962614D03*
X127236220Y-93954600D03*
X124943856Y-98407271D03*
X122978079Y-102905920D03*
%TO.N,RTS*%
X130302000Y-93218000D03*
X130302000Y-93218000D03*
X125349000Y-94615000D03*
%TO.N,Net-(Q2-Pad1)*%
X125862441Y-98169847D03*
%TO.N,Net-(Q3-Pad1)*%
X125095000Y-93599000D03*
%TO.N,Net-(D5-Pad2)*%
X168274000Y-81661000D03*
%TO.N,SCK_RF*%
X167386000Y-88646000D03*
X165862000Y-87122000D03*
X152654000Y-84074000D03*
%TO.N,MOSI_RF*%
X150876000Y-84582000D03*
X165544500Y-89471500D03*
X167703500Y-91567000D03*
%TO.N,MISO_RF*%
X152772000Y-82677000D03*
%TO.N,CS_RF*%
X150622000Y-87630000D03*
%TO.N,TXD1_RRC3*%
X138618930Y-93213890D03*
X155330440Y-102346427D03*
X143718824Y-101064143D03*
X141599039Y-90201751D03*
%TO.N,RXD1_RRC3*%
X152772000Y-92837000D03*
%TO.N,ESP_LED*%
X123825000Y-101092000D03*
X144907000Y-88286989D03*
%TO.N,Batt_sense*%
X154940000Y-98298000D03*
X154940000Y-98298000D03*
X152772000Y-94107000D03*
%TO.N,BUZZER*%
X152933594Y-89128406D03*
X157594123Y-89616779D03*
%TO.N,TXD2_GPS*%
X137537612Y-94372149D03*
X155881660Y-103565646D03*
X143122979Y-101937106D03*
X140140990Y-89469865D03*
%TO.N,RXD2_GPS*%
X156705300Y-101993700D03*
X143000608Y-99226906D03*
X149796500Y-89700100D03*
X143649700Y-95161100D03*
%TO.N,MPU_INT*%
X164084000Y-91948000D03*
X159258000Y-85852000D03*
X150928529Y-93686306D03*
X159766000Y-87118057D03*
%TO.N,RF_IO0*%
X153774140Y-85336380D03*
X164680900Y-89987120D03*
X174292000Y-101980000D03*
%TO.N,RF_IO1*%
X172267880Y-101937820D03*
X172267880Y-101937820D03*
X161914840Y-89722960D03*
X152772000Y-86487000D03*
%TO.N,RF_IO2*%
X170314620Y-101998780D03*
X152920700Y-87937340D03*
X158855015Y-89041769D03*
%TO.N,RESET_RF*%
X179082700Y-91668600D03*
X179108100Y-96469200D03*
X142049500Y-91833700D03*
%TD*%
D28*
%TO.N,GND*%
X149817000Y-98161000D02*
X149817000Y-99411000D01*
X147617000Y-99411000D02*
X149817000Y-99411000D01*
X119553000Y-101011000D02*
X118618000Y-100076000D01*
X121542000Y-101011000D02*
X119553000Y-101011000D01*
X182292000Y-101980000D02*
X182371000Y-101980000D01*
X182371000Y-101980000D02*
X182435500Y-102044500D01*
X150015600Y-99212400D02*
X149817000Y-99411000D01*
X152654000Y-99212400D02*
X150015600Y-99212400D01*
%TO.N,VDD*%
X149817000Y-96911000D02*
X149817000Y-95661000D01*
X121542000Y-98811000D02*
X120934500Y-98811000D01*
X120934500Y-98811000D02*
X120675500Y-98552000D01*
X154940000Y-96723200D02*
X154940000Y-93738700D01*
X154940000Y-93738700D02*
X154940000Y-93738700D01*
X176646840Y-102334840D02*
X176292000Y-101980000D01*
X176646840Y-103850440D02*
X176646840Y-102334840D01*
X152772000Y-97917000D02*
X151297640Y-97917000D01*
X150291640Y-96911000D02*
X149817000Y-96911000D01*
X151297640Y-97917000D02*
X150291640Y-96911000D01*
%TO.N,+5V*%
X117094000Y-102616000D02*
X117094000Y-98552000D01*
X117094000Y-98552000D02*
X110540800Y-91998800D01*
X110540800Y-91998800D02*
X109626400Y-91998800D01*
X109626400Y-91998800D02*
X109016800Y-91389200D01*
X109016800Y-91389200D02*
X109016800Y-87528400D01*
X109016800Y-87528400D02*
X109626400Y-86918800D01*
X109626400Y-86918800D02*
X116789200Y-86918800D01*
%TO.N,Net-(J2-Pad3)*%
X122402600Y-92811600D02*
X117906800Y-92811600D01*
X117906800Y-92811600D02*
X112589010Y-87493810D01*
X112589010Y-87493810D02*
X110617000Y-87493810D01*
X125730000Y-96139000D02*
X122402600Y-92811600D01*
%TO.N,Net-(J2-Pad2)*%
X115723785Y-91674504D02*
X115731258Y-91707252D01*
X115723784Y-91640916D02*
X115723785Y-91674504D01*
X115731259Y-91608168D02*
X115723784Y-91640916D01*
X115787719Y-91525382D02*
X115745832Y-91577906D01*
X115809766Y-91428784D02*
X115809767Y-91462372D01*
X115766775Y-91339513D02*
X115787718Y-91365774D01*
X115528382Y-91106438D02*
X115554643Y-91127380D01*
X115498118Y-91091863D02*
X115528382Y-91106438D01*
X115399036Y-91091864D02*
X115431782Y-91084389D01*
X115368772Y-91106437D02*
X115399036Y-91091864D01*
X115342513Y-91127382D02*
X115368772Y-91106437D01*
X114812185Y-91657713D02*
X115342513Y-91127382D01*
X114759662Y-91699599D02*
X114812185Y-91657713D01*
X114699136Y-91728746D02*
X114759662Y-91699599D01*
X115802293Y-91396036D02*
X115809766Y-91428784D01*
X114633642Y-91743695D02*
X114699136Y-91728746D01*
X114566463Y-91743695D02*
X114633642Y-91743695D01*
X114440443Y-91699599D02*
X114500969Y-91728746D01*
X114346035Y-91605191D02*
X114387921Y-91657714D01*
X114316888Y-91544665D02*
X114346035Y-91605191D01*
X114301939Y-91479171D02*
X114316888Y-91544665D01*
X115554643Y-91127380D02*
X115766775Y-91339513D01*
X114301939Y-91411992D02*
X114301939Y-91479171D01*
X115745832Y-91577906D02*
X115731259Y-91608168D01*
X114316888Y-91346498D02*
X114301939Y-91411992D01*
X114387921Y-91233450D02*
X114346035Y-91285972D01*
X114600053Y-91021318D02*
X114387921Y-91233450D01*
X114641938Y-90968795D02*
X114600053Y-91021318D01*
X115809767Y-91462372D02*
X115802292Y-91495120D01*
X114671086Y-90908269D02*
X114641938Y-90968795D01*
X114686034Y-90775596D02*
X114686034Y-90842775D01*
X114671086Y-90710102D02*
X114686034Y-90775596D01*
X114387921Y-91657714D02*
X114440443Y-91699599D01*
X114641938Y-90649576D02*
X114671086Y-90710102D01*
X114487004Y-90526021D02*
X114547530Y-90555168D01*
X114421510Y-90511072D02*
X114487004Y-90526021D01*
X114354331Y-90511072D02*
X114421510Y-90511072D01*
X114288837Y-90526021D02*
X114354331Y-90511072D01*
X115802292Y-91495120D02*
X115787719Y-91525382D01*
X114123266Y-90638939D02*
X114228311Y-90555168D01*
X114062740Y-90668086D02*
X114123266Y-90638939D01*
X113734732Y-89387338D02*
X113768320Y-89387337D01*
X113327264Y-89748528D02*
X113645462Y-89430329D01*
X113148721Y-89834509D02*
X113214215Y-89819560D01*
X113709640Y-90225312D02*
X113680493Y-90285838D01*
X114346035Y-91285972D02*
X114316888Y-91346498D01*
X113081542Y-89834509D02*
X113148721Y-89834509D01*
X113671722Y-89409386D02*
X113701984Y-89394811D01*
X113016048Y-89819560D02*
X113081542Y-89834509D01*
X112817018Y-89569985D02*
X112831967Y-89635479D01*
X114500969Y-91728746D02*
X114566463Y-91743695D01*
X112955522Y-89790413D02*
X113016048Y-89819560D01*
X114547530Y-90555168D02*
X114600053Y-90597054D01*
X112903000Y-89748528D02*
X112955522Y-89790413D01*
X113274741Y-89790413D02*
X113327264Y-89748528D01*
X112944885Y-89271741D02*
X112861114Y-89376786D01*
X114686034Y-90842775D02*
X114671086Y-90908269D01*
X112861114Y-89376786D02*
X112831967Y-89437312D01*
X113857592Y-89430327D02*
X114069724Y-89642459D01*
X115787718Y-91365774D02*
X115802293Y-91396036D01*
X112988981Y-89145721D02*
X112974032Y-89211215D01*
X112831967Y-89437312D02*
X112817018Y-89502806D01*
X113214215Y-89819560D02*
X113274741Y-89790413D01*
X112974032Y-89211215D02*
X112944885Y-89271741D01*
X114228311Y-90555168D02*
X114288837Y-90526021D01*
X113864573Y-90668086D02*
X113930067Y-90683035D01*
X112831967Y-89635479D02*
X112861114Y-89696005D01*
X113645462Y-89430329D02*
X113671722Y-89409386D01*
X112217200Y-88214200D02*
X112988981Y-88985981D01*
X115465372Y-91084390D02*
X115498118Y-91091863D01*
X112817018Y-89502806D02*
X112817018Y-89569985D01*
X113768320Y-89387337D02*
X113801068Y-89394812D01*
X113701984Y-89394811D02*
X113734732Y-89387338D01*
X112988981Y-88985981D02*
X112988981Y-89145721D01*
X112861114Y-89696005D02*
X112903000Y-89748528D01*
X113804047Y-90638939D02*
X113864573Y-90668086D01*
X113801068Y-89394812D02*
X113831330Y-89409385D01*
X113680493Y-90484005D02*
X113709640Y-90544531D01*
X113831330Y-89409385D02*
X113857592Y-89430327D01*
X114069724Y-89642459D02*
X114090667Y-89668721D01*
X114090667Y-89668721D02*
X114105240Y-89698983D01*
X115431782Y-91084389D02*
X115465372Y-91084390D01*
X114105240Y-89698983D02*
X114112715Y-89731731D01*
X114105241Y-89798067D02*
X114090666Y-89828329D01*
X114112715Y-89731731D02*
X114112714Y-89765319D01*
X113997246Y-90683035D02*
X114062740Y-90668086D01*
X114112714Y-89765319D02*
X114105241Y-89798067D01*
X114090666Y-89828329D02*
X114069724Y-89854591D01*
X114069724Y-89854591D02*
X113751525Y-90172790D01*
X114600053Y-90597054D02*
X114641938Y-90649576D01*
X113751525Y-90172790D02*
X113709640Y-90225312D01*
X113680493Y-90285838D02*
X113665544Y-90351332D01*
X113665544Y-90418511D02*
X113680493Y-90484005D01*
X113665544Y-90351332D02*
X113665544Y-90418511D01*
X113709640Y-90544531D02*
X113751525Y-90597054D01*
X113751525Y-90597054D02*
X113804047Y-90638939D01*
X113930067Y-90683035D02*
X113997246Y-90683035D01*
X115731258Y-91707252D02*
X115745833Y-91737514D01*
X115745833Y-91737514D02*
X115766775Y-91763776D01*
X115766775Y-91763776D02*
X116125311Y-92122311D01*
X116125311Y-92122311D02*
X117449600Y-93446600D01*
X117449600Y-93446600D02*
X121765929Y-93446600D01*
X121765929Y-93446600D02*
X125330964Y-97011635D01*
D29*
%TO.N,+BATT*%
X184564020Y-104698800D02*
X154674239Y-104698800D01*
X154674239Y-104698800D02*
X154223222Y-104247783D01*
X115737640Y-88938100D02*
X117396260Y-88938100D01*
X117396260Y-88938100D02*
X119607330Y-86727030D01*
X124079000Y-85885020D02*
X123236990Y-86727030D01*
X119607330Y-86727030D02*
X123236990Y-86727030D01*
X144167860Y-106578400D02*
X107939840Y-106578400D01*
D28*
%TO.N,MISO_SD*%
X135636000Y-90297000D02*
X135636000Y-89535000D01*
X134874000Y-88773000D02*
X119888000Y-88773000D01*
X135636000Y-89535000D02*
X134874000Y-88773000D01*
X120306927Y-102111000D02*
X119530602Y-102887325D01*
X119530602Y-102887325D02*
X119530602Y-103342521D01*
X121542000Y-102111000D02*
X120306927Y-102111000D01*
%TO.N,CLK_SD*%
X122592000Y-99911000D02*
X123117200Y-100436200D01*
X137929191Y-95619544D02*
X141416390Y-92132345D01*
X123117200Y-100436200D02*
X123117200Y-101672800D01*
X121542000Y-99911000D02*
X122592000Y-99911000D01*
X123117200Y-101672800D02*
X125037159Y-101672800D01*
X135490672Y-100588218D02*
X137929191Y-98149699D01*
X125037159Y-101672800D02*
X126125814Y-100584145D01*
X130524640Y-100584145D02*
X130528713Y-100588218D01*
X130528713Y-100588218D02*
X135490672Y-100588218D01*
X137929191Y-98149699D02*
X137929191Y-95619544D01*
X126125814Y-100584145D02*
X130524640Y-100584145D01*
%TO.N,MOSI_SD*%
X122592000Y-97711000D02*
X121542000Y-97711000D01*
X123063000Y-98182000D02*
X122592000Y-97711000D01*
X135763000Y-97917000D02*
X133995877Y-99684123D01*
X125234136Y-100203000D02*
X123571000Y-100203000D01*
X123571000Y-100203000D02*
X123063000Y-99695000D01*
X123063000Y-99695000D02*
X123063000Y-98182000D01*
X133995877Y-99684123D02*
X125753013Y-99684123D01*
X125753013Y-99684123D02*
X125234136Y-100203000D01*
%TO.N,CS_SD*%
X120492000Y-96611000D02*
X121542000Y-96611000D01*
X120492000Y-96611000D02*
X120401000Y-96520000D01*
X120401000Y-96520000D02*
X118872000Y-96520000D01*
X118872000Y-96520000D02*
X117729000Y-95377000D01*
X117729000Y-95377000D02*
X117729000Y-94361000D01*
X118364000Y-91440000D02*
X118364000Y-89281000D01*
X118364000Y-89281000D02*
X119761000Y-87884000D01*
X119761000Y-87884000D02*
X135636000Y-87884000D01*
X119422590Y-104311000D02*
X121542000Y-104311000D01*
X119507000Y-97596000D02*
X119409002Y-97596000D01*
X117856000Y-102744410D02*
X119422590Y-104311000D01*
X120492000Y-96611000D02*
X119507000Y-97596000D01*
X119409002Y-97596000D02*
X117856000Y-99149002D01*
X117856000Y-99149002D02*
X117856000Y-102744410D01*
D30*
%TO.N,Net-(J6-Pad1)*%
X184292000Y-101980000D02*
X185294000Y-101980000D01*
X189407800Y-100457000D02*
X190703200Y-101752400D01*
X186817000Y-100457000D02*
X189407800Y-100457000D01*
X190703200Y-101752400D02*
X196189600Y-101752400D01*
X185294000Y-101980000D02*
X186817000Y-100457000D01*
D28*
%TO.N,RXD0*%
X142676299Y-98385222D02*
X142428822Y-98632699D01*
X181348501Y-100654999D02*
X155189323Y-100654999D01*
X142972102Y-98385222D02*
X142676299Y-98385222D01*
X183959500Y-98044000D02*
X181348501Y-100654999D01*
X154449200Y-101395122D02*
X145982001Y-101395122D01*
X155189323Y-100654999D02*
X154449200Y-101395122D01*
X141183339Y-100411583D02*
X140856521Y-100411583D01*
X145982001Y-101395122D02*
X142972102Y-98385222D01*
X142428822Y-98632699D02*
X142428822Y-99166100D01*
X142428822Y-99166100D02*
X141183339Y-100411583D01*
%TO.N,TXD0*%
X153572500Y-100032389D02*
X150631513Y-100032389D01*
X139634271Y-97727318D02*
X139373310Y-97727318D01*
X150631513Y-100032389D02*
X150623101Y-100040801D01*
X140466100Y-96895489D02*
X139634271Y-97727318D01*
X188341000Y-95250000D02*
X164844589Y-95250000D01*
X143665587Y-96895489D02*
X140466100Y-96895489D01*
X164844589Y-95250000D02*
X160789619Y-99304970D01*
X154299919Y-99304970D02*
X153572500Y-100032389D01*
X150623101Y-100040801D02*
X146810899Y-100040801D01*
X160789619Y-99304970D02*
X154299919Y-99304970D01*
X146810899Y-100040801D02*
X143665587Y-96895489D01*
%TO.N,SCL*%
X149471811Y-87608701D02*
X150843411Y-88980300D01*
X149471811Y-83697368D02*
X149471811Y-87608701D01*
X151519201Y-81649978D02*
X149471811Y-83697368D01*
X154813000Y-80899000D02*
X154062022Y-81649978D01*
X150843411Y-88980300D02*
X150843411Y-92921800D01*
X148104211Y-95661000D02*
X147617000Y-95661000D01*
X150843411Y-92921800D02*
X148104211Y-95661000D01*
X154062022Y-81649978D02*
X151519201Y-81649978D01*
X191312800Y-106663000D02*
X145854455Y-106663000D01*
X140200305Y-101008850D02*
X140200305Y-100655297D01*
X145854455Y-106663000D02*
X140200305Y-101008850D01*
X147617000Y-95661000D02*
X144000802Y-95661000D01*
X144000802Y-95661000D02*
X143216324Y-96445478D01*
X140102923Y-96445478D02*
X139660242Y-96888159D01*
X143216324Y-96445478D02*
X140102923Y-96445478D01*
X125566613Y-99234112D02*
X133100076Y-99234112D01*
X133100076Y-99234112D02*
X135512790Y-96821398D01*
X125232725Y-99568000D02*
X125566613Y-99234112D01*
X123825000Y-99568000D02*
X125232725Y-99568000D01*
%TO.N,SDA*%
X151257000Y-81102200D02*
X149021800Y-83337400D01*
X149021800Y-83337400D02*
X149021800Y-87795100D01*
X149021800Y-87795100D02*
X150393400Y-89166700D01*
X150393400Y-89166700D02*
X150393400Y-90995602D01*
X150393400Y-90995602D02*
X146606362Y-94782640D01*
X146606362Y-94782640D02*
X145519140Y-94782640D01*
X147614620Y-96908620D02*
X147617000Y-96911000D01*
X146161760Y-96908620D02*
X147614620Y-96908620D01*
X191469787Y-106108500D02*
X191449286Y-106087999D01*
X142547969Y-102494051D02*
X142547969Y-99860141D01*
X191449286Y-106087999D02*
X161332999Y-106087999D01*
X161332999Y-106087999D02*
X160545780Y-105300780D01*
X160545780Y-105300780D02*
X145354698Y-105300780D01*
X145354698Y-105300780D02*
X142547969Y-102494051D01*
X191823340Y-106108500D02*
X191469787Y-106108500D01*
X123827540Y-98433113D02*
X124396968Y-99002541D01*
X123827540Y-98079560D02*
X123827540Y-98433113D01*
X124396968Y-99002541D02*
X125161773Y-99002541D01*
X125161773Y-99002541D02*
X125380213Y-98784101D01*
X129920039Y-98784101D02*
X135579041Y-93125099D01*
X135579041Y-93125099D02*
X135829040Y-92875100D01*
X125380213Y-98784101D02*
X129920039Y-98784101D01*
%TO.N,Net-(R5-Pad1)*%
X163703000Y-84264500D02*
X162941000Y-84264500D01*
X164147500Y-84709000D02*
X163703000Y-84264500D01*
X165798500Y-84709000D02*
X164147500Y-84709000D01*
X167132000Y-86042500D02*
X165798500Y-84709000D01*
%TO.N,Net-(C7-Pad2)*%
X157463790Y-87160949D02*
X156734544Y-87160949D01*
X156734544Y-87160949D02*
X155356610Y-88538883D01*
%TO.N,Net-(C11-Pad1)*%
X157226000Y-80789000D02*
X155915011Y-82099989D01*
X149921822Y-85534233D02*
X151646688Y-87259099D01*
X151646688Y-87259099D02*
X154911734Y-87259099D01*
X149921822Y-83883768D02*
X149921822Y-85534233D01*
X151705601Y-82099989D02*
X149921822Y-83883768D01*
X155915011Y-82099989D02*
X151705601Y-82099989D01*
%TO.N,BOOT*%
X138931844Y-85509844D02*
X138931844Y-85195709D01*
X139639000Y-86217000D02*
X138931844Y-85509844D01*
X138931844Y-85195709D02*
X138931844Y-84842156D01*
%TO.N,EN*%
X145862000Y-86344000D02*
X145907000Y-86344000D01*
X154714799Y-97552201D02*
X153809598Y-96647000D01*
X153809598Y-96647000D02*
X152772000Y-96647000D01*
X155482599Y-97552201D02*
X154714799Y-97552201D01*
X156260800Y-96774000D02*
X155482599Y-97552201D01*
X145862000Y-88384422D02*
X148233098Y-90755520D01*
X145862000Y-86844000D02*
X145862000Y-88384422D01*
X129832100Y-101600000D02*
X129832100Y-101609166D01*
X129720339Y-101488239D02*
X129832100Y-101600000D01*
X126494541Y-101488239D02*
X129720339Y-101488239D01*
X124080249Y-103902531D02*
X126494541Y-101488239D01*
X124080249Y-104829631D02*
X124080249Y-103902531D01*
%TO.N,DTR*%
X140589000Y-84217000D02*
X132437603Y-84217000D01*
X132437603Y-84217000D02*
X131691989Y-84962614D01*
X127236220Y-93954600D02*
X127236220Y-95957380D01*
X127236220Y-95957380D02*
X124943856Y-98249744D01*
X124943856Y-98249744D02*
X124943856Y-98407271D01*
X187241000Y-97790000D02*
X186606000Y-97155000D01*
X146168401Y-100945111D02*
X143158501Y-97935211D01*
X184023000Y-97155000D02*
X180973011Y-100204988D01*
X155002922Y-100204988D02*
X154262800Y-100945111D01*
X188341000Y-97790000D02*
X187241000Y-97790000D01*
X186606000Y-97155000D02*
X184023000Y-97155000D01*
X180973011Y-100204988D02*
X155002922Y-100204988D01*
X130251880Y-101034156D02*
X126312214Y-101034156D01*
X124440450Y-102905920D02*
X122978079Y-102905920D01*
X142032700Y-97935211D02*
X138123120Y-101844791D01*
X138123120Y-101844791D02*
X131062515Y-101844791D01*
X126312214Y-101034156D02*
X124440450Y-102905920D01*
X131062515Y-101844791D02*
X130251880Y-101034156D01*
X154262800Y-100945111D02*
X146168401Y-100945111D01*
X143158501Y-97935211D02*
X142032700Y-97935211D01*
%TO.N,RTS*%
X130302000Y-93218000D02*
X126746000Y-93218000D01*
X126746000Y-93218000D02*
X125349000Y-94615000D01*
X145524590Y-84344000D02*
X145524590Y-84609997D01*
X145524590Y-84609997D02*
X141689734Y-88444853D01*
X139678587Y-88444854D02*
X136418421Y-91705020D01*
X136418421Y-91705020D02*
X131814980Y-91705020D01*
X141689734Y-88444853D02*
X139678587Y-88444854D01*
X131814980Y-91705020D02*
X130302000Y-93218000D01*
X146812000Y-84344000D02*
X145524590Y-84344000D01*
%TO.N,Net-(Q2-Pad1)*%
X146762000Y-85344000D02*
X145426997Y-85344000D01*
X147762000Y-86344000D02*
X146762000Y-85344000D01*
X136604820Y-92155031D02*
X132313101Y-92155031D01*
X126987447Y-97480685D02*
X126551603Y-97480685D01*
X126551603Y-97480685D02*
X125862441Y-98169847D01*
X141876133Y-88894864D02*
X139864988Y-88894863D01*
X132313101Y-92155031D02*
X126987447Y-97480685D01*
X145426997Y-85344000D02*
X141876133Y-88894864D01*
X139864988Y-88894863D02*
X136604820Y-92155031D01*
%TO.N,Net-(Q3-Pad1)*%
X140261158Y-87994842D02*
X141539000Y-86717000D01*
X136594424Y-90892607D02*
X139492189Y-87994842D01*
X139492189Y-87994842D02*
X140261158Y-87994842D01*
X127801393Y-90892607D02*
X136594424Y-90892607D01*
X125095000Y-93599000D02*
X127801393Y-90892607D01*
%TO.N,Net-(D5-Pad2)*%
X170688000Y-81661000D02*
X171323000Y-82296000D01*
X168274000Y-81661000D02*
X170688000Y-81661000D01*
%TO.N,SCK_RF*%
X176292000Y-87230000D02*
X176292000Y-85980000D01*
X174876000Y-88646000D02*
X176292000Y-87230000D01*
X167386000Y-88646000D02*
X174876000Y-88646000D01*
X158967413Y-84074000D02*
X152654000Y-84074000D01*
X160666019Y-86244019D02*
X160666018Y-85987198D01*
X160666018Y-85987198D02*
X160283012Y-85604192D01*
X165862000Y-87122000D02*
X161544000Y-87122000D01*
X160283012Y-85389599D02*
X158967413Y-84074000D01*
X160283012Y-85604192D02*
X160283012Y-85389599D01*
X161544000Y-87122000D02*
X160666019Y-86244019D01*
X186436000Y-84328000D02*
X187642500Y-85534500D01*
X176292000Y-85980000D02*
X176292000Y-84730000D01*
X176292000Y-84730000D02*
X176694000Y-84328000D01*
X176694000Y-84328000D02*
X186436000Y-84328000D01*
X203141014Y-95192011D02*
X204152500Y-96203497D01*
X187642500Y-85534500D02*
X189738001Y-85534500D01*
X204475511Y-103713081D02*
X203667592Y-104521000D01*
X204152500Y-96203497D02*
X204152500Y-100392090D01*
X197679600Y-95192011D02*
X203141014Y-95192011D01*
X204152500Y-100392090D02*
X204475511Y-100715100D01*
X204475511Y-100715100D02*
X204475511Y-103713081D01*
X189738001Y-85534500D02*
X191198500Y-86994999D01*
X191198500Y-93345000D02*
X195832589Y-93345000D01*
X195832589Y-93345000D02*
X197679600Y-95192011D01*
X203667592Y-104521000D02*
X202565000Y-104521000D01*
X191198500Y-86994999D02*
X191198500Y-93345000D01*
%TO.N,MOSI_RF*%
X174292000Y-85980000D02*
X174292000Y-86312000D01*
X174292000Y-86312000D02*
X172720000Y-87884000D01*
X165544500Y-87884000D02*
X165544500Y-89471500D01*
X172720000Y-87884000D02*
X165544500Y-87884000D01*
X160216009Y-86610478D02*
X160216009Y-86173599D01*
X159833001Y-85790591D02*
X159833001Y-85575999D01*
X151055379Y-84761379D02*
X150876000Y-84582000D01*
X159018381Y-84761379D02*
X151055379Y-84761379D01*
X159833001Y-85575999D02*
X159018381Y-84761379D01*
X160216009Y-86173599D02*
X159833001Y-85790591D01*
X161489531Y-87884000D02*
X160216009Y-86610478D01*
X165544500Y-87884000D02*
X161489531Y-87884000D01*
X200240900Y-97459800D02*
X201002900Y-98221800D01*
X193013087Y-95440500D02*
X195032387Y-97459800D01*
X201002900Y-101206300D02*
X201777600Y-101981000D01*
X190270502Y-95440500D02*
X193013087Y-95440500D01*
X201777600Y-101981000D02*
X202565000Y-101981000D01*
X195032387Y-97459800D02*
X200240900Y-97459800D01*
X188746502Y-93916500D02*
X190270502Y-95440500D01*
X201002900Y-98221800D02*
X201002900Y-101206300D01*
X167703500Y-91567000D02*
X170053000Y-93916500D01*
X170053000Y-93916500D02*
X188746502Y-93916500D01*
%TO.N,MISO_RF*%
X152899000Y-82804000D02*
X152772000Y-82677000D01*
X169418000Y-82804000D02*
X152899000Y-82804000D01*
X172292000Y-85678000D02*
X169418000Y-82804000D01*
X172292000Y-85980000D02*
X172292000Y-85678000D01*
X173789003Y-84654999D02*
X173617001Y-84654999D01*
X191382498Y-81844998D02*
X190309500Y-80772000D01*
X196652998Y-81844998D02*
X191382498Y-81844998D01*
X198882000Y-84074000D02*
X196652998Y-81844998D01*
X198882000Y-91186000D02*
X198882000Y-84074000D01*
X203327413Y-94742000D02*
X202438000Y-94742000D01*
X204724000Y-96138587D02*
X203327413Y-94742000D01*
X190309500Y-80772000D02*
X177672002Y-80772000D01*
X204025500Y-103187500D02*
X201104500Y-103187500D01*
X177672002Y-80772000D02*
X173789003Y-84654999D01*
X205105000Y-103720002D02*
X205105000Y-100393500D01*
X202565000Y-99441000D02*
X204025500Y-100901500D01*
X202438000Y-94742000D02*
X198882000Y-91186000D01*
X201104500Y-103187500D02*
X200660000Y-103632000D01*
X200660000Y-105219500D02*
X201676000Y-106235500D01*
X201676000Y-106235500D02*
X202589502Y-106235500D01*
X204025500Y-100901500D02*
X204025500Y-103187500D01*
X202589502Y-106235500D02*
X205105000Y-103720002D01*
X200660000Y-103632000D02*
X200660000Y-105219500D01*
X205105000Y-100393500D02*
X204724000Y-100012500D01*
X173617001Y-84654999D02*
X172292000Y-85980000D01*
X204724000Y-100012500D02*
X204724000Y-96138587D01*
%TO.N,CS_RF*%
X178292000Y-85980000D02*
X178292000Y-87230000D01*
X178292000Y-87230000D02*
X177147500Y-88374500D01*
X177147500Y-88374500D02*
X174959390Y-90562610D01*
X153592551Y-90600551D02*
X150622000Y-87630000D01*
X174959390Y-90562610D02*
X156370262Y-90562610D01*
X156370262Y-90562610D02*
X156332321Y-90600551D01*
X156332321Y-90600551D02*
X153592551Y-90600551D01*
X193199487Y-94990489D02*
X192080579Y-94990489D01*
X195109997Y-96901000D02*
X193199487Y-94990489D01*
X190748489Y-93658399D02*
X190748489Y-87181399D01*
X190748489Y-87181399D02*
X189551601Y-85984511D01*
X179307201Y-92652009D02*
X178858199Y-92652009D01*
X189551601Y-85984511D02*
X187573489Y-85984511D01*
X178858199Y-92652009D02*
X177147500Y-90941310D01*
X177147500Y-90941310D02*
X177147500Y-88374500D01*
X192080579Y-94990489D02*
X190748489Y-93658399D01*
X183584710Y-88374500D02*
X179307201Y-92652009D01*
X185183500Y-88374500D02*
X183584710Y-88374500D01*
X187573489Y-85984511D02*
X185183500Y-88374500D01*
X202565000Y-96901000D02*
X195109997Y-96901000D01*
%TO.N,TXD1_RRC3*%
X138586898Y-93213890D02*
X141569250Y-90231538D01*
X155330440Y-102346427D02*
X145001108Y-102346427D01*
X145001108Y-102346427D02*
X143718824Y-101064143D01*
X141539844Y-90201751D02*
X141599039Y-90201751D01*
X141487773Y-90149680D02*
X141539844Y-90201751D01*
%TO.N,RXD1_RRC3*%
X159994600Y-93637600D02*
X156746721Y-93637600D01*
X153418020Y-92190980D02*
X152772000Y-92837000D01*
X156746721Y-93637600D02*
X155300101Y-92190980D01*
X155300101Y-92190980D02*
X153418020Y-92190980D01*
%TO.N,ESP_LED*%
X130711040Y-100134134D02*
X130715113Y-100138207D01*
X144553447Y-88286989D02*
X144907000Y-88286989D01*
X144410742Y-88286989D02*
X144553447Y-88286989D01*
X140841388Y-91856343D02*
X144410742Y-88286989D01*
X140841388Y-91999048D02*
X140841388Y-91856343D01*
X136056780Y-99372999D02*
X136056780Y-99004699D01*
X137229009Y-95611427D02*
X140841388Y-91999048D01*
X137229009Y-97832470D02*
X137229009Y-95611427D01*
X136056780Y-99004699D02*
X137229009Y-97832470D01*
X135291572Y-100138207D02*
X136056780Y-99372999D01*
X125939414Y-100134134D02*
X130711040Y-100134134D01*
X130715113Y-100138207D02*
X135291572Y-100138207D01*
X124981548Y-101092000D02*
X125939414Y-100134134D01*
X123825000Y-101092000D02*
X124981548Y-101092000D01*
%TO.N,Batt_sense*%
X151137191Y-95741809D02*
X152772000Y-94107000D01*
X153512458Y-97224011D02*
X151604000Y-97224011D01*
X151137191Y-96757201D02*
X151137191Y-95741809D01*
X154940000Y-98298000D02*
X154586447Y-98298000D01*
X151604000Y-97224011D02*
X151137191Y-96757201D01*
X154586447Y-98298000D02*
X153512458Y-97224011D01*
%TO.N,BUZZER*%
X156145921Y-90150540D02*
X156679682Y-89616779D01*
X156679682Y-89616779D02*
X157594123Y-89616779D01*
X153955728Y-90150540D02*
X156145921Y-90150540D01*
X152933594Y-89128406D02*
X153955728Y-90150540D01*
%TO.N,TXD2_GPS*%
X144751519Y-103565646D02*
X143122979Y-101937106D01*
X155881660Y-103565646D02*
X144751519Y-103565646D01*
X137537612Y-94372149D02*
X137537612Y-92073243D01*
X137537612Y-92073243D02*
X140140990Y-89469865D01*
%TO.N,RXD2_GPS*%
X156455301Y-101743701D02*
X154737032Y-101743701D01*
X154635600Y-101845133D02*
X145618835Y-101845133D01*
X154737032Y-101743701D02*
X154635600Y-101845133D01*
X156705300Y-101993700D02*
X156455301Y-101743701D01*
X145618835Y-101845133D02*
X143000608Y-99226906D01*
X149669500Y-89827100D02*
X149796500Y-89700100D01*
X149669500Y-90335100D02*
X149669500Y-89827100D01*
X148691600Y-91313000D02*
X149669500Y-90335100D01*
X148373998Y-91313000D02*
X148691600Y-91313000D01*
X145046700Y-93764100D02*
X145922898Y-93764100D01*
X145922898Y-93764100D02*
X148373998Y-91313000D01*
X143649700Y-95161100D02*
X145046700Y-93764100D01*
%TO.N,MPU_INT*%
X159766000Y-86360000D02*
X159766000Y-87118048D01*
X159258000Y-85852000D02*
X159766000Y-86360000D01*
X160614390Y-98806000D02*
X158242000Y-98806000D01*
X158242000Y-98806000D02*
X158242000Y-95769290D01*
X155113701Y-92640991D02*
X154740899Y-92640991D01*
X164084000Y-91948000D02*
X164084000Y-95336390D01*
X164084000Y-95336390D02*
X160614390Y-98806000D01*
X158242000Y-95769290D02*
X155113701Y-92640991D01*
X153945583Y-93436307D02*
X151178528Y-93436307D01*
X154740899Y-92640991D02*
X153945583Y-93436307D01*
X151178528Y-93436307D02*
X150928529Y-93686306D01*
%TO.N,RF_IO0*%
X153959561Y-85521801D02*
X155263992Y-85521802D01*
X153774140Y-85336380D02*
X153959561Y-85521801D01*
X155263992Y-85521802D02*
X156132670Y-86390480D01*
X157551010Y-86390480D02*
X158437580Y-87277050D01*
X156132670Y-86390480D02*
X157551010Y-86390480D01*
X158437580Y-87277050D02*
X158559610Y-87277050D01*
X160839151Y-88262579D02*
X160996512Y-88419940D01*
X159545139Y-88262579D02*
X160839151Y-88262579D01*
X158559610Y-87277050D02*
X159545139Y-88262579D01*
X160996512Y-88419940D02*
X163113720Y-88419940D01*
X163113720Y-88419940D02*
X164680900Y-89987120D01*
%TO.N,RF_IO1*%
X172292000Y-101980000D02*
X172292000Y-101961940D01*
X172292000Y-101961940D02*
X172267880Y-101937820D01*
X153287189Y-85971811D02*
X152772000Y-86487000D01*
X158870939Y-88224789D02*
X156483891Y-88224789D01*
X159358739Y-88712590D02*
X158870939Y-88224789D01*
X154536140Y-88447880D02*
X155577540Y-87406480D01*
X155590240Y-89118440D02*
X155064460Y-89118440D01*
X155064460Y-89118440D02*
X154536140Y-88590120D01*
X155077591Y-85971811D02*
X153287189Y-85971811D01*
X155577540Y-86471760D02*
X155077591Y-85971811D01*
X160652751Y-88712590D02*
X159358739Y-88712590D01*
X154536140Y-88590120D02*
X154536140Y-88447880D01*
X156483891Y-88224789D02*
X155590240Y-89118440D01*
X161663121Y-89722960D02*
X160652751Y-88712590D01*
X155577540Y-87406480D02*
X155577540Y-86471760D01*
X161914840Y-89722960D02*
X161663121Y-89722960D01*
%TO.N,RF_IO2*%
X170292000Y-101980000D02*
X170295840Y-101980000D01*
X170295840Y-101980000D02*
X170314620Y-101998780D01*
X154683889Y-89700529D02*
X155959521Y-89700529D01*
X156618281Y-89041769D02*
X158855015Y-89041769D01*
X152920700Y-87937340D02*
X154683889Y-89700529D01*
X155959521Y-89700529D02*
X156618281Y-89041769D01*
%TO.N,RESET_RF*%
X180292000Y-85980000D02*
X180292000Y-90954600D01*
X180292000Y-90954600D02*
X179578000Y-91668600D01*
X179578000Y-91668600D02*
X179082700Y-91668600D01*
X175822319Y-99754981D02*
X154816519Y-99754981D01*
X179108100Y-96469200D02*
X175822319Y-99754981D01*
X146624499Y-100490812D02*
X146616087Y-100482400D01*
X154816519Y-99754981D02*
X154080688Y-100490812D01*
X154080688Y-100490812D02*
X146624499Y-100490812D01*
X146295888Y-100162201D02*
X146021901Y-100162201D01*
X146616087Y-100482400D02*
X146295888Y-100162201D01*
X146021901Y-100162201D02*
X143205200Y-97345500D01*
X143205200Y-97345500D02*
X141986000Y-97345500D01*
X141986000Y-97345500D02*
X140652500Y-97345500D01*
X140652500Y-97345500D02*
X139687300Y-98310700D01*
X139687300Y-98310700D02*
X139077700Y-98310700D01*
X139077700Y-98310700D02*
X138798300Y-98031300D01*
X138798300Y-98031300D02*
X138798300Y-95923100D01*
X138798300Y-95923100D02*
X142049500Y-92671900D01*
X142049500Y-92671900D02*
X142049500Y-91833700D01*
%TD*%
D31*
%TO.N,GND*%
G36*
X189706707Y-95951508D02*
G01*
X189730501Y-95980501D01*
X189759494Y-96004295D01*
X189759498Y-96004299D01*
X189817422Y-96051835D01*
X189846226Y-96075474D01*
X189978255Y-96146046D01*
X190121516Y-96189503D01*
X190233169Y-96200500D01*
X190233178Y-96200500D01*
X190270501Y-96204176D01*
X190307824Y-96200500D01*
X192698286Y-96200500D01*
X193975371Y-97477587D01*
X193937895Y-97467540D01*
X193591950Y-97444824D01*
X193248220Y-97490034D01*
X192919915Y-97601434D01*
X192715521Y-97710686D01*
X192604674Y-97987869D01*
X193649600Y-99032795D01*
X193663743Y-99018653D01*
X193843348Y-99198258D01*
X193829205Y-99212400D01*
X194874131Y-100257326D01*
X195151314Y-100146479D01*
X195304689Y-99835560D01*
X195394460Y-99500695D01*
X195417176Y-99154750D01*
X195371966Y-98811020D01*
X195260566Y-98482715D01*
X195151314Y-98278321D01*
X195008216Y-98221095D01*
X195032386Y-98223476D01*
X195069709Y-98219800D01*
X197374223Y-98219800D01*
X197227886Y-98278321D01*
X197074511Y-98589240D01*
X196984740Y-98924105D01*
X196962024Y-99270050D01*
X197007234Y-99613780D01*
X197118634Y-99942085D01*
X197227886Y-100146479D01*
X197505069Y-100257326D01*
X198549995Y-99212400D01*
X198535853Y-99198258D01*
X198715458Y-99018653D01*
X198729600Y-99032795D01*
X198743743Y-99018653D01*
X198923348Y-99198258D01*
X198909205Y-99212400D01*
X199954131Y-100257326D01*
X200231314Y-100146479D01*
X200242901Y-100122991D01*
X200242901Y-101168968D01*
X200239224Y-101206300D01*
X200242901Y-101243633D01*
X200253898Y-101355286D01*
X200259257Y-101372951D01*
X200297354Y-101498546D01*
X200367926Y-101630576D01*
X200433338Y-101710280D01*
X200462900Y-101746301D01*
X200491898Y-101770099D01*
X201137854Y-102416056D01*
X201142594Y-102427500D01*
X201141823Y-102427500D01*
X201104500Y-102423824D01*
X201067177Y-102427500D01*
X201067167Y-102427500D01*
X200955514Y-102438497D01*
X200819469Y-102479765D01*
X200812253Y-102481954D01*
X200680223Y-102552526D01*
X200658890Y-102570034D01*
X200564499Y-102647499D01*
X200540696Y-102676503D01*
X200149003Y-103068196D01*
X200119999Y-103091999D01*
X200069504Y-103153528D01*
X200025026Y-103207724D01*
X199995035Y-103263832D01*
X199954131Y-103247474D01*
X198909205Y-104292400D01*
X198923348Y-104306543D01*
X198743743Y-104486148D01*
X198729600Y-104472005D01*
X197684674Y-105516931D01*
X197795521Y-105794114D01*
X198106440Y-105947489D01*
X198441305Y-106037260D01*
X198787250Y-106059976D01*
X199130980Y-106014766D01*
X199459285Y-105903366D01*
X199663679Y-105794114D01*
X199774525Y-105516933D01*
X199889891Y-105632299D01*
X199973957Y-105548233D01*
X200025026Y-105643776D01*
X200096201Y-105730502D01*
X200120000Y-105759501D01*
X200148998Y-105783299D01*
X200843698Y-106478000D01*
X192628205Y-106478000D01*
X192674330Y-106366645D01*
X192708340Y-106195665D01*
X192708340Y-106021335D01*
X192674330Y-105850355D01*
X192607617Y-105689295D01*
X192537400Y-105584208D01*
X192604675Y-105516933D01*
X192715521Y-105794114D01*
X193026440Y-105947489D01*
X193361305Y-106037260D01*
X193707250Y-106059976D01*
X194050980Y-106014766D01*
X194379285Y-105903366D01*
X194583679Y-105794114D01*
X194694526Y-105516931D01*
X193649600Y-104472005D01*
X193635458Y-104486148D01*
X193455853Y-104306543D01*
X193469995Y-104292400D01*
X193829205Y-104292400D01*
X194874131Y-105337326D01*
X195151314Y-105226479D01*
X195304689Y-104915560D01*
X195394460Y-104580695D01*
X195409604Y-104350050D01*
X196962024Y-104350050D01*
X197007234Y-104693780D01*
X197118634Y-105022085D01*
X197227886Y-105226479D01*
X197505069Y-105337326D01*
X198549995Y-104292400D01*
X197505069Y-103247474D01*
X197227886Y-103358321D01*
X197074511Y-103669240D01*
X196984740Y-104004105D01*
X196962024Y-104350050D01*
X195409604Y-104350050D01*
X195417176Y-104234750D01*
X195371966Y-103891020D01*
X195260566Y-103562715D01*
X195151314Y-103358321D01*
X194874131Y-103247474D01*
X193829205Y-104292400D01*
X193469995Y-104292400D01*
X192425069Y-103247474D01*
X192147886Y-103358321D01*
X191994511Y-103669240D01*
X191904740Y-104004105D01*
X191882024Y-104350050D01*
X191927234Y-104693780D01*
X192038634Y-105022085D01*
X192147886Y-105226479D01*
X192425067Y-105337325D01*
X192359813Y-105402579D01*
X192242545Y-105324223D01*
X192081485Y-105257510D01*
X191910505Y-105223500D01*
X191736175Y-105223500D01*
X191565195Y-105257510D01*
X191404135Y-105324223D01*
X191398484Y-105327999D01*
X190533362Y-105327999D01*
X190702631Y-105074669D01*
X190871110Y-104667925D01*
X190957000Y-104236128D01*
X190957000Y-103795872D01*
X190871110Y-103364075D01*
X190702631Y-102957331D01*
X190656500Y-102888291D01*
X190703199Y-102892890D01*
X190758941Y-102887400D01*
X192676845Y-102887400D01*
X192604674Y-103067869D01*
X193649600Y-104112795D01*
X194694526Y-103067869D01*
X194622355Y-102887400D01*
X194977006Y-102887400D01*
X195131412Y-103041806D01*
X195403295Y-103223473D01*
X195705396Y-103348607D01*
X196026104Y-103412400D01*
X196353096Y-103412400D01*
X196673804Y-103348607D01*
X196975905Y-103223473D01*
X197208782Y-103067869D01*
X197684674Y-103067869D01*
X198729600Y-104112795D01*
X199774526Y-103067869D01*
X199663679Y-102790686D01*
X199352760Y-102637311D01*
X199017895Y-102547540D01*
X198671950Y-102524824D01*
X198328220Y-102570034D01*
X197999915Y-102681434D01*
X197795521Y-102790686D01*
X197684674Y-103067869D01*
X197208782Y-103067869D01*
X197247788Y-103041806D01*
X197479006Y-102810588D01*
X197660673Y-102538705D01*
X197785807Y-102236604D01*
X197849600Y-101915896D01*
X197849600Y-101588904D01*
X197785807Y-101268196D01*
X197660673Y-100966095D01*
X197479006Y-100694212D01*
X197247788Y-100462994D01*
X197208783Y-100436931D01*
X197684674Y-100436931D01*
X197795521Y-100714114D01*
X198106440Y-100867489D01*
X198441305Y-100957260D01*
X198787250Y-100979976D01*
X199130980Y-100934766D01*
X199459285Y-100823366D01*
X199663679Y-100714114D01*
X199774526Y-100436931D01*
X198729600Y-99392005D01*
X197684674Y-100436931D01*
X197208783Y-100436931D01*
X196975905Y-100281327D01*
X196673804Y-100156193D01*
X196353096Y-100092400D01*
X196026104Y-100092400D01*
X195705396Y-100156193D01*
X195403295Y-100281327D01*
X195131412Y-100462994D01*
X194977006Y-100617400D01*
X194622355Y-100617400D01*
X194694526Y-100436931D01*
X193649600Y-99392005D01*
X192604674Y-100436931D01*
X192676845Y-100617400D01*
X191173332Y-100617400D01*
X190249796Y-99693865D01*
X190214249Y-99650551D01*
X190041423Y-99508716D01*
X189844247Y-99403324D01*
X189630299Y-99338423D01*
X189463552Y-99322000D01*
X189463551Y-99322000D01*
X189407800Y-99316509D01*
X189352049Y-99322000D01*
X186872741Y-99322000D01*
X186816999Y-99316510D01*
X186761257Y-99322000D01*
X186761248Y-99322000D01*
X186594501Y-99338423D01*
X186380553Y-99403324D01*
X186183377Y-99508716D01*
X186010551Y-99650551D01*
X185975009Y-99693860D01*
X185186540Y-100482328D01*
X185146494Y-100449463D01*
X185036180Y-100390498D01*
X184916482Y-100354188D01*
X184792000Y-100341928D01*
X183792000Y-100341928D01*
X183667518Y-100354188D01*
X183547820Y-100390498D01*
X183437506Y-100449463D01*
X183340815Y-100528815D01*
X183292000Y-100588296D01*
X183243185Y-100528815D01*
X183146494Y-100449463D01*
X183036180Y-100390498D01*
X182916482Y-100354188D01*
X182792000Y-100341928D01*
X182735564Y-100342737D01*
X184174787Y-98903515D01*
X184217645Y-98894990D01*
X184378705Y-98828277D01*
X184523655Y-98731424D01*
X184646924Y-98608155D01*
X184743777Y-98463205D01*
X184810490Y-98302145D01*
X184844500Y-98131165D01*
X184844500Y-97956835D01*
X184836179Y-97915000D01*
X186291199Y-97915000D01*
X186677200Y-98301002D01*
X186700999Y-98330001D01*
X186729997Y-98353799D01*
X186816724Y-98424974D01*
X186852928Y-98444326D01*
X186852928Y-98640000D01*
X186865188Y-98764482D01*
X186901498Y-98884180D01*
X186960463Y-98994494D01*
X187039815Y-99091185D01*
X187136506Y-99170537D01*
X187246820Y-99229502D01*
X187366518Y-99265812D01*
X187491000Y-99278072D01*
X189191000Y-99278072D01*
X189272451Y-99270050D01*
X191882024Y-99270050D01*
X191927234Y-99613780D01*
X192038634Y-99942085D01*
X192147886Y-100146479D01*
X192425069Y-100257326D01*
X193469995Y-99212400D01*
X192425069Y-98167474D01*
X192147886Y-98278321D01*
X191994511Y-98589240D01*
X191904740Y-98924105D01*
X191882024Y-99270050D01*
X189272451Y-99270050D01*
X189315482Y-99265812D01*
X189435180Y-99229502D01*
X189545494Y-99170537D01*
X189642185Y-99091185D01*
X189721537Y-98994494D01*
X189780502Y-98884180D01*
X189816812Y-98764482D01*
X189829072Y-98640000D01*
X189829072Y-96940000D01*
X189816812Y-96815518D01*
X189780502Y-96695820D01*
X189721537Y-96585506D01*
X189642185Y-96488815D01*
X189545494Y-96409463D01*
X189435180Y-96350498D01*
X189362620Y-96328487D01*
X189494475Y-96196632D01*
X189656990Y-95953411D01*
X189672109Y-95916910D01*
X189706707Y-95951508D01*
G37*
X189706707Y-95951508D02*
X189730501Y-95980501D01*
X189759494Y-96004295D01*
X189759498Y-96004299D01*
X189817422Y-96051835D01*
X189846226Y-96075474D01*
X189978255Y-96146046D01*
X190121516Y-96189503D01*
X190233169Y-96200500D01*
X190233178Y-96200500D01*
X190270501Y-96204176D01*
X190307824Y-96200500D01*
X192698286Y-96200500D01*
X193975371Y-97477587D01*
X193937895Y-97467540D01*
X193591950Y-97444824D01*
X193248220Y-97490034D01*
X192919915Y-97601434D01*
X192715521Y-97710686D01*
X192604674Y-97987869D01*
X193649600Y-99032795D01*
X193663743Y-99018653D01*
X193843348Y-99198258D01*
X193829205Y-99212400D01*
X194874131Y-100257326D01*
X195151314Y-100146479D01*
X195304689Y-99835560D01*
X195394460Y-99500695D01*
X195417176Y-99154750D01*
X195371966Y-98811020D01*
X195260566Y-98482715D01*
X195151314Y-98278321D01*
X195008216Y-98221095D01*
X195032386Y-98223476D01*
X195069709Y-98219800D01*
X197374223Y-98219800D01*
X197227886Y-98278321D01*
X197074511Y-98589240D01*
X196984740Y-98924105D01*
X196962024Y-99270050D01*
X197007234Y-99613780D01*
X197118634Y-99942085D01*
X197227886Y-100146479D01*
X197505069Y-100257326D01*
X198549995Y-99212400D01*
X198535853Y-99198258D01*
X198715458Y-99018653D01*
X198729600Y-99032795D01*
X198743743Y-99018653D01*
X198923348Y-99198258D01*
X198909205Y-99212400D01*
X199954131Y-100257326D01*
X200231314Y-100146479D01*
X200242901Y-100122991D01*
X200242901Y-101168968D01*
X200239224Y-101206300D01*
X200242901Y-101243633D01*
X200253898Y-101355286D01*
X200259257Y-101372951D01*
X200297354Y-101498546D01*
X200367926Y-101630576D01*
X200433338Y-101710280D01*
X200462900Y-101746301D01*
X200491898Y-101770099D01*
X201137854Y-102416056D01*
X201142594Y-102427500D01*
X201141823Y-102427500D01*
X201104500Y-102423824D01*
X201067177Y-102427500D01*
X201067167Y-102427500D01*
X200955514Y-102438497D01*
X200819469Y-102479765D01*
X200812253Y-102481954D01*
X200680223Y-102552526D01*
X200658890Y-102570034D01*
X200564499Y-102647499D01*
X200540696Y-102676503D01*
X200149003Y-103068196D01*
X200119999Y-103091999D01*
X200069504Y-103153528D01*
X200025026Y-103207724D01*
X199995035Y-103263832D01*
X199954131Y-103247474D01*
X198909205Y-104292400D01*
X198923348Y-104306543D01*
X198743743Y-104486148D01*
X198729600Y-104472005D01*
X197684674Y-105516931D01*
X197795521Y-105794114D01*
X198106440Y-105947489D01*
X198441305Y-106037260D01*
X198787250Y-106059976D01*
X199130980Y-106014766D01*
X199459285Y-105903366D01*
X199663679Y-105794114D01*
X199774525Y-105516933D01*
X199889891Y-105632299D01*
X199973957Y-105548233D01*
X200025026Y-105643776D01*
X200096201Y-105730502D01*
X200120000Y-105759501D01*
X200148998Y-105783299D01*
X200843698Y-106478000D01*
X192628205Y-106478000D01*
X192674330Y-106366645D01*
X192708340Y-106195665D01*
X192708340Y-106021335D01*
X192674330Y-105850355D01*
X192607617Y-105689295D01*
X192537400Y-105584208D01*
X192604675Y-105516933D01*
X192715521Y-105794114D01*
X193026440Y-105947489D01*
X193361305Y-106037260D01*
X193707250Y-106059976D01*
X194050980Y-106014766D01*
X194379285Y-105903366D01*
X194583679Y-105794114D01*
X194694526Y-105516931D01*
X193649600Y-104472005D01*
X193635458Y-104486148D01*
X193455853Y-104306543D01*
X193469995Y-104292400D01*
X193829205Y-104292400D01*
X194874131Y-105337326D01*
X195151314Y-105226479D01*
X195304689Y-104915560D01*
X195394460Y-104580695D01*
X195409604Y-104350050D01*
X196962024Y-104350050D01*
X197007234Y-104693780D01*
X197118634Y-105022085D01*
X197227886Y-105226479D01*
X197505069Y-105337326D01*
X198549995Y-104292400D01*
X197505069Y-103247474D01*
X197227886Y-103358321D01*
X197074511Y-103669240D01*
X196984740Y-104004105D01*
X196962024Y-104350050D01*
X195409604Y-104350050D01*
X195417176Y-104234750D01*
X195371966Y-103891020D01*
X195260566Y-103562715D01*
X195151314Y-103358321D01*
X194874131Y-103247474D01*
X193829205Y-104292400D01*
X193469995Y-104292400D01*
X192425069Y-103247474D01*
X192147886Y-103358321D01*
X191994511Y-103669240D01*
X191904740Y-104004105D01*
X191882024Y-104350050D01*
X191927234Y-104693780D01*
X192038634Y-105022085D01*
X192147886Y-105226479D01*
X192425067Y-105337325D01*
X192359813Y-105402579D01*
X192242545Y-105324223D01*
X192081485Y-105257510D01*
X191910505Y-105223500D01*
X191736175Y-105223500D01*
X191565195Y-105257510D01*
X191404135Y-105324223D01*
X191398484Y-105327999D01*
X190533362Y-105327999D01*
X190702631Y-105074669D01*
X190871110Y-104667925D01*
X190957000Y-104236128D01*
X190957000Y-103795872D01*
X190871110Y-103364075D01*
X190702631Y-102957331D01*
X190656500Y-102888291D01*
X190703199Y-102892890D01*
X190758941Y-102887400D01*
X192676845Y-102887400D01*
X192604674Y-103067869D01*
X193649600Y-104112795D01*
X194694526Y-103067869D01*
X194622355Y-102887400D01*
X194977006Y-102887400D01*
X195131412Y-103041806D01*
X195403295Y-103223473D01*
X195705396Y-103348607D01*
X196026104Y-103412400D01*
X196353096Y-103412400D01*
X196673804Y-103348607D01*
X196975905Y-103223473D01*
X197208782Y-103067869D01*
X197684674Y-103067869D01*
X198729600Y-104112795D01*
X199774526Y-103067869D01*
X199663679Y-102790686D01*
X199352760Y-102637311D01*
X199017895Y-102547540D01*
X198671950Y-102524824D01*
X198328220Y-102570034D01*
X197999915Y-102681434D01*
X197795521Y-102790686D01*
X197684674Y-103067869D01*
X197208782Y-103067869D01*
X197247788Y-103041806D01*
X197479006Y-102810588D01*
X197660673Y-102538705D01*
X197785807Y-102236604D01*
X197849600Y-101915896D01*
X197849600Y-101588904D01*
X197785807Y-101268196D01*
X197660673Y-100966095D01*
X197479006Y-100694212D01*
X197247788Y-100462994D01*
X197208783Y-100436931D01*
X197684674Y-100436931D01*
X197795521Y-100714114D01*
X198106440Y-100867489D01*
X198441305Y-100957260D01*
X198787250Y-100979976D01*
X199130980Y-100934766D01*
X199459285Y-100823366D01*
X199663679Y-100714114D01*
X199774526Y-100436931D01*
X198729600Y-99392005D01*
X197684674Y-100436931D01*
X197208783Y-100436931D01*
X196975905Y-100281327D01*
X196673804Y-100156193D01*
X196353096Y-100092400D01*
X196026104Y-100092400D01*
X195705396Y-100156193D01*
X195403295Y-100281327D01*
X195131412Y-100462994D01*
X194977006Y-100617400D01*
X194622355Y-100617400D01*
X194694526Y-100436931D01*
X193649600Y-99392005D01*
X192604674Y-100436931D01*
X192676845Y-100617400D01*
X191173332Y-100617400D01*
X190249796Y-99693865D01*
X190214249Y-99650551D01*
X190041423Y-99508716D01*
X189844247Y-99403324D01*
X189630299Y-99338423D01*
X189463552Y-99322000D01*
X189463551Y-99322000D01*
X189407800Y-99316509D01*
X189352049Y-99322000D01*
X186872741Y-99322000D01*
X186816999Y-99316510D01*
X186761257Y-99322000D01*
X186761248Y-99322000D01*
X186594501Y-99338423D01*
X186380553Y-99403324D01*
X186183377Y-99508716D01*
X186010551Y-99650551D01*
X185975009Y-99693860D01*
X185186540Y-100482328D01*
X185146494Y-100449463D01*
X185036180Y-100390498D01*
X184916482Y-100354188D01*
X184792000Y-100341928D01*
X183792000Y-100341928D01*
X183667518Y-100354188D01*
X183547820Y-100390498D01*
X183437506Y-100449463D01*
X183340815Y-100528815D01*
X183292000Y-100588296D01*
X183243185Y-100528815D01*
X183146494Y-100449463D01*
X183036180Y-100390498D01*
X182916482Y-100354188D01*
X182792000Y-100341928D01*
X182735564Y-100342737D01*
X184174787Y-98903515D01*
X184217645Y-98894990D01*
X184378705Y-98828277D01*
X184523655Y-98731424D01*
X184646924Y-98608155D01*
X184743777Y-98463205D01*
X184810490Y-98302145D01*
X184844500Y-98131165D01*
X184844500Y-97956835D01*
X184836179Y-97915000D01*
X186291199Y-97915000D01*
X186677200Y-98301002D01*
X186700999Y-98330001D01*
X186729997Y-98353799D01*
X186816724Y-98424974D01*
X186852928Y-98444326D01*
X186852928Y-98640000D01*
X186865188Y-98764482D01*
X186901498Y-98884180D01*
X186960463Y-98994494D01*
X187039815Y-99091185D01*
X187136506Y-99170537D01*
X187246820Y-99229502D01*
X187366518Y-99265812D01*
X187491000Y-99278072D01*
X189191000Y-99278072D01*
X189272451Y-99270050D01*
X191882024Y-99270050D01*
X191927234Y-99613780D01*
X192038634Y-99942085D01*
X192147886Y-100146479D01*
X192425069Y-100257326D01*
X193469995Y-99212400D01*
X192425069Y-98167474D01*
X192147886Y-98278321D01*
X191994511Y-98589240D01*
X191904740Y-98924105D01*
X191882024Y-99270050D01*
X189272451Y-99270050D01*
X189315482Y-99265812D01*
X189435180Y-99229502D01*
X189545494Y-99170537D01*
X189642185Y-99091185D01*
X189721537Y-98994494D01*
X189780502Y-98884180D01*
X189816812Y-98764482D01*
X189829072Y-98640000D01*
X189829072Y-96940000D01*
X189816812Y-96815518D01*
X189780502Y-96695820D01*
X189721537Y-96585506D01*
X189642185Y-96488815D01*
X189545494Y-96409463D01*
X189435180Y-96350498D01*
X189362620Y-96328487D01*
X189494475Y-96196632D01*
X189656990Y-95953411D01*
X189672109Y-95916910D01*
X189706707Y-95951508D01*
G36*
X118794176Y-81071445D02*
G01*
X118697323Y-81216395D01*
X118630610Y-81377455D01*
X118596600Y-81548435D01*
X118596600Y-81722765D01*
X118630610Y-81893745D01*
X118696377Y-82052521D01*
X118681410Y-82088655D01*
X118647400Y-82259635D01*
X118647400Y-82433965D01*
X118681410Y-82604945D01*
X118700735Y-82651600D01*
X118681410Y-82698255D01*
X118647400Y-82869235D01*
X118647400Y-83043565D01*
X118681410Y-83214545D01*
X118748123Y-83375605D01*
X118844976Y-83520555D01*
X118968245Y-83643824D01*
X119113195Y-83740677D01*
X119274255Y-83807390D01*
X119445235Y-83841400D01*
X119619565Y-83841400D01*
X119790545Y-83807390D01*
X119951605Y-83740677D01*
X120096555Y-83643824D01*
X120219824Y-83520555D01*
X120316677Y-83375605D01*
X120383390Y-83214545D01*
X120417400Y-83043565D01*
X120417400Y-82869235D01*
X120383390Y-82698255D01*
X120364065Y-82651600D01*
X120383390Y-82604945D01*
X120417400Y-82433965D01*
X120417400Y-82259635D01*
X120383390Y-82088655D01*
X120317623Y-81929879D01*
X120332590Y-81893745D01*
X120366600Y-81722765D01*
X120366600Y-81548435D01*
X120332590Y-81377455D01*
X120265877Y-81216395D01*
X120169024Y-81071445D01*
X120071579Y-80974000D01*
X126561489Y-80974000D01*
X126413331Y-81035369D01*
X126047271Y-81279962D01*
X125735962Y-81591271D01*
X125491369Y-81957331D01*
X125322890Y-82364075D01*
X125237000Y-82795872D01*
X125237000Y-83236128D01*
X125322890Y-83667925D01*
X125491369Y-84074669D01*
X125735962Y-84440729D01*
X126047271Y-84752038D01*
X126413331Y-84996631D01*
X126820075Y-85165110D01*
X127251872Y-85251000D01*
X127692128Y-85251000D01*
X128123925Y-85165110D01*
X128530669Y-84996631D01*
X128896729Y-84752038D01*
X129208038Y-84440729D01*
X129452631Y-84074669D01*
X129621110Y-83667925D01*
X129707000Y-83236128D01*
X129707000Y-82795872D01*
X129621110Y-82364075D01*
X129452631Y-81957331D01*
X129208038Y-81591271D01*
X128896729Y-81279962D01*
X128530669Y-81035369D01*
X128382511Y-80974000D01*
X150310398Y-80974000D01*
X148510803Y-82773596D01*
X148481799Y-82797399D01*
X148449710Y-82836500D01*
X148386826Y-82913124D01*
X148356828Y-82969246D01*
X148316254Y-83045154D01*
X148272797Y-83188415D01*
X148261800Y-83300068D01*
X148261800Y-83300078D01*
X148258124Y-83337400D01*
X148261800Y-83374723D01*
X148261800Y-85265757D01*
X148162000Y-85255928D01*
X147748729Y-85255928D01*
X147696902Y-85204101D01*
X147742537Y-85148494D01*
X147801502Y-85038180D01*
X147837812Y-84918482D01*
X147850072Y-84794000D01*
X147850072Y-82894000D01*
X147837812Y-82769518D01*
X147801502Y-82649820D01*
X147742537Y-82539506D01*
X147663185Y-82442815D01*
X147566494Y-82363463D01*
X147456180Y-82304498D01*
X147336482Y-82268188D01*
X147212000Y-82255928D01*
X146412000Y-82255928D01*
X146287518Y-82268188D01*
X146167820Y-82304498D01*
X146057506Y-82363463D01*
X145960815Y-82442815D01*
X145881463Y-82539506D01*
X145822498Y-82649820D01*
X145786188Y-82769518D01*
X145773928Y-82894000D01*
X145773928Y-83584000D01*
X145561923Y-83584000D01*
X145524590Y-83580323D01*
X145487257Y-83584000D01*
X145375604Y-83594997D01*
X145232343Y-83638454D01*
X145100314Y-83709026D01*
X144984589Y-83803999D01*
X144889616Y-83919724D01*
X144819044Y-84051753D01*
X144775587Y-84195014D01*
X144765843Y-84293942D01*
X142577072Y-86482714D01*
X142577072Y-85767000D01*
X142564812Y-85642518D01*
X142528502Y-85522820D01*
X142469537Y-85412506D01*
X142390185Y-85315815D01*
X142293494Y-85236463D01*
X142183180Y-85177498D01*
X142063482Y-85141188D01*
X141939000Y-85128928D01*
X141427095Y-85128928D01*
X141440185Y-85118185D01*
X141519537Y-85021494D01*
X141578502Y-84911180D01*
X141614812Y-84791482D01*
X141627072Y-84667000D01*
X141627072Y-82767000D01*
X141614812Y-82642518D01*
X141578502Y-82522820D01*
X141519537Y-82412506D01*
X141440185Y-82315815D01*
X141343494Y-82236463D01*
X141233180Y-82177498D01*
X141113482Y-82141188D01*
X140989000Y-82128928D01*
X140189000Y-82128928D01*
X140064518Y-82141188D01*
X139944820Y-82177498D01*
X139834506Y-82236463D01*
X139737815Y-82315815D01*
X139658463Y-82412506D01*
X139599498Y-82522820D01*
X139563188Y-82642518D01*
X139550928Y-82767000D01*
X139550928Y-83457000D01*
X132474925Y-83457000D01*
X132437602Y-83453324D01*
X132400279Y-83457000D01*
X132400270Y-83457000D01*
X132288617Y-83467997D01*
X132145356Y-83511454D01*
X132013327Y-83582026D01*
X132013325Y-83582027D01*
X132013326Y-83582027D01*
X131926599Y-83653201D01*
X131926595Y-83653205D01*
X131897602Y-83676999D01*
X131873808Y-83705992D01*
X131476702Y-84103099D01*
X131433844Y-84111624D01*
X131272784Y-84178337D01*
X131127834Y-84275190D01*
X131004565Y-84398459D01*
X130907712Y-84543409D01*
X130840999Y-84704469D01*
X130806989Y-84875449D01*
X130806989Y-85049779D01*
X130840999Y-85220759D01*
X130907712Y-85381819D01*
X131004565Y-85526769D01*
X131127834Y-85650038D01*
X131272784Y-85746891D01*
X131433844Y-85813604D01*
X131604824Y-85847614D01*
X131779154Y-85847614D01*
X131950134Y-85813604D01*
X132111194Y-85746891D01*
X132256144Y-85650038D01*
X132379413Y-85526769D01*
X132476266Y-85381819D01*
X132542979Y-85220759D01*
X132551504Y-85177901D01*
X132752405Y-84977000D01*
X138056328Y-84977000D01*
X138080854Y-85100301D01*
X138147567Y-85261361D01*
X138171844Y-85297694D01*
X138171844Y-85472522D01*
X138168168Y-85509844D01*
X138171844Y-85547166D01*
X138171844Y-85547176D01*
X138182841Y-85658829D01*
X138215654Y-85767000D01*
X138226298Y-85802090D01*
X138296870Y-85934120D01*
X138330833Y-85975504D01*
X138391843Y-86049845D01*
X138420846Y-86073647D01*
X138600928Y-86253729D01*
X138600928Y-87667000D01*
X138613188Y-87791482D01*
X138614947Y-87797282D01*
X136453713Y-89958517D01*
X136420277Y-89877795D01*
X136396000Y-89841462D01*
X136396000Y-89572325D01*
X136399676Y-89535000D01*
X136396000Y-89497675D01*
X136396000Y-89497667D01*
X136385003Y-89386014D01*
X136341546Y-89242753D01*
X136270974Y-89110724D01*
X136176001Y-88994999D01*
X136147002Y-88971201D01*
X135905916Y-88730114D01*
X136055205Y-88668277D01*
X136200155Y-88571424D01*
X136323424Y-88448155D01*
X136420277Y-88303205D01*
X136486990Y-88142145D01*
X136521000Y-87971165D01*
X136521000Y-87796835D01*
X136486990Y-87625855D01*
X136420277Y-87464795D01*
X136323424Y-87319845D01*
X136200155Y-87196576D01*
X136055205Y-87099723D01*
X135894145Y-87033010D01*
X135723165Y-86999000D01*
X135548835Y-86999000D01*
X135377855Y-87033010D01*
X135216795Y-87099723D01*
X135180462Y-87124000D01*
X124091598Y-87124000D01*
X124735532Y-86480067D01*
X124766424Y-86449175D01*
X124790696Y-86412850D01*
X124818410Y-86379080D01*
X124839001Y-86340556D01*
X124863277Y-86304225D01*
X124880000Y-86263852D01*
X124900588Y-86225334D01*
X124913267Y-86183537D01*
X124929990Y-86143165D01*
X124938513Y-86100316D01*
X124951195Y-86058511D01*
X124955477Y-86015034D01*
X124964000Y-85972185D01*
X124964000Y-85928489D01*
X124968281Y-85885020D01*
X124964000Y-85841551D01*
X124964000Y-85797855D01*
X124955477Y-85755005D01*
X124951195Y-85711530D01*
X124938514Y-85669727D01*
X124929990Y-85626875D01*
X124913266Y-85586500D01*
X124900588Y-85544707D01*
X124880002Y-85506193D01*
X124863277Y-85465815D01*
X124838999Y-85429480D01*
X124818410Y-85390961D01*
X124790699Y-85357196D01*
X124766424Y-85320865D01*
X124735528Y-85289969D01*
X124707817Y-85256203D01*
X124674051Y-85228492D01*
X124643155Y-85197596D01*
X124606824Y-85173321D01*
X124573059Y-85145610D01*
X124534540Y-85125021D01*
X124498205Y-85100743D01*
X124457827Y-85084018D01*
X124419313Y-85063432D01*
X124377520Y-85050754D01*
X124337145Y-85034030D01*
X124294293Y-85025506D01*
X124252490Y-85012825D01*
X124209015Y-85008543D01*
X124166165Y-85000020D01*
X124122469Y-85000020D01*
X124079000Y-84995739D01*
X124035531Y-85000020D01*
X123991835Y-85000020D01*
X123948986Y-85008543D01*
X123905509Y-85012825D01*
X123863704Y-85025507D01*
X123820855Y-85034030D01*
X123780483Y-85050753D01*
X123738686Y-85063432D01*
X123700168Y-85084020D01*
X123659795Y-85100743D01*
X123623464Y-85125019D01*
X123584940Y-85145610D01*
X123551170Y-85173324D01*
X123514845Y-85197596D01*
X123483953Y-85228488D01*
X122870412Y-85842030D01*
X119650795Y-85842030D01*
X119607329Y-85837749D01*
X119563863Y-85842030D01*
X119563853Y-85842030D01*
X119433840Y-85854835D01*
X119267017Y-85905441D01*
X119113271Y-85987619D01*
X119113269Y-85987620D01*
X119113270Y-85987620D01*
X119012283Y-86070498D01*
X119012281Y-86070500D01*
X118978513Y-86098213D01*
X118950800Y-86131981D01*
X117029682Y-88053100D01*
X115650475Y-88053100D01*
X115607627Y-88061623D01*
X115564150Y-88065905D01*
X115522345Y-88078587D01*
X115479495Y-88087110D01*
X115439127Y-88103831D01*
X115397327Y-88116511D01*
X115358805Y-88137101D01*
X115318435Y-88153823D01*
X115282107Y-88178096D01*
X115243581Y-88198689D01*
X115209811Y-88226404D01*
X115173485Y-88250676D01*
X115142591Y-88281570D01*
X115108823Y-88309283D01*
X115081110Y-88343051D01*
X115050216Y-88373945D01*
X115025944Y-88410271D01*
X114998229Y-88444041D01*
X114977636Y-88482567D01*
X114953363Y-88518895D01*
X114936641Y-88559265D01*
X114916051Y-88597787D01*
X114903371Y-88639587D01*
X114886650Y-88679955D01*
X114880562Y-88710561D01*
X113848801Y-87678800D01*
X116333662Y-87678800D01*
X116369995Y-87703077D01*
X116531055Y-87769790D01*
X116702035Y-87803800D01*
X116876365Y-87803800D01*
X117047345Y-87769790D01*
X117208405Y-87703077D01*
X117353355Y-87606224D01*
X117476624Y-87482955D01*
X117573477Y-87338005D01*
X117640190Y-87176945D01*
X117674200Y-87005965D01*
X117674200Y-86831635D01*
X117640190Y-86660655D01*
X117573477Y-86499595D01*
X117476624Y-86354645D01*
X117353355Y-86231376D01*
X117208405Y-86134523D01*
X117047345Y-86067810D01*
X116876365Y-86033800D01*
X116702035Y-86033800D01*
X116531055Y-86067810D01*
X116369995Y-86134523D01*
X116333662Y-86158800D01*
X114386704Y-86158800D01*
X114405850Y-86117822D01*
X114469719Y-85857651D01*
X114481604Y-85590018D01*
X114441048Y-85325209D01*
X114349609Y-85073400D01*
X114292450Y-84966465D01*
X114056133Y-84903972D01*
X113296605Y-85663500D01*
X113310748Y-85677643D01*
X113131143Y-85857248D01*
X113117000Y-85843105D01*
X113102858Y-85857248D01*
X112923253Y-85677643D01*
X112937395Y-85663500D01*
X112177867Y-84903972D01*
X111941550Y-84966465D01*
X111828150Y-85209178D01*
X111764281Y-85469349D01*
X111752396Y-85736982D01*
X111792952Y-86001791D01*
X111849966Y-86158800D01*
X109663733Y-86158800D01*
X109626400Y-86155123D01*
X109589067Y-86158800D01*
X109477414Y-86169797D01*
X109365739Y-86203673D01*
X109405850Y-86117822D01*
X109469719Y-85857651D01*
X109481604Y-85590018D01*
X109441048Y-85325209D01*
X109349609Y-85073400D01*
X109292450Y-84966465D01*
X109056133Y-84903972D01*
X108296605Y-85663500D01*
X108310748Y-85677643D01*
X108131143Y-85857248D01*
X108117000Y-85843105D01*
X107357472Y-86602633D01*
X107419965Y-86838950D01*
X107662678Y-86952350D01*
X107922849Y-87016219D01*
X108190482Y-87028104D01*
X108455291Y-86987548D01*
X108495730Y-86972863D01*
X108476800Y-86988399D01*
X108453002Y-87017397D01*
X108453001Y-87017398D01*
X108381826Y-87104124D01*
X108311254Y-87236154D01*
X108291170Y-87302366D01*
X108267798Y-87379414D01*
X108258517Y-87473645D01*
X108253124Y-87528400D01*
X108256801Y-87565732D01*
X108256800Y-91351877D01*
X108253124Y-91389200D01*
X108256800Y-91426522D01*
X108256800Y-91426532D01*
X108267797Y-91538185D01*
X108304059Y-91657726D01*
X108311254Y-91681446D01*
X108381826Y-91813476D01*
X108417208Y-91856588D01*
X108476799Y-91929201D01*
X108505802Y-91953003D01*
X109062600Y-92509802D01*
X109086399Y-92538801D01*
X109179560Y-92615256D01*
X109202124Y-92633774D01*
X109334153Y-92704346D01*
X109477414Y-92747803D01*
X109626400Y-92762477D01*
X109663733Y-92758800D01*
X110225999Y-92758800D01*
X116334001Y-98866803D01*
X116334000Y-102160462D01*
X116309723Y-102196795D01*
X116243010Y-102357855D01*
X116209000Y-102528835D01*
X116209000Y-102703165D01*
X116243010Y-102874145D01*
X116309723Y-103035205D01*
X116406576Y-103180155D01*
X116529845Y-103303424D01*
X116674795Y-103400277D01*
X116835855Y-103466990D01*
X117006835Y-103501000D01*
X117181165Y-103501000D01*
X117352145Y-103466990D01*
X117459366Y-103422578D01*
X118741119Y-104704331D01*
X118716188Y-104786518D01*
X118703928Y-104911000D01*
X118703928Y-105693400D01*
X112680072Y-105693400D01*
X112680072Y-104911000D01*
X112667812Y-104786518D01*
X112631502Y-104666820D01*
X112572537Y-104556506D01*
X112493185Y-104459815D01*
X112396494Y-104380463D01*
X112286180Y-104321498D01*
X112166482Y-104285188D01*
X112042000Y-104272928D01*
X109842000Y-104272928D01*
X109717518Y-104285188D01*
X109597820Y-104321498D01*
X109487506Y-104380463D01*
X109390815Y-104459815D01*
X109311463Y-104556506D01*
X109252498Y-104666820D01*
X109216188Y-104786518D01*
X109203928Y-104911000D01*
X109203928Y-105693400D01*
X107852675Y-105693400D01*
X107809827Y-105701923D01*
X107766350Y-105706205D01*
X107724545Y-105718887D01*
X107681695Y-105727410D01*
X107641327Y-105744131D01*
X107599527Y-105756811D01*
X107561005Y-105777401D01*
X107520635Y-105794123D01*
X107484307Y-105818396D01*
X107445781Y-105838989D01*
X107412011Y-105866704D01*
X107375685Y-105890976D01*
X107344791Y-105921870D01*
X107311023Y-105949583D01*
X107283310Y-105983351D01*
X107252416Y-106014245D01*
X107228144Y-106050571D01*
X107200429Y-106084341D01*
X107179836Y-106122867D01*
X107155563Y-106159195D01*
X107138841Y-106199565D01*
X107118251Y-106238087D01*
X107105571Y-106279887D01*
X107088850Y-106320255D01*
X107080327Y-106363105D01*
X107067645Y-106404910D01*
X107063363Y-106448387D01*
X107057473Y-106478000D01*
X106882000Y-106478000D01*
X106882000Y-102599212D01*
X109407000Y-102599212D01*
X109407000Y-102822788D01*
X109450617Y-103042067D01*
X109536176Y-103248624D01*
X109660388Y-103434520D01*
X109818480Y-103592612D01*
X110004376Y-103716824D01*
X110210933Y-103802383D01*
X110430212Y-103846000D01*
X110653788Y-103846000D01*
X110873067Y-103802383D01*
X111079624Y-103716824D01*
X111265520Y-103592612D01*
X111423612Y-103434520D01*
X111547824Y-103248624D01*
X111633383Y-103042067D01*
X111677000Y-102822788D01*
X111677000Y-102599212D01*
X111633383Y-102379933D01*
X111547824Y-102173376D01*
X111423612Y-101987480D01*
X111265520Y-101829388D01*
X111079624Y-101705176D01*
X110873067Y-101619617D01*
X110653788Y-101576000D01*
X110430212Y-101576000D01*
X110210933Y-101619617D01*
X110004376Y-101705176D01*
X109818480Y-101829388D01*
X109660388Y-101987480D01*
X109536176Y-102173376D01*
X109450617Y-102379933D01*
X109407000Y-102599212D01*
X106882000Y-102599212D01*
X106882000Y-94599212D01*
X109407000Y-94599212D01*
X109407000Y-94822788D01*
X109450617Y-95042067D01*
X109536176Y-95248624D01*
X109660388Y-95434520D01*
X109818480Y-95592612D01*
X110004376Y-95716824D01*
X110210933Y-95802383D01*
X110430212Y-95846000D01*
X110653788Y-95846000D01*
X110873067Y-95802383D01*
X111079624Y-95716824D01*
X111265520Y-95592612D01*
X111423612Y-95434520D01*
X111547824Y-95248624D01*
X111633383Y-95042067D01*
X111677000Y-94822788D01*
X111677000Y-94599212D01*
X111633383Y-94379933D01*
X111547824Y-94173376D01*
X111423612Y-93987480D01*
X111265520Y-93829388D01*
X111079624Y-93705176D01*
X110873067Y-93619617D01*
X110653788Y-93576000D01*
X110430212Y-93576000D01*
X110210933Y-93619617D01*
X110004376Y-93705176D01*
X109818480Y-93829388D01*
X109660388Y-93987480D01*
X109536176Y-94173376D01*
X109450617Y-94379933D01*
X109407000Y-94599212D01*
X106882000Y-94599212D01*
X106882000Y-86247016D01*
X106884391Y-86253600D01*
X106941550Y-86360535D01*
X107177867Y-86423028D01*
X107937395Y-85663500D01*
X107177867Y-84903972D01*
X106941550Y-84966465D01*
X106882000Y-85093921D01*
X106882000Y-84452904D01*
X106990000Y-84382231D01*
X106990000Y-83090500D01*
X107244000Y-83090500D01*
X107244000Y-84382231D01*
X107417862Y-84496003D01*
X107357472Y-84724367D01*
X108117000Y-85483895D01*
X108876528Y-84724367D01*
X112357472Y-84724367D01*
X113117000Y-85483895D01*
X113852060Y-84748835D01*
X121112000Y-84748835D01*
X121112000Y-84923165D01*
X121146010Y-85094145D01*
X121212723Y-85255205D01*
X121309576Y-85400155D01*
X121432845Y-85523424D01*
X121577795Y-85620277D01*
X121738855Y-85686990D01*
X121909835Y-85721000D01*
X122084165Y-85721000D01*
X122255145Y-85686990D01*
X122416205Y-85620277D01*
X122561155Y-85523424D01*
X122684424Y-85400155D01*
X122781277Y-85255205D01*
X122847990Y-85094145D01*
X122882000Y-84923165D01*
X122882000Y-84748835D01*
X122847990Y-84577855D01*
X122781277Y-84416795D01*
X122684424Y-84271845D01*
X122561155Y-84148576D01*
X122416205Y-84051723D01*
X122255145Y-83985010D01*
X122084165Y-83951000D01*
X121909835Y-83951000D01*
X121738855Y-83985010D01*
X121577795Y-84051723D01*
X121432845Y-84148576D01*
X121309576Y-84271845D01*
X121212723Y-84416795D01*
X121146010Y-84577855D01*
X121112000Y-84748835D01*
X113852060Y-84748835D01*
X113876528Y-84724367D01*
X113816138Y-84496003D01*
X113990000Y-84382231D01*
X113990000Y-83090500D01*
X114244000Y-83090500D01*
X114244000Y-84382231D01*
X114434609Y-84506962D01*
X114472282Y-84503091D01*
X114697533Y-84410921D01*
X114900474Y-84276578D01*
X115073307Y-84105225D01*
X115209390Y-83903446D01*
X115303493Y-83678996D01*
X115352000Y-83440500D01*
X115352000Y-83090500D01*
X114244000Y-83090500D01*
X113990000Y-83090500D01*
X112882000Y-83090500D01*
X112882000Y-83440500D01*
X112930507Y-83678996D01*
X113024610Y-83903446D01*
X113160693Y-84105225D01*
X113333526Y-84276578D01*
X113428836Y-84339671D01*
X113311151Y-84310781D01*
X113043518Y-84298896D01*
X112778709Y-84339452D01*
X112526900Y-84430891D01*
X112419965Y-84488050D01*
X112357472Y-84724367D01*
X108876528Y-84724367D01*
X108814035Y-84488050D01*
X108571322Y-84374650D01*
X108311151Y-84310781D01*
X108043518Y-84298896D01*
X107813558Y-84334115D01*
X107900474Y-84276578D01*
X108073307Y-84105225D01*
X108209390Y-83903446D01*
X108303493Y-83678996D01*
X108352000Y-83440500D01*
X108352000Y-83090500D01*
X107244000Y-83090500D01*
X106990000Y-83090500D01*
X106970000Y-83090500D01*
X106970000Y-82836500D01*
X106990000Y-82836500D01*
X106990000Y-81544769D01*
X107244000Y-81544769D01*
X107244000Y-82836500D01*
X108352000Y-82836500D01*
X108352000Y-82486500D01*
X112882000Y-82486500D01*
X112882000Y-82836500D01*
X113990000Y-82836500D01*
X113990000Y-81544769D01*
X114244000Y-81544769D01*
X114244000Y-82836500D01*
X115352000Y-82836500D01*
X115352000Y-82486500D01*
X115303493Y-82248004D01*
X115209390Y-82023554D01*
X115073307Y-81821775D01*
X114900474Y-81650422D01*
X114697533Y-81516079D01*
X114472282Y-81423909D01*
X114434609Y-81420038D01*
X114244000Y-81544769D01*
X113990000Y-81544769D01*
X113799391Y-81420038D01*
X113761718Y-81423909D01*
X113536467Y-81516079D01*
X113333526Y-81650422D01*
X113160693Y-81821775D01*
X113024610Y-82023554D01*
X112930507Y-82248004D01*
X112882000Y-82486500D01*
X108352000Y-82486500D01*
X108303493Y-82248004D01*
X108209390Y-82023554D01*
X108073307Y-81821775D01*
X107900474Y-81650422D01*
X107697533Y-81516079D01*
X107472282Y-81423909D01*
X107434609Y-81420038D01*
X107244000Y-81544769D01*
X106990000Y-81544769D01*
X106882000Y-81474096D01*
X106882000Y-80974000D01*
X118891621Y-80974000D01*
X118794176Y-81071445D01*
G37*
X118794176Y-81071445D02*
X118697323Y-81216395D01*
X118630610Y-81377455D01*
X118596600Y-81548435D01*
X118596600Y-81722765D01*
X118630610Y-81893745D01*
X118696377Y-82052521D01*
X118681410Y-82088655D01*
X118647400Y-82259635D01*
X118647400Y-82433965D01*
X118681410Y-82604945D01*
X118700735Y-82651600D01*
X118681410Y-82698255D01*
X118647400Y-82869235D01*
X118647400Y-83043565D01*
X118681410Y-83214545D01*
X118748123Y-83375605D01*
X118844976Y-83520555D01*
X118968245Y-83643824D01*
X119113195Y-83740677D01*
X119274255Y-83807390D01*
X119445235Y-83841400D01*
X119619565Y-83841400D01*
X119790545Y-83807390D01*
X119951605Y-83740677D01*
X120096555Y-83643824D01*
X120219824Y-83520555D01*
X120316677Y-83375605D01*
X120383390Y-83214545D01*
X120417400Y-83043565D01*
X120417400Y-82869235D01*
X120383390Y-82698255D01*
X120364065Y-82651600D01*
X120383390Y-82604945D01*
X120417400Y-82433965D01*
X120417400Y-82259635D01*
X120383390Y-82088655D01*
X120317623Y-81929879D01*
X120332590Y-81893745D01*
X120366600Y-81722765D01*
X120366600Y-81548435D01*
X120332590Y-81377455D01*
X120265877Y-81216395D01*
X120169024Y-81071445D01*
X120071579Y-80974000D01*
X126561489Y-80974000D01*
X126413331Y-81035369D01*
X126047271Y-81279962D01*
X125735962Y-81591271D01*
X125491369Y-81957331D01*
X125322890Y-82364075D01*
X125237000Y-82795872D01*
X125237000Y-83236128D01*
X125322890Y-83667925D01*
X125491369Y-84074669D01*
X125735962Y-84440729D01*
X126047271Y-84752038D01*
X126413331Y-84996631D01*
X126820075Y-85165110D01*
X127251872Y-85251000D01*
X127692128Y-85251000D01*
X128123925Y-85165110D01*
X128530669Y-84996631D01*
X128896729Y-84752038D01*
X129208038Y-84440729D01*
X129452631Y-84074669D01*
X129621110Y-83667925D01*
X129707000Y-83236128D01*
X129707000Y-82795872D01*
X129621110Y-82364075D01*
X129452631Y-81957331D01*
X129208038Y-81591271D01*
X128896729Y-81279962D01*
X128530669Y-81035369D01*
X128382511Y-80974000D01*
X150310398Y-80974000D01*
X148510803Y-82773596D01*
X148481799Y-82797399D01*
X148449710Y-82836500D01*
X148386826Y-82913124D01*
X148356828Y-82969246D01*
X148316254Y-83045154D01*
X148272797Y-83188415D01*
X148261800Y-83300068D01*
X148261800Y-83300078D01*
X148258124Y-83337400D01*
X148261800Y-83374723D01*
X148261800Y-85265757D01*
X148162000Y-85255928D01*
X147748729Y-85255928D01*
X147696902Y-85204101D01*
X147742537Y-85148494D01*
X147801502Y-85038180D01*
X147837812Y-84918482D01*
X147850072Y-84794000D01*
X147850072Y-82894000D01*
X147837812Y-82769518D01*
X147801502Y-82649820D01*
X147742537Y-82539506D01*
X147663185Y-82442815D01*
X147566494Y-82363463D01*
X147456180Y-82304498D01*
X147336482Y-82268188D01*
X147212000Y-82255928D01*
X146412000Y-82255928D01*
X146287518Y-82268188D01*
X146167820Y-82304498D01*
X146057506Y-82363463D01*
X145960815Y-82442815D01*
X145881463Y-82539506D01*
X145822498Y-82649820D01*
X145786188Y-82769518D01*
X145773928Y-82894000D01*
X145773928Y-83584000D01*
X145561923Y-83584000D01*
X145524590Y-83580323D01*
X145487257Y-83584000D01*
X145375604Y-83594997D01*
X145232343Y-83638454D01*
X145100314Y-83709026D01*
X144984589Y-83803999D01*
X144889616Y-83919724D01*
X144819044Y-84051753D01*
X144775587Y-84195014D01*
X144765843Y-84293942D01*
X142577072Y-86482714D01*
X142577072Y-85767000D01*
X142564812Y-85642518D01*
X142528502Y-85522820D01*
X142469537Y-85412506D01*
X142390185Y-85315815D01*
X142293494Y-85236463D01*
X142183180Y-85177498D01*
X142063482Y-85141188D01*
X141939000Y-85128928D01*
X141427095Y-85128928D01*
X141440185Y-85118185D01*
X141519537Y-85021494D01*
X141578502Y-84911180D01*
X141614812Y-84791482D01*
X141627072Y-84667000D01*
X141627072Y-82767000D01*
X141614812Y-82642518D01*
X141578502Y-82522820D01*
X141519537Y-82412506D01*
X141440185Y-82315815D01*
X141343494Y-82236463D01*
X141233180Y-82177498D01*
X141113482Y-82141188D01*
X140989000Y-82128928D01*
X140189000Y-82128928D01*
X140064518Y-82141188D01*
X139944820Y-82177498D01*
X139834506Y-82236463D01*
X139737815Y-82315815D01*
X139658463Y-82412506D01*
X139599498Y-82522820D01*
X139563188Y-82642518D01*
X139550928Y-82767000D01*
X139550928Y-83457000D01*
X132474925Y-83457000D01*
X132437602Y-83453324D01*
X132400279Y-83457000D01*
X132400270Y-83457000D01*
X132288617Y-83467997D01*
X132145356Y-83511454D01*
X132013327Y-83582026D01*
X132013325Y-83582027D01*
X132013326Y-83582027D01*
X131926599Y-83653201D01*
X131926595Y-83653205D01*
X131897602Y-83676999D01*
X131873808Y-83705992D01*
X131476702Y-84103099D01*
X131433844Y-84111624D01*
X131272784Y-84178337D01*
X131127834Y-84275190D01*
X131004565Y-84398459D01*
X130907712Y-84543409D01*
X130840999Y-84704469D01*
X130806989Y-84875449D01*
X130806989Y-85049779D01*
X130840999Y-85220759D01*
X130907712Y-85381819D01*
X131004565Y-85526769D01*
X131127834Y-85650038D01*
X131272784Y-85746891D01*
X131433844Y-85813604D01*
X131604824Y-85847614D01*
X131779154Y-85847614D01*
X131950134Y-85813604D01*
X132111194Y-85746891D01*
X132256144Y-85650038D01*
X132379413Y-85526769D01*
X132476266Y-85381819D01*
X132542979Y-85220759D01*
X132551504Y-85177901D01*
X132752405Y-84977000D01*
X138056328Y-84977000D01*
X138080854Y-85100301D01*
X138147567Y-85261361D01*
X138171844Y-85297694D01*
X138171844Y-85472522D01*
X138168168Y-85509844D01*
X138171844Y-85547166D01*
X138171844Y-85547176D01*
X138182841Y-85658829D01*
X138215654Y-85767000D01*
X138226298Y-85802090D01*
X138296870Y-85934120D01*
X138330833Y-85975504D01*
X138391843Y-86049845D01*
X138420846Y-86073647D01*
X138600928Y-86253729D01*
X138600928Y-87667000D01*
X138613188Y-87791482D01*
X138614947Y-87797282D01*
X136453713Y-89958517D01*
X136420277Y-89877795D01*
X136396000Y-89841462D01*
X136396000Y-89572325D01*
X136399676Y-89535000D01*
X136396000Y-89497675D01*
X136396000Y-89497667D01*
X136385003Y-89386014D01*
X136341546Y-89242753D01*
X136270974Y-89110724D01*
X136176001Y-88994999D01*
X136147002Y-88971201D01*
X135905916Y-88730114D01*
X136055205Y-88668277D01*
X136200155Y-88571424D01*
X136323424Y-88448155D01*
X136420277Y-88303205D01*
X136486990Y-88142145D01*
X136521000Y-87971165D01*
X136521000Y-87796835D01*
X136486990Y-87625855D01*
X136420277Y-87464795D01*
X136323424Y-87319845D01*
X136200155Y-87196576D01*
X136055205Y-87099723D01*
X135894145Y-87033010D01*
X135723165Y-86999000D01*
X135548835Y-86999000D01*
X135377855Y-87033010D01*
X135216795Y-87099723D01*
X135180462Y-87124000D01*
X124091598Y-87124000D01*
X124735532Y-86480067D01*
X124766424Y-86449175D01*
X124790696Y-86412850D01*
X124818410Y-86379080D01*
X124839001Y-86340556D01*
X124863277Y-86304225D01*
X124880000Y-86263852D01*
X124900588Y-86225334D01*
X124913267Y-86183537D01*
X124929990Y-86143165D01*
X124938513Y-86100316D01*
X124951195Y-86058511D01*
X124955477Y-86015034D01*
X124964000Y-85972185D01*
X124964000Y-85928489D01*
X124968281Y-85885020D01*
X124964000Y-85841551D01*
X124964000Y-85797855D01*
X124955477Y-85755005D01*
X124951195Y-85711530D01*
X124938514Y-85669727D01*
X124929990Y-85626875D01*
X124913266Y-85586500D01*
X124900588Y-85544707D01*
X124880002Y-85506193D01*
X124863277Y-85465815D01*
X124838999Y-85429480D01*
X124818410Y-85390961D01*
X124790699Y-85357196D01*
X124766424Y-85320865D01*
X124735528Y-85289969D01*
X124707817Y-85256203D01*
X124674051Y-85228492D01*
X124643155Y-85197596D01*
X124606824Y-85173321D01*
X124573059Y-85145610D01*
X124534540Y-85125021D01*
X124498205Y-85100743D01*
X124457827Y-85084018D01*
X124419313Y-85063432D01*
X124377520Y-85050754D01*
X124337145Y-85034030D01*
X124294293Y-85025506D01*
X124252490Y-85012825D01*
X124209015Y-85008543D01*
X124166165Y-85000020D01*
X124122469Y-85000020D01*
X124079000Y-84995739D01*
X124035531Y-85000020D01*
X123991835Y-85000020D01*
X123948986Y-85008543D01*
X123905509Y-85012825D01*
X123863704Y-85025507D01*
X123820855Y-85034030D01*
X123780483Y-85050753D01*
X123738686Y-85063432D01*
X123700168Y-85084020D01*
X123659795Y-85100743D01*
X123623464Y-85125019D01*
X123584940Y-85145610D01*
X123551170Y-85173324D01*
X123514845Y-85197596D01*
X123483953Y-85228488D01*
X122870412Y-85842030D01*
X119650795Y-85842030D01*
X119607329Y-85837749D01*
X119563863Y-85842030D01*
X119563853Y-85842030D01*
X119433840Y-85854835D01*
X119267017Y-85905441D01*
X119113271Y-85987619D01*
X119113269Y-85987620D01*
X119113270Y-85987620D01*
X119012283Y-86070498D01*
X119012281Y-86070500D01*
X118978513Y-86098213D01*
X118950800Y-86131981D01*
X117029682Y-88053100D01*
X115650475Y-88053100D01*
X115607627Y-88061623D01*
X115564150Y-88065905D01*
X115522345Y-88078587D01*
X115479495Y-88087110D01*
X115439127Y-88103831D01*
X115397327Y-88116511D01*
X115358805Y-88137101D01*
X115318435Y-88153823D01*
X115282107Y-88178096D01*
X115243581Y-88198689D01*
X115209811Y-88226404D01*
X115173485Y-88250676D01*
X115142591Y-88281570D01*
X115108823Y-88309283D01*
X115081110Y-88343051D01*
X115050216Y-88373945D01*
X115025944Y-88410271D01*
X114998229Y-88444041D01*
X114977636Y-88482567D01*
X114953363Y-88518895D01*
X114936641Y-88559265D01*
X114916051Y-88597787D01*
X114903371Y-88639587D01*
X114886650Y-88679955D01*
X114880562Y-88710561D01*
X113848801Y-87678800D01*
X116333662Y-87678800D01*
X116369995Y-87703077D01*
X116531055Y-87769790D01*
X116702035Y-87803800D01*
X116876365Y-87803800D01*
X117047345Y-87769790D01*
X117208405Y-87703077D01*
X117353355Y-87606224D01*
X117476624Y-87482955D01*
X117573477Y-87338005D01*
X117640190Y-87176945D01*
X117674200Y-87005965D01*
X117674200Y-86831635D01*
X117640190Y-86660655D01*
X117573477Y-86499595D01*
X117476624Y-86354645D01*
X117353355Y-86231376D01*
X117208405Y-86134523D01*
X117047345Y-86067810D01*
X116876365Y-86033800D01*
X116702035Y-86033800D01*
X116531055Y-86067810D01*
X116369995Y-86134523D01*
X116333662Y-86158800D01*
X114386704Y-86158800D01*
X114405850Y-86117822D01*
X114469719Y-85857651D01*
X114481604Y-85590018D01*
X114441048Y-85325209D01*
X114349609Y-85073400D01*
X114292450Y-84966465D01*
X114056133Y-84903972D01*
X113296605Y-85663500D01*
X113310748Y-85677643D01*
X113131143Y-85857248D01*
X113117000Y-85843105D01*
X113102858Y-85857248D01*
X112923253Y-85677643D01*
X112937395Y-85663500D01*
X112177867Y-84903972D01*
X111941550Y-84966465D01*
X111828150Y-85209178D01*
X111764281Y-85469349D01*
X111752396Y-85736982D01*
X111792952Y-86001791D01*
X111849966Y-86158800D01*
X109663733Y-86158800D01*
X109626400Y-86155123D01*
X109589067Y-86158800D01*
X109477414Y-86169797D01*
X109365739Y-86203673D01*
X109405850Y-86117822D01*
X109469719Y-85857651D01*
X109481604Y-85590018D01*
X109441048Y-85325209D01*
X109349609Y-85073400D01*
X109292450Y-84966465D01*
X109056133Y-84903972D01*
X108296605Y-85663500D01*
X108310748Y-85677643D01*
X108131143Y-85857248D01*
X108117000Y-85843105D01*
X107357472Y-86602633D01*
X107419965Y-86838950D01*
X107662678Y-86952350D01*
X107922849Y-87016219D01*
X108190482Y-87028104D01*
X108455291Y-86987548D01*
X108495730Y-86972863D01*
X108476800Y-86988399D01*
X108453002Y-87017397D01*
X108453001Y-87017398D01*
X108381826Y-87104124D01*
X108311254Y-87236154D01*
X108291170Y-87302366D01*
X108267798Y-87379414D01*
X108258517Y-87473645D01*
X108253124Y-87528400D01*
X108256801Y-87565732D01*
X108256800Y-91351877D01*
X108253124Y-91389200D01*
X108256800Y-91426522D01*
X108256800Y-91426532D01*
X108267797Y-91538185D01*
X108304059Y-91657726D01*
X108311254Y-91681446D01*
X108381826Y-91813476D01*
X108417208Y-91856588D01*
X108476799Y-91929201D01*
X108505802Y-91953003D01*
X109062600Y-92509802D01*
X109086399Y-92538801D01*
X109179560Y-92615256D01*
X109202124Y-92633774D01*
X109334153Y-92704346D01*
X109477414Y-92747803D01*
X109626400Y-92762477D01*
X109663733Y-92758800D01*
X110225999Y-92758800D01*
X116334001Y-98866803D01*
X116334000Y-102160462D01*
X116309723Y-102196795D01*
X116243010Y-102357855D01*
X116209000Y-102528835D01*
X116209000Y-102703165D01*
X116243010Y-102874145D01*
X116309723Y-103035205D01*
X116406576Y-103180155D01*
X116529845Y-103303424D01*
X116674795Y-103400277D01*
X116835855Y-103466990D01*
X117006835Y-103501000D01*
X117181165Y-103501000D01*
X117352145Y-103466990D01*
X117459366Y-103422578D01*
X118741119Y-104704331D01*
X118716188Y-104786518D01*
X118703928Y-104911000D01*
X118703928Y-105693400D01*
X112680072Y-105693400D01*
X112680072Y-104911000D01*
X112667812Y-104786518D01*
X112631502Y-104666820D01*
X112572537Y-104556506D01*
X112493185Y-104459815D01*
X112396494Y-104380463D01*
X112286180Y-104321498D01*
X112166482Y-104285188D01*
X112042000Y-104272928D01*
X109842000Y-104272928D01*
X109717518Y-104285188D01*
X109597820Y-104321498D01*
X109487506Y-104380463D01*
X109390815Y-104459815D01*
X109311463Y-104556506D01*
X109252498Y-104666820D01*
X109216188Y-104786518D01*
X109203928Y-104911000D01*
X109203928Y-105693400D01*
X107852675Y-105693400D01*
X107809827Y-105701923D01*
X107766350Y-105706205D01*
X107724545Y-105718887D01*
X107681695Y-105727410D01*
X107641327Y-105744131D01*
X107599527Y-105756811D01*
X107561005Y-105777401D01*
X107520635Y-105794123D01*
X107484307Y-105818396D01*
X107445781Y-105838989D01*
X107412011Y-105866704D01*
X107375685Y-105890976D01*
X107344791Y-105921870D01*
X107311023Y-105949583D01*
X107283310Y-105983351D01*
X107252416Y-106014245D01*
X107228144Y-106050571D01*
X107200429Y-106084341D01*
X107179836Y-106122867D01*
X107155563Y-106159195D01*
X107138841Y-106199565D01*
X107118251Y-106238087D01*
X107105571Y-106279887D01*
X107088850Y-106320255D01*
X107080327Y-106363105D01*
X107067645Y-106404910D01*
X107063363Y-106448387D01*
X107057473Y-106478000D01*
X106882000Y-106478000D01*
X106882000Y-102599212D01*
X109407000Y-102599212D01*
X109407000Y-102822788D01*
X109450617Y-103042067D01*
X109536176Y-103248624D01*
X109660388Y-103434520D01*
X109818480Y-103592612D01*
X110004376Y-103716824D01*
X110210933Y-103802383D01*
X110430212Y-103846000D01*
X110653788Y-103846000D01*
X110873067Y-103802383D01*
X111079624Y-103716824D01*
X111265520Y-103592612D01*
X111423612Y-103434520D01*
X111547824Y-103248624D01*
X111633383Y-103042067D01*
X111677000Y-102822788D01*
X111677000Y-102599212D01*
X111633383Y-102379933D01*
X111547824Y-102173376D01*
X111423612Y-101987480D01*
X111265520Y-101829388D01*
X111079624Y-101705176D01*
X110873067Y-101619617D01*
X110653788Y-101576000D01*
X110430212Y-101576000D01*
X110210933Y-101619617D01*
X110004376Y-101705176D01*
X109818480Y-101829388D01*
X109660388Y-101987480D01*
X109536176Y-102173376D01*
X109450617Y-102379933D01*
X109407000Y-102599212D01*
X106882000Y-102599212D01*
X106882000Y-94599212D01*
X109407000Y-94599212D01*
X109407000Y-94822788D01*
X109450617Y-95042067D01*
X109536176Y-95248624D01*
X109660388Y-95434520D01*
X109818480Y-95592612D01*
X110004376Y-95716824D01*
X110210933Y-95802383D01*
X110430212Y-95846000D01*
X110653788Y-95846000D01*
X110873067Y-95802383D01*
X111079624Y-95716824D01*
X111265520Y-95592612D01*
X111423612Y-95434520D01*
X111547824Y-95248624D01*
X111633383Y-95042067D01*
X111677000Y-94822788D01*
X111677000Y-94599212D01*
X111633383Y-94379933D01*
X111547824Y-94173376D01*
X111423612Y-93987480D01*
X111265520Y-93829388D01*
X111079624Y-93705176D01*
X110873067Y-93619617D01*
X110653788Y-93576000D01*
X110430212Y-93576000D01*
X110210933Y-93619617D01*
X110004376Y-93705176D01*
X109818480Y-93829388D01*
X109660388Y-93987480D01*
X109536176Y-94173376D01*
X109450617Y-94379933D01*
X109407000Y-94599212D01*
X106882000Y-94599212D01*
X106882000Y-86247016D01*
X106884391Y-86253600D01*
X106941550Y-86360535D01*
X107177867Y-86423028D01*
X107937395Y-85663500D01*
X107177867Y-84903972D01*
X106941550Y-84966465D01*
X106882000Y-85093921D01*
X106882000Y-84452904D01*
X106990000Y-84382231D01*
X106990000Y-83090500D01*
X107244000Y-83090500D01*
X107244000Y-84382231D01*
X107417862Y-84496003D01*
X107357472Y-84724367D01*
X108117000Y-85483895D01*
X108876528Y-84724367D01*
X112357472Y-84724367D01*
X113117000Y-85483895D01*
X113852060Y-84748835D01*
X121112000Y-84748835D01*
X121112000Y-84923165D01*
X121146010Y-85094145D01*
X121212723Y-85255205D01*
X121309576Y-85400155D01*
X121432845Y-85523424D01*
X121577795Y-85620277D01*
X121738855Y-85686990D01*
X121909835Y-85721000D01*
X122084165Y-85721000D01*
X122255145Y-85686990D01*
X122416205Y-85620277D01*
X122561155Y-85523424D01*
X122684424Y-85400155D01*
X122781277Y-85255205D01*
X122847990Y-85094145D01*
X122882000Y-84923165D01*
X122882000Y-84748835D01*
X122847990Y-84577855D01*
X122781277Y-84416795D01*
X122684424Y-84271845D01*
X122561155Y-84148576D01*
X122416205Y-84051723D01*
X122255145Y-83985010D01*
X122084165Y-83951000D01*
X121909835Y-83951000D01*
X121738855Y-83985010D01*
X121577795Y-84051723D01*
X121432845Y-84148576D01*
X121309576Y-84271845D01*
X121212723Y-84416795D01*
X121146010Y-84577855D01*
X121112000Y-84748835D01*
X113852060Y-84748835D01*
X113876528Y-84724367D01*
X113816138Y-84496003D01*
X113990000Y-84382231D01*
X113990000Y-83090500D01*
X114244000Y-83090500D01*
X114244000Y-84382231D01*
X114434609Y-84506962D01*
X114472282Y-84503091D01*
X114697533Y-84410921D01*
X114900474Y-84276578D01*
X115073307Y-84105225D01*
X115209390Y-83903446D01*
X115303493Y-83678996D01*
X115352000Y-83440500D01*
X115352000Y-83090500D01*
X114244000Y-83090500D01*
X113990000Y-83090500D01*
X112882000Y-83090500D01*
X112882000Y-83440500D01*
X112930507Y-83678996D01*
X113024610Y-83903446D01*
X113160693Y-84105225D01*
X113333526Y-84276578D01*
X113428836Y-84339671D01*
X113311151Y-84310781D01*
X113043518Y-84298896D01*
X112778709Y-84339452D01*
X112526900Y-84430891D01*
X112419965Y-84488050D01*
X112357472Y-84724367D01*
X108876528Y-84724367D01*
X108814035Y-84488050D01*
X108571322Y-84374650D01*
X108311151Y-84310781D01*
X108043518Y-84298896D01*
X107813558Y-84334115D01*
X107900474Y-84276578D01*
X108073307Y-84105225D01*
X108209390Y-83903446D01*
X108303493Y-83678996D01*
X108352000Y-83440500D01*
X108352000Y-83090500D01*
X107244000Y-83090500D01*
X106990000Y-83090500D01*
X106970000Y-83090500D01*
X106970000Y-82836500D01*
X106990000Y-82836500D01*
X106990000Y-81544769D01*
X107244000Y-81544769D01*
X107244000Y-82836500D01*
X108352000Y-82836500D01*
X108352000Y-82486500D01*
X112882000Y-82486500D01*
X112882000Y-82836500D01*
X113990000Y-82836500D01*
X113990000Y-81544769D01*
X114244000Y-81544769D01*
X114244000Y-82836500D01*
X115352000Y-82836500D01*
X115352000Y-82486500D01*
X115303493Y-82248004D01*
X115209390Y-82023554D01*
X115073307Y-81821775D01*
X114900474Y-81650422D01*
X114697533Y-81516079D01*
X114472282Y-81423909D01*
X114434609Y-81420038D01*
X114244000Y-81544769D01*
X113990000Y-81544769D01*
X113799391Y-81420038D01*
X113761718Y-81423909D01*
X113536467Y-81516079D01*
X113333526Y-81650422D01*
X113160693Y-81821775D01*
X113024610Y-82023554D01*
X112930507Y-82248004D01*
X112882000Y-82486500D01*
X108352000Y-82486500D01*
X108303493Y-82248004D01*
X108209390Y-82023554D01*
X108073307Y-81821775D01*
X107900474Y-81650422D01*
X107697533Y-81516079D01*
X107472282Y-81423909D01*
X107434609Y-81420038D01*
X107244000Y-81544769D01*
X106990000Y-81544769D01*
X106882000Y-81474096D01*
X106882000Y-80974000D01*
X118891621Y-80974000D01*
X118794176Y-81071445D01*
G36*
X206631540Y-104269540D02*
G01*
X206651540Y-104269540D01*
X206651540Y-104523540D01*
X206631540Y-104523540D01*
X206631540Y-105717354D01*
X206861431Y-105838021D01*
X207062000Y-105766873D01*
X207062000Y-106478000D01*
X203421803Y-106478000D01*
X205082453Y-104817352D01*
X205107715Y-104900639D01*
X205232899Y-105163460D01*
X205406952Y-105396809D01*
X205623185Y-105591718D01*
X205873288Y-105740697D01*
X206147649Y-105838021D01*
X206377540Y-105717354D01*
X206377540Y-104523540D01*
X206357540Y-104523540D01*
X206357540Y-104269540D01*
X206377540Y-104269540D01*
X206377540Y-104249540D01*
X206631540Y-104249540D01*
X206631540Y-104269540D01*
G37*
X206631540Y-104269540D02*
X206651540Y-104269540D01*
X206651540Y-104523540D01*
X206631540Y-104523540D01*
X206631540Y-105717354D01*
X206861431Y-105838021D01*
X207062000Y-105766873D01*
X207062000Y-106478000D01*
X203421803Y-106478000D01*
X205082453Y-104817352D01*
X205107715Y-104900639D01*
X205232899Y-105163460D01*
X205406952Y-105396809D01*
X205623185Y-105591718D01*
X205873288Y-105740697D01*
X206147649Y-105838021D01*
X206377540Y-105717354D01*
X206377540Y-104523540D01*
X206357540Y-104523540D01*
X206357540Y-104269540D01*
X206377540Y-104269540D01*
X206377540Y-104249540D01*
X206631540Y-104249540D01*
X206631540Y-104269540D01*
G36*
X189172491Y-101826822D02*
G01*
X188942128Y-101781000D01*
X188501872Y-101781000D01*
X188070075Y-101866890D01*
X187663331Y-102035369D01*
X187297271Y-102279962D01*
X186985962Y-102591271D01*
X186741369Y-102957331D01*
X186572890Y-103364075D01*
X186487000Y-103795872D01*
X186487000Y-104236128D01*
X186572890Y-104667925D01*
X186741369Y-105074669D01*
X186910638Y-105327999D01*
X185192372Y-105327999D01*
X185192837Y-105327617D01*
X185220550Y-105293849D01*
X185251444Y-105262955D01*
X185275716Y-105226629D01*
X185303431Y-105192859D01*
X185324024Y-105154333D01*
X185348297Y-105118005D01*
X185365019Y-105077635D01*
X185385609Y-105039113D01*
X185398289Y-104997313D01*
X185415010Y-104956945D01*
X185423533Y-104914095D01*
X185436215Y-104872290D01*
X185440497Y-104828813D01*
X185449020Y-104785965D01*
X185449020Y-104742277D01*
X185453302Y-104698800D01*
X185449020Y-104655323D01*
X185449020Y-104611635D01*
X185440497Y-104568787D01*
X185436215Y-104525310D01*
X185423533Y-104483505D01*
X185415010Y-104440655D01*
X185398289Y-104400287D01*
X185385609Y-104358487D01*
X185365019Y-104319965D01*
X185348297Y-104279595D01*
X185324024Y-104243267D01*
X185303431Y-104204741D01*
X185275716Y-104170971D01*
X185251444Y-104134645D01*
X185220550Y-104103751D01*
X185192837Y-104069983D01*
X185159069Y-104042270D01*
X185128175Y-104011376D01*
X185091849Y-103987104D01*
X185058079Y-103959389D01*
X185019553Y-103938796D01*
X184983225Y-103914523D01*
X184942855Y-103897801D01*
X184904333Y-103877211D01*
X184862533Y-103864531D01*
X184822165Y-103847810D01*
X184779315Y-103839287D01*
X184737510Y-103826605D01*
X184694033Y-103822323D01*
X184651185Y-103813800D01*
X177531840Y-103813800D01*
X177531840Y-103763275D01*
X177497830Y-103592295D01*
X177471489Y-103528701D01*
X177547820Y-103569502D01*
X177667518Y-103605812D01*
X177792000Y-103618072D01*
X178792000Y-103618072D01*
X178916482Y-103605812D01*
X179036180Y-103569502D01*
X179146494Y-103510537D01*
X179243185Y-103431185D01*
X179292000Y-103371704D01*
X179340815Y-103431185D01*
X179437506Y-103510537D01*
X179547820Y-103569502D01*
X179667518Y-103605812D01*
X179792000Y-103618072D01*
X180792000Y-103618072D01*
X180916482Y-103605812D01*
X181036180Y-103569502D01*
X181146494Y-103510537D01*
X181243185Y-103431185D01*
X181292000Y-103371704D01*
X181340815Y-103431185D01*
X181437506Y-103510537D01*
X181547820Y-103569502D01*
X181667518Y-103605812D01*
X181792000Y-103618072D01*
X182006250Y-103615000D01*
X182165000Y-103456250D01*
X182165000Y-102107000D01*
X182145000Y-102107000D01*
X182145000Y-101853000D01*
X182165000Y-101853000D01*
X182165000Y-101833000D01*
X182419000Y-101833000D01*
X182419000Y-101853000D01*
X182439000Y-101853000D01*
X182439000Y-102107000D01*
X182419000Y-102107000D01*
X182419000Y-103456250D01*
X182577750Y-103615000D01*
X182792000Y-103618072D01*
X182916482Y-103605812D01*
X183036180Y-103569502D01*
X183146494Y-103510537D01*
X183243185Y-103431185D01*
X183292000Y-103371704D01*
X183340815Y-103431185D01*
X183437506Y-103510537D01*
X183547820Y-103569502D01*
X183667518Y-103605812D01*
X183792000Y-103618072D01*
X184792000Y-103618072D01*
X184916482Y-103605812D01*
X185036180Y-103569502D01*
X185146494Y-103510537D01*
X185243185Y-103431185D01*
X185322537Y-103334494D01*
X185381502Y-103224180D01*
X185416619Y-103108414D01*
X185516499Y-103098577D01*
X185730447Y-103033676D01*
X185927623Y-102928284D01*
X186100449Y-102786449D01*
X186135996Y-102743135D01*
X187287132Y-101592000D01*
X188937669Y-101592000D01*
X189172491Y-101826822D01*
G37*
X189172491Y-101826822D02*
X188942128Y-101781000D01*
X188501872Y-101781000D01*
X188070075Y-101866890D01*
X187663331Y-102035369D01*
X187297271Y-102279962D01*
X186985962Y-102591271D01*
X186741369Y-102957331D01*
X186572890Y-103364075D01*
X186487000Y-103795872D01*
X186487000Y-104236128D01*
X186572890Y-104667925D01*
X186741369Y-105074669D01*
X186910638Y-105327999D01*
X185192372Y-105327999D01*
X185192837Y-105327617D01*
X185220550Y-105293849D01*
X185251444Y-105262955D01*
X185275716Y-105226629D01*
X185303431Y-105192859D01*
X185324024Y-105154333D01*
X185348297Y-105118005D01*
X185365019Y-105077635D01*
X185385609Y-105039113D01*
X185398289Y-104997313D01*
X185415010Y-104956945D01*
X185423533Y-104914095D01*
X185436215Y-104872290D01*
X185440497Y-104828813D01*
X185449020Y-104785965D01*
X185449020Y-104742277D01*
X185453302Y-104698800D01*
X185449020Y-104655323D01*
X185449020Y-104611635D01*
X185440497Y-104568787D01*
X185436215Y-104525310D01*
X185423533Y-104483505D01*
X185415010Y-104440655D01*
X185398289Y-104400287D01*
X185385609Y-104358487D01*
X185365019Y-104319965D01*
X185348297Y-104279595D01*
X185324024Y-104243267D01*
X185303431Y-104204741D01*
X185275716Y-104170971D01*
X185251444Y-104134645D01*
X185220550Y-104103751D01*
X185192837Y-104069983D01*
X185159069Y-104042270D01*
X185128175Y-104011376D01*
X185091849Y-103987104D01*
X185058079Y-103959389D01*
X185019553Y-103938796D01*
X184983225Y-103914523D01*
X184942855Y-103897801D01*
X184904333Y-103877211D01*
X184862533Y-103864531D01*
X184822165Y-103847810D01*
X184779315Y-103839287D01*
X184737510Y-103826605D01*
X184694033Y-103822323D01*
X184651185Y-103813800D01*
X177531840Y-103813800D01*
X177531840Y-103763275D01*
X177497830Y-103592295D01*
X177471489Y-103528701D01*
X177547820Y-103569502D01*
X177667518Y-103605812D01*
X177792000Y-103618072D01*
X178792000Y-103618072D01*
X178916482Y-103605812D01*
X179036180Y-103569502D01*
X179146494Y-103510537D01*
X179243185Y-103431185D01*
X179292000Y-103371704D01*
X179340815Y-103431185D01*
X179437506Y-103510537D01*
X179547820Y-103569502D01*
X179667518Y-103605812D01*
X179792000Y-103618072D01*
X180792000Y-103618072D01*
X180916482Y-103605812D01*
X181036180Y-103569502D01*
X181146494Y-103510537D01*
X181243185Y-103431185D01*
X181292000Y-103371704D01*
X181340815Y-103431185D01*
X181437506Y-103510537D01*
X181547820Y-103569502D01*
X181667518Y-103605812D01*
X181792000Y-103618072D01*
X182006250Y-103615000D01*
X182165000Y-103456250D01*
X182165000Y-102107000D01*
X182145000Y-102107000D01*
X182145000Y-101853000D01*
X182165000Y-101853000D01*
X182165000Y-101833000D01*
X182419000Y-101833000D01*
X182419000Y-101853000D01*
X182439000Y-101853000D01*
X182439000Y-102107000D01*
X182419000Y-102107000D01*
X182419000Y-103456250D01*
X182577750Y-103615000D01*
X182792000Y-103618072D01*
X182916482Y-103605812D01*
X183036180Y-103569502D01*
X183146494Y-103510537D01*
X183243185Y-103431185D01*
X183292000Y-103371704D01*
X183340815Y-103431185D01*
X183437506Y-103510537D01*
X183547820Y-103569502D01*
X183667518Y-103605812D01*
X183792000Y-103618072D01*
X184792000Y-103618072D01*
X184916482Y-103605812D01*
X185036180Y-103569502D01*
X185146494Y-103510537D01*
X185243185Y-103431185D01*
X185322537Y-103334494D01*
X185381502Y-103224180D01*
X185416619Y-103108414D01*
X185516499Y-103098577D01*
X185730447Y-103033676D01*
X185927623Y-102928284D01*
X186100449Y-102786449D01*
X186135996Y-102743135D01*
X187287132Y-101592000D01*
X188937669Y-101592000D01*
X189172491Y-101826822D01*
G36*
X159448410Y-101506955D02*
G01*
X159414400Y-101677935D01*
X159414400Y-101852265D01*
X159448410Y-102023245D01*
X159515123Y-102184305D01*
X159611976Y-102329255D01*
X159735245Y-102452524D01*
X159880195Y-102549377D01*
X160041255Y-102616090D01*
X160212235Y-102650100D01*
X160386565Y-102650100D01*
X160557545Y-102616090D01*
X160718605Y-102549377D01*
X160863555Y-102452524D01*
X160986824Y-102329255D01*
X161083677Y-102184305D01*
X161150390Y-102023245D01*
X161184400Y-101852265D01*
X161184400Y-101677935D01*
X161150390Y-101506955D01*
X161112301Y-101414999D01*
X169153928Y-101414999D01*
X169153928Y-102980000D01*
X169166188Y-103104482D01*
X169202498Y-103224180D01*
X169261463Y-103334494D01*
X169340815Y-103431185D01*
X169437506Y-103510537D01*
X169547820Y-103569502D01*
X169667518Y-103605812D01*
X169792000Y-103618072D01*
X170792000Y-103618072D01*
X170916482Y-103605812D01*
X171036180Y-103569502D01*
X171146494Y-103510537D01*
X171243185Y-103431185D01*
X171292000Y-103371704D01*
X171340815Y-103431185D01*
X171437506Y-103510537D01*
X171547820Y-103569502D01*
X171667518Y-103605812D01*
X171792000Y-103618072D01*
X172792000Y-103618072D01*
X172916482Y-103605812D01*
X173036180Y-103569502D01*
X173146494Y-103510537D01*
X173243185Y-103431185D01*
X173292000Y-103371704D01*
X173340815Y-103431185D01*
X173437506Y-103510537D01*
X173547820Y-103569502D01*
X173667518Y-103605812D01*
X173792000Y-103618072D01*
X174792000Y-103618072D01*
X174916482Y-103605812D01*
X175036180Y-103569502D01*
X175146494Y-103510537D01*
X175243185Y-103431185D01*
X175292000Y-103371704D01*
X175340815Y-103431185D01*
X175437506Y-103510537D01*
X175547820Y-103569502D01*
X175667518Y-103605812D01*
X175790747Y-103617949D01*
X175761840Y-103763275D01*
X175761840Y-103813800D01*
X156734637Y-103813800D01*
X156766660Y-103652811D01*
X156766660Y-103478481D01*
X156732650Y-103307501D01*
X156665937Y-103146441D01*
X156569084Y-103001491D01*
X156445815Y-102878222D01*
X156311598Y-102788541D01*
X156447155Y-102844690D01*
X156618135Y-102878700D01*
X156792465Y-102878700D01*
X156963445Y-102844690D01*
X157124505Y-102777977D01*
X157269455Y-102681124D01*
X157392724Y-102557855D01*
X157489577Y-102412905D01*
X157556290Y-102251845D01*
X157590300Y-102080865D01*
X157590300Y-101906535D01*
X157556290Y-101735555D01*
X157489577Y-101574495D01*
X157392724Y-101429545D01*
X157378178Y-101414999D01*
X159486499Y-101414999D01*
X159448410Y-101506955D01*
G37*
X159448410Y-101506955D02*
X159414400Y-101677935D01*
X159414400Y-101852265D01*
X159448410Y-102023245D01*
X159515123Y-102184305D01*
X159611976Y-102329255D01*
X159735245Y-102452524D01*
X159880195Y-102549377D01*
X160041255Y-102616090D01*
X160212235Y-102650100D01*
X160386565Y-102650100D01*
X160557545Y-102616090D01*
X160718605Y-102549377D01*
X160863555Y-102452524D01*
X160986824Y-102329255D01*
X161083677Y-102184305D01*
X161150390Y-102023245D01*
X161184400Y-101852265D01*
X161184400Y-101677935D01*
X161150390Y-101506955D01*
X161112301Y-101414999D01*
X169153928Y-101414999D01*
X169153928Y-102980000D01*
X169166188Y-103104482D01*
X169202498Y-103224180D01*
X169261463Y-103334494D01*
X169340815Y-103431185D01*
X169437506Y-103510537D01*
X169547820Y-103569502D01*
X169667518Y-103605812D01*
X169792000Y-103618072D01*
X170792000Y-103618072D01*
X170916482Y-103605812D01*
X171036180Y-103569502D01*
X171146494Y-103510537D01*
X171243185Y-103431185D01*
X171292000Y-103371704D01*
X171340815Y-103431185D01*
X171437506Y-103510537D01*
X171547820Y-103569502D01*
X171667518Y-103605812D01*
X171792000Y-103618072D01*
X172792000Y-103618072D01*
X172916482Y-103605812D01*
X173036180Y-103569502D01*
X173146494Y-103510537D01*
X173243185Y-103431185D01*
X173292000Y-103371704D01*
X173340815Y-103431185D01*
X173437506Y-103510537D01*
X173547820Y-103569502D01*
X173667518Y-103605812D01*
X173792000Y-103618072D01*
X174792000Y-103618072D01*
X174916482Y-103605812D01*
X175036180Y-103569502D01*
X175146494Y-103510537D01*
X175243185Y-103431185D01*
X175292000Y-103371704D01*
X175340815Y-103431185D01*
X175437506Y-103510537D01*
X175547820Y-103569502D01*
X175667518Y-103605812D01*
X175790747Y-103617949D01*
X175761840Y-103763275D01*
X175761840Y-103813800D01*
X156734637Y-103813800D01*
X156766660Y-103652811D01*
X156766660Y-103478481D01*
X156732650Y-103307501D01*
X156665937Y-103146441D01*
X156569084Y-103001491D01*
X156445815Y-102878222D01*
X156311598Y-102788541D01*
X156447155Y-102844690D01*
X156618135Y-102878700D01*
X156792465Y-102878700D01*
X156963445Y-102844690D01*
X157124505Y-102777977D01*
X157269455Y-102681124D01*
X157392724Y-102557855D01*
X157489577Y-102412905D01*
X157556290Y-102251845D01*
X157590300Y-102080865D01*
X157590300Y-101906535D01*
X157556290Y-101735555D01*
X157489577Y-101574495D01*
X157392724Y-101429545D01*
X157378178Y-101414999D01*
X159486499Y-101414999D01*
X159448410Y-101506955D01*
G36*
X119824510Y-98293855D02*
G01*
X119790500Y-98464835D01*
X119790500Y-98639165D01*
X119824510Y-98810145D01*
X119891223Y-98971205D01*
X119988076Y-99116155D01*
X120111345Y-99239424D01*
X120111673Y-99239643D01*
X120116188Y-99285482D01*
X120139096Y-99361000D01*
X120116188Y-99436518D01*
X120103928Y-99561000D01*
X120103928Y-100261000D01*
X120116188Y-100385482D01*
X120139096Y-100461000D01*
X120116188Y-100536518D01*
X120103928Y-100661000D01*
X120107000Y-100725250D01*
X120265750Y-100884000D01*
X120608248Y-100884000D01*
X120617518Y-100886812D01*
X120742000Y-100899072D01*
X121689000Y-100899072D01*
X121689000Y-101122928D01*
X120742000Y-101122928D01*
X120617518Y-101135188D01*
X120608248Y-101138000D01*
X120265750Y-101138000D01*
X120107000Y-101296750D01*
X120103928Y-101361000D01*
X120105590Y-101377877D01*
X120014680Y-101405454D01*
X119882651Y-101476026D01*
X119766926Y-101570999D01*
X119743128Y-101599998D01*
X119019604Y-102323522D01*
X118990601Y-102347324D01*
X118936781Y-102412905D01*
X118895628Y-102463049D01*
X118838443Y-102570034D01*
X118825056Y-102595079D01*
X118814912Y-102628521D01*
X118616000Y-102429609D01*
X118616000Y-99463803D01*
X119769120Y-98310685D01*
X119799247Y-98301546D01*
X119827602Y-98286390D01*
X119824510Y-98293855D01*
G37*
X119824510Y-98293855D02*
X119790500Y-98464835D01*
X119790500Y-98639165D01*
X119824510Y-98810145D01*
X119891223Y-98971205D01*
X119988076Y-99116155D01*
X120111345Y-99239424D01*
X120111673Y-99239643D01*
X120116188Y-99285482D01*
X120139096Y-99361000D01*
X120116188Y-99436518D01*
X120103928Y-99561000D01*
X120103928Y-100261000D01*
X120116188Y-100385482D01*
X120139096Y-100461000D01*
X120116188Y-100536518D01*
X120103928Y-100661000D01*
X120107000Y-100725250D01*
X120265750Y-100884000D01*
X120608248Y-100884000D01*
X120617518Y-100886812D01*
X120742000Y-100899072D01*
X121689000Y-100899072D01*
X121689000Y-101122928D01*
X120742000Y-101122928D01*
X120617518Y-101135188D01*
X120608248Y-101138000D01*
X120265750Y-101138000D01*
X120107000Y-101296750D01*
X120103928Y-101361000D01*
X120105590Y-101377877D01*
X120014680Y-101405454D01*
X119882651Y-101476026D01*
X119766926Y-101570999D01*
X119743128Y-101599998D01*
X119019604Y-102323522D01*
X118990601Y-102347324D01*
X118936781Y-102412905D01*
X118895628Y-102463049D01*
X118838443Y-102570034D01*
X118825056Y-102595079D01*
X118814912Y-102628521D01*
X118616000Y-102429609D01*
X118616000Y-99463803D01*
X119769120Y-98310685D01*
X119799247Y-98301546D01*
X119827602Y-98286390D01*
X119824510Y-98293855D01*
G36*
X149944000Y-98034000D02*
G01*
X149964000Y-98034000D01*
X149964000Y-98288000D01*
X149944000Y-98288000D01*
X149944000Y-99280801D01*
X149690000Y-99280801D01*
X149690000Y-98288000D01*
X149670000Y-98288000D01*
X149670000Y-98034000D01*
X149690000Y-98034000D01*
X149690000Y-98014000D01*
X149944000Y-98014000D01*
X149944000Y-98034000D01*
G37*
X149944000Y-98034000D02*
X149964000Y-98034000D01*
X149964000Y-98288000D01*
X149944000Y-98288000D01*
X149944000Y-99280801D01*
X149690000Y-99280801D01*
X149690000Y-98288000D01*
X149670000Y-98288000D01*
X149670000Y-98034000D01*
X149690000Y-98034000D01*
X149690000Y-98014000D01*
X149944000Y-98014000D01*
X149944000Y-98034000D01*
G36*
X153880855Y-98667210D02*
G01*
X153875643Y-98669996D01*
X153759918Y-98764969D01*
X153736120Y-98793968D01*
X153257699Y-99272389D01*
X150850961Y-99272389D01*
X150998100Y-99125250D01*
X151001172Y-99106200D01*
X150988912Y-98981718D01*
X150952602Y-98862020D01*
X150911968Y-98786000D01*
X150952602Y-98709980D01*
X150982790Y-98610464D01*
X151005393Y-98622546D01*
X151148654Y-98666003D01*
X151260307Y-98677000D01*
X151260317Y-98677000D01*
X151297640Y-98680676D01*
X151334963Y-98677000D01*
X152316462Y-98677000D01*
X152352795Y-98701277D01*
X152513855Y-98767990D01*
X152684835Y-98802000D01*
X152859165Y-98802000D01*
X153030145Y-98767990D01*
X153191205Y-98701277D01*
X153336155Y-98604424D01*
X153459424Y-98481155D01*
X153553703Y-98340057D01*
X153880855Y-98667210D01*
G37*
X153880855Y-98667210D02*
X153875643Y-98669996D01*
X153759918Y-98764969D01*
X153736120Y-98793968D01*
X153257699Y-99272389D01*
X150850961Y-99272389D01*
X150998100Y-99125250D01*
X151001172Y-99106200D01*
X150988912Y-98981718D01*
X150952602Y-98862020D01*
X150911968Y-98786000D01*
X150952602Y-98709980D01*
X150982790Y-98610464D01*
X151005393Y-98622546D01*
X151148654Y-98666003D01*
X151260307Y-98677000D01*
X151260317Y-98677000D01*
X151297640Y-98680676D01*
X151334963Y-98677000D01*
X152316462Y-98677000D01*
X152352795Y-98701277D01*
X152513855Y-98767990D01*
X152684835Y-98802000D01*
X152859165Y-98802000D01*
X153030145Y-98767990D01*
X153191205Y-98701277D01*
X153336155Y-98604424D01*
X153459424Y-98481155D01*
X153553703Y-98340057D01*
X153880855Y-98667210D01*
G36*
X157482001Y-96084093D02*
G01*
X157482000Y-98544970D01*
X155793213Y-98544970D01*
X155825000Y-98385165D01*
X155825000Y-98230939D01*
X155906875Y-98187175D01*
X156022600Y-98092202D01*
X156046402Y-98063199D01*
X156476087Y-97633515D01*
X156518945Y-97624990D01*
X156680005Y-97558277D01*
X156824955Y-97461424D01*
X156948224Y-97338155D01*
X157045077Y-97193205D01*
X157111790Y-97032145D01*
X157145800Y-96861165D01*
X157145800Y-96686835D01*
X157111790Y-96515855D01*
X157045077Y-96354795D01*
X156948224Y-96209845D01*
X156824955Y-96086576D01*
X156680005Y-95989723D01*
X156518945Y-95923010D01*
X156347965Y-95889000D01*
X156173635Y-95889000D01*
X156002655Y-95923010D01*
X155841595Y-95989723D01*
X155700000Y-96084334D01*
X155700000Y-94302091D01*
X157482001Y-96084093D01*
G37*
X157482001Y-96084093D02*
X157482000Y-98544970D01*
X155793213Y-98544970D01*
X155825000Y-98385165D01*
X155825000Y-98230939D01*
X155906875Y-98187175D01*
X156022600Y-98092202D01*
X156046402Y-98063199D01*
X156476087Y-97633515D01*
X156518945Y-97624990D01*
X156680005Y-97558277D01*
X156824955Y-97461424D01*
X156948224Y-97338155D01*
X157045077Y-97193205D01*
X157111790Y-97032145D01*
X157145800Y-96861165D01*
X157145800Y-96686835D01*
X157111790Y-96515855D01*
X157045077Y-96354795D01*
X156948224Y-96209845D01*
X156824955Y-96086576D01*
X156680005Y-95989723D01*
X156518945Y-95923010D01*
X156347965Y-95889000D01*
X156173635Y-95889000D01*
X156002655Y-95923010D01*
X155841595Y-95989723D01*
X155700000Y-96084334D01*
X155700000Y-94302091D01*
X157482001Y-96084093D01*
G36*
X129605238Y-98024101D02*
G01*
X127825000Y-98024101D01*
X127825000Y-97968521D01*
X127790990Y-97797541D01*
X127777635Y-97765298D01*
X132627903Y-92915031D01*
X134714306Y-92915031D01*
X129605238Y-98024101D01*
G37*
X129605238Y-98024101D02*
X127825000Y-98024101D01*
X127825000Y-97968521D01*
X127790990Y-97797541D01*
X127777635Y-97765298D01*
X132627903Y-92915031D01*
X134714306Y-92915031D01*
X129605238Y-98024101D01*
G36*
X197115800Y-95703013D02*
G01*
X197139599Y-95732012D01*
X197168597Y-95755810D01*
X197255323Y-95826985D01*
X197387353Y-95897557D01*
X197530614Y-95941014D01*
X197642267Y-95952011D01*
X197642277Y-95952011D01*
X197679599Y-95955687D01*
X197716922Y-95952011D01*
X201086677Y-95952011D01*
X201076928Y-96051000D01*
X201076928Y-96141000D01*
X196254274Y-96141000D01*
X196227790Y-96007855D01*
X196218986Y-95986600D01*
X196227790Y-95965345D01*
X196261800Y-95794365D01*
X196261800Y-95620035D01*
X196227790Y-95449055D01*
X196161077Y-95287995D01*
X196064224Y-95143045D01*
X195940955Y-95019776D01*
X195796005Y-94922923D01*
X195634945Y-94856210D01*
X195463965Y-94822200D01*
X195289635Y-94822200D01*
X195118655Y-94856210D01*
X195107921Y-94860656D01*
X194974545Y-94805410D01*
X194803565Y-94771400D01*
X194629235Y-94771400D01*
X194458255Y-94805410D01*
X194297195Y-94872123D01*
X194212508Y-94928709D01*
X193763291Y-94479492D01*
X193739488Y-94450488D01*
X193623763Y-94355515D01*
X193491734Y-94284943D01*
X193348473Y-94241486D01*
X193236820Y-94230489D01*
X193236810Y-94230489D01*
X193199487Y-94226813D01*
X193162165Y-94230489D01*
X192395381Y-94230489D01*
X192269892Y-94105000D01*
X195517788Y-94105000D01*
X197115800Y-95703013D01*
G37*
X197115800Y-95703013D02*
X197139599Y-95732012D01*
X197168597Y-95755810D01*
X197255323Y-95826985D01*
X197387353Y-95897557D01*
X197530614Y-95941014D01*
X197642267Y-95952011D01*
X197642277Y-95952011D01*
X197679599Y-95955687D01*
X197716922Y-95952011D01*
X201086677Y-95952011D01*
X201076928Y-96051000D01*
X201076928Y-96141000D01*
X196254274Y-96141000D01*
X196227790Y-96007855D01*
X196218986Y-95986600D01*
X196227790Y-95965345D01*
X196261800Y-95794365D01*
X196261800Y-95620035D01*
X196227790Y-95449055D01*
X196161077Y-95287995D01*
X196064224Y-95143045D01*
X195940955Y-95019776D01*
X195796005Y-94922923D01*
X195634945Y-94856210D01*
X195463965Y-94822200D01*
X195289635Y-94822200D01*
X195118655Y-94856210D01*
X195107921Y-94860656D01*
X194974545Y-94805410D01*
X194803565Y-94771400D01*
X194629235Y-94771400D01*
X194458255Y-94805410D01*
X194297195Y-94872123D01*
X194212508Y-94928709D01*
X193763291Y-94479492D01*
X193739488Y-94450488D01*
X193623763Y-94355515D01*
X193491734Y-94284943D01*
X193348473Y-94241486D01*
X193236820Y-94230489D01*
X193236810Y-94230489D01*
X193199487Y-94226813D01*
X193162165Y-94230489D01*
X192395381Y-94230489D01*
X192269892Y-94105000D01*
X195517788Y-94105000D01*
X197115800Y-95703013D01*
G36*
X147373583Y-90970807D02*
G01*
X147382108Y-91013665D01*
X147445497Y-91166699D01*
X145608097Y-93004100D01*
X145084022Y-93004100D01*
X145046699Y-93000424D01*
X145009376Y-93004100D01*
X145009367Y-93004100D01*
X144897714Y-93015097D01*
X144754453Y-93058554D01*
X144622424Y-93129126D01*
X144506699Y-93224099D01*
X144482901Y-93253097D01*
X143434414Y-94301585D01*
X143391555Y-94310110D01*
X143230495Y-94376823D01*
X143085545Y-94473676D01*
X142962276Y-94596945D01*
X142865423Y-94741895D01*
X142798710Y-94902955D01*
X142764700Y-95073935D01*
X142764700Y-95248265D01*
X142798710Y-95419245D01*
X142865423Y-95580305D01*
X142922009Y-95664991D01*
X142901522Y-95685478D01*
X140140245Y-95685478D01*
X140113370Y-95682831D01*
X142560504Y-93235698D01*
X142589501Y-93211901D01*
X142625942Y-93167498D01*
X142684474Y-93096177D01*
X142755046Y-92964147D01*
X142756126Y-92960586D01*
X142798503Y-92820886D01*
X142809500Y-92709233D01*
X142809500Y-92709224D01*
X142813176Y-92671901D01*
X142809500Y-92634578D01*
X142809500Y-92289238D01*
X142833777Y-92252905D01*
X142900490Y-92091845D01*
X142934500Y-91920865D01*
X142934500Y-91746535D01*
X142900490Y-91575555D01*
X142833777Y-91414495D01*
X142736924Y-91269545D01*
X142619956Y-91152577D01*
X144638743Y-89133790D01*
X144648855Y-89137979D01*
X144819835Y-89171989D01*
X144994165Y-89171989D01*
X145165145Y-89137979D01*
X145326205Y-89071266D01*
X145414827Y-89012050D01*
X147373583Y-90970807D01*
G37*
X147373583Y-90970807D02*
X147382108Y-91013665D01*
X147445497Y-91166699D01*
X145608097Y-93004100D01*
X145084022Y-93004100D01*
X145046699Y-93000424D01*
X145009376Y-93004100D01*
X145009367Y-93004100D01*
X144897714Y-93015097D01*
X144754453Y-93058554D01*
X144622424Y-93129126D01*
X144506699Y-93224099D01*
X144482901Y-93253097D01*
X143434414Y-94301585D01*
X143391555Y-94310110D01*
X143230495Y-94376823D01*
X143085545Y-94473676D01*
X142962276Y-94596945D01*
X142865423Y-94741895D01*
X142798710Y-94902955D01*
X142764700Y-95073935D01*
X142764700Y-95248265D01*
X142798710Y-95419245D01*
X142865423Y-95580305D01*
X142922009Y-95664991D01*
X142901522Y-95685478D01*
X140140245Y-95685478D01*
X140113370Y-95682831D01*
X142560504Y-93235698D01*
X142589501Y-93211901D01*
X142625942Y-93167498D01*
X142684474Y-93096177D01*
X142755046Y-92964147D01*
X142756126Y-92960586D01*
X142798503Y-92820886D01*
X142809500Y-92709233D01*
X142809500Y-92709224D01*
X142813176Y-92671901D01*
X142809500Y-92634578D01*
X142809500Y-92289238D01*
X142833777Y-92252905D01*
X142900490Y-92091845D01*
X142934500Y-91920865D01*
X142934500Y-91746535D01*
X142900490Y-91575555D01*
X142833777Y-91414495D01*
X142736924Y-91269545D01*
X142619956Y-91152577D01*
X144638743Y-89133790D01*
X144648855Y-89137979D01*
X144819835Y-89171989D01*
X144994165Y-89171989D01*
X145165145Y-89137979D01*
X145326205Y-89071266D01*
X145414827Y-89012050D01*
X147373583Y-90970807D01*
G36*
X127996220Y-95397111D02*
G01*
X127996220Y-94410138D01*
X128020497Y-94373805D01*
X128087210Y-94212745D01*
X128121220Y-94041765D01*
X128121220Y-93978000D01*
X129415330Y-93978000D01*
X127996220Y-95397111D01*
G37*
X127996220Y-95397111D02*
X127996220Y-94410138D01*
X128020497Y-94373805D01*
X128087210Y-94212745D01*
X128121220Y-94041765D01*
X128121220Y-93978000D01*
X129415330Y-93978000D01*
X127996220Y-95397111D01*
G36*
X189988490Y-87496202D02*
G01*
X189988489Y-93621076D01*
X189984813Y-93658399D01*
X189988489Y-93695721D01*
X189988489Y-93695731D01*
X189999486Y-93807384D01*
X190033476Y-93919436D01*
X190042943Y-93950645D01*
X190113515Y-94082675D01*
X190153360Y-94131225D01*
X190208488Y-94198400D01*
X190237492Y-94222203D01*
X190695789Y-94680500D01*
X190585305Y-94680500D01*
X189521296Y-93616492D01*
X189656990Y-93413411D01*
X189768932Y-93143158D01*
X189826000Y-92856260D01*
X189826000Y-92563740D01*
X189768932Y-92276842D01*
X189656990Y-92006589D01*
X189494475Y-91763368D01*
X189287632Y-91556525D01*
X189113240Y-91440000D01*
X189287632Y-91323475D01*
X189494475Y-91116632D01*
X189656990Y-90873411D01*
X189768932Y-90603158D01*
X189826000Y-90316260D01*
X189826000Y-90023740D01*
X189768932Y-89736842D01*
X189656990Y-89466589D01*
X189494475Y-89223368D01*
X189287632Y-89016525D01*
X189105466Y-88894805D01*
X189222355Y-88825178D01*
X189438588Y-88630269D01*
X189612641Y-88396920D01*
X189737825Y-88134099D01*
X189782476Y-87986890D01*
X189661155Y-87757000D01*
X188468000Y-87757000D01*
X188468000Y-87777000D01*
X188214000Y-87777000D01*
X188214000Y-87757000D01*
X188194000Y-87757000D01*
X188194000Y-87503000D01*
X188214000Y-87503000D01*
X188214000Y-87483000D01*
X188468000Y-87483000D01*
X188468000Y-87503000D01*
X189661155Y-87503000D01*
X189776577Y-87284288D01*
X189988490Y-87496202D01*
G37*
X189988490Y-87496202D02*
X189988489Y-93621076D01*
X189984813Y-93658399D01*
X189988489Y-93695721D01*
X189988489Y-93695731D01*
X189999486Y-93807384D01*
X190033476Y-93919436D01*
X190042943Y-93950645D01*
X190113515Y-94082675D01*
X190153360Y-94131225D01*
X190208488Y-94198400D01*
X190237492Y-94222203D01*
X190695789Y-94680500D01*
X190585305Y-94680500D01*
X189521296Y-93616492D01*
X189656990Y-93413411D01*
X189768932Y-93143158D01*
X189826000Y-92856260D01*
X189826000Y-92563740D01*
X189768932Y-92276842D01*
X189656990Y-92006589D01*
X189494475Y-91763368D01*
X189287632Y-91556525D01*
X189113240Y-91440000D01*
X189287632Y-91323475D01*
X189494475Y-91116632D01*
X189656990Y-90873411D01*
X189768932Y-90603158D01*
X189826000Y-90316260D01*
X189826000Y-90023740D01*
X189768932Y-89736842D01*
X189656990Y-89466589D01*
X189494475Y-89223368D01*
X189287632Y-89016525D01*
X189105466Y-88894805D01*
X189222355Y-88825178D01*
X189438588Y-88630269D01*
X189612641Y-88396920D01*
X189737825Y-88134099D01*
X189782476Y-87986890D01*
X189661155Y-87757000D01*
X188468000Y-87757000D01*
X188468000Y-87777000D01*
X188214000Y-87777000D01*
X188214000Y-87757000D01*
X188194000Y-87757000D01*
X188194000Y-87503000D01*
X188214000Y-87503000D01*
X188214000Y-87483000D01*
X188468000Y-87483000D01*
X188468000Y-87503000D01*
X189661155Y-87503000D01*
X189776577Y-87284288D01*
X189988490Y-87496202D01*
G36*
X190958222Y-82479972D02*
G01*
X191090251Y-82550544D01*
X191233512Y-82594001D01*
X191345165Y-82604998D01*
X191345174Y-82604998D01*
X191382497Y-82608674D01*
X191419820Y-82604998D01*
X196338197Y-82604998D01*
X198122001Y-84388803D01*
X198122000Y-91148677D01*
X198118324Y-91186000D01*
X198122000Y-91223322D01*
X198122000Y-91223332D01*
X198132997Y-91334985D01*
X198171243Y-91461066D01*
X198176454Y-91478246D01*
X198247026Y-91610276D01*
X198284348Y-91655753D01*
X198341999Y-91726001D01*
X198371003Y-91749804D01*
X201053208Y-94432011D01*
X197994402Y-94432011D01*
X196396393Y-92834003D01*
X196372590Y-92804999D01*
X196256865Y-92710026D01*
X196124836Y-92639454D01*
X196073685Y-92623938D01*
X196160494Y-92577537D01*
X196257185Y-92498185D01*
X196336537Y-92401494D01*
X196395502Y-92291180D01*
X196431812Y-92171482D01*
X196444072Y-92047000D01*
X196444072Y-88547000D01*
X196431812Y-88422518D01*
X196395502Y-88302820D01*
X196336537Y-88192506D01*
X196257185Y-88095815D01*
X196160494Y-88016463D01*
X196050180Y-87957498D01*
X195930482Y-87921188D01*
X195806000Y-87908928D01*
X192306000Y-87908928D01*
X192181518Y-87921188D01*
X192061820Y-87957498D01*
X191958500Y-88012725D01*
X191958500Y-87032321D01*
X191962176Y-86994998D01*
X191959380Y-86966609D01*
X192565997Y-86966609D01*
X192752073Y-87307766D01*
X193169409Y-87523513D01*
X193620815Y-87653696D01*
X194088946Y-87693313D01*
X194555811Y-87640842D01*
X195003468Y-87498297D01*
X195359927Y-87307766D01*
X195546003Y-86966609D01*
X194056000Y-85476605D01*
X192565997Y-86966609D01*
X191959380Y-86966609D01*
X191958500Y-86957675D01*
X191958500Y-86957666D01*
X191947503Y-86846013D01*
X191904046Y-86702752D01*
X191833474Y-86570723D01*
X191805195Y-86536265D01*
X191762299Y-86483995D01*
X191762295Y-86483991D01*
X191738501Y-86454998D01*
X191709509Y-86431205D01*
X190608249Y-85329946D01*
X191659687Y-85329946D01*
X191712158Y-85796811D01*
X191854703Y-86244468D01*
X192045234Y-86600927D01*
X192386391Y-86787003D01*
X193876395Y-85297000D01*
X194235605Y-85297000D01*
X195725609Y-86787003D01*
X196066766Y-86600927D01*
X196282513Y-86183591D01*
X196412696Y-85732185D01*
X196452313Y-85264054D01*
X196399842Y-84797189D01*
X196257297Y-84349532D01*
X196066766Y-83993073D01*
X195725609Y-83806997D01*
X194235605Y-85297000D01*
X193876395Y-85297000D01*
X192386391Y-83806997D01*
X192045234Y-83993073D01*
X191829487Y-84410409D01*
X191699304Y-84861815D01*
X191659687Y-85329946D01*
X190608249Y-85329946D01*
X190301804Y-85023502D01*
X190278002Y-84994499D01*
X190162277Y-84899526D01*
X190031008Y-84829360D01*
X190146729Y-84752038D01*
X190458038Y-84440729D01*
X190702631Y-84074669D01*
X190871110Y-83667925D01*
X190879172Y-83627391D01*
X192565997Y-83627391D01*
X194056000Y-85117395D01*
X195546003Y-83627391D01*
X195359927Y-83286234D01*
X194942591Y-83070487D01*
X194491185Y-82940304D01*
X194023054Y-82900687D01*
X193556189Y-82953158D01*
X193108532Y-83095703D01*
X192752073Y-83286234D01*
X192565997Y-83627391D01*
X190879172Y-83627391D01*
X190957000Y-83236128D01*
X190957000Y-82795872D01*
X190881666Y-82417144D01*
X190958222Y-82479972D01*
G37*
X190958222Y-82479972D02*
X191090251Y-82550544D01*
X191233512Y-82594001D01*
X191345165Y-82604998D01*
X191345174Y-82604998D01*
X191382497Y-82608674D01*
X191419820Y-82604998D01*
X196338197Y-82604998D01*
X198122001Y-84388803D01*
X198122000Y-91148677D01*
X198118324Y-91186000D01*
X198122000Y-91223322D01*
X198122000Y-91223332D01*
X198132997Y-91334985D01*
X198171243Y-91461066D01*
X198176454Y-91478246D01*
X198247026Y-91610276D01*
X198284348Y-91655753D01*
X198341999Y-91726001D01*
X198371003Y-91749804D01*
X201053208Y-94432011D01*
X197994402Y-94432011D01*
X196396393Y-92834003D01*
X196372590Y-92804999D01*
X196256865Y-92710026D01*
X196124836Y-92639454D01*
X196073685Y-92623938D01*
X196160494Y-92577537D01*
X196257185Y-92498185D01*
X196336537Y-92401494D01*
X196395502Y-92291180D01*
X196431812Y-92171482D01*
X196444072Y-92047000D01*
X196444072Y-88547000D01*
X196431812Y-88422518D01*
X196395502Y-88302820D01*
X196336537Y-88192506D01*
X196257185Y-88095815D01*
X196160494Y-88016463D01*
X196050180Y-87957498D01*
X195930482Y-87921188D01*
X195806000Y-87908928D01*
X192306000Y-87908928D01*
X192181518Y-87921188D01*
X192061820Y-87957498D01*
X191958500Y-88012725D01*
X191958500Y-87032321D01*
X191962176Y-86994998D01*
X191959380Y-86966609D01*
X192565997Y-86966609D01*
X192752073Y-87307766D01*
X193169409Y-87523513D01*
X193620815Y-87653696D01*
X194088946Y-87693313D01*
X194555811Y-87640842D01*
X195003468Y-87498297D01*
X195359927Y-87307766D01*
X195546003Y-86966609D01*
X194056000Y-85476605D01*
X192565997Y-86966609D01*
X191959380Y-86966609D01*
X191958500Y-86957675D01*
X191958500Y-86957666D01*
X191947503Y-86846013D01*
X191904046Y-86702752D01*
X191833474Y-86570723D01*
X191805195Y-86536265D01*
X191762299Y-86483995D01*
X191762295Y-86483991D01*
X191738501Y-86454998D01*
X191709509Y-86431205D01*
X190608249Y-85329946D01*
X191659687Y-85329946D01*
X191712158Y-85796811D01*
X191854703Y-86244468D01*
X192045234Y-86600927D01*
X192386391Y-86787003D01*
X193876395Y-85297000D01*
X194235605Y-85297000D01*
X195725609Y-86787003D01*
X196066766Y-86600927D01*
X196282513Y-86183591D01*
X196412696Y-85732185D01*
X196452313Y-85264054D01*
X196399842Y-84797189D01*
X196257297Y-84349532D01*
X196066766Y-83993073D01*
X195725609Y-83806997D01*
X194235605Y-85297000D01*
X193876395Y-85297000D01*
X192386391Y-83806997D01*
X192045234Y-83993073D01*
X191829487Y-84410409D01*
X191699304Y-84861815D01*
X191659687Y-85329946D01*
X190608249Y-85329946D01*
X190301804Y-85023502D01*
X190278002Y-84994499D01*
X190162277Y-84899526D01*
X190031008Y-84829360D01*
X190146729Y-84752038D01*
X190458038Y-84440729D01*
X190702631Y-84074669D01*
X190871110Y-83667925D01*
X190879172Y-83627391D01*
X192565997Y-83627391D01*
X194056000Y-85117395D01*
X195546003Y-83627391D01*
X195359927Y-83286234D01*
X194942591Y-83070487D01*
X194491185Y-82940304D01*
X194023054Y-82900687D01*
X193556189Y-82953158D01*
X193108532Y-83095703D01*
X192752073Y-83286234D01*
X192565997Y-83627391D01*
X190879172Y-83627391D01*
X190957000Y-83236128D01*
X190957000Y-82795872D01*
X190881666Y-82417144D01*
X190958222Y-82479972D01*
G36*
X160121600Y-89510600D02*
G01*
X160141600Y-89510600D01*
X160141600Y-89764600D01*
X160121600Y-89764600D01*
X160121600Y-89784600D01*
X159867600Y-89784600D01*
X159867600Y-89764600D01*
X159847600Y-89764600D01*
X159847600Y-89510600D01*
X159867600Y-89510600D01*
X159867600Y-89490600D01*
X160121600Y-89490600D01*
X160121600Y-89510600D01*
G37*
X160121600Y-89510600D02*
X160141600Y-89510600D01*
X160141600Y-89764600D01*
X160121600Y-89764600D01*
X160121600Y-89784600D01*
X159867600Y-89784600D01*
X159867600Y-89764600D01*
X159847600Y-89764600D01*
X159847600Y-89510600D01*
X159867600Y-89510600D01*
X159867600Y-89490600D01*
X160121600Y-89490600D01*
X160121600Y-89510600D01*
G36*
X169882423Y-84343225D02*
G01*
X169792000Y-84341928D01*
X169667518Y-84354188D01*
X169547820Y-84390498D01*
X169437506Y-84449463D01*
X169340815Y-84528815D01*
X169261463Y-84625506D01*
X169202498Y-84735820D01*
X169166188Y-84855518D01*
X169153928Y-84980000D01*
X169157000Y-85694250D01*
X169315750Y-85853000D01*
X170165000Y-85853000D01*
X170165000Y-85833000D01*
X170419000Y-85833000D01*
X170419000Y-85853000D01*
X170439000Y-85853000D01*
X170439000Y-86107000D01*
X170419000Y-86107000D01*
X170419000Y-86127000D01*
X170165000Y-86127000D01*
X170165000Y-86107000D01*
X169315750Y-86107000D01*
X169157000Y-86265750D01*
X169153928Y-86980000D01*
X169166188Y-87104482D01*
X169172109Y-87124000D01*
X166747000Y-87124000D01*
X166747000Y-87034835D01*
X166712990Y-86863855D01*
X166691829Y-86812768D01*
X166712795Y-86826777D01*
X166873855Y-86893490D01*
X167044835Y-86927500D01*
X167219165Y-86927500D01*
X167390145Y-86893490D01*
X167551205Y-86826777D01*
X167696155Y-86729924D01*
X167819424Y-86606655D01*
X167916277Y-86461705D01*
X167982990Y-86300645D01*
X168017000Y-86129665D01*
X168017000Y-85955335D01*
X167982990Y-85784355D01*
X167916277Y-85623295D01*
X167819424Y-85478345D01*
X167696155Y-85355076D01*
X167551205Y-85258223D01*
X167390145Y-85191510D01*
X167347287Y-85182985D01*
X166362304Y-84198003D01*
X166338501Y-84168999D01*
X166222776Y-84074026D01*
X166090747Y-84003454D01*
X165947486Y-83959997D01*
X165835833Y-83949000D01*
X165835822Y-83949000D01*
X165798500Y-83945324D01*
X165761178Y-83949000D01*
X164462301Y-83949000D01*
X164266804Y-83753503D01*
X164243001Y-83724499D01*
X164127276Y-83629526D01*
X164004687Y-83564000D01*
X169103199Y-83564000D01*
X169882423Y-84343225D01*
G37*
X169882423Y-84343225D02*
X169792000Y-84341928D01*
X169667518Y-84354188D01*
X169547820Y-84390498D01*
X169437506Y-84449463D01*
X169340815Y-84528815D01*
X169261463Y-84625506D01*
X169202498Y-84735820D01*
X169166188Y-84855518D01*
X169153928Y-84980000D01*
X169157000Y-85694250D01*
X169315750Y-85853000D01*
X170165000Y-85853000D01*
X170165000Y-85833000D01*
X170419000Y-85833000D01*
X170419000Y-85853000D01*
X170439000Y-85853000D01*
X170439000Y-86107000D01*
X170419000Y-86107000D01*
X170419000Y-86127000D01*
X170165000Y-86127000D01*
X170165000Y-86107000D01*
X169315750Y-86107000D01*
X169157000Y-86265750D01*
X169153928Y-86980000D01*
X169166188Y-87104482D01*
X169172109Y-87124000D01*
X166747000Y-87124000D01*
X166747000Y-87034835D01*
X166712990Y-86863855D01*
X166691829Y-86812768D01*
X166712795Y-86826777D01*
X166873855Y-86893490D01*
X167044835Y-86927500D01*
X167219165Y-86927500D01*
X167390145Y-86893490D01*
X167551205Y-86826777D01*
X167696155Y-86729924D01*
X167819424Y-86606655D01*
X167916277Y-86461705D01*
X167982990Y-86300645D01*
X168017000Y-86129665D01*
X168017000Y-85955335D01*
X167982990Y-85784355D01*
X167916277Y-85623295D01*
X167819424Y-85478345D01*
X167696155Y-85355076D01*
X167551205Y-85258223D01*
X167390145Y-85191510D01*
X167347287Y-85182985D01*
X166362304Y-84198003D01*
X166338501Y-84168999D01*
X166222776Y-84074026D01*
X166090747Y-84003454D01*
X165947486Y-83959997D01*
X165835833Y-83949000D01*
X165835822Y-83949000D01*
X165798500Y-83945324D01*
X165761178Y-83949000D01*
X164462301Y-83949000D01*
X164266804Y-83753503D01*
X164243001Y-83724499D01*
X164127276Y-83629526D01*
X164004687Y-83564000D01*
X169103199Y-83564000D01*
X169882423Y-84343225D01*
G36*
X186758198Y-85725000D02*
G01*
X185422083Y-87061116D01*
X185430072Y-86980000D01*
X185427000Y-86265750D01*
X185268250Y-86107000D01*
X184419000Y-86107000D01*
X184419000Y-86127000D01*
X184165000Y-86127000D01*
X184165000Y-86107000D01*
X184145000Y-86107000D01*
X184145000Y-85853000D01*
X184165000Y-85853000D01*
X184165000Y-85833000D01*
X184419000Y-85833000D01*
X184419000Y-85853000D01*
X185268250Y-85853000D01*
X185427000Y-85694250D01*
X185429607Y-85088000D01*
X186121199Y-85088000D01*
X186758198Y-85725000D01*
G37*
X186758198Y-85725000D02*
X185422083Y-87061116D01*
X185430072Y-86980000D01*
X185427000Y-86265750D01*
X185268250Y-86107000D01*
X184419000Y-86107000D01*
X184419000Y-86127000D01*
X184165000Y-86127000D01*
X184165000Y-86107000D01*
X184145000Y-86107000D01*
X184145000Y-85853000D01*
X184165000Y-85853000D01*
X184165000Y-85833000D01*
X184419000Y-85833000D01*
X184419000Y-85853000D01*
X185268250Y-85853000D01*
X185427000Y-85694250D01*
X185429607Y-85088000D01*
X186121199Y-85088000D01*
X186758198Y-85725000D01*
G36*
X162376845Y-83577076D02*
G01*
X162253576Y-83700345D01*
X162156723Y-83845295D01*
X162090010Y-84006355D01*
X162056000Y-84177335D01*
X162056000Y-84351665D01*
X162090010Y-84522645D01*
X162156723Y-84683705D01*
X162253576Y-84828655D01*
X162376845Y-84951924D01*
X162521795Y-85048777D01*
X162682855Y-85115490D01*
X162853835Y-85149500D01*
X163028165Y-85149500D01*
X163199145Y-85115490D01*
X163360205Y-85048777D01*
X163391539Y-85027840D01*
X163583696Y-85219997D01*
X163607499Y-85249001D01*
X163657424Y-85289973D01*
X163723223Y-85343974D01*
X163803513Y-85386890D01*
X163855253Y-85414546D01*
X163998514Y-85458003D01*
X164110167Y-85469000D01*
X164110177Y-85469000D01*
X164147500Y-85472676D01*
X164184823Y-85469000D01*
X165483699Y-85469000D01*
X166272485Y-86257787D01*
X166281010Y-86300645D01*
X166302171Y-86351732D01*
X166281205Y-86337723D01*
X166120145Y-86271010D01*
X165949165Y-86237000D01*
X165774835Y-86237000D01*
X165603855Y-86271010D01*
X165442795Y-86337723D01*
X165406462Y-86362000D01*
X161923631Y-86362000D01*
X162002073Y-86244604D01*
X162068786Y-86083544D01*
X162102796Y-85912564D01*
X162102796Y-85738234D01*
X162068786Y-85567254D01*
X162002073Y-85406194D01*
X161905220Y-85261244D01*
X161781951Y-85137975D01*
X161637001Y-85041122D01*
X161475941Y-84974409D01*
X161304961Y-84940399D01*
X161130631Y-84940399D01*
X160959651Y-84974409D01*
X160929515Y-84986892D01*
X160917986Y-84965322D01*
X160846811Y-84878596D01*
X160823013Y-84849598D01*
X160794015Y-84825800D01*
X159532214Y-83564000D01*
X162396415Y-83564000D01*
X162376845Y-83577076D01*
G37*
X162376845Y-83577076D02*
X162253576Y-83700345D01*
X162156723Y-83845295D01*
X162090010Y-84006355D01*
X162056000Y-84177335D01*
X162056000Y-84351665D01*
X162090010Y-84522645D01*
X162156723Y-84683705D01*
X162253576Y-84828655D01*
X162376845Y-84951924D01*
X162521795Y-85048777D01*
X162682855Y-85115490D01*
X162853835Y-85149500D01*
X163028165Y-85149500D01*
X163199145Y-85115490D01*
X163360205Y-85048777D01*
X163391539Y-85027840D01*
X163583696Y-85219997D01*
X163607499Y-85249001D01*
X163657424Y-85289973D01*
X163723223Y-85343974D01*
X163803513Y-85386890D01*
X163855253Y-85414546D01*
X163998514Y-85458003D01*
X164110167Y-85469000D01*
X164110177Y-85469000D01*
X164147500Y-85472676D01*
X164184823Y-85469000D01*
X165483699Y-85469000D01*
X166272485Y-86257787D01*
X166281010Y-86300645D01*
X166302171Y-86351732D01*
X166281205Y-86337723D01*
X166120145Y-86271010D01*
X165949165Y-86237000D01*
X165774835Y-86237000D01*
X165603855Y-86271010D01*
X165442795Y-86337723D01*
X165406462Y-86362000D01*
X161923631Y-86362000D01*
X162002073Y-86244604D01*
X162068786Y-86083544D01*
X162102796Y-85912564D01*
X162102796Y-85738234D01*
X162068786Y-85567254D01*
X162002073Y-85406194D01*
X161905220Y-85261244D01*
X161781951Y-85137975D01*
X161637001Y-85041122D01*
X161475941Y-84974409D01*
X161304961Y-84940399D01*
X161130631Y-84940399D01*
X160959651Y-84974409D01*
X160929515Y-84986892D01*
X160917986Y-84965322D01*
X160846811Y-84878596D01*
X160823013Y-84849598D01*
X160794015Y-84825800D01*
X159532214Y-83564000D01*
X162396415Y-83564000D01*
X162376845Y-83577076D01*
G36*
X161903700Y-81065835D02*
G01*
X161903700Y-81240165D01*
X161937710Y-81411145D01*
X162004423Y-81572205D01*
X162101276Y-81717155D01*
X162224545Y-81840424D01*
X162369495Y-81937277D01*
X162530555Y-82003990D01*
X162701535Y-82038000D01*
X162875865Y-82038000D01*
X163046845Y-82003990D01*
X163207905Y-81937277D01*
X163352855Y-81840424D01*
X163476124Y-81717155D01*
X163572977Y-81572205D01*
X163639690Y-81411145D01*
X163673700Y-81240165D01*
X163673700Y-81065835D01*
X163655433Y-80974000D01*
X167709421Y-80974000D01*
X167586576Y-81096845D01*
X167489723Y-81241795D01*
X167423010Y-81402855D01*
X167389000Y-81573835D01*
X167389000Y-81748165D01*
X167423010Y-81919145D01*
X167474726Y-82044000D01*
X157045802Y-82044000D01*
X157441288Y-81648515D01*
X157484145Y-81639990D01*
X157645205Y-81573277D01*
X157790155Y-81476424D01*
X157913424Y-81353155D01*
X158010277Y-81208205D01*
X158076990Y-81047145D01*
X158091539Y-80974000D01*
X161921967Y-80974000D01*
X161903700Y-81065835D01*
G37*
X161903700Y-81065835D02*
X161903700Y-81240165D01*
X161937710Y-81411145D01*
X162004423Y-81572205D01*
X162101276Y-81717155D01*
X162224545Y-81840424D01*
X162369495Y-81937277D01*
X162530555Y-82003990D01*
X162701535Y-82038000D01*
X162875865Y-82038000D01*
X163046845Y-82003990D01*
X163207905Y-81937277D01*
X163352855Y-81840424D01*
X163476124Y-81717155D01*
X163572977Y-81572205D01*
X163639690Y-81411145D01*
X163673700Y-81240165D01*
X163673700Y-81065835D01*
X163655433Y-80974000D01*
X167709421Y-80974000D01*
X167586576Y-81096845D01*
X167489723Y-81241795D01*
X167423010Y-81402855D01*
X167389000Y-81573835D01*
X167389000Y-81748165D01*
X167423010Y-81919145D01*
X167474726Y-82044000D01*
X157045802Y-82044000D01*
X157441288Y-81648515D01*
X157484145Y-81639990D01*
X157645205Y-81573277D01*
X157790155Y-81476424D01*
X157913424Y-81353155D01*
X158010277Y-81208205D01*
X158076990Y-81047145D01*
X158091539Y-80974000D01*
X161921967Y-80974000D01*
X161903700Y-81065835D01*
%TD*%
M02*
