M48
; DRILL file {KiCad (5.1.6)-1} date 06/02/21 18:30:29
; FORMAT={-:-/ absolute / inch / decimal}
; #@! TF.CreationDate,2021-06-02T18:30:29+10:00
; #@! TF.GenerationSoftware,Kicad,Pcbnew,(5.1.6)-1
FMAT,2
INCH
T1C0.0098
T2C0.0236
T3C0.0295
T4C0.0335
T5C0.0394
T6C0.0591
T7C0.0669
T8C0.0748
T9C0.0394
T10C0.1260
%
G90
G05
T1
X4.2496Y-4.196
X4.355Y-3.4446
X4.418Y-3.473
X4.5192Y-3.9608
X4.5566Y-3.5015
X4.588Y-3.212
X4.588Y-3.236
X4.59Y-3.266
X4.598Y-3.422
X4.61Y-4.04
X4.635Y-3.715
X4.66Y-3.6
X4.67Y-3.84
X4.67Y-3.94
X4.704Y-3.214
X4.7059Y-4.0686
X4.706Y-3.242
X4.706Y-3.266
X4.72Y-3.495
X4.751Y-3.88
X4.803Y-3.34
X4.809Y-3.631
X4.8417Y-4.0514
X4.871Y-3.52
X4.875Y-3.92
X4.875Y-3.92
X4.875Y-3.98
X4.8751Y-3.8614
X4.885Y-3.3813
X4.885Y-4.1272
X4.919Y-3.8743
X4.925Y-3.685
X4.9343Y-3.8194
X4.935Y-3.725
X4.95Y-3.785
X4.9552Y-3.865
X4.9796Y-3.4213
X4.99Y-3.52
X4.9976Y-3.8605
X5.0093Y-3.699
X5.041Y-3.76
X5.047Y-3.86
X5.071Y-3.8385
X5.082Y-3.8665
X5.094Y-3.815
X5.1115Y-4.0004
X5.113Y-3.8365
X5.1165Y-3.79
X5.13Y-3.67
X5.13Y-3.67
X5.1415Y-3.77
X5.1435Y-3.806
X5.1847Y-3.345
X5.256Y-3.522
X5.3298Y-3.9056
X5.3351Y-3.8119
X5.34Y-3.46
X5.34Y-3.555
X5.345Y-3.855
X5.345Y-3.855
X5.3476Y-3.6565
X5.4149Y-3.7154
X5.4574Y-3.6698
X5.4698Y-3.3402
X5.4871Y-3.8475
X5.4984Y-3.8145
X5.5174Y-3.5224
X5.5197Y-3.9628
X5.5455Y-3.9532
X5.5676Y-3.6273
X5.5748Y-3.5513
X5.5925Y-3.6155
X5.6121Y-3.9315
X5.6299Y-3.9066
X5.6348Y-4.0133
X5.6555Y-3.7465
X5.6582Y-3.9789
X5.66Y-3.55
X5.66Y-3.67
X5.6759Y-4.196
X5.705Y-3.4759
X5.72Y-3.61
X5.7291Y-3.7316
X5.7544Y-3.8153
X5.79Y-3.68
X5.8359Y-3.5731
X5.8975Y-3.5315
X5.8985Y-3.2011
X5.93Y-3.45
X5.94Y-3.33
X5.9421Y-3.6884
X5.955Y-3.193
X6.01Y-3.31
X6.01Y-3.906
X6.0146Y-3.255
X6.0146Y-3.405
X6.0146Y-3.655
X6.0146Y-3.705
X6.0146Y-3.805
X6.0146Y-3.855
X6.0205Y-3.4621
X6.021Y-3.509
X6.0541Y-3.3597
X6.0718Y-4.1042
X6.082Y-3.4074
X6.095Y-3.185
X6.0989Y-3.4354
X6.1Y-3.6069
X6.1Y-3.6905
X6.1Y-3.808
X6.1Y-3.87
X6.1Y-3.87
X6.1154Y-4.0294
X6.1164Y-3.4858
X6.1371Y-4.0774
X6.152Y-3.81
X6.164Y-3.868
X6.1695Y-4.0155
X6.19Y-3.1807
X6.1994Y-3.4315
X6.2045Y-3.5282
X6.2541Y-3.5056
X6.27Y-3.38
X6.29Y-3.4298
X6.306Y-4.1767
X6.311Y-4.0065
X6.347Y-3.195
X6.3472Y-3.379
X6.371Y-4.003
X6.3746Y-3.5324
X6.409Y-3.195
X6.41Y-3.38
X6.415Y-3.3175
X6.46Y-3.62
X6.4835Y-3.5428
X6.5175Y-3.5225
X6.53Y-3.43
X6.58Y-3.3875
X6.59Y-3.49
X6.6025Y-3.605
X6.625Y-3.215
X6.7025Y-3.39
X6.7053Y-4.0157
X6.7822Y-4.0133
X6.7822Y-4.0133
X6.8538Y-4.085
X6.854Y-3.528
X6.8619Y-4.015
X6.9546Y-4.0886
X7.0505Y-3.609
X7.0515Y-3.798
X7.1825Y-4.0175
X7.2425Y-3.86
X7.26Y-3.39
X7.2663Y-4.122
X7.532Y-4.1993
X7.5521Y-4.1775
X7.666Y-3.766
X7.692Y-3.768
X7.692Y-3.79
X7.756Y-3.774
X7.78Y-3.774
X7.802Y-3.774
T3
X6.299Y-3.529
X6.299Y-3.6078
X6.299Y-3.6865
X6.299Y-3.7653
X6.299Y-3.844
T4
X4.2566Y-3.3726
X4.4534Y-3.3726
T5
X7.415Y-3.45
X7.415Y-3.55
X7.415Y-3.65
X7.415Y-3.75
X7.415Y-3.85
X6.745Y-3.24
X6.845Y-3.24
X8.0337Y-3.24
X8.0337Y-3.6731
X7.975Y-3.815
X7.975Y-3.915
X7.975Y-4.015
X7.975Y-4.115
X8.1301Y-3.8101
X8.1301Y-3.9101
X8.1301Y-4.0101
X8.1301Y-4.1101
T6
X7.724Y-4.006
T7
X7.624Y-3.906
X7.624Y-4.106
X7.824Y-3.906
X7.824Y-4.106
T8
X7.64Y-3.3581
X7.64Y-3.555
T9
X4.352Y-3.7288
X4.352Y-4.0437
T10
X5.0186Y-4.0951
X7.43Y-4.0951
X5.0186Y-3.2683
X7.43Y-3.2683
T2
G00X4.2172Y-3.2801
M15
G01X4.2172Y-3.2525
M16
G05
G00X4.4928Y-3.2525
M15
G01X4.4928Y-3.2801
M16
G05
T0
M30
