%TF.GenerationSoftware,KiCad,Pcbnew,(6.0.2)*%
%TF.CreationDate,2022-03-31T19:26:31+11:00*%
%TF.ProjectId,Liaka_V3,4c69616b-615f-4563-932e-6b696361645f,2.0*%
%TF.SameCoordinates,Original*%
%TF.FileFunction,Paste,Bot*%
%TF.FilePolarity,Positive*%
%FSLAX46Y46*%
G04 Gerber Fmt 4.6, Leading zero omitted, Abs format (unit mm)*
G04 Created by KiCad (PCBNEW (6.0.2)) date 2022-03-31 19:26:31*
%MOMM*%
%LPD*%
G01*
G04 APERTURE LIST*
G04 Aperture macros list*
%AMRoundRect*
0 Rectangle with rounded corners*
0 $1 Rounding radius*
0 $2 $3 $4 $5 $6 $7 $8 $9 X,Y pos of 4 corners*
0 Add a 4 corners polygon primitive as box body*
4,1,4,$2,$3,$4,$5,$6,$7,$8,$9,$2,$3,0*
0 Add four circle primitives for the rounded corners*
1,1,$1+$1,$2,$3*
1,1,$1+$1,$4,$5*
1,1,$1+$1,$6,$7*
1,1,$1+$1,$8,$9*
0 Add four rect primitives between the rounded corners*
20,1,$1+$1,$2,$3,$4,$5,0*
20,1,$1+$1,$4,$5,$6,$7,0*
20,1,$1+$1,$6,$7,$8,$9,0*
20,1,$1+$1,$8,$9,$2,$3,0*%
G04 Aperture macros list end*
%ADD10C,0.152400*%
%ADD11R,1.600000X0.700000*%
%ADD12R,1.500000X1.600000*%
%ADD13R,2.200000X1.200000*%
%ADD14R,1.800000X1.200000*%
%ADD15RoundRect,0.150000X0.587500X0.150000X-0.587500X0.150000X-0.587500X-0.150000X0.587500X-0.150000X0*%
%ADD16R,1.092200X0.609600*%
%ADD17R,1.250000X0.650000*%
%ADD18RoundRect,0.200000X0.200000X-0.300000X0.200000X0.300000X-0.200000X0.300000X-0.200000X-0.300000X0*%
%ADD19RoundRect,0.175000X0.575000X-0.175000X0.575000X0.175000X-0.575000X0.175000X-0.575000X-0.175000X0*%
%ADD20R,1.300000X0.599999*%
%ADD21R,2.000000X1.000000*%
%ADD22R,1.520000X0.599999*%
G04 APERTURE END LIST*
D10*
%TO.C,U2*%
X136626700Y-86598600D02*
X136626700Y-85989000D01*
X136626700Y-87239000D02*
X137718900Y-87239000D01*
X134426700Y-85348600D02*
X134426700Y-84739000D01*
X135518900Y-87848600D02*
X134426700Y-87848600D01*
X134426700Y-88489000D02*
X135518900Y-88489000D01*
X135518900Y-84739000D02*
X135518900Y-85348600D01*
X135518900Y-85348600D02*
X134426700Y-85348600D01*
X134426700Y-89098600D02*
X134426700Y-88489000D01*
X137718900Y-84739000D02*
X137718900Y-85348600D01*
X135518900Y-86598600D02*
X134426700Y-86598600D01*
X137718900Y-85989000D02*
X137718900Y-86598600D01*
X137718900Y-85348600D02*
X136626700Y-85348600D01*
X137718900Y-87239000D02*
X137718900Y-87848600D01*
X135518900Y-85989000D02*
X135518900Y-86598600D01*
X137718900Y-88489000D02*
X137718900Y-89098600D01*
X134426700Y-86598600D02*
X134426700Y-85989000D01*
X135518900Y-87239000D02*
X135518900Y-87848600D01*
X137718900Y-86598600D02*
X136626700Y-86598600D01*
X134426700Y-85989000D02*
X135518900Y-85989000D01*
X136626700Y-88489000D02*
X137718900Y-88489000D01*
X134426700Y-84739000D02*
X135518900Y-84739000D01*
X136626700Y-89098600D02*
X136626700Y-88489000D01*
X137718900Y-87848600D02*
X136626700Y-87848600D01*
X135518900Y-89098600D02*
X134426700Y-89098600D01*
X135518900Y-88489000D02*
X135518900Y-89098600D01*
X134426700Y-87848600D02*
X134426700Y-87239000D01*
X136626700Y-85348600D02*
X136626700Y-84739000D01*
X136626700Y-87848600D02*
X136626700Y-87239000D01*
X134426700Y-87239000D02*
X135518900Y-87239000D01*
X137718900Y-89098600D02*
X136626700Y-89098600D01*
X136626700Y-84739000D02*
X137718900Y-84739000D01*
X136626700Y-85989000D02*
X137718900Y-85989000D01*
%TD*%
D11*
%TO.C,J7*%
X192284000Y-92056570D03*
X192284000Y-90956570D03*
X192284000Y-89856570D03*
X192284000Y-88756570D03*
X192284000Y-87656570D03*
X192284000Y-86556570D03*
X192284000Y-85456570D03*
X192284000Y-84356570D03*
X192284000Y-83256570D03*
D12*
X193334000Y-96656570D03*
D13*
X202884000Y-97556570D03*
X202884000Y-82056570D03*
D14*
X193584000Y-82056570D03*
%TD*%
D15*
%TO.C,Q3*%
X120317500Y-87950000D03*
X120317500Y-89850000D03*
X118442500Y-88900000D03*
%TD*%
D16*
%TO.C,U2*%
X137172800Y-85043800D03*
X137172800Y-86293800D03*
X137172800Y-87543800D03*
X137172800Y-88793800D03*
X134972800Y-88793800D03*
X134972800Y-87543800D03*
X134972800Y-86293800D03*
X134972800Y-85043800D03*
%TD*%
D17*
%TO.C,IC1*%
X153584600Y-83032600D03*
X153584600Y-84302600D03*
X153584600Y-85572600D03*
X153584600Y-86842600D03*
X146084600Y-86842600D03*
X146084600Y-85572600D03*
X146084600Y-84302600D03*
X146084600Y-83032600D03*
%TD*%
D18*
%TO.C,SW1*%
X107866000Y-92905600D03*
X107966000Y-85605600D03*
X110066000Y-92905600D03*
X109966000Y-85605600D03*
D19*
X110716000Y-91505600D03*
X110716000Y-88505600D03*
X110716000Y-87005600D03*
%TD*%
D20*
%TO.C,U6*%
X123997601Y-87990799D03*
X123997601Y-89910801D03*
X122077599Y-88950799D03*
%TD*%
D21*
%TO.C,U4*%
X181126400Y-92618800D03*
X181126400Y-94618800D03*
X181126400Y-96618800D03*
X181126400Y-98618800D03*
X181126400Y-100618800D03*
X181126400Y-102618800D03*
X181126400Y-104618800D03*
X181126400Y-106618800D03*
X165126400Y-106618800D03*
X165126400Y-104618800D03*
X165126400Y-102618800D03*
X165126400Y-100618800D03*
X165126400Y-98618800D03*
X165126400Y-96618800D03*
X165126400Y-94618800D03*
X165126400Y-92618800D03*
%TD*%
D22*
%TO.C,U5*%
X123694800Y-82626200D03*
X123694800Y-83896200D03*
X123694800Y-85166200D03*
X123694800Y-86436200D03*
X118214800Y-86436200D03*
X118214800Y-85166200D03*
X118214800Y-83896200D03*
X118214800Y-82626200D03*
%TD*%
M02*
