%TF.GenerationSoftware,KiCad,Pcbnew,(6.0.2)*%
%TF.CreationDate,2022-03-31T19:26:32+11:00*%
%TF.ProjectId,Liaka_V3,4c69616b-615f-4563-932e-6b696361645f,2.0*%
%TF.SameCoordinates,Original*%
%TF.FileFunction,Legend,Bot*%
%TF.FilePolarity,Positive*%
%FSLAX46Y46*%
G04 Gerber Fmt 4.6, Leading zero omitted, Abs format (unit mm)*
G04 Created by KiCad (PCBNEW (6.0.2)) date 2022-03-31 19:26:32*
%MOMM*%
%LPD*%
G01*
G04 APERTURE LIST*
%ADD10C,0.187500*%
%ADD11C,0.300000*%
%ADD12C,0.200000*%
%ADD13C,0.100000*%
%ADD14C,0.254000*%
%ADD15C,0.150000*%
%ADD16C,0.120000*%
%ADD17C,0.152400*%
%ADD18C,0.250000*%
%ADD19C,0.249999*%
%ADD20C,0.010000*%
%ADD21C,0.599999*%
G04 APERTURE END LIST*
D10*
X153880628Y-88184485D02*
X153380628Y-88934485D01*
X153380628Y-88184485D02*
X153880628Y-88934485D01*
X153202057Y-88184485D02*
X152773485Y-88184485D01*
X152987771Y-88934485D02*
X152987771Y-88184485D01*
X152559200Y-88898771D02*
X152452057Y-88934485D01*
X152273485Y-88934485D01*
X152202057Y-88898771D01*
X152166342Y-88863057D01*
X152130628Y-88791628D01*
X152130628Y-88720200D01*
X152166342Y-88648771D01*
X152202057Y-88613057D01*
X152273485Y-88577342D01*
X152416342Y-88541628D01*
X152487771Y-88505914D01*
X152523485Y-88470200D01*
X152559200Y-88398771D01*
X152559200Y-88327342D01*
X152523485Y-88255914D01*
X152487771Y-88220200D01*
X152416342Y-88184485D01*
X152237771Y-88184485D01*
X152130628Y-88220200D01*
X151809200Y-88934485D02*
X151809200Y-88184485D01*
X151630628Y-88184485D01*
X151523485Y-88220200D01*
X151452057Y-88291628D01*
X151416342Y-88363057D01*
X151380628Y-88505914D01*
X151380628Y-88613057D01*
X151416342Y-88755914D01*
X151452057Y-88827342D01*
X151523485Y-88898771D01*
X151630628Y-88934485D01*
X151809200Y-88934485D01*
X150916342Y-88184485D02*
X150844914Y-88184485D01*
X150773485Y-88220200D01*
X150737771Y-88255914D01*
X150702057Y-88327342D01*
X150666342Y-88470200D01*
X150666342Y-88648771D01*
X150702057Y-88791628D01*
X150737771Y-88863057D01*
X150773485Y-88898771D01*
X150844914Y-88934485D01*
X150916342Y-88934485D01*
X150987771Y-88898771D01*
X151023485Y-88863057D01*
X151059200Y-88791628D01*
X151094914Y-88648771D01*
X151094914Y-88470200D01*
X151059200Y-88327342D01*
X151023485Y-88255914D01*
X150987771Y-88220200D01*
X150916342Y-88184485D01*
X150023485Y-88434485D02*
X150023485Y-88934485D01*
X150202057Y-88148771D02*
X150380628Y-88684485D01*
X149916342Y-88684485D01*
X149237771Y-88220200D02*
X149309200Y-88184485D01*
X149416342Y-88184485D01*
X149523485Y-88220200D01*
X149594914Y-88291628D01*
X149630628Y-88363057D01*
X149666342Y-88505914D01*
X149666342Y-88613057D01*
X149630628Y-88755914D01*
X149594914Y-88827342D01*
X149523485Y-88898771D01*
X149416342Y-88934485D01*
X149344914Y-88934485D01*
X149237771Y-88898771D01*
X149202057Y-88863057D01*
X149202057Y-88613057D01*
X149344914Y-88613057D01*
X148523485Y-88934485D02*
X148880628Y-88934485D01*
X148880628Y-88184485D01*
X147880628Y-88220200D02*
X147952057Y-88184485D01*
X148059200Y-88184485D01*
X148166342Y-88220200D01*
X148237771Y-88291628D01*
X148273485Y-88363057D01*
X148309200Y-88505914D01*
X148309200Y-88613057D01*
X148273485Y-88755914D01*
X148237771Y-88827342D01*
X148166342Y-88898771D01*
X148059200Y-88934485D01*
X147987771Y-88934485D01*
X147880628Y-88898771D01*
X147844914Y-88863057D01*
X147844914Y-88613057D01*
X147987771Y-88613057D01*
X147523485Y-88541628D02*
X147273485Y-88541628D01*
X147166342Y-88934485D02*
X147523485Y-88934485D01*
X147523485Y-88184485D01*
X147166342Y-88184485D01*
X146880628Y-88720200D02*
X146523485Y-88720200D01*
X146952057Y-88934485D02*
X146702057Y-88184485D01*
X146452057Y-88934485D01*
X145809200Y-88220200D02*
X145880628Y-88184485D01*
X145987771Y-88184485D01*
X146094914Y-88220200D01*
X146166342Y-88291628D01*
X146202057Y-88363057D01*
X146237771Y-88505914D01*
X146237771Y-88613057D01*
X146202057Y-88755914D01*
X146166342Y-88827342D01*
X146094914Y-88898771D01*
X145987771Y-88934485D01*
X145916342Y-88934485D01*
X145809200Y-88898771D01*
X145773485Y-88863057D01*
X145773485Y-88613057D01*
X145916342Y-88613057D01*
D11*
X109565142Y-93844371D02*
X108636571Y-93844371D01*
X109136571Y-94415800D01*
X108922285Y-94415800D01*
X108779428Y-94487228D01*
X108708000Y-94558657D01*
X108636571Y-94701514D01*
X108636571Y-95058657D01*
X108708000Y-95201514D01*
X108779428Y-95272942D01*
X108922285Y-95344371D01*
X109350857Y-95344371D01*
X109493714Y-95272942D01*
X109565142Y-95201514D01*
X108065142Y-95272942D02*
X107922285Y-95344371D01*
X107636571Y-95344371D01*
X107493714Y-95272942D01*
X107422285Y-95130085D01*
X107422285Y-95058657D01*
X107493714Y-94915800D01*
X107636571Y-94844371D01*
X107850857Y-94844371D01*
X107993714Y-94772942D01*
X108065142Y-94630085D01*
X108065142Y-94558657D01*
X107993714Y-94415800D01*
X107850857Y-94344371D01*
X107636571Y-94344371D01*
X107493714Y-94415800D01*
X164534647Y-85061561D02*
X163867980Y-87061561D01*
X163201314Y-85061561D01*
X162725123Y-85061561D02*
X161487028Y-85061561D01*
X162153695Y-85823466D01*
X161867980Y-85823466D01*
X161677504Y-85918704D01*
X161582266Y-86013942D01*
X161487028Y-86204419D01*
X161487028Y-86680609D01*
X161582266Y-86871085D01*
X161677504Y-86966323D01*
X161867980Y-87061561D01*
X162439409Y-87061561D01*
X162629885Y-86966323D01*
X162725123Y-86871085D01*
D12*
X138832885Y-83434180D02*
X138832885Y-82434180D01*
X138499552Y-83148466D01*
X138166219Y-82434180D01*
X138166219Y-83434180D01*
X137737647Y-83386561D02*
X137594790Y-83434180D01*
X137356695Y-83434180D01*
X137261457Y-83386561D01*
X137213838Y-83338942D01*
X137166219Y-83243704D01*
X137166219Y-83148466D01*
X137213838Y-83053228D01*
X137261457Y-83005609D01*
X137356695Y-82957990D01*
X137547171Y-82910371D01*
X137642409Y-82862752D01*
X137690028Y-82815133D01*
X137737647Y-82719895D01*
X137737647Y-82624657D01*
X137690028Y-82529419D01*
X137642409Y-82481800D01*
X137547171Y-82434180D01*
X137309076Y-82434180D01*
X137166219Y-82481800D01*
X136261457Y-82434180D02*
X136737647Y-82434180D01*
X136785266Y-82910371D01*
X136737647Y-82862752D01*
X136642409Y-82815133D01*
X136404314Y-82815133D01*
X136309076Y-82862752D01*
X136261457Y-82910371D01*
X136213838Y-83005609D01*
X136213838Y-83243704D01*
X136261457Y-83338942D01*
X136309076Y-83386561D01*
X136404314Y-83434180D01*
X136642409Y-83434180D01*
X136737647Y-83386561D01*
X136785266Y-83338942D01*
X135356695Y-82434180D02*
X135547171Y-82434180D01*
X135642409Y-82481800D01*
X135690028Y-82529419D01*
X135785266Y-82672276D01*
X135832885Y-82862752D01*
X135832885Y-83243704D01*
X135785266Y-83338942D01*
X135737647Y-83386561D01*
X135642409Y-83434180D01*
X135451933Y-83434180D01*
X135356695Y-83386561D01*
X135309076Y-83338942D01*
X135261457Y-83243704D01*
X135261457Y-83005609D01*
X135309076Y-82910371D01*
X135356695Y-82862752D01*
X135451933Y-82815133D01*
X135642409Y-82815133D01*
X135737647Y-82862752D01*
X135785266Y-82910371D01*
X135832885Y-83005609D01*
X134309076Y-83434180D02*
X134880504Y-83434180D01*
X134594790Y-83434180D02*
X134594790Y-82434180D01*
X134690028Y-82577038D01*
X134785266Y-82672276D01*
X134880504Y-82719895D01*
X133356695Y-83434180D02*
X133928123Y-83434180D01*
X133642409Y-83434180D02*
X133642409Y-82434180D01*
X133737647Y-82577038D01*
X133832885Y-82672276D01*
X133928123Y-82719895D01*
D13*
X182170504Y-88979180D02*
X182170504Y-87979180D01*
X181932409Y-87979180D01*
X181789552Y-88026800D01*
X181694314Y-88122038D01*
X181646695Y-88217276D01*
X181599076Y-88407752D01*
X181599076Y-88550609D01*
X181646695Y-88741085D01*
X181694314Y-88836323D01*
X181789552Y-88931561D01*
X181932409Y-88979180D01*
X182170504Y-88979180D01*
X180789552Y-88931561D02*
X180884790Y-88979180D01*
X181075266Y-88979180D01*
X181170504Y-88931561D01*
X181218123Y-88836323D01*
X181218123Y-88455371D01*
X181170504Y-88360133D01*
X181075266Y-88312514D01*
X180884790Y-88312514D01*
X180789552Y-88360133D01*
X180741933Y-88455371D01*
X180741933Y-88550609D01*
X181218123Y-88645847D01*
X180360980Y-88931561D02*
X180265742Y-88979180D01*
X180075266Y-88979180D01*
X179980028Y-88931561D01*
X179932409Y-88836323D01*
X179932409Y-88788704D01*
X179980028Y-88693466D01*
X180075266Y-88645847D01*
X180218123Y-88645847D01*
X180313361Y-88598228D01*
X180360980Y-88502990D01*
X180360980Y-88455371D01*
X180313361Y-88360133D01*
X180218123Y-88312514D01*
X180075266Y-88312514D01*
X179980028Y-88360133D01*
X179503838Y-88979180D02*
X179503838Y-88312514D01*
X179503838Y-87979180D02*
X179551457Y-88026800D01*
X179503838Y-88074419D01*
X179456219Y-88026800D01*
X179503838Y-87979180D01*
X179503838Y-88074419D01*
X178599076Y-88312514D02*
X178599076Y-89122038D01*
X178646695Y-89217276D01*
X178694314Y-89264895D01*
X178789552Y-89312514D01*
X178932409Y-89312514D01*
X179027647Y-89264895D01*
X178599076Y-88931561D02*
X178694314Y-88979180D01*
X178884790Y-88979180D01*
X178980028Y-88931561D01*
X179027647Y-88883942D01*
X179075266Y-88788704D01*
X179075266Y-88502990D01*
X179027647Y-88407752D01*
X178980028Y-88360133D01*
X178884790Y-88312514D01*
X178694314Y-88312514D01*
X178599076Y-88360133D01*
X178122885Y-88312514D02*
X178122885Y-88979180D01*
X178122885Y-88407752D02*
X178075266Y-88360133D01*
X177980028Y-88312514D01*
X177837171Y-88312514D01*
X177741933Y-88360133D01*
X177694314Y-88455371D01*
X177694314Y-88979180D01*
X176837171Y-88931561D02*
X176932409Y-88979180D01*
X177122885Y-88979180D01*
X177218123Y-88931561D01*
X177265742Y-88836323D01*
X177265742Y-88455371D01*
X177218123Y-88360133D01*
X177122885Y-88312514D01*
X176932409Y-88312514D01*
X176837171Y-88360133D01*
X176789552Y-88455371D01*
X176789552Y-88550609D01*
X177265742Y-88645847D01*
X175932409Y-88979180D02*
X175932409Y-87979180D01*
X175932409Y-88931561D02*
X176027647Y-88979180D01*
X176218123Y-88979180D01*
X176313361Y-88931561D01*
X176360980Y-88883942D01*
X176408600Y-88788704D01*
X176408600Y-88502990D01*
X176360980Y-88407752D01*
X176313361Y-88360133D01*
X176218123Y-88312514D01*
X176027647Y-88312514D01*
X175932409Y-88360133D01*
X174694314Y-88979180D02*
X174694314Y-87979180D01*
X174694314Y-88360133D02*
X174599076Y-88312514D01*
X174408600Y-88312514D01*
X174313361Y-88360133D01*
X174265742Y-88407752D01*
X174218123Y-88502990D01*
X174218123Y-88788704D01*
X174265742Y-88883942D01*
X174313361Y-88931561D01*
X174408600Y-88979180D01*
X174599076Y-88979180D01*
X174694314Y-88931561D01*
X173884790Y-88312514D02*
X173646695Y-88979180D01*
X173408600Y-88312514D02*
X173646695Y-88979180D01*
X173741933Y-89217276D01*
X173789552Y-89264895D01*
X173884790Y-89312514D01*
X172313361Y-88693466D02*
X171837171Y-88693466D01*
X172408600Y-88979180D02*
X172075266Y-87979180D01*
X171741933Y-88979180D01*
X171408600Y-88312514D02*
X171408600Y-88979180D01*
X171408600Y-88407752D02*
X171360980Y-88360133D01*
X171265742Y-88312514D01*
X171122885Y-88312514D01*
X171027647Y-88360133D01*
X170980028Y-88455371D01*
X170980028Y-88979180D01*
X170075266Y-88312514D02*
X170075266Y-89122038D01*
X170122885Y-89217276D01*
X170170504Y-89264895D01*
X170265742Y-89312514D01*
X170408600Y-89312514D01*
X170503838Y-89264895D01*
X170075266Y-88931561D02*
X170170504Y-88979180D01*
X170360980Y-88979180D01*
X170456219Y-88931561D01*
X170503838Y-88883942D01*
X170551457Y-88788704D01*
X170551457Y-88502990D01*
X170503838Y-88407752D01*
X170456219Y-88360133D01*
X170360980Y-88312514D01*
X170170504Y-88312514D01*
X170075266Y-88360133D01*
X169170504Y-88312514D02*
X169170504Y-88979180D01*
X169599076Y-88312514D02*
X169599076Y-88836323D01*
X169551457Y-88931561D01*
X169456219Y-88979180D01*
X169313361Y-88979180D01*
X169218123Y-88931561D01*
X169170504Y-88883942D01*
X168741933Y-88931561D02*
X168646695Y-88979180D01*
X168456219Y-88979180D01*
X168360980Y-88931561D01*
X168313361Y-88836323D01*
X168313361Y-88788704D01*
X168360980Y-88693466D01*
X168456219Y-88645847D01*
X168599076Y-88645847D01*
X168694314Y-88598228D01*
X168741933Y-88502990D01*
X168741933Y-88455371D01*
X168694314Y-88360133D01*
X168599076Y-88312514D01*
X168456219Y-88312514D01*
X168360980Y-88360133D01*
X167122885Y-88979180D02*
X167122885Y-87979180D01*
X166789552Y-88693466D01*
X166456219Y-87979180D01*
X166456219Y-88979180D01*
X165551457Y-88931561D02*
X165646695Y-88979180D01*
X165837171Y-88979180D01*
X165932409Y-88931561D01*
X165980028Y-88883942D01*
X166027647Y-88788704D01*
X166027647Y-88502990D01*
X165980028Y-88407752D01*
X165932409Y-88360133D01*
X165837171Y-88312514D01*
X165646695Y-88312514D01*
X165551457Y-88360133D01*
X164646695Y-88979180D02*
X165122885Y-88979180D01*
X165122885Y-87979180D01*
X163932409Y-88931561D02*
X164027647Y-88979180D01*
X164218123Y-88979180D01*
X164313361Y-88931561D01*
X164360980Y-88836323D01*
X164360980Y-88455371D01*
X164313361Y-88360133D01*
X164218123Y-88312514D01*
X164027647Y-88312514D01*
X163932409Y-88360133D01*
X163884790Y-88455371D01*
X163884790Y-88550609D01*
X164360980Y-88645847D01*
X163456219Y-88312514D02*
X163456219Y-88979180D01*
X163456219Y-88407752D02*
X163408600Y-88360133D01*
X163313361Y-88312514D01*
X163170504Y-88312514D01*
X163075266Y-88360133D01*
X163027647Y-88455371D01*
X163027647Y-88979180D01*
X162551457Y-88312514D02*
X162551457Y-88979180D01*
X162551457Y-88407752D02*
X162503838Y-88360133D01*
X162408600Y-88312514D01*
X162265742Y-88312514D01*
X162170504Y-88360133D01*
X162122885Y-88455371D01*
X162122885Y-88979180D01*
X161218123Y-88979180D02*
X161218123Y-88455371D01*
X161265742Y-88360133D01*
X161360980Y-88312514D01*
X161551457Y-88312514D01*
X161646695Y-88360133D01*
X161218123Y-88931561D02*
X161313361Y-88979180D01*
X161551457Y-88979180D01*
X161646695Y-88931561D01*
X161694314Y-88836323D01*
X161694314Y-88741085D01*
X161646695Y-88645847D01*
X161551457Y-88598228D01*
X161313361Y-88598228D01*
X161218123Y-88550609D01*
X160741933Y-88312514D02*
X160741933Y-88979180D01*
X160741933Y-88407752D02*
X160694314Y-88360133D01*
X160599076Y-88312514D01*
X160456219Y-88312514D01*
X160360980Y-88360133D01*
X160313361Y-88455371D01*
X160313361Y-88979180D01*
X182170504Y-90589180D02*
X182170504Y-89589180D01*
X181837171Y-90303466D01*
X181503838Y-89589180D01*
X181503838Y-90589180D01*
X180599076Y-90589180D02*
X180599076Y-90065371D01*
X180646695Y-89970133D01*
X180741933Y-89922514D01*
X180932409Y-89922514D01*
X181027647Y-89970133D01*
X180599076Y-90541561D02*
X180694314Y-90589180D01*
X180932409Y-90589180D01*
X181027647Y-90541561D01*
X181075266Y-90446323D01*
X181075266Y-90351085D01*
X181027647Y-90255847D01*
X180932409Y-90208228D01*
X180694314Y-90208228D01*
X180599076Y-90160609D01*
X180122885Y-90589180D02*
X180122885Y-89922514D01*
X180122885Y-90112990D02*
X180075266Y-90017752D01*
X180027647Y-89970133D01*
X179932409Y-89922514D01*
X179837171Y-89922514D01*
X179075266Y-90541561D02*
X179170504Y-90589180D01*
X179360980Y-90589180D01*
X179456219Y-90541561D01*
X179503838Y-90493942D01*
X179551457Y-90398704D01*
X179551457Y-90112990D01*
X179503838Y-90017752D01*
X179456219Y-89970133D01*
X179360980Y-89922514D01*
X179170504Y-89922514D01*
X179075266Y-89970133D01*
X178646695Y-90589180D02*
X178646695Y-89589180D01*
X178218123Y-90589180D02*
X178218123Y-90065371D01*
X178265742Y-89970133D01*
X178360980Y-89922514D01*
X178503838Y-89922514D01*
X178599076Y-89970133D01*
X178646695Y-90017752D01*
X177027647Y-89684419D02*
X176980028Y-89636800D01*
X176884790Y-89589180D01*
X176646695Y-89589180D01*
X176551457Y-89636800D01*
X176503838Y-89684419D01*
X176456219Y-89779657D01*
X176456219Y-89874895D01*
X176503838Y-90017752D01*
X177075266Y-90589180D01*
X176456219Y-90589180D01*
X175837171Y-89589180D02*
X175741933Y-89589180D01*
X175646695Y-89636800D01*
X175599076Y-89684419D01*
X175551457Y-89779657D01*
X175503838Y-89970133D01*
X175503838Y-90208228D01*
X175551457Y-90398704D01*
X175599076Y-90493942D01*
X175646695Y-90541561D01*
X175741933Y-90589180D01*
X175837171Y-90589180D01*
X175932409Y-90541561D01*
X175980028Y-90493942D01*
X176027647Y-90398704D01*
X176075266Y-90208228D01*
X176075266Y-89970133D01*
X176027647Y-89779657D01*
X175980028Y-89684419D01*
X175932409Y-89636800D01*
X175837171Y-89589180D01*
X175122885Y-89684419D02*
X175075266Y-89636800D01*
X174980028Y-89589180D01*
X174741933Y-89589180D01*
X174646695Y-89636800D01*
X174599076Y-89684419D01*
X174551457Y-89779657D01*
X174551457Y-89874895D01*
X174599076Y-90017752D01*
X175170504Y-90589180D01*
X174551457Y-90589180D01*
X174170504Y-89684419D02*
X174122885Y-89636800D01*
X174027647Y-89589180D01*
X173789552Y-89589180D01*
X173694314Y-89636800D01*
X173646695Y-89684419D01*
X173599076Y-89779657D01*
X173599076Y-89874895D01*
X173646695Y-90017752D01*
X174218123Y-90589180D01*
X173599076Y-90589180D01*
D11*
X109544514Y-83268428D02*
X109473085Y-83197000D01*
X109330228Y-83125571D01*
X108973085Y-83125571D01*
X108830228Y-83197000D01*
X108758800Y-83268428D01*
X108687371Y-83411285D01*
X108687371Y-83554142D01*
X108758800Y-83768428D01*
X109615942Y-84625571D01*
X108687371Y-84625571D01*
X108115942Y-84554142D02*
X107973085Y-84625571D01*
X107687371Y-84625571D01*
X107544514Y-84554142D01*
X107473085Y-84411285D01*
X107473085Y-84339857D01*
X107544514Y-84197000D01*
X107687371Y-84125571D01*
X107901657Y-84125571D01*
X108044514Y-84054142D01*
X108115942Y-83911285D01*
X108115942Y-83839857D01*
X108044514Y-83697000D01*
X107901657Y-83625571D01*
X107687371Y-83625571D01*
X107544514Y-83697000D01*
D14*
%TO.C,J7*%
X197988523Y-89383236D02*
X198895666Y-89383236D01*
X199077095Y-89322760D01*
X199198047Y-89201808D01*
X199258523Y-89020379D01*
X199258523Y-88899427D01*
X197988523Y-89867046D02*
X197988523Y-90713712D01*
X199258523Y-90169427D01*
D15*
%TO.C,Q3*%
X119602238Y-89447619D02*
X119697476Y-89400000D01*
X119792714Y-89304761D01*
X119935571Y-89161904D01*
X120030809Y-89114285D01*
X120126047Y-89114285D01*
X120078428Y-89352380D02*
X120173666Y-89304761D01*
X120268904Y-89209523D01*
X120316523Y-89019047D01*
X120316523Y-88685714D01*
X120268904Y-88495238D01*
X120173666Y-88400000D01*
X120078428Y-88352380D01*
X119887952Y-88352380D01*
X119792714Y-88400000D01*
X119697476Y-88495238D01*
X119649857Y-88685714D01*
X119649857Y-89019047D01*
X119697476Y-89209523D01*
X119792714Y-89304761D01*
X119887952Y-89352380D01*
X120078428Y-89352380D01*
X119316523Y-88352380D02*
X118697476Y-88352380D01*
X119030809Y-88733333D01*
X118887952Y-88733333D01*
X118792714Y-88780952D01*
X118745095Y-88828571D01*
X118697476Y-88923809D01*
X118697476Y-89161904D01*
X118745095Y-89257142D01*
X118792714Y-89304761D01*
X118887952Y-89352380D01*
X119173666Y-89352380D01*
X119268904Y-89304761D01*
X119316523Y-89257142D01*
%TO.C,U2*%
X136834704Y-86371180D02*
X136834704Y-87180704D01*
X136787085Y-87275942D01*
X136739466Y-87323561D01*
X136644228Y-87371180D01*
X136453752Y-87371180D01*
X136358514Y-87323561D01*
X136310895Y-87275942D01*
X136263276Y-87180704D01*
X136263276Y-86371180D01*
X135834704Y-86466419D02*
X135787085Y-86418800D01*
X135691847Y-86371180D01*
X135453752Y-86371180D01*
X135358514Y-86418800D01*
X135310895Y-86466419D01*
X135263276Y-86561657D01*
X135263276Y-86656895D01*
X135310895Y-86799752D01*
X135882323Y-87371180D01*
X135263276Y-87371180D01*
D14*
%TO.C,IC1*%
X151074361Y-85512123D02*
X151074361Y-84242123D01*
X149743885Y-85391171D02*
X149804361Y-85451647D01*
X149985790Y-85512123D01*
X150106742Y-85512123D01*
X150288171Y-85451647D01*
X150409123Y-85330695D01*
X150469600Y-85209742D01*
X150530076Y-84967838D01*
X150530076Y-84786409D01*
X150469600Y-84544504D01*
X150409123Y-84423552D01*
X150288171Y-84302600D01*
X150106742Y-84242123D01*
X149985790Y-84242123D01*
X149804361Y-84302600D01*
X149743885Y-84363076D01*
X148534361Y-85512123D02*
X149260076Y-85512123D01*
X148897219Y-85512123D02*
X148897219Y-84242123D01*
X149018171Y-84423552D01*
X149139123Y-84544504D01*
X149260076Y-84604980D01*
D15*
%TO.C,SW1*%
X111787038Y-90665133D02*
X111739419Y-90522276D01*
X111739419Y-90284180D01*
X111787038Y-90188942D01*
X111834657Y-90141323D01*
X111929895Y-90093704D01*
X112025133Y-90093704D01*
X112120371Y-90141323D01*
X112167990Y-90188942D01*
X112215609Y-90284180D01*
X112263228Y-90474657D01*
X112310847Y-90569895D01*
X112358466Y-90617514D01*
X112453704Y-90665133D01*
X112548942Y-90665133D01*
X112644180Y-90617514D01*
X112691800Y-90569895D01*
X112739419Y-90474657D01*
X112739419Y-90236561D01*
X112691800Y-90093704D01*
X112739419Y-89760371D02*
X111739419Y-89522276D01*
X112453704Y-89331800D01*
X111739419Y-89141323D01*
X112739419Y-88903228D01*
X111739419Y-87998466D02*
X111739419Y-88569895D01*
X111739419Y-88284180D02*
X112739419Y-88284180D01*
X112596561Y-88379419D01*
X112501323Y-88474657D01*
X112453704Y-88569895D01*
%TO.C,U6*%
X123743404Y-88352380D02*
X123743404Y-89161904D01*
X123695785Y-89257142D01*
X123648166Y-89304761D01*
X123552928Y-89352380D01*
X123362452Y-89352380D01*
X123267214Y-89304761D01*
X123219595Y-89257142D01*
X123171976Y-89161904D01*
X123171976Y-88352380D01*
X122267214Y-88352380D02*
X122457690Y-88352380D01*
X122552928Y-88400000D01*
X122600547Y-88447619D01*
X122695785Y-88590476D01*
X122743404Y-88780952D01*
X122743404Y-89161904D01*
X122695785Y-89257142D01*
X122648166Y-89304761D01*
X122552928Y-89352380D01*
X122362452Y-89352380D01*
X122267214Y-89304761D01*
X122219595Y-89257142D01*
X122171976Y-89161904D01*
X122171976Y-88923809D01*
X122219595Y-88828571D01*
X122267214Y-88780952D01*
X122362452Y-88733333D01*
X122552928Y-88733333D01*
X122648166Y-88780952D01*
X122695785Y-88828571D01*
X122743404Y-88923809D01*
%TO.C,U4*%
X173761304Y-92086180D02*
X173761304Y-92895704D01*
X173713685Y-92990942D01*
X173666066Y-93038561D01*
X173570828Y-93086180D01*
X173380352Y-93086180D01*
X173285114Y-93038561D01*
X173237495Y-92990942D01*
X173189876Y-92895704D01*
X173189876Y-92086180D01*
X172285114Y-92419514D02*
X172285114Y-93086180D01*
X172523209Y-92038561D02*
X172761304Y-92752847D01*
X172142257Y-92752847D01*
%TO.C,U5*%
X121000204Y-82789780D02*
X121000204Y-83599304D01*
X120952585Y-83694542D01*
X120904966Y-83742161D01*
X120809728Y-83789780D01*
X120619252Y-83789780D01*
X120524014Y-83742161D01*
X120476395Y-83694542D01*
X120428776Y-83599304D01*
X120428776Y-82789780D01*
X119476395Y-82789780D02*
X119952585Y-82789780D01*
X120000204Y-83265971D01*
X119952585Y-83218352D01*
X119857347Y-83170733D01*
X119619252Y-83170733D01*
X119524014Y-83218352D01*
X119476395Y-83265971D01*
X119428776Y-83361209D01*
X119428776Y-83599304D01*
X119476395Y-83694542D01*
X119524014Y-83742161D01*
X119619252Y-83789780D01*
X119857347Y-83789780D01*
X119952585Y-83742161D01*
X120000204Y-83694542D01*
X123101704Y-85105723D02*
X123706466Y-85105723D01*
X123706466Y-83835723D01*
X122678371Y-85105723D02*
X122678371Y-83835723D01*
X122255038Y-84742866D01*
X121831704Y-83835723D01*
X121831704Y-85105723D01*
X121347895Y-83835723D02*
X120561704Y-83835723D01*
X120985038Y-84319533D01*
X120803609Y-84319533D01*
X120682657Y-84380009D01*
X120622180Y-84440485D01*
X120561704Y-84561438D01*
X120561704Y-84863819D01*
X120622180Y-84984771D01*
X120682657Y-85045247D01*
X120803609Y-85105723D01*
X121166466Y-85105723D01*
X121287419Y-85045247D01*
X121347895Y-84984771D01*
X119956942Y-85105723D02*
X119715038Y-85105723D01*
X119594085Y-85045247D01*
X119533609Y-84984771D01*
X119412657Y-84803342D01*
X119352180Y-84561438D01*
X119352180Y-84077628D01*
X119412657Y-83956676D01*
X119473133Y-83896200D01*
X119594085Y-83835723D01*
X119835990Y-83835723D01*
X119956942Y-83896200D01*
X120017419Y-83956676D01*
X120077895Y-84077628D01*
X120077895Y-84380009D01*
X120017419Y-84500961D01*
X119956942Y-84561438D01*
X119835990Y-84621914D01*
X119594085Y-84621914D01*
X119473133Y-84561438D01*
X119412657Y-84500961D01*
X119352180Y-84380009D01*
X118928847Y-83835723D02*
X118142657Y-83835723D01*
X118565990Y-84319533D01*
X118384561Y-84319533D01*
X118263609Y-84380009D01*
X118203133Y-84440485D01*
X118142657Y-84561438D01*
X118142657Y-84863819D01*
X118203133Y-84984771D01*
X118263609Y-85045247D01*
X118384561Y-85105723D01*
X118747419Y-85105723D01*
X118868371Y-85045247D01*
X118928847Y-84984771D01*
D13*
%TO.C,J7*%
X204784000Y-82656570D02*
X207284000Y-82656570D01*
X207284000Y-82656570D02*
X207284000Y-82656570D01*
X205034000Y-97406570D02*
X205034000Y-97406570D01*
X207284000Y-97406570D02*
X205034000Y-97406570D01*
X195534000Y-82656570D02*
X195534000Y-82656570D01*
X195284000Y-97406570D02*
X195284000Y-97406570D01*
X200784000Y-97406570D02*
X200784000Y-97406570D01*
X207284000Y-82656570D02*
X204784000Y-82656570D01*
X205034000Y-97406570D02*
X207284000Y-97406570D01*
D12*
X190134000Y-92031570D02*
X190134000Y-92031570D01*
X190134000Y-91931570D02*
X190134000Y-91931570D01*
D13*
X192784000Y-93281570D02*
X192784000Y-95031570D01*
X200784000Y-97406570D02*
X195284000Y-97406570D01*
X200784000Y-82656570D02*
X195534000Y-82656570D01*
X192784000Y-93281570D02*
X192784000Y-93281570D01*
X200784000Y-82656570D02*
X200784000Y-82656570D01*
X192784000Y-95031570D02*
X192784000Y-93281570D01*
X207284000Y-82656570D02*
X207284000Y-97406570D01*
X207284000Y-97406570D02*
X207284000Y-97406570D01*
X207284000Y-97406570D02*
X207284000Y-82656570D01*
X207284000Y-82656570D02*
X207284000Y-82656570D01*
X195284000Y-97406570D02*
X200784000Y-97406570D01*
X207284000Y-97406570D02*
X207284000Y-97406570D01*
X195534000Y-82656570D02*
X200784000Y-82656570D01*
D12*
X190134000Y-91931570D02*
X190134000Y-91931570D01*
D13*
X192784000Y-95031570D02*
X192784000Y-95031570D01*
X204784000Y-82656570D02*
X204784000Y-82656570D01*
D16*
X207273000Y-83666570D02*
X209784000Y-83666570D01*
X209784000Y-83666570D02*
X209784000Y-94396570D01*
X209784000Y-94396570D02*
X207273000Y-94396570D01*
X207273000Y-94396570D02*
X207273000Y-83666570D01*
D12*
X190134000Y-91931570D02*
G75*
G03*
X190134000Y-92031570I0J-50000D01*
G01*
X190134000Y-92031570D02*
G75*
G03*
X190134000Y-91931570I0J50000D01*
G01*
X190134000Y-92031570D02*
G75*
G03*
X190134000Y-91931570I0J50000D01*
G01*
%TO.C,H6*%
X171068145Y-85499130D02*
X170629473Y-86314761D01*
X177915957Y-83792444D02*
X178019359Y-83866855D01*
X174340800Y-82433200D02*
X174340800Y-82833200D01*
X181340800Y-84183200D02*
X181340800Y-82033200D01*
X173940800Y-82033200D02*
X174340800Y-82033200D01*
X171640800Y-87133200D02*
X171638110Y-86658200D01*
X174340800Y-87133200D02*
X173940800Y-87133200D01*
X173940800Y-82833200D02*
X173540800Y-82833200D01*
X173940800Y-87133200D02*
X173540800Y-87133200D01*
X181340800Y-86333200D02*
X181340800Y-84183200D01*
X172540800Y-84583200D02*
X172540800Y-87133200D01*
X169793323Y-86160007D02*
X169934453Y-85920855D01*
X170976532Y-84298039D02*
X171640800Y-85162878D01*
X182140800Y-87133200D02*
X180440800Y-87133200D01*
X169345950Y-86897782D02*
X169688385Y-86333200D01*
X173540800Y-82433200D02*
X173540800Y-82033200D01*
X166890858Y-86992434D02*
X166745927Y-86901623D01*
X168515957Y-83792444D02*
X168619359Y-83866855D01*
X174340800Y-82033200D02*
X174340800Y-82433200D01*
X169709465Y-83436202D02*
X169876532Y-83433200D01*
X177615800Y-83630508D02*
X177778627Y-83710773D01*
X169990838Y-84187686D02*
X169779999Y-83927454D01*
X182140800Y-84583200D02*
X182140800Y-87133200D01*
X177793732Y-84230446D02*
X177655985Y-84349218D01*
X169602374Y-83701510D02*
X169450536Y-83503715D01*
X180440800Y-87133200D02*
X178740800Y-87133200D01*
X171640800Y-83598039D02*
X171640800Y-82033200D01*
X166290800Y-87133200D02*
X165940800Y-87133200D01*
X173540800Y-83433200D02*
X173940800Y-83433200D01*
X168215800Y-83630508D02*
X168378627Y-83710773D01*
X181740800Y-82033200D02*
X182140800Y-82033200D01*
X175340800Y-85723630D02*
X175347780Y-84984789D01*
X172540800Y-87133200D02*
X172090800Y-87133200D01*
X173540800Y-85283200D02*
X173540800Y-83433200D01*
X170540876Y-84858723D02*
X169990838Y-84187686D01*
X169779999Y-83927454D02*
X169602374Y-83701510D01*
X174340800Y-83433200D02*
X174340800Y-85283200D01*
X174340800Y-85283200D02*
X174340800Y-87133200D01*
X168393732Y-84230446D02*
X168255985Y-84349218D01*
X169688385Y-86333200D02*
X169793323Y-86160007D01*
X181340800Y-82033200D02*
X181740800Y-82033200D01*
X170541428Y-83743467D02*
X170976532Y-84298039D01*
X173540800Y-87133200D02*
X173540800Y-85283200D01*
X171640800Y-85162878D02*
X171640800Y-83598039D01*
X173940800Y-83433200D02*
X174340800Y-83433200D01*
X177888339Y-84135168D02*
X177793732Y-84230446D01*
X170190800Y-87130393D02*
X169712282Y-87131797D01*
X170085005Y-85661858D02*
X170222660Y-85420962D01*
X174340800Y-82833200D02*
X173940800Y-82833200D01*
X169568797Y-83445457D02*
X169709465Y-83436202D01*
X182140800Y-82033200D02*
X182140800Y-84583200D01*
X178740800Y-86333200D02*
X180040800Y-86333200D01*
X165947780Y-84984789D02*
X165973671Y-84539586D01*
X176290858Y-86992434D02*
X176145927Y-86901623D01*
X171640800Y-82033200D02*
X172090800Y-82033200D01*
X176692944Y-85633200D02*
X176261289Y-85638260D01*
X172090800Y-82033200D02*
X172540800Y-82033200D01*
X173540800Y-82833200D02*
X173540800Y-82433200D01*
X169934453Y-85920855D02*
X170085005Y-85661858D01*
X178026862Y-83958056D02*
X177968224Y-84040829D01*
X171351783Y-85841165D02*
X171068145Y-85499130D01*
X180040800Y-86333200D02*
X181340800Y-86333200D01*
X167687266Y-85640284D02*
X167292944Y-85633200D01*
X167292944Y-85633200D02*
X166861289Y-85638260D01*
X172090800Y-87133200D02*
X171640800Y-87133200D01*
X175347780Y-84984789D02*
X175373671Y-84539586D01*
X170629473Y-86314761D02*
X170190800Y-87130393D01*
X170222660Y-85420962D02*
X170540876Y-84858723D01*
X168488339Y-84135168D02*
X168393732Y-84230446D01*
X169455415Y-83458279D02*
X169568797Y-83445457D01*
X178740800Y-86733200D02*
X178740800Y-86333200D01*
X177087266Y-85640284D02*
X176692944Y-85633200D01*
X173540800Y-82033200D02*
X173940800Y-82033200D01*
X165940800Y-85723630D02*
X165947780Y-84984789D01*
X178740800Y-87133200D02*
X178740800Y-86733200D01*
X172540800Y-82033200D02*
X172540800Y-84583200D01*
X175690800Y-87133200D02*
X175340800Y-87133200D01*
X175340800Y-87133200D02*
X175340800Y-85723630D01*
X168626862Y-83958056D02*
X168568224Y-84040829D01*
X165940800Y-87133200D02*
X165940800Y-85723630D01*
X168515956Y-83792444D02*
G75*
G03*
X168378627Y-83710773I-943585J-1430334D01*
G01*
X176122457Y-85669230D02*
G75*
G03*
X176059498Y-85746402I44315J-100422D01*
G01*
X176389403Y-83477528D02*
G75*
G03*
X175859078Y-83679691I307304J-1602806D01*
G01*
X168071781Y-86234585D02*
G75*
G03*
X168122849Y-86146103I-142854J141427D01*
G01*
X178188722Y-85604343D02*
G75*
G03*
X178065800Y-85339344I-587901J-111696D01*
G01*
X176083741Y-86882879D02*
G75*
G03*
X176051394Y-86906055I-1483J-32092D01*
G01*
X176051393Y-86906055D02*
G75*
G03*
X176040800Y-86980895I259039J-74835D01*
G01*
X176145927Y-86901623D02*
G75*
G03*
X176083740Y-86882878I-68317J-114116D01*
G01*
X167972844Y-85747920D02*
G75*
G03*
X167864456Y-85672806I-185347J-151694D01*
G01*
X168122850Y-86146103D02*
G75*
G03*
X168121690Y-86047838I-172538J47104D01*
G01*
X166653579Y-84679826D02*
G75*
G03*
X166657823Y-84826849I122575J-70034D01*
G01*
X176193379Y-86321071D02*
G75*
G03*
X176396948Y-86433332I366831J424492D01*
G01*
X167664106Y-86498483D02*
G75*
G03*
X167801443Y-86446375I-128519J545765D01*
G01*
X177393018Y-84335041D02*
G75*
G03*
X177483692Y-84389516I223502J269319D01*
G01*
X176053579Y-84679826D02*
G75*
G03*
X176057823Y-84826849I122575J-70034D01*
G01*
X176080099Y-86154085D02*
G75*
G03*
X176193379Y-86321071I367889J127652D01*
G01*
X166944958Y-84306925D02*
G75*
G03*
X166830806Y-84420710I475905J-591592D01*
G01*
X175690801Y-87133200D02*
G75*
G03*
X175852476Y-87125013I2J1600410D01*
G01*
X171638110Y-86658201D02*
G75*
G03*
X171622613Y-86405866I-2271299J-12847D01*
G01*
X166830806Y-84420710D02*
G75*
G03*
X166653580Y-84679826I1511884J-1224240D01*
G01*
X176396948Y-86433332D02*
G75*
G03*
X176713425Y-86502211I582657J1915628D01*
G01*
X169455415Y-83458279D02*
G75*
G03*
X169440800Y-83474925I2171J-16645D01*
G01*
X167859213Y-87144490D02*
G75*
G03*
X168376656Y-87001867I-277264J2015893D01*
G01*
X176290857Y-86992433D02*
G75*
G03*
X176713288Y-87147765I546424J833945D01*
G01*
X168121690Y-86047838D02*
G75*
G03*
X168064348Y-85894948I-1139659J-340236D01*
G01*
X166558350Y-87097321D02*
G75*
G03*
X166618410Y-87049312I-58810J135144D01*
G01*
X177464348Y-85894947D02*
G75*
G03*
X177372843Y-85747920I-611680J-278702D01*
G01*
X168488338Y-84135168D02*
G75*
G03*
X168568224Y-84040829I-1019943J944678D01*
G01*
X178218487Y-86482345D02*
G75*
G03*
X178237478Y-86043510I-2848785J343112D01*
G01*
X177259213Y-87144490D02*
G75*
G03*
X177776656Y-87001867I-277264J2015893D01*
G01*
X178237478Y-86043510D02*
G75*
G03*
X178188724Y-85604342I-2863475J-95597D01*
G01*
X168640800Y-83910880D02*
G75*
G03*
X168619359Y-83866855I-55918J0D01*
G01*
X176018410Y-87049312D02*
G75*
G03*
X176040800Y-86980895I-93337J68417D01*
G01*
X168164235Y-84394918D02*
G75*
G03*
X168255985Y-84349218I-63030J241493D01*
G01*
X166861289Y-85638259D02*
G75*
G03*
X166722458Y-85669232I8565J-365030D01*
G01*
X168454231Y-85170769D02*
G75*
G03*
X168117964Y-85044469I-821537J-1676502D01*
G01*
X168712620Y-86741867D02*
G75*
G03*
X168818487Y-86482346I-420612J322935D01*
G01*
X166618410Y-87049312D02*
G75*
G03*
X166640800Y-86980895I-93337J68417D01*
G01*
X178065800Y-85339344D02*
G75*
G03*
X177854231Y-85170769I-487828J-395194D01*
G01*
X167764280Y-84241831D02*
G75*
G03*
X167598051Y-84210293I-378623J-1541783D01*
G01*
X177082928Y-84963714D02*
G75*
G03*
X176565800Y-84935586I-540766J-5174165D01*
G01*
X176713425Y-86502211D02*
G75*
G03*
X176908245Y-86515975I206841J1542037D01*
G01*
X168117964Y-85044470D02*
G75*
G03*
X167682928Y-84963715I-724952J-2693223D01*
G01*
X166890857Y-86992433D02*
G75*
G03*
X167313288Y-87147765I546424J833945D01*
G01*
X177564235Y-84394918D02*
G75*
G03*
X177655985Y-84349218I-63030J241493D01*
G01*
X176830093Y-84196794D02*
G75*
G03*
X176619055Y-84203173I-49048J-1871434D01*
G01*
X177393018Y-84335041D02*
G75*
G03*
X177306353Y-84285179I-188015J-226541D01*
G01*
X175852475Y-87125013D02*
G75*
G03*
X175958350Y-87097322I-35878J353428D01*
G01*
X176197843Y-84913564D02*
G75*
G03*
X176565800Y-84935586I383136J3316628D01*
G01*
X166452475Y-87125013D02*
G75*
G03*
X166558350Y-87097322I-35878J353428D01*
G01*
X166659498Y-85746402D02*
G75*
G03*
X166640800Y-85920956I805455J-174558D01*
G01*
X171492089Y-86034194D02*
G75*
G03*
X171351783Y-85841165I-1580853J-1001560D01*
G01*
X167682928Y-84963714D02*
G75*
G03*
X167165800Y-84935586I-540766J-5174165D01*
G01*
X167313425Y-86502211D02*
G75*
G03*
X167508245Y-86515975I206841J1542037D01*
G01*
X177064106Y-86498483D02*
G75*
G03*
X177201443Y-86446375I-128519J545765D01*
G01*
X176261289Y-85638259D02*
G75*
G03*
X176122458Y-85669232I8565J-365030D01*
G01*
X177483691Y-84389516D02*
G75*
G03*
X177564234Y-84394918I48360J117902D01*
G01*
X177521690Y-86047838D02*
G75*
G03*
X177464348Y-85894948I-1139659J-340236D01*
G01*
X177164280Y-84241831D02*
G75*
G03*
X176998051Y-84210293I-378623J-1541783D01*
G01*
X177471781Y-86234585D02*
G75*
G03*
X177522849Y-86146103I-142854J141427D01*
G01*
X169345950Y-86897782D02*
G75*
G03*
X169308254Y-87043155I230505J-137345D01*
G01*
X176713289Y-87147765D02*
G75*
G03*
X177259213Y-87144490I260503J2078429D01*
G01*
X176466825Y-84237553D02*
G75*
G03*
X176344959Y-84306925I154087J-412412D01*
G01*
X167608493Y-83458168D02*
G75*
G03*
X166989403Y-83477528I-248855J-1950415D01*
G01*
X176230806Y-84420710D02*
G75*
G03*
X176053580Y-84679826I1511884J-1224240D01*
G01*
X178040800Y-83910880D02*
G75*
G03*
X178019359Y-83866855I-55918J0D01*
G01*
X166290801Y-87133200D02*
G75*
G03*
X166452476Y-87125013I2J1600410D01*
G01*
X167219054Y-84203173D02*
G75*
G03*
X167066824Y-84237553I50013J-575668D01*
G01*
X176998050Y-84210293D02*
G75*
G03*
X176830092Y-84196795I-208894J-1547592D01*
G01*
X168818487Y-86482345D02*
G75*
G03*
X168837478Y-86043510I-2848785J343112D01*
G01*
X169440800Y-83474926D02*
G75*
G03*
X169450536Y-83503715I47436J1D01*
G01*
X166680099Y-86154085D02*
G75*
G03*
X166793379Y-86321071I367889J127652D01*
G01*
X177776656Y-87001867D02*
G75*
G03*
X178112620Y-86741866I-325867J768134D01*
G01*
X176344958Y-84306925D02*
G75*
G03*
X176230806Y-84420710I475905J-591592D01*
G01*
X175859078Y-83679691D02*
G75*
G03*
X175505585Y-84035101I521730J-872414D01*
G01*
X177201443Y-86446376D02*
G75*
G03*
X177338750Y-86354969I-419736J779338D01*
G01*
X166657824Y-84826849D02*
G75*
G03*
X166797844Y-84913564I162231J105553D01*
G01*
X168064348Y-85894947D02*
G75*
G03*
X167972843Y-85747920I-611680J-278702D01*
G01*
X166459078Y-83679691D02*
G75*
G03*
X166105585Y-84035101I521730J-872414D01*
G01*
X168626862Y-83958056D02*
G75*
G03*
X168640800Y-83910880I-72860J47173D01*
G01*
X176057824Y-84826849D02*
G75*
G03*
X176197844Y-84913564I162231J105553D01*
G01*
X178026862Y-83958056D02*
G75*
G03*
X178040800Y-83910880I-72860J47173D01*
G01*
X177306353Y-84285179D02*
G75*
G03*
X177164280Y-84241831I-462506J-1261368D01*
G01*
X168083691Y-84389516D02*
G75*
G03*
X168164234Y-84394918I48360J117902D01*
G01*
X167508245Y-86515975D02*
G75*
G03*
X167664106Y-86498483I5093J657758D01*
G01*
X166745927Y-86901623D02*
G75*
G03*
X166683740Y-86882878I-68317J-114116D01*
G01*
X169378451Y-87117565D02*
G75*
G03*
X169712282Y-87131797I323078J3655893D01*
G01*
X177264456Y-85672806D02*
G75*
G03*
X177087266Y-85640284I-199489J-587926D01*
G01*
X177522850Y-86146103D02*
G75*
G03*
X177521690Y-86047838I-172538J47104D01*
G01*
X168376656Y-87001867D02*
G75*
G03*
X168712620Y-86741866I-325867J768134D01*
G01*
X176040801Y-85920956D02*
G75*
G03*
X176080099Y-86154085I711127J-4D01*
G01*
X167313289Y-87147765D02*
G75*
G03*
X167859213Y-87144490I260503J2078429D01*
G01*
X167993018Y-84335041D02*
G75*
G03*
X168083692Y-84389516I223502J269319D01*
G01*
X177888338Y-84135168D02*
G75*
G03*
X177968224Y-84040829I-1019943J944678D01*
G01*
X177372844Y-85747920D02*
G75*
G03*
X177264456Y-85672806I-185347J-151694D01*
G01*
X166105586Y-84035100D02*
G75*
G03*
X166022320Y-84243101I633791J-374383D01*
G01*
X166989403Y-83477528D02*
G75*
G03*
X166459078Y-83679691I307304J-1602806D01*
G01*
X166793379Y-86321071D02*
G75*
G03*
X166996948Y-86433332I366831J424492D01*
G01*
X167801443Y-86446376D02*
G75*
G03*
X167938750Y-86354969I-419736J779338D01*
G01*
X177517964Y-85044470D02*
G75*
G03*
X177082928Y-84963715I-724952J-2693223D01*
G01*
X170541428Y-83743467D02*
G75*
G03*
X170342053Y-83545933I-958695J-768246D01*
G01*
X175422320Y-84243101D02*
G75*
G03*
X175373671Y-84539586I2240876J-519930D01*
G01*
X170342054Y-83545932D02*
G75*
G03*
X170155587Y-83460370I-271064J-344768D01*
G01*
X176908245Y-86515975D02*
G75*
G03*
X177064106Y-86498483I5093J657758D01*
G01*
X177008493Y-83458168D02*
G75*
G03*
X176389403Y-83477528I-248855J-1950415D01*
G01*
X166683741Y-86882879D02*
G75*
G03*
X166651394Y-86906055I-1483J-32092D01*
G01*
X166722457Y-85669230D02*
G75*
G03*
X166659498Y-85746402I44315J-100422D01*
G01*
X167430093Y-84196794D02*
G75*
G03*
X167219055Y-84203173I-49048J-1871434D01*
G01*
X176619054Y-84203173D02*
G75*
G03*
X176466824Y-84237553I50013J-575668D01*
G01*
X167598050Y-84210293D02*
G75*
G03*
X167430092Y-84196795I-208894J-1547592D01*
G01*
X171622613Y-86405866D02*
G75*
G03*
X171577504Y-86210611I-906221J-106523D01*
G01*
X177854232Y-85170769D02*
G75*
G03*
X177517965Y-85044469I-821537J-1676502D01*
G01*
X175505586Y-84035100D02*
G75*
G03*
X175422320Y-84243101I633791J-374383D01*
G01*
X167864456Y-85672806D02*
G75*
G03*
X167687266Y-85640284I-199489J-587926D01*
G01*
X166996948Y-86433332D02*
G75*
G03*
X167313425Y-86502211I582657J1915628D01*
G01*
X175958350Y-87097321D02*
G75*
G03*
X176018410Y-87049312I-58810J135144D01*
G01*
X166797843Y-84913564D02*
G75*
G03*
X167165800Y-84935586I383136J3316628D01*
G01*
X166022320Y-84243101D02*
G75*
G03*
X165973671Y-84539586I2240876J-519930D01*
G01*
X167938750Y-86354969D02*
G75*
G03*
X168071780Y-86234586I-1029231J1271053D01*
G01*
X177338750Y-86354969D02*
G75*
G03*
X177471780Y-86234586I-1029231J1271053D01*
G01*
X169308253Y-87043155D02*
G75*
G03*
X169378451Y-87117564I76976J2302D01*
G01*
X168837478Y-86043510D02*
G75*
G03*
X168788724Y-85604342I-2863475J-95597D01*
G01*
X177615800Y-83630508D02*
G75*
G03*
X177008493Y-83458168I-875347J-1928414D01*
G01*
X167906353Y-84285179D02*
G75*
G03*
X167764280Y-84241831I-462506J-1261368D01*
G01*
X167066825Y-84237553D02*
G75*
G03*
X166944959Y-84306925I154087J-412412D01*
G01*
X167993018Y-84335041D02*
G75*
G03*
X167906353Y-84285179I-188015J-226541D01*
G01*
X168665800Y-85339344D02*
G75*
G03*
X168454231Y-85170769I-487828J-395194D01*
G01*
X171577504Y-86210610D02*
G75*
G03*
X171492089Y-86034194I-814323J-285384D01*
G01*
X170155587Y-83460370D02*
G75*
G03*
X169876532Y-83433200I-279045J-1419357D01*
G01*
X168215800Y-83630508D02*
G75*
G03*
X167608493Y-83458168I-875347J-1928414D01*
G01*
X176059498Y-85746402D02*
G75*
G03*
X176040800Y-85920956I805455J-174558D01*
G01*
X166651393Y-86906055D02*
G75*
G03*
X166640800Y-86980895I259039J-74835D01*
G01*
X168788722Y-85604343D02*
G75*
G03*
X168665800Y-85339344I-587901J-111696D01*
G01*
X166640801Y-85920956D02*
G75*
G03*
X166680099Y-86154085I711127J-4D01*
G01*
X178112620Y-86741867D02*
G75*
G03*
X178218487Y-86482346I-420612J322935D01*
G01*
X177915956Y-83792444D02*
G75*
G03*
X177778627Y-83710773I-943585J-1430334D01*
G01*
D16*
%TO.C,Q3*%
X119380000Y-87340000D02*
X118730000Y-87340000D01*
X119380000Y-90460000D02*
X118730000Y-90460000D01*
X119380000Y-90460000D02*
X120030000Y-90460000D01*
X119380000Y-87340000D02*
X121055000Y-87340000D01*
D17*
%TO.C,U2*%
X137952400Y-89335652D02*
X137952400Y-89801700D01*
X137952400Y-84035900D02*
X137952400Y-84501948D01*
X137952400Y-89801700D02*
X134193200Y-89801700D01*
X134193200Y-84035900D02*
X137952400Y-84035900D01*
X134193200Y-84501948D02*
X134193200Y-84035900D01*
X134193200Y-89801700D02*
X134193200Y-89335652D01*
X138521700Y-85043800D02*
G75*
G03*
X138521700Y-85043800I-76200J0D01*
G01*
D12*
%TO.C,IC1*%
X152609600Y-81937600D02*
X147059600Y-81937600D01*
X147059600Y-87937600D02*
X152609600Y-87937600D01*
X152609600Y-87937600D02*
X152609600Y-81937600D01*
X147059600Y-81937600D02*
X147059600Y-87937600D01*
D18*
X154334600Y-82207600D02*
G75*
G03*
X154334600Y-82207600I-125000J0D01*
G01*
D15*
%TO.C,U6*%
X122837600Y-87450800D02*
X122337601Y-87450800D01*
X122837600Y-90450800D02*
X122337601Y-90450800D01*
X122337601Y-88250799D02*
X122337601Y-87450800D01*
X122337601Y-90450800D02*
X122337601Y-89650799D01*
D19*
X124012602Y-87150799D02*
G75*
G03*
X124012602Y-87150799I-125001J0D01*
G01*
D20*
%TO.C,H5*%
X153212800Y-103670100D02*
X154292300Y-103670100D01*
X154292300Y-103670100D02*
X154292300Y-102654100D01*
X154292300Y-102654100D02*
X154863800Y-102654100D01*
X154863800Y-102654100D02*
X154863800Y-103670100D01*
X154863800Y-103670100D02*
X155943300Y-103670100D01*
X155943300Y-103670100D02*
X155943300Y-102241350D01*
X155943300Y-102241350D02*
X155945318Y-101830688D01*
X155945318Y-101830688D02*
X155950971Y-101466148D01*
X155950971Y-101466148D02*
X155959662Y-101165658D01*
X155959662Y-101165658D02*
X155970795Y-100947144D01*
X155970795Y-100947144D02*
X155983772Y-100828533D01*
X155983772Y-100828533D02*
X155990925Y-100812284D01*
X155990925Y-100812284D02*
X156066498Y-100775247D01*
X156066498Y-100775247D02*
X156194118Y-100683824D01*
X156194118Y-100683824D02*
X156229050Y-100655818D01*
X156229050Y-100655818D02*
X156419550Y-100499667D01*
X156419550Y-100499667D02*
X155641675Y-100497383D01*
X155641675Y-100497383D02*
X154863800Y-100495100D01*
X154863800Y-100495100D02*
X154863800Y-102082600D01*
X154863800Y-102082600D02*
X154228800Y-102082600D01*
X154228800Y-102082600D02*
X154228800Y-101498248D01*
X154228800Y-101498248D02*
X154230739Y-101221067D01*
X154230739Y-101221067D02*
X154242217Y-101037660D01*
X154242217Y-101037660D02*
X154271730Y-100914803D01*
X154271730Y-100914803D02*
X154327772Y-100819275D01*
X154327772Y-100819275D02*
X154418838Y-100717852D01*
X154418838Y-100717852D02*
X154431757Y-100704498D01*
X154431757Y-100704498D02*
X154634714Y-100495100D01*
X154634714Y-100495100D02*
X153212800Y-100495100D01*
X153212800Y-100495100D02*
X153212800Y-103670100D01*
X153212800Y-103670100D02*
X153212800Y-103670100D01*
G36*
X154431757Y-100704498D02*
G01*
X154418838Y-100717852D01*
X154327772Y-100819275D01*
X154271730Y-100914803D01*
X154242217Y-101037660D01*
X154230739Y-101221067D01*
X154228800Y-101498248D01*
X154228800Y-102082600D01*
X154863800Y-102082600D01*
X154863800Y-100495100D01*
X155641675Y-100497383D01*
X156419550Y-100499667D01*
X156229050Y-100655818D01*
X156194118Y-100683824D01*
X156066498Y-100775247D01*
X155990925Y-100812284D01*
X155983772Y-100828533D01*
X155970795Y-100947144D01*
X155959662Y-101165658D01*
X155950971Y-101466148D01*
X155945318Y-101830688D01*
X155943300Y-102241350D01*
X155943300Y-103670100D01*
X154863800Y-103670100D01*
X154863800Y-102654100D01*
X154292300Y-102654100D01*
X154292300Y-103670100D01*
X153212800Y-103670100D01*
X153212800Y-100495100D01*
X154634714Y-100495100D01*
X154431757Y-100704498D01*
G37*
X154431757Y-100704498D02*
X154418838Y-100717852D01*
X154327772Y-100819275D01*
X154271730Y-100914803D01*
X154242217Y-101037660D01*
X154230739Y-101221067D01*
X154228800Y-101498248D01*
X154228800Y-102082600D01*
X154863800Y-102082600D01*
X154863800Y-100495100D01*
X155641675Y-100497383D01*
X156419550Y-100499667D01*
X156229050Y-100655818D01*
X156194118Y-100683824D01*
X156066498Y-100775247D01*
X155990925Y-100812284D01*
X155983772Y-100828533D01*
X155970795Y-100947144D01*
X155959662Y-101165658D01*
X155950971Y-101466148D01*
X155945318Y-101830688D01*
X155943300Y-102241350D01*
X155943300Y-103670100D01*
X154863800Y-103670100D01*
X154863800Y-102654100D01*
X154292300Y-102654100D01*
X154292300Y-103670100D01*
X153212800Y-103670100D01*
X153212800Y-100495100D01*
X154634714Y-100495100D01*
X154431757Y-100704498D01*
X147509650Y-99431549D02*
X147436220Y-99470766D01*
X147436220Y-99470766D02*
X147434300Y-99479100D01*
X147434300Y-99479100D02*
X147482622Y-99540754D01*
X147482622Y-99540754D02*
X147497800Y-99542600D01*
X147497800Y-99542600D02*
X147536648Y-99598572D01*
X147536648Y-99598572D02*
X147557672Y-99739136D01*
X147557672Y-99739136D02*
X147561702Y-99923259D01*
X147561702Y-99923259D02*
X147549571Y-100109912D01*
X147549571Y-100109912D02*
X147522110Y-100258062D01*
X147522110Y-100258062D02*
X147481925Y-100326045D01*
X147481925Y-100326045D02*
X147486512Y-100345561D01*
X147486512Y-100345561D02*
X147591644Y-100356907D01*
X147591644Y-100356907D02*
X147656550Y-100358073D01*
X147656550Y-100358073D02*
X147794778Y-100351396D01*
X147794778Y-100351396D02*
X147843117Y-100334593D01*
X147843117Y-100334593D02*
X147831175Y-100326045D01*
X147831175Y-100326045D02*
X147769798Y-100244851D01*
X147769798Y-100244851D02*
X147751800Y-100140558D01*
X147751800Y-100140558D02*
X147779331Y-100023366D01*
X147779331Y-100023366D02*
X147885749Y-99987582D01*
X147885749Y-99987582D02*
X147910550Y-99987100D01*
X147910550Y-99987100D02*
X148031783Y-100013712D01*
X148031783Y-100013712D02*
X148068802Y-100116583D01*
X148068802Y-100116583D02*
X148069300Y-100140558D01*
X148069300Y-100140558D02*
X148040114Y-100270998D01*
X148040114Y-100270998D02*
X147989925Y-100326045D01*
X147989925Y-100326045D02*
X147994512Y-100345561D01*
X147994512Y-100345561D02*
X148099644Y-100356907D01*
X148099644Y-100356907D02*
X148164550Y-100358073D01*
X148164550Y-100358073D02*
X148302778Y-100351396D01*
X148302778Y-100351396D02*
X148351117Y-100334593D01*
X148351117Y-100334593D02*
X148339175Y-100326045D01*
X148339175Y-100326045D02*
X148297730Y-100253806D01*
X148297730Y-100253806D02*
X148270813Y-100103530D01*
X148270813Y-100103530D02*
X148259257Y-99916249D01*
X148259257Y-99916249D02*
X148263893Y-99732994D01*
X148263893Y-99732994D02*
X148285552Y-99594795D01*
X148285552Y-99594795D02*
X148323300Y-99542600D01*
X148323300Y-99542600D02*
X148384955Y-99494278D01*
X148384955Y-99494278D02*
X148386800Y-99479100D01*
X148386800Y-99479100D02*
X148330979Y-99437128D01*
X148330979Y-99437128D02*
X148193718Y-99416148D01*
X148193718Y-99416148D02*
X148164550Y-99415600D01*
X148164550Y-99415600D02*
X148017650Y-99431549D01*
X148017650Y-99431549D02*
X147944220Y-99470766D01*
X147944220Y-99470766D02*
X147942300Y-99479100D01*
X147942300Y-99479100D02*
X147990622Y-99540754D01*
X147990622Y-99540754D02*
X148005800Y-99542600D01*
X148005800Y-99542600D02*
X148053535Y-99596942D01*
X148053535Y-99596942D02*
X148069300Y-99701350D01*
X148069300Y-99701350D02*
X148043073Y-99822191D01*
X148043073Y-99822191D02*
X147939806Y-99859429D01*
X147939806Y-99859429D02*
X147910550Y-99860100D01*
X147910550Y-99860100D02*
X147789709Y-99833872D01*
X147789709Y-99833872D02*
X147752471Y-99730605D01*
X147752471Y-99730605D02*
X147751800Y-99701350D01*
X147751800Y-99701350D02*
X147773537Y-99582013D01*
X147773537Y-99582013D02*
X147815300Y-99542600D01*
X147815300Y-99542600D02*
X147876955Y-99494278D01*
X147876955Y-99494278D02*
X147878800Y-99479100D01*
X147878800Y-99479100D02*
X147822979Y-99437128D01*
X147822979Y-99437128D02*
X147685718Y-99416148D01*
X147685718Y-99416148D02*
X147656550Y-99415600D01*
X147656550Y-99415600D02*
X147509650Y-99431549D01*
X147509650Y-99431549D02*
X147509650Y-99431549D01*
G36*
X148193718Y-99416148D02*
G01*
X148330979Y-99437128D01*
X148386800Y-99479100D01*
X148384955Y-99494278D01*
X148323300Y-99542600D01*
X148285552Y-99594795D01*
X148263893Y-99732994D01*
X148259257Y-99916249D01*
X148270813Y-100103530D01*
X148297730Y-100253806D01*
X148339175Y-100326045D01*
X148351117Y-100334593D01*
X148302778Y-100351396D01*
X148164550Y-100358073D01*
X148099644Y-100356907D01*
X147994512Y-100345561D01*
X147989925Y-100326045D01*
X148040114Y-100270998D01*
X148069300Y-100140558D01*
X148068802Y-100116583D01*
X148031783Y-100013712D01*
X147910550Y-99987100D01*
X147885749Y-99987582D01*
X147779331Y-100023366D01*
X147751800Y-100140558D01*
X147769798Y-100244851D01*
X147831175Y-100326045D01*
X147843117Y-100334593D01*
X147794778Y-100351396D01*
X147656550Y-100358073D01*
X147591644Y-100356907D01*
X147486512Y-100345561D01*
X147481925Y-100326045D01*
X147522110Y-100258062D01*
X147549571Y-100109912D01*
X147561702Y-99923259D01*
X147557672Y-99739136D01*
X147536648Y-99598572D01*
X147497800Y-99542600D01*
X147482622Y-99540754D01*
X147434300Y-99479100D01*
X147436220Y-99470766D01*
X147509650Y-99431549D01*
X147656550Y-99415600D01*
X147685718Y-99416148D01*
X147822979Y-99437128D01*
X147878800Y-99479100D01*
X147876955Y-99494278D01*
X147815300Y-99542600D01*
X147773537Y-99582013D01*
X147751800Y-99701350D01*
X147752471Y-99730605D01*
X147789709Y-99833872D01*
X147910550Y-99860100D01*
X147939806Y-99859429D01*
X148043073Y-99822191D01*
X148069300Y-99701350D01*
X148053535Y-99596942D01*
X148005800Y-99542600D01*
X147990622Y-99540754D01*
X147942300Y-99479100D01*
X147944220Y-99470766D01*
X148017650Y-99431549D01*
X148164550Y-99415600D01*
X148193718Y-99416148D01*
G37*
X148193718Y-99416148D02*
X148330979Y-99437128D01*
X148386800Y-99479100D01*
X148384955Y-99494278D01*
X148323300Y-99542600D01*
X148285552Y-99594795D01*
X148263893Y-99732994D01*
X148259257Y-99916249D01*
X148270813Y-100103530D01*
X148297730Y-100253806D01*
X148339175Y-100326045D01*
X148351117Y-100334593D01*
X148302778Y-100351396D01*
X148164550Y-100358073D01*
X148099644Y-100356907D01*
X147994512Y-100345561D01*
X147989925Y-100326045D01*
X148040114Y-100270998D01*
X148069300Y-100140558D01*
X148068802Y-100116583D01*
X148031783Y-100013712D01*
X147910550Y-99987100D01*
X147885749Y-99987582D01*
X147779331Y-100023366D01*
X147751800Y-100140558D01*
X147769798Y-100244851D01*
X147831175Y-100326045D01*
X147843117Y-100334593D01*
X147794778Y-100351396D01*
X147656550Y-100358073D01*
X147591644Y-100356907D01*
X147486512Y-100345561D01*
X147481925Y-100326045D01*
X147522110Y-100258062D01*
X147549571Y-100109912D01*
X147561702Y-99923259D01*
X147557672Y-99739136D01*
X147536648Y-99598572D01*
X147497800Y-99542600D01*
X147482622Y-99540754D01*
X147434300Y-99479100D01*
X147436220Y-99470766D01*
X147509650Y-99431549D01*
X147656550Y-99415600D01*
X147685718Y-99416148D01*
X147822979Y-99437128D01*
X147878800Y-99479100D01*
X147876955Y-99494278D01*
X147815300Y-99542600D01*
X147773537Y-99582013D01*
X147751800Y-99701350D01*
X147752471Y-99730605D01*
X147789709Y-99833872D01*
X147910550Y-99860100D01*
X147939806Y-99859429D01*
X148043073Y-99822191D01*
X148069300Y-99701350D01*
X148053535Y-99596942D01*
X148005800Y-99542600D01*
X147990622Y-99540754D01*
X147942300Y-99479100D01*
X147944220Y-99470766D01*
X148017650Y-99431549D01*
X148164550Y-99415600D01*
X148193718Y-99416148D01*
X151326743Y-99443839D02*
X151160470Y-99544981D01*
X151160470Y-99544981D02*
X151048668Y-99708511D01*
X151048668Y-99708511D02*
X151012468Y-99912996D01*
X151012468Y-99912996D02*
X151073003Y-100137004D01*
X151073003Y-100137004D02*
X151091404Y-100170409D01*
X151091404Y-100170409D02*
X151249561Y-100338014D01*
X151249561Y-100338014D02*
X151448596Y-100397545D01*
X151448596Y-100397545D02*
X151564197Y-100380181D01*
X151564197Y-100380181D02*
X151758075Y-100265663D01*
X151758075Y-100265663D02*
X151860271Y-100066938D01*
X151860271Y-100066938D02*
X151879300Y-99885608D01*
X151879300Y-99885608D02*
X151875712Y-99847694D01*
X151875712Y-99847694D02*
X151676730Y-99847694D01*
X151676730Y-99847694D02*
X151666342Y-100063695D01*
X151666342Y-100063695D02*
X151599428Y-100218761D01*
X151599428Y-100218761D02*
X151494264Y-100293362D01*
X151494264Y-100293362D02*
X151369126Y-100267968D01*
X151369126Y-100267968D02*
X151320500Y-100228400D01*
X151320500Y-100228400D02*
X151263261Y-100108325D01*
X151263261Y-100108325D02*
X151242166Y-99932586D01*
X151242166Y-99932586D02*
X151255190Y-99749942D01*
X151255190Y-99749942D02*
X151300306Y-99609156D01*
X151300306Y-99609156D02*
X151348182Y-99562251D01*
X151348182Y-99562251D02*
X151499655Y-99560657D01*
X151499655Y-99560657D02*
X151617705Y-99663705D01*
X151617705Y-99663705D02*
X151676730Y-99847694D01*
X151676730Y-99847694D02*
X151875712Y-99847694D01*
X151875712Y-99847694D02*
X151860199Y-99683773D01*
X151860199Y-99683773D02*
X151791226Y-99558709D01*
X151791226Y-99558709D02*
X151738171Y-99514450D01*
X151738171Y-99514450D02*
X151526354Y-99426518D01*
X151526354Y-99426518D02*
X151326743Y-99443839D01*
X151326743Y-99443839D02*
X151326743Y-99443839D01*
G36*
X151860271Y-100066938D02*
G01*
X151758075Y-100265663D01*
X151564197Y-100380181D01*
X151448596Y-100397545D01*
X151249561Y-100338014D01*
X151091404Y-100170409D01*
X151073003Y-100137004D01*
X151017762Y-99932586D01*
X151242166Y-99932586D01*
X151263261Y-100108325D01*
X151320500Y-100228400D01*
X151369126Y-100267968D01*
X151494264Y-100293362D01*
X151599428Y-100218761D01*
X151666342Y-100063695D01*
X151676730Y-99847694D01*
X151617705Y-99663705D01*
X151499655Y-99560657D01*
X151348182Y-99562251D01*
X151300306Y-99609156D01*
X151255190Y-99749942D01*
X151242166Y-99932586D01*
X151017762Y-99932586D01*
X151012468Y-99912996D01*
X151048668Y-99708511D01*
X151160470Y-99544981D01*
X151326743Y-99443839D01*
X151526354Y-99426518D01*
X151738171Y-99514450D01*
X151791226Y-99558709D01*
X151860199Y-99683773D01*
X151875712Y-99847694D01*
X151879300Y-99885608D01*
X151860271Y-100066938D01*
G37*
X151860271Y-100066938D02*
X151758075Y-100265663D01*
X151564197Y-100380181D01*
X151448596Y-100397545D01*
X151249561Y-100338014D01*
X151091404Y-100170409D01*
X151073003Y-100137004D01*
X151017762Y-99932586D01*
X151242166Y-99932586D01*
X151263261Y-100108325D01*
X151320500Y-100228400D01*
X151369126Y-100267968D01*
X151494264Y-100293362D01*
X151599428Y-100218761D01*
X151666342Y-100063695D01*
X151676730Y-99847694D01*
X151617705Y-99663705D01*
X151499655Y-99560657D01*
X151348182Y-99562251D01*
X151300306Y-99609156D01*
X151255190Y-99749942D01*
X151242166Y-99932586D01*
X151017762Y-99932586D01*
X151012468Y-99912996D01*
X151048668Y-99708511D01*
X151160470Y-99544981D01*
X151326743Y-99443839D01*
X151526354Y-99426518D01*
X151738171Y-99514450D01*
X151791226Y-99558709D01*
X151860199Y-99683773D01*
X151875712Y-99847694D01*
X151879300Y-99885608D01*
X151860271Y-100066938D01*
X151352464Y-100495533D02*
X151012842Y-100497944D01*
X151012842Y-100497944D02*
X150765445Y-100504001D01*
X150765445Y-100504001D02*
X150592883Y-100515370D01*
X150592883Y-100515370D02*
X150477770Y-100533719D01*
X150477770Y-100533719D02*
X150402717Y-100560715D01*
X150402717Y-100560715D02*
X150350337Y-100598026D01*
X150350337Y-100598026D02*
X150311666Y-100637975D01*
X150311666Y-100637975D02*
X150168335Y-100856543D01*
X150168335Y-100856543D02*
X150079935Y-101144765D01*
X150079935Y-101144765D02*
X150041001Y-101523758D01*
X150041001Y-101523758D02*
X150038038Y-101695200D01*
X150038038Y-101695200D02*
X150047863Y-101987368D01*
X150047863Y-101987368D02*
X150082269Y-102195567D01*
X150082269Y-102195567D02*
X150149164Y-102361728D01*
X150149164Y-102361728D02*
X150170985Y-102400100D01*
X150170985Y-102400100D02*
X150299838Y-102594556D01*
X150299838Y-102594556D02*
X150429422Y-102722372D01*
X150429422Y-102722372D02*
X150590486Y-102797255D01*
X150590486Y-102797255D02*
X150813782Y-102832914D01*
X150813782Y-102832914D02*
X151130058Y-102843056D01*
X151130058Y-102843056D02*
X151164925Y-102843188D01*
X151164925Y-102843188D02*
X151752300Y-102844600D01*
X151752300Y-102844600D02*
X151752300Y-103670100D01*
X151752300Y-103670100D02*
X152768300Y-103670100D01*
X152768300Y-103670100D02*
X152768300Y-101193600D01*
X152768300Y-101193600D02*
X151752300Y-101193600D01*
X151752300Y-101193600D02*
X151752300Y-102273100D01*
X151752300Y-102273100D02*
X151117300Y-102273100D01*
X151117300Y-102273100D02*
X151117300Y-101193600D01*
X151117300Y-101193600D02*
X151752300Y-101193600D01*
X151752300Y-101193600D02*
X152768300Y-101193600D01*
X152768300Y-101193600D02*
X152768300Y-100944019D01*
X152768300Y-100944019D02*
X152965379Y-100719559D01*
X152965379Y-100719559D02*
X153162457Y-100495100D01*
X153162457Y-100495100D02*
X151801698Y-100495100D01*
X151801698Y-100495100D02*
X151352464Y-100495533D01*
X151352464Y-100495533D02*
X151352464Y-100495533D01*
G36*
X151752300Y-103670100D02*
G01*
X151752300Y-102844600D01*
X151164925Y-102843188D01*
X151130058Y-102843056D01*
X150813782Y-102832914D01*
X150590486Y-102797255D01*
X150429422Y-102722372D01*
X150299838Y-102594556D01*
X150170985Y-102400100D01*
X150149164Y-102361728D01*
X150082269Y-102195567D01*
X150047863Y-101987368D01*
X150038038Y-101695200D01*
X150041001Y-101523758D01*
X150074918Y-101193600D01*
X151117300Y-101193600D01*
X151117300Y-102273100D01*
X151752300Y-102273100D01*
X151752300Y-101193600D01*
X151117300Y-101193600D01*
X150074918Y-101193600D01*
X150079935Y-101144765D01*
X150168335Y-100856543D01*
X150311666Y-100637975D01*
X150350337Y-100598026D01*
X150402717Y-100560715D01*
X150477770Y-100533719D01*
X150592883Y-100515370D01*
X150765445Y-100504001D01*
X151012842Y-100497944D01*
X151352464Y-100495533D01*
X151801698Y-100495100D01*
X153162457Y-100495100D01*
X152965379Y-100719559D01*
X152768300Y-100944019D01*
X152768300Y-103670100D01*
X151752300Y-103670100D01*
G37*
X151752300Y-103670100D02*
X151752300Y-102844600D01*
X151164925Y-102843188D01*
X151130058Y-102843056D01*
X150813782Y-102832914D01*
X150590486Y-102797255D01*
X150429422Y-102722372D01*
X150299838Y-102594556D01*
X150170985Y-102400100D01*
X150149164Y-102361728D01*
X150082269Y-102195567D01*
X150047863Y-101987368D01*
X150038038Y-101695200D01*
X150041001Y-101523758D01*
X150074918Y-101193600D01*
X151117300Y-101193600D01*
X151117300Y-102273100D01*
X151752300Y-102273100D01*
X151752300Y-101193600D01*
X151117300Y-101193600D01*
X150074918Y-101193600D01*
X150079935Y-101144765D01*
X150168335Y-100856543D01*
X150311666Y-100637975D01*
X150350337Y-100598026D01*
X150402717Y-100560715D01*
X150477770Y-100533719D01*
X150592883Y-100515370D01*
X150765445Y-100504001D01*
X151012842Y-100497944D01*
X151352464Y-100495533D01*
X151801698Y-100495100D01*
X153162457Y-100495100D01*
X152965379Y-100719559D01*
X152768300Y-100944019D01*
X152768300Y-103670100D01*
X151752300Y-103670100D01*
X151789340Y-89747703D02*
X150766736Y-89898136D01*
X150766736Y-89898136D02*
X150286770Y-90010615D01*
X150286770Y-90010615D02*
X149911382Y-90110269D01*
X149911382Y-90110269D02*
X149628534Y-90190538D01*
X149628534Y-90190538D02*
X149407381Y-90262132D01*
X149407381Y-90262132D02*
X149217080Y-90335763D01*
X149217080Y-90335763D02*
X149026788Y-90422141D01*
X149026788Y-90422141D02*
X148850039Y-90509533D01*
X148850039Y-90509533D02*
X148687617Y-90588108D01*
X148687617Y-90588108D02*
X148558216Y-90632892D01*
X148558216Y-90632892D02*
X148422881Y-90647855D01*
X148422881Y-90647855D02*
X148242658Y-90636969D01*
X148242658Y-90636969D02*
X147978593Y-90604208D01*
X147978593Y-90604208D02*
X147953842Y-90600915D01*
X147953842Y-90600915D02*
X147608780Y-90564128D01*
X147608780Y-90564128D02*
X147235944Y-90539680D01*
X147235944Y-90539680D02*
X146860441Y-90527508D01*
X146860441Y-90527508D02*
X146507377Y-90527545D01*
X146507377Y-90527545D02*
X146201859Y-90539728D01*
X146201859Y-90539728D02*
X145968993Y-90563992D01*
X145968993Y-90563992D02*
X145833886Y-90600272D01*
X145833886Y-90600272D02*
X145824066Y-90606405D01*
X145824066Y-90606405D02*
X145775907Y-90652612D01*
X145775907Y-90652612D02*
X145761123Y-90715761D01*
X145761123Y-90715761D02*
X145785061Y-90820985D01*
X145785061Y-90820985D02*
X145853067Y-90993416D01*
X145853067Y-90993416D02*
X145955783Y-91225530D01*
X145955783Y-91225530D02*
X146077395Y-91486546D01*
X146077395Y-91486546D02*
X146194544Y-91722188D01*
X146194544Y-91722188D02*
X146288092Y-91894504D01*
X146288092Y-91894504D02*
X146314757Y-91937407D01*
X146314757Y-91937407D02*
X146431508Y-92110965D01*
X146431508Y-92110965D02*
X146036500Y-92540657D01*
X146036500Y-92540657D02*
X145817667Y-92790874D01*
X145817667Y-92790874D02*
X145595816Y-93064425D01*
X145595816Y-93064425D02*
X145412628Y-93309540D01*
X145412628Y-93309540D02*
X145383788Y-93351350D01*
X145383788Y-93351350D02*
X145251776Y-93542471D01*
X145251776Y-93542471D02*
X145145306Y-93689214D01*
X145145306Y-93689214D02*
X145085776Y-93762173D01*
X145085776Y-93762173D02*
X145083473Y-93764100D01*
X145083473Y-93764100D02*
X145015805Y-93852602D01*
X145015805Y-93852602D02*
X144911696Y-94033718D01*
X144911696Y-94033718D02*
X144782963Y-94282584D01*
X144782963Y-94282584D02*
X144641422Y-94574340D01*
X144641422Y-94574340D02*
X144498892Y-94884124D01*
X144498892Y-94884124D02*
X144367190Y-95187075D01*
X144367190Y-95187075D02*
X144258134Y-95458331D01*
X144258134Y-95458331D02*
X144198019Y-95626914D01*
X144198019Y-95626914D02*
X144062939Y-96045980D01*
X144062939Y-96045980D02*
X143961619Y-96382584D01*
X143961619Y-96382584D02*
X143888673Y-96668911D01*
X143888673Y-96668911D02*
X143838717Y-96937144D01*
X143838717Y-96937144D02*
X143806363Y-97219469D01*
X143806363Y-97219469D02*
X143786226Y-97548069D01*
X143786226Y-97548069D02*
X143772921Y-97955129D01*
X143772921Y-97955129D02*
X143767053Y-98202268D01*
X143767053Y-98202268D02*
X143758587Y-98801250D01*
X143758587Y-98801250D02*
X143765533Y-99302950D01*
X143765533Y-99302950D02*
X143792018Y-99736583D01*
X143792018Y-99736583D02*
X143842171Y-100131365D01*
X143842171Y-100131365D02*
X143920117Y-100516511D01*
X143920117Y-100516511D02*
X144029986Y-100921238D01*
X144029986Y-100921238D02*
X144175904Y-101374759D01*
X144175904Y-101374759D02*
X144242663Y-101568840D01*
X144242663Y-101568840D02*
X144321889Y-101772819D01*
X144321889Y-101772819D02*
X144434049Y-102031390D01*
X144434049Y-102031390D02*
X144566578Y-102318894D01*
X144566578Y-102318894D02*
X144706911Y-102609670D01*
X144706911Y-102609670D02*
X144842482Y-102878060D01*
X144842482Y-102878060D02*
X144960727Y-103098404D01*
X144960727Y-103098404D02*
X145049080Y-103245043D01*
X145049080Y-103245043D02*
X145085062Y-103289100D01*
X145085062Y-103289100D02*
X145137938Y-103353692D01*
X145137938Y-103353692D02*
X145240724Y-103495898D01*
X145240724Y-103495898D02*
X145373135Y-103687494D01*
X145373135Y-103687494D02*
X145401212Y-103728996D01*
X145401212Y-103728996D02*
X145584391Y-103971877D01*
X145584391Y-103971877D02*
X145837049Y-104268027D01*
X145837049Y-104268027D02*
X146131751Y-104588633D01*
X146131751Y-104588633D02*
X146441065Y-104904883D01*
X146441065Y-104904883D02*
X146737559Y-105187964D01*
X146737559Y-105187964D02*
X146993799Y-105409063D01*
X146993799Y-105409063D02*
X147021550Y-105430843D01*
X147021550Y-105430843D02*
X147872375Y-106015271D01*
X147872375Y-106015271D02*
X148777628Y-106498248D01*
X148777628Y-106498248D02*
X149723695Y-106876027D01*
X149723695Y-106876027D02*
X150696960Y-107144857D01*
X150696960Y-107144857D02*
X151683810Y-107300989D01*
X151683810Y-107300989D02*
X152670629Y-107340675D01*
X152670629Y-107340675D02*
X153643802Y-107260164D01*
X153643802Y-107260164D02*
X153657300Y-107258161D01*
X153657300Y-107258161D02*
X154668528Y-107058142D01*
X154668528Y-107058142D02*
X155605870Y-106767616D01*
X155605870Y-106767616D02*
X156492714Y-106377728D01*
X156492714Y-106377728D02*
X157352450Y-105879622D01*
X157352450Y-105879622D02*
X157426634Y-105830944D01*
X157426634Y-105830944D02*
X158255673Y-105206746D01*
X158255673Y-105206746D02*
X158997874Y-104490363D01*
X158997874Y-104490363D02*
X159651134Y-103684214D01*
X159651134Y-103684214D02*
X160213349Y-102790714D01*
X160213349Y-102790714D02*
X160421277Y-102391092D01*
X160421277Y-102391092D02*
X160646073Y-101906165D01*
X160646073Y-101906165D02*
X160820607Y-101459565D01*
X160820607Y-101459565D02*
X160964154Y-100996180D01*
X160964154Y-100996180D02*
X161095435Y-100463350D01*
X161095435Y-100463350D02*
X161251521Y-99576872D01*
X161251521Y-99576872D02*
X161319386Y-98712976D01*
X161319386Y-98712976D02*
X161309276Y-98351258D01*
X161309276Y-98351258D02*
X160414127Y-98351258D01*
X160414127Y-98351258D02*
X160414084Y-98526600D01*
X160414084Y-98526600D02*
X160410483Y-98928069D01*
X160410483Y-98928069D02*
X160401463Y-99301585D01*
X160401463Y-99301585D02*
X160388057Y-99622493D01*
X160388057Y-99622493D02*
X160371300Y-99866140D01*
X160371300Y-99866140D02*
X160352227Y-100007869D01*
X160352227Y-100007869D02*
X160351886Y-100009264D01*
X160351886Y-100009264D02*
X160291349Y-100253678D01*
X160291349Y-100253678D02*
X160038200Y-99601987D01*
X160038200Y-99601987D02*
X159660640Y-98794213D01*
X159660640Y-98794213D02*
X159187919Y-98070354D01*
X159187919Y-98070354D02*
X158619378Y-97429484D01*
X158619378Y-97429484D02*
X158276945Y-97121463D01*
X158276945Y-97121463D02*
X157990085Y-96914734D01*
X157990085Y-96914734D02*
X157754942Y-96818124D01*
X157754942Y-96818124D02*
X157563567Y-96829642D01*
X157563567Y-96829642D02*
X157440086Y-96911885D01*
X157440086Y-96911885D02*
X157350355Y-97037698D01*
X157350355Y-97037698D02*
X157337214Y-97173748D01*
X157337214Y-97173748D02*
X157407530Y-97335165D01*
X157407530Y-97335165D02*
X157568172Y-97537082D01*
X157568172Y-97537082D02*
X157826005Y-97794630D01*
X157826005Y-97794630D02*
X157851579Y-97818597D01*
X157851579Y-97818597D02*
X158348342Y-98327588D01*
X158348342Y-98327588D02*
X158747376Y-98845132D01*
X158747376Y-98845132D02*
X159074398Y-99409616D01*
X159074398Y-99409616D02*
X159355125Y-100059423D01*
X159355125Y-100059423D02*
X159357971Y-100066973D01*
X159357971Y-100066973D02*
X159432482Y-100277622D01*
X159432482Y-100277622D02*
X159481930Y-100462298D01*
X159481930Y-100462298D02*
X159511201Y-100656904D01*
X159511201Y-100656904D02*
X159525181Y-100897343D01*
X159525181Y-100897343D02*
X159528756Y-101219517D01*
X159528756Y-101219517D02*
X159528586Y-101320600D01*
X159528586Y-101320600D02*
X159526142Y-101654314D01*
X159526142Y-101654314D02*
X159517164Y-101894863D01*
X159517164Y-101894863D02*
X159495543Y-102076081D01*
X159495543Y-102076081D02*
X159455165Y-102231802D01*
X159455165Y-102231802D02*
X159389918Y-102395861D01*
X159389918Y-102395861D02*
X159299169Y-102590600D01*
X159299169Y-102590600D02*
X159120849Y-102930905D01*
X159120849Y-102930905D02*
X158916634Y-103246733D01*
X158916634Y-103246733D02*
X158665210Y-103566261D01*
X158665210Y-103566261D02*
X158345261Y-103917668D01*
X158345261Y-103917668D02*
X158127269Y-104139828D01*
X158127269Y-104139828D02*
X157851660Y-104412026D01*
X157851660Y-104412026D02*
X157630614Y-104619153D01*
X157630614Y-104619153D02*
X157431132Y-104788125D01*
X157431132Y-104788125D02*
X157220217Y-104945863D01*
X157220217Y-104945863D02*
X156964871Y-105119283D01*
X156964871Y-105119283D02*
X156774178Y-105243635D01*
X156774178Y-105243635D02*
X156042000Y-105654780D01*
X156042000Y-105654780D02*
X155229446Y-105999104D01*
X155229446Y-105999104D02*
X154371083Y-106263792D01*
X154371083Y-106263792D02*
X153593800Y-106422440D01*
X153593800Y-106422440D02*
X153396158Y-106440192D01*
X153396158Y-106440192D02*
X153104910Y-106450787D01*
X153104910Y-106450787D02*
X152753227Y-106454594D01*
X152753227Y-106454594D02*
X152374280Y-106451985D01*
X152374280Y-106451985D02*
X152001241Y-106443328D01*
X152001241Y-106443328D02*
X151667280Y-106428993D01*
X151667280Y-106428993D02*
X151405568Y-106409349D01*
X151405568Y-106409349D02*
X151307800Y-106396961D01*
X151307800Y-106396961D02*
X150801163Y-106301440D01*
X150801163Y-106301440D02*
X150312989Y-106182986D01*
X150312989Y-106182986D02*
X149880310Y-106051566D01*
X149880310Y-106051566D02*
X149561156Y-105926891D01*
X149561156Y-105926891D02*
X149366892Y-105841489D01*
X149366892Y-105841489D02*
X149219433Y-105783018D01*
X149219433Y-105783018D02*
X149159049Y-105765600D01*
X149159049Y-105765600D02*
X149077054Y-105732799D01*
X149077054Y-105732799D02*
X148914005Y-105644508D01*
X148914005Y-105644508D02*
X148694377Y-105515896D01*
X148694377Y-105515896D02*
X148442644Y-105362129D01*
X148442644Y-105362129D02*
X148183282Y-105198375D01*
X148183282Y-105198375D02*
X147940767Y-105039802D01*
X147940767Y-105039802D02*
X147739572Y-104901578D01*
X147739572Y-104901578D02*
X147619305Y-104811397D01*
X147619305Y-104811397D02*
X147445477Y-104660139D01*
X147445477Y-104660139D02*
X147214174Y-104445124D01*
X147214174Y-104445124D02*
X146954873Y-104195159D01*
X146954873Y-104195159D02*
X146697052Y-103939052D01*
X146697052Y-103939052D02*
X146470188Y-103705609D01*
X146470188Y-103705609D02*
X146315968Y-103537698D01*
X146315968Y-103537698D02*
X146136161Y-103305670D01*
X146136161Y-103305670D02*
X145924434Y-102991340D01*
X145924434Y-102991340D02*
X145700948Y-102628233D01*
X145700948Y-102628233D02*
X145485866Y-102249875D01*
X145485866Y-102249875D02*
X145299352Y-101889791D01*
X145299352Y-101889791D02*
X145212031Y-101702124D01*
X145212031Y-101702124D02*
X145026839Y-101219201D01*
X145026839Y-101219201D02*
X144857822Y-100661778D01*
X144857822Y-100661778D02*
X144713505Y-100068588D01*
X144713505Y-100068588D02*
X144602410Y-99478365D01*
X144602410Y-99478365D02*
X144533060Y-98929844D01*
X144533060Y-98929844D02*
X144513300Y-98526600D01*
X144513300Y-98526600D02*
X144540624Y-98043701D01*
X144540624Y-98043701D02*
X144616911Y-97486291D01*
X144616911Y-97486291D02*
X144733640Y-96893106D01*
X144733640Y-96893106D02*
X144882287Y-96302877D01*
X144882287Y-96302877D02*
X145054330Y-95754340D01*
X145054330Y-95754340D02*
X145212031Y-95351075D01*
X145212031Y-95351075D02*
X145374251Y-95012326D01*
X145374251Y-95012326D02*
X145573710Y-94638511D01*
X145573710Y-94638511D02*
X145774231Y-94296525D01*
X145774231Y-94296525D02*
X145828299Y-94211500D01*
X145828299Y-94211500D02*
X146017805Y-93924543D01*
X146017805Y-93924543D02*
X146169639Y-93708118D01*
X146169639Y-93708118D02*
X146313029Y-93524806D01*
X146313029Y-93524806D02*
X146477204Y-93337189D01*
X146477204Y-93337189D02*
X146685621Y-93113939D01*
X146685621Y-93113939D02*
X146921192Y-92865267D01*
X146921192Y-92865267D02*
X147796871Y-93746498D01*
X147796871Y-93746498D02*
X148095941Y-94040989D01*
X148095941Y-94040989D02*
X148392838Y-94321779D01*
X148392838Y-94321779D02*
X148665744Y-94569066D01*
X148665744Y-94569066D02*
X148892842Y-94763052D01*
X148892842Y-94763052D02*
X149044214Y-94878540D01*
X149044214Y-94878540D02*
X149451716Y-95151289D01*
X149451716Y-95151289D02*
X149763963Y-95354984D01*
X149763963Y-95354984D02*
X149988914Y-95494570D01*
X149988914Y-95494570D02*
X150134527Y-95574991D01*
X150134527Y-95574991D02*
X150207134Y-95601128D01*
X150207134Y-95601128D02*
X150293266Y-95647978D01*
X150293266Y-95647978D02*
X150302384Y-95665133D01*
X150302384Y-95665133D02*
X150369111Y-95719899D01*
X150369111Y-95719899D02*
X150530934Y-95811831D01*
X150530934Y-95811831D02*
X150765202Y-95930505D01*
X150765202Y-95930505D02*
X151049263Y-96065497D01*
X151049263Y-96065497D02*
X151360467Y-96206383D01*
X151360467Y-96206383D02*
X151676163Y-96342738D01*
X151676163Y-96342738D02*
X151973699Y-96464140D01*
X151973699Y-96464140D02*
X152230426Y-96560163D01*
X152230426Y-96560163D02*
X152294716Y-96582008D01*
X152294716Y-96582008D02*
X152577802Y-96684654D01*
X152577802Y-96684654D02*
X152762840Y-96777801D01*
X152762840Y-96777801D02*
X152876440Y-96876241D01*
X152876440Y-96876241D02*
X152910046Y-96924040D01*
X152910046Y-96924040D02*
X153043728Y-97109353D01*
X153043728Y-97109353D02*
X153256468Y-97360265D01*
X153256468Y-97360265D02*
X153530997Y-97659610D01*
X153530997Y-97659610D02*
X153850043Y-97990225D01*
X153850043Y-97990225D02*
X154196335Y-98334945D01*
X154196335Y-98334945D02*
X154552604Y-98676607D01*
X154552604Y-98676607D02*
X154901577Y-98998046D01*
X154901577Y-98998046D02*
X155225985Y-99282097D01*
X155225985Y-99282097D02*
X155508557Y-99511597D01*
X155508557Y-99511597D02*
X155530550Y-99528386D01*
X155530550Y-99528386D02*
X155710625Y-99659492D01*
X155710625Y-99659492D02*
X155943120Y-99820903D01*
X155943120Y-99820903D02*
X156206000Y-99998257D01*
X156206000Y-99998257D02*
X156477230Y-100177193D01*
X156477230Y-100177193D02*
X156734773Y-100343350D01*
X156734773Y-100343350D02*
X156956592Y-100482367D01*
X156956592Y-100482367D02*
X157120653Y-100579883D01*
X157120653Y-100579883D02*
X157204919Y-100621536D01*
X157204919Y-100621536D02*
X157208759Y-100622100D01*
X157208759Y-100622100D02*
X157274047Y-100576450D01*
X157274047Y-100576450D02*
X157276800Y-100558600D01*
X157276800Y-100558600D02*
X157235574Y-100496877D01*
X157235574Y-100496877D02*
X157222933Y-100495100D01*
X157222933Y-100495100D02*
X157178260Y-100459120D01*
X157178260Y-100459120D02*
X157114372Y-100344339D01*
X157114372Y-100344339D02*
X157026918Y-100140492D01*
X157026918Y-100140492D02*
X156911549Y-99837315D01*
X156911549Y-99837315D02*
X156763916Y-99424543D01*
X156763916Y-99424543D02*
X156738565Y-99352100D01*
X156738565Y-99352100D02*
X156578120Y-98816464D01*
X156578120Y-98816464D02*
X156440823Y-98190818D01*
X156440823Y-98190818D02*
X156323418Y-97459576D01*
X156323418Y-97459576D02*
X156290396Y-97207772D01*
X156290396Y-97207772D02*
X156275935Y-97081096D01*
X156275935Y-97081096D02*
X156258022Y-96987014D01*
X156258022Y-96987014D02*
X156219591Y-96912528D01*
X156219591Y-96912528D02*
X156143580Y-96844639D01*
X156143580Y-96844639D02*
X156012922Y-96770349D01*
X156012922Y-96770349D02*
X155810555Y-96676662D01*
X155810555Y-96676662D02*
X155519414Y-96550578D01*
X155519414Y-96550578D02*
X155308300Y-96459708D01*
X155308300Y-96459708D02*
X155087379Y-96359459D01*
X155087379Y-96359459D02*
X154904891Y-96267940D01*
X154904891Y-96267940D02*
X154800327Y-96204956D01*
X154800327Y-96204956D02*
X154800300Y-96204935D01*
X154800300Y-96204935D02*
X154686966Y-96130569D01*
X154686966Y-96130569D02*
X154513262Y-96033067D01*
X154513262Y-96033067D02*
X154436189Y-95993225D01*
X154436189Y-95993225D02*
X154255502Y-95892270D01*
X154255502Y-95892270D02*
X153997776Y-95734984D01*
X153997776Y-95734984D02*
X153689483Y-95538617D01*
X153689483Y-95538617D02*
X153357095Y-95320419D01*
X153357095Y-95320419D02*
X153027086Y-95097641D01*
X153027086Y-95097641D02*
X152725927Y-94887533D01*
X152725927Y-94887533D02*
X152600269Y-94796888D01*
X152600269Y-94796888D02*
X152145123Y-94461100D01*
X152145123Y-94461100D02*
X151789963Y-94192618D01*
X151789963Y-94192618D02*
X151529654Y-93987488D01*
X151529654Y-93987488D02*
X151359057Y-93841756D01*
X151359057Y-93841756D02*
X151356088Y-93839015D01*
X151356088Y-93839015D02*
X151235327Y-93743850D01*
X151235327Y-93743850D02*
X151154952Y-93710465D01*
X151154952Y-93710465D02*
X151145913Y-93714320D01*
X151145913Y-93714320D02*
X151147564Y-93787360D01*
X151147564Y-93787360D02*
X151184565Y-93948272D01*
X151184565Y-93948272D02*
X151249329Y-94165409D01*
X151249329Y-94165409D02*
X151266587Y-94217691D01*
X151266587Y-94217691D02*
X151338026Y-94440942D01*
X151338026Y-94440942D02*
X151386263Y-94612484D01*
X151386263Y-94612484D02*
X151402872Y-94701705D01*
X151402872Y-94701705D02*
X151401372Y-94707323D01*
X151401372Y-94707323D02*
X151339630Y-94686439D01*
X151339630Y-94686439D02*
X151196205Y-94604897D01*
X151196205Y-94604897D02*
X150992118Y-94476745D01*
X150992118Y-94476745D02*
X150748390Y-94316032D01*
X150748390Y-94316032D02*
X150486042Y-94136806D01*
X150486042Y-94136806D02*
X150226093Y-93953115D01*
X150226093Y-93953115D02*
X149989566Y-93779006D01*
X149989566Y-93779006D02*
X149846488Y-93668202D01*
X149846488Y-93668202D02*
X149632434Y-93487983D01*
X149632434Y-93487983D02*
X149363678Y-93247862D01*
X149363678Y-93247862D02*
X149074202Y-92978844D01*
X149074202Y-92978844D02*
X148797985Y-92711936D01*
X148797985Y-92711936D02*
X148791630Y-92705644D01*
X148791630Y-92705644D02*
X148536893Y-92448767D01*
X148536893Y-92448767D02*
X148367988Y-92266378D01*
X148367988Y-92266378D02*
X148276492Y-92147853D01*
X148276492Y-92147853D02*
X148253978Y-92082566D01*
X148253978Y-92082566D02*
X148280754Y-92061368D01*
X148280754Y-92061368D02*
X148408744Y-92060467D01*
X148408744Y-92060467D02*
X148620614Y-92082441D01*
X148620614Y-92082441D02*
X148876639Y-92121003D01*
X148876639Y-92121003D02*
X149137093Y-92169867D01*
X149137093Y-92169867D02*
X149362248Y-92222748D01*
X149362248Y-92222748D02*
X149434550Y-92243943D01*
X149434550Y-92243943D02*
X149579022Y-92287018D01*
X149579022Y-92287018D02*
X149807795Y-92351770D01*
X149807795Y-92351770D02*
X150082393Y-92427396D01*
X150082393Y-92427396D02*
X150228300Y-92466836D01*
X150228300Y-92466836D02*
X150522190Y-92550961D01*
X150522190Y-92550961D02*
X150799687Y-92639450D01*
X150799687Y-92639450D02*
X151017365Y-92718105D01*
X151017365Y-92718105D02*
X151085550Y-92747121D01*
X151085550Y-92747121D02*
X151281138Y-92834828D01*
X151281138Y-92834828D02*
X151534537Y-92943997D01*
X151534537Y-92943997D02*
X151752300Y-93035026D01*
X151752300Y-93035026D02*
X152090688Y-93189596D01*
X152090688Y-93189596D02*
X152495224Y-93398850D01*
X152495224Y-93398850D02*
X152929580Y-93642457D01*
X152929580Y-93642457D02*
X153357425Y-93900087D01*
X153357425Y-93900087D02*
X153720800Y-94136606D01*
X153720800Y-94136606D02*
X153989036Y-94323139D01*
X153989036Y-94323139D02*
X154264786Y-94520955D01*
X154264786Y-94520955D02*
X154524323Y-94712367D01*
X154524323Y-94712367D02*
X154743916Y-94879686D01*
X154743916Y-94879686D02*
X154899837Y-95005226D01*
X154899837Y-95005226D02*
X154959342Y-95059803D01*
X154959342Y-95059803D02*
X155029001Y-95130054D01*
X155029001Y-95130054D02*
X155168986Y-95267235D01*
X155168986Y-95267235D02*
X155357877Y-95450461D01*
X155357877Y-95450461D02*
X155540369Y-95626309D01*
X155540369Y-95626309D02*
X156057605Y-96123268D01*
X156057605Y-96123268D02*
X156683078Y-95986202D01*
X156683078Y-95986202D02*
X157610748Y-95842761D01*
X157610748Y-95842761D02*
X158554804Y-95811047D01*
X158554804Y-95811047D02*
X159484219Y-95891294D01*
X159484219Y-95891294D02*
X159880300Y-95962085D01*
X159880300Y-95962085D02*
X159985179Y-95977856D01*
X159985179Y-95977856D02*
X159980634Y-95948989D01*
X159980634Y-95948989D02*
X159938231Y-95911551D01*
X159938231Y-95911551D02*
X159387237Y-95492773D01*
X159387237Y-95492773D02*
X158760494Y-95082768D01*
X158760494Y-95082768D02*
X158148514Y-94735425D01*
X158148514Y-94735425D02*
X157931838Y-94619670D01*
X157931838Y-94619670D02*
X157761670Y-94525121D01*
X157761670Y-94525121D02*
X157666983Y-94467996D01*
X157666983Y-94467996D02*
X157657800Y-94460768D01*
X157657800Y-94460768D02*
X157588533Y-94421250D01*
X157588533Y-94421250D02*
X157432407Y-94345825D01*
X157432407Y-94345825D02*
X157219241Y-94248742D01*
X157219241Y-94248742D02*
X157149800Y-94218039D01*
X157149800Y-94218039D02*
X156885812Y-94101250D01*
X156885812Y-94101250D02*
X156631218Y-93987183D01*
X156631218Y-93987183D02*
X156436506Y-93898475D01*
X156436506Y-93898475D02*
X156419550Y-93890604D01*
X156419550Y-93890604D02*
X156130840Y-93770286D01*
X156130840Y-93770286D02*
X155749279Y-93631663D01*
X155749279Y-93631663D02*
X155305943Y-93484211D01*
X155305943Y-93484211D02*
X154831906Y-93337404D01*
X154831906Y-93337404D02*
X154358241Y-93200717D01*
X154358241Y-93200717D02*
X153916025Y-93083625D01*
X153916025Y-93083625D02*
X153536331Y-92995602D01*
X153536331Y-92995602D02*
X153392920Y-92967782D01*
X153392920Y-92967782D02*
X153203488Y-92911544D01*
X153203488Y-92911544D02*
X153053480Y-92829767D01*
X153053480Y-92829767D02*
X153043670Y-92821438D01*
X153043670Y-92821438D02*
X152862055Y-92683289D01*
X152862055Y-92683289D02*
X152586887Y-92506277D01*
X152586887Y-92506277D02*
X152240921Y-92302546D01*
X152240921Y-92302546D02*
X151846911Y-92084235D01*
X151846911Y-92084235D02*
X151427612Y-91863488D01*
X151427612Y-91863488D02*
X151005779Y-91652445D01*
X151005779Y-91652445D02*
X150604168Y-91463250D01*
X150604168Y-91463250D02*
X150245533Y-91308043D01*
X150245533Y-91308043D02*
X150101300Y-91251420D01*
X150101300Y-91251420D02*
X149625050Y-91072313D01*
X149625050Y-91072313D02*
X150069550Y-90932448D01*
X150069550Y-90932448D02*
X150788368Y-90753512D01*
X150788368Y-90753512D02*
X151576598Y-90640102D01*
X151576598Y-90640102D02*
X152396724Y-90593332D01*
X152396724Y-90593332D02*
X153211229Y-90614320D01*
X153211229Y-90614320D02*
X153982596Y-90704181D01*
X153982596Y-90704181D02*
X154451050Y-90802066D01*
X154451050Y-90802066D02*
X155101132Y-91002557D01*
X155101132Y-91002557D02*
X155768555Y-91273058D01*
X155768555Y-91273058D02*
X156416868Y-91595511D01*
X156416868Y-91595511D02*
X157009616Y-91951855D01*
X157009616Y-91951855D02*
X157492269Y-92308836D01*
X157492269Y-92308836D02*
X157855982Y-92636120D01*
X157855982Y-92636120D02*
X158232848Y-93015879D01*
X158232848Y-93015879D02*
X158593918Y-93416053D01*
X158593918Y-93416053D02*
X158910245Y-93804577D01*
X158910245Y-93804577D02*
X159150180Y-94145100D01*
X159150180Y-94145100D02*
X159287769Y-94362470D01*
X159287769Y-94362470D02*
X159425181Y-94578270D01*
X159425181Y-94578270D02*
X159473107Y-94653100D01*
X159473107Y-94653100D02*
X159572815Y-94830853D01*
X159572815Y-94830853D02*
X159689567Y-95071251D01*
X159689567Y-95071251D02*
X159783797Y-95288100D01*
X159783797Y-95288100D02*
X159882801Y-95529006D01*
X159882801Y-95529006D02*
X159975343Y-95750115D01*
X159975343Y-95750115D02*
X160036063Y-95891350D01*
X160036063Y-95891350D02*
X160088171Y-96036603D01*
X160088171Y-96036603D02*
X160157346Y-96266685D01*
X160157346Y-96266685D02*
X160232206Y-96542650D01*
X160232206Y-96542650D02*
X160268071Y-96685100D01*
X160268071Y-96685100D02*
X160321195Y-96916630D01*
X160321195Y-96916630D02*
X160359956Y-97130682D01*
X160359956Y-97130682D02*
X160386493Y-97354213D01*
X160386493Y-97354213D02*
X160402942Y-97614181D01*
X160402942Y-97614181D02*
X160411441Y-97937544D01*
X160411441Y-97937544D02*
X160414127Y-98351258D01*
X160414127Y-98351258D02*
X161309276Y-98351258D01*
X161309276Y-98351258D02*
X161296731Y-97902449D01*
X161296731Y-97902449D02*
X161291250Y-97843975D01*
X161291250Y-97843975D02*
X161139921Y-96802195D01*
X161139921Y-96802195D02*
X160895366Y-95835732D01*
X160895366Y-95835732D02*
X160550213Y-94926318D01*
X160550213Y-94926318D02*
X160097091Y-94055684D01*
X160097091Y-94055684D02*
X159528628Y-93205564D01*
X159528628Y-93205564D02*
X159298958Y-92906850D01*
X159298958Y-92906850D02*
X158683361Y-92227936D01*
X158683361Y-92227936D02*
X157968034Y-91607860D01*
X157968034Y-91607860D02*
X157171184Y-91058347D01*
X157171184Y-91058347D02*
X156311020Y-90591125D01*
X156311020Y-90591125D02*
X155405751Y-90217922D01*
X155405751Y-90217922D02*
X154857957Y-90046607D01*
X154857957Y-90046607D02*
X153825879Y-89821867D01*
X153825879Y-89821867D02*
X152806030Y-89722256D01*
X152806030Y-89722256D02*
X151789340Y-89747703D01*
X151789340Y-89747703D02*
X151789340Y-89747703D01*
G36*
X161251521Y-99576872D02*
G01*
X161095435Y-100463350D01*
X160964154Y-100996180D01*
X160820607Y-101459565D01*
X160646073Y-101906165D01*
X160421277Y-102391092D01*
X160213349Y-102790714D01*
X159651134Y-103684214D01*
X158997874Y-104490363D01*
X158255673Y-105206746D01*
X157426634Y-105830944D01*
X157352450Y-105879622D01*
X156492714Y-106377728D01*
X155605870Y-106767616D01*
X154668528Y-107058142D01*
X153657300Y-107258161D01*
X153643802Y-107260164D01*
X152670629Y-107340675D01*
X151683810Y-107300989D01*
X150696960Y-107144857D01*
X149723695Y-106876027D01*
X148777628Y-106498248D01*
X147872375Y-106015271D01*
X147021550Y-105430843D01*
X146993799Y-105409063D01*
X146737559Y-105187964D01*
X146441065Y-104904883D01*
X146131751Y-104588633D01*
X145837049Y-104268027D01*
X145584391Y-103971877D01*
X145401212Y-103728996D01*
X145373135Y-103687494D01*
X145240724Y-103495898D01*
X145137938Y-103353692D01*
X145085062Y-103289100D01*
X145049080Y-103245043D01*
X144960727Y-103098404D01*
X144842482Y-102878060D01*
X144706911Y-102609670D01*
X144566578Y-102318894D01*
X144434049Y-102031390D01*
X144321889Y-101772819D01*
X144242663Y-101568840D01*
X144175904Y-101374759D01*
X144029986Y-100921238D01*
X143920117Y-100516511D01*
X143842171Y-100131365D01*
X143792018Y-99736583D01*
X143765533Y-99302950D01*
X143758587Y-98801250D01*
X143762469Y-98526600D01*
X144513300Y-98526600D01*
X144533060Y-98929844D01*
X144602410Y-99478365D01*
X144713505Y-100068588D01*
X144857822Y-100661778D01*
X145026839Y-101219201D01*
X145212031Y-101702124D01*
X145299352Y-101889791D01*
X145485866Y-102249875D01*
X145700948Y-102628233D01*
X145924434Y-102991340D01*
X146136161Y-103305670D01*
X146315968Y-103537698D01*
X146470188Y-103705609D01*
X146697052Y-103939052D01*
X146954873Y-104195159D01*
X147214174Y-104445124D01*
X147445477Y-104660139D01*
X147619305Y-104811397D01*
X147739572Y-104901578D01*
X147940767Y-105039802D01*
X148183282Y-105198375D01*
X148442644Y-105362129D01*
X148694377Y-105515896D01*
X148914005Y-105644508D01*
X149077054Y-105732799D01*
X149159049Y-105765600D01*
X149219433Y-105783018D01*
X149366892Y-105841489D01*
X149561156Y-105926891D01*
X149880310Y-106051566D01*
X150312989Y-106182986D01*
X150801163Y-106301440D01*
X151307800Y-106396961D01*
X151405568Y-106409349D01*
X151667280Y-106428993D01*
X152001241Y-106443328D01*
X152374280Y-106451985D01*
X152753227Y-106454594D01*
X153104910Y-106450787D01*
X153396158Y-106440192D01*
X153593800Y-106422440D01*
X154371083Y-106263792D01*
X155229446Y-105999104D01*
X156042000Y-105654780D01*
X156774178Y-105243635D01*
X156964871Y-105119283D01*
X157220217Y-104945863D01*
X157431132Y-104788125D01*
X157630614Y-104619153D01*
X157851660Y-104412026D01*
X158127269Y-104139828D01*
X158345261Y-103917668D01*
X158665210Y-103566261D01*
X158916634Y-103246733D01*
X159120849Y-102930905D01*
X159299169Y-102590600D01*
X159389918Y-102395861D01*
X159455165Y-102231802D01*
X159495543Y-102076081D01*
X159517164Y-101894863D01*
X159526142Y-101654314D01*
X159528586Y-101320600D01*
X159528756Y-101219517D01*
X159525181Y-100897343D01*
X159511201Y-100656904D01*
X159481930Y-100462298D01*
X159432482Y-100277622D01*
X159357971Y-100066973D01*
X159355125Y-100059423D01*
X159074398Y-99409616D01*
X158747376Y-98845132D01*
X158348342Y-98327588D01*
X157851579Y-97818597D01*
X157826005Y-97794630D01*
X157568172Y-97537082D01*
X157407530Y-97335165D01*
X157337214Y-97173748D01*
X157350355Y-97037698D01*
X157440086Y-96911885D01*
X157563567Y-96829642D01*
X157754942Y-96818124D01*
X157990085Y-96914734D01*
X158276945Y-97121463D01*
X158619378Y-97429484D01*
X159187919Y-98070354D01*
X159660640Y-98794213D01*
X160038200Y-99601987D01*
X160291349Y-100253678D01*
X160351886Y-100009264D01*
X160352227Y-100007869D01*
X160371300Y-99866140D01*
X160388057Y-99622493D01*
X160401463Y-99301585D01*
X160410483Y-98928069D01*
X160414084Y-98526600D01*
X160414127Y-98351258D01*
X160411441Y-97937544D01*
X160402942Y-97614181D01*
X160386493Y-97354213D01*
X160359956Y-97130682D01*
X160321195Y-96916630D01*
X160268071Y-96685100D01*
X160232206Y-96542650D01*
X160157346Y-96266685D01*
X160088171Y-96036603D01*
X160036063Y-95891350D01*
X159975343Y-95750115D01*
X159882801Y-95529006D01*
X159783797Y-95288100D01*
X159689567Y-95071251D01*
X159572815Y-94830853D01*
X159473107Y-94653100D01*
X159425181Y-94578270D01*
X159287769Y-94362470D01*
X159150180Y-94145100D01*
X158910245Y-93804577D01*
X158593918Y-93416053D01*
X158232848Y-93015879D01*
X157855982Y-92636120D01*
X157492269Y-92308836D01*
X157009616Y-91951855D01*
X156416868Y-91595511D01*
X155768555Y-91273058D01*
X155101132Y-91002557D01*
X154451050Y-90802066D01*
X153982596Y-90704181D01*
X153211229Y-90614320D01*
X152396724Y-90593332D01*
X151576598Y-90640102D01*
X150788368Y-90753512D01*
X150069550Y-90932448D01*
X149625050Y-91072313D01*
X150101300Y-91251420D01*
X150245533Y-91308043D01*
X150604168Y-91463250D01*
X151005779Y-91652445D01*
X151427612Y-91863488D01*
X151846911Y-92084235D01*
X152240921Y-92302546D01*
X152586887Y-92506277D01*
X152862055Y-92683289D01*
X153043670Y-92821438D01*
X153053480Y-92829767D01*
X153203488Y-92911544D01*
X153392920Y-92967782D01*
X153536331Y-92995602D01*
X153916025Y-93083625D01*
X154358241Y-93200717D01*
X154831906Y-93337404D01*
X155305943Y-93484211D01*
X155749279Y-93631663D01*
X156130840Y-93770286D01*
X156419550Y-93890604D01*
X156436506Y-93898475D01*
X156631218Y-93987183D01*
X156885812Y-94101250D01*
X157149800Y-94218039D01*
X157219241Y-94248742D01*
X157432407Y-94345825D01*
X157588533Y-94421250D01*
X157657800Y-94460768D01*
X157666983Y-94467996D01*
X157761670Y-94525121D01*
X157931838Y-94619670D01*
X158148514Y-94735425D01*
X158760494Y-95082768D01*
X159387237Y-95492773D01*
X159938231Y-95911551D01*
X159980634Y-95948989D01*
X159985179Y-95977856D01*
X159880300Y-95962085D01*
X159484219Y-95891294D01*
X158554804Y-95811047D01*
X157610748Y-95842761D01*
X156683078Y-95986202D01*
X156057605Y-96123268D01*
X155540369Y-95626309D01*
X155357877Y-95450461D01*
X155168986Y-95267235D01*
X155029001Y-95130054D01*
X154959342Y-95059803D01*
X154899837Y-95005226D01*
X154743916Y-94879686D01*
X154524323Y-94712367D01*
X154264786Y-94520955D01*
X153989036Y-94323139D01*
X153720800Y-94136606D01*
X153357425Y-93900087D01*
X152929580Y-93642457D01*
X152495224Y-93398850D01*
X152090688Y-93189596D01*
X151752300Y-93035026D01*
X151534537Y-92943997D01*
X151281138Y-92834828D01*
X151085550Y-92747121D01*
X151017365Y-92718105D01*
X150799687Y-92639450D01*
X150522190Y-92550961D01*
X150228300Y-92466836D01*
X150082393Y-92427396D01*
X149807795Y-92351770D01*
X149579022Y-92287018D01*
X149434550Y-92243943D01*
X149362248Y-92222748D01*
X149137093Y-92169867D01*
X148876639Y-92121003D01*
X148620614Y-92082441D01*
X148408744Y-92060467D01*
X148280754Y-92061368D01*
X148253978Y-92082566D01*
X148276492Y-92147853D01*
X148367988Y-92266378D01*
X148536893Y-92448767D01*
X148791630Y-92705644D01*
X148797985Y-92711936D01*
X149074202Y-92978844D01*
X149363678Y-93247862D01*
X149632434Y-93487983D01*
X149846488Y-93668202D01*
X149989566Y-93779006D01*
X150226093Y-93953115D01*
X150486042Y-94136806D01*
X150748390Y-94316032D01*
X150992118Y-94476745D01*
X151196205Y-94604897D01*
X151339630Y-94686439D01*
X151401372Y-94707323D01*
X151402872Y-94701705D01*
X151386263Y-94612484D01*
X151338026Y-94440942D01*
X151266587Y-94217691D01*
X151249329Y-94165409D01*
X151184565Y-93948272D01*
X151147564Y-93787360D01*
X151145913Y-93714320D01*
X151154952Y-93710465D01*
X151235327Y-93743850D01*
X151356088Y-93839015D01*
X151359057Y-93841756D01*
X151529654Y-93987488D01*
X151789963Y-94192618D01*
X152145123Y-94461100D01*
X152600269Y-94796888D01*
X152725927Y-94887533D01*
X153027086Y-95097641D01*
X153357095Y-95320419D01*
X153689483Y-95538617D01*
X153997776Y-95734984D01*
X154255502Y-95892270D01*
X154436189Y-95993225D01*
X154513262Y-96033067D01*
X154686966Y-96130569D01*
X154800300Y-96204935D01*
X154800327Y-96204956D01*
X154904891Y-96267940D01*
X155087379Y-96359459D01*
X155308300Y-96459708D01*
X155519414Y-96550578D01*
X155810555Y-96676662D01*
X156012922Y-96770349D01*
X156143580Y-96844639D01*
X156219591Y-96912528D01*
X156258022Y-96987014D01*
X156275935Y-97081096D01*
X156290396Y-97207772D01*
X156323418Y-97459576D01*
X156440823Y-98190818D01*
X156578120Y-98816464D01*
X156738565Y-99352100D01*
X156763916Y-99424543D01*
X156911549Y-99837315D01*
X157026918Y-100140492D01*
X157114372Y-100344339D01*
X157178260Y-100459120D01*
X157222933Y-100495100D01*
X157235574Y-100496877D01*
X157276800Y-100558600D01*
X157274047Y-100576450D01*
X157208759Y-100622100D01*
X157204919Y-100621536D01*
X157120653Y-100579883D01*
X156956592Y-100482367D01*
X156734773Y-100343350D01*
X156477230Y-100177193D01*
X156206000Y-99998257D01*
X155943120Y-99820903D01*
X155710625Y-99659492D01*
X155530550Y-99528386D01*
X155508557Y-99511597D01*
X155225985Y-99282097D01*
X154901577Y-98998046D01*
X154552604Y-98676607D01*
X154196335Y-98334945D01*
X153850043Y-97990225D01*
X153530997Y-97659610D01*
X153256468Y-97360265D01*
X153043728Y-97109353D01*
X152910046Y-96924040D01*
X152876440Y-96876241D01*
X152762840Y-96777801D01*
X152577802Y-96684654D01*
X152294716Y-96582008D01*
X152230426Y-96560163D01*
X151973699Y-96464140D01*
X151676163Y-96342738D01*
X151360467Y-96206383D01*
X151049263Y-96065497D01*
X150765202Y-95930505D01*
X150530934Y-95811831D01*
X150369111Y-95719899D01*
X150302384Y-95665133D01*
X150293266Y-95647978D01*
X150207134Y-95601128D01*
X150134527Y-95574991D01*
X149988914Y-95494570D01*
X149763963Y-95354984D01*
X149451716Y-95151289D01*
X149044214Y-94878540D01*
X148892842Y-94763052D01*
X148665744Y-94569066D01*
X148392838Y-94321779D01*
X148095941Y-94040989D01*
X147796871Y-93746498D01*
X146921192Y-92865267D01*
X146685621Y-93113939D01*
X146477204Y-93337189D01*
X146313029Y-93524806D01*
X146169639Y-93708118D01*
X146017805Y-93924543D01*
X145828299Y-94211500D01*
X145774231Y-94296525D01*
X145573710Y-94638511D01*
X145374251Y-95012326D01*
X145212031Y-95351075D01*
X145054330Y-95754340D01*
X144882287Y-96302877D01*
X144733640Y-96893106D01*
X144616911Y-97486291D01*
X144540624Y-98043701D01*
X144513300Y-98526600D01*
X143762469Y-98526600D01*
X143767053Y-98202268D01*
X143772921Y-97955129D01*
X143786226Y-97548069D01*
X143806363Y-97219469D01*
X143838717Y-96937144D01*
X143888673Y-96668911D01*
X143961619Y-96382584D01*
X144062939Y-96045980D01*
X144198019Y-95626914D01*
X144258134Y-95458331D01*
X144367190Y-95187075D01*
X144498892Y-94884124D01*
X144641422Y-94574340D01*
X144782963Y-94282584D01*
X144911696Y-94033718D01*
X145015805Y-93852602D01*
X145083473Y-93764100D01*
X145085776Y-93762173D01*
X145145306Y-93689214D01*
X145251776Y-93542471D01*
X145383788Y-93351350D01*
X145412628Y-93309540D01*
X145595816Y-93064425D01*
X145817667Y-92790874D01*
X146036500Y-92540657D01*
X146431508Y-92110965D01*
X146314757Y-91937407D01*
X146288092Y-91894504D01*
X146194544Y-91722188D01*
X146077395Y-91486546D01*
X145955783Y-91225530D01*
X145853067Y-90993416D01*
X145785061Y-90820985D01*
X145761123Y-90715761D01*
X145775907Y-90652612D01*
X145824066Y-90606405D01*
X145833886Y-90600272D01*
X145968993Y-90563992D01*
X146201859Y-90539728D01*
X146507377Y-90527545D01*
X146860441Y-90527508D01*
X147235944Y-90539680D01*
X147608780Y-90564128D01*
X147953842Y-90600915D01*
X147978593Y-90604208D01*
X148242658Y-90636969D01*
X148422881Y-90647855D01*
X148558216Y-90632892D01*
X148687617Y-90588108D01*
X148850039Y-90509533D01*
X149026788Y-90422141D01*
X149217080Y-90335763D01*
X149407381Y-90262132D01*
X149628534Y-90190538D01*
X149911382Y-90110269D01*
X150286770Y-90010615D01*
X150766736Y-89898136D01*
X151789340Y-89747703D01*
X152806030Y-89722256D01*
X153825879Y-89821867D01*
X154857957Y-90046607D01*
X155405751Y-90217922D01*
X156311020Y-90591125D01*
X157171184Y-91058347D01*
X157968034Y-91607860D01*
X158683361Y-92227936D01*
X159298958Y-92906850D01*
X159528628Y-93205564D01*
X160097091Y-94055684D01*
X160550213Y-94926318D01*
X160895366Y-95835732D01*
X161139921Y-96802195D01*
X161291250Y-97843975D01*
X161296731Y-97902449D01*
X161309276Y-98351258D01*
X161319386Y-98712976D01*
X161251521Y-99576872D01*
G37*
X161251521Y-99576872D02*
X161095435Y-100463350D01*
X160964154Y-100996180D01*
X160820607Y-101459565D01*
X160646073Y-101906165D01*
X160421277Y-102391092D01*
X160213349Y-102790714D01*
X159651134Y-103684214D01*
X158997874Y-104490363D01*
X158255673Y-105206746D01*
X157426634Y-105830944D01*
X157352450Y-105879622D01*
X156492714Y-106377728D01*
X155605870Y-106767616D01*
X154668528Y-107058142D01*
X153657300Y-107258161D01*
X153643802Y-107260164D01*
X152670629Y-107340675D01*
X151683810Y-107300989D01*
X150696960Y-107144857D01*
X149723695Y-106876027D01*
X148777628Y-106498248D01*
X147872375Y-106015271D01*
X147021550Y-105430843D01*
X146993799Y-105409063D01*
X146737559Y-105187964D01*
X146441065Y-104904883D01*
X146131751Y-104588633D01*
X145837049Y-104268027D01*
X145584391Y-103971877D01*
X145401212Y-103728996D01*
X145373135Y-103687494D01*
X145240724Y-103495898D01*
X145137938Y-103353692D01*
X145085062Y-103289100D01*
X145049080Y-103245043D01*
X144960727Y-103098404D01*
X144842482Y-102878060D01*
X144706911Y-102609670D01*
X144566578Y-102318894D01*
X144434049Y-102031390D01*
X144321889Y-101772819D01*
X144242663Y-101568840D01*
X144175904Y-101374759D01*
X144029986Y-100921238D01*
X143920117Y-100516511D01*
X143842171Y-100131365D01*
X143792018Y-99736583D01*
X143765533Y-99302950D01*
X143758587Y-98801250D01*
X143762469Y-98526600D01*
X144513300Y-98526600D01*
X144533060Y-98929844D01*
X144602410Y-99478365D01*
X144713505Y-100068588D01*
X144857822Y-100661778D01*
X145026839Y-101219201D01*
X145212031Y-101702124D01*
X145299352Y-101889791D01*
X145485866Y-102249875D01*
X145700948Y-102628233D01*
X145924434Y-102991340D01*
X146136161Y-103305670D01*
X146315968Y-103537698D01*
X146470188Y-103705609D01*
X146697052Y-103939052D01*
X146954873Y-104195159D01*
X147214174Y-104445124D01*
X147445477Y-104660139D01*
X147619305Y-104811397D01*
X147739572Y-104901578D01*
X147940767Y-105039802D01*
X148183282Y-105198375D01*
X148442644Y-105362129D01*
X148694377Y-105515896D01*
X148914005Y-105644508D01*
X149077054Y-105732799D01*
X149159049Y-105765600D01*
X149219433Y-105783018D01*
X149366892Y-105841489D01*
X149561156Y-105926891D01*
X149880310Y-106051566D01*
X150312989Y-106182986D01*
X150801163Y-106301440D01*
X151307800Y-106396961D01*
X151405568Y-106409349D01*
X151667280Y-106428993D01*
X152001241Y-106443328D01*
X152374280Y-106451985D01*
X152753227Y-106454594D01*
X153104910Y-106450787D01*
X153396158Y-106440192D01*
X153593800Y-106422440D01*
X154371083Y-106263792D01*
X155229446Y-105999104D01*
X156042000Y-105654780D01*
X156774178Y-105243635D01*
X156964871Y-105119283D01*
X157220217Y-104945863D01*
X157431132Y-104788125D01*
X157630614Y-104619153D01*
X157851660Y-104412026D01*
X158127269Y-104139828D01*
X158345261Y-103917668D01*
X158665210Y-103566261D01*
X158916634Y-103246733D01*
X159120849Y-102930905D01*
X159299169Y-102590600D01*
X159389918Y-102395861D01*
X159455165Y-102231802D01*
X159495543Y-102076081D01*
X159517164Y-101894863D01*
X159526142Y-101654314D01*
X159528586Y-101320600D01*
X159528756Y-101219517D01*
X159525181Y-100897343D01*
X159511201Y-100656904D01*
X159481930Y-100462298D01*
X159432482Y-100277622D01*
X159357971Y-100066973D01*
X159355125Y-100059423D01*
X159074398Y-99409616D01*
X158747376Y-98845132D01*
X158348342Y-98327588D01*
X157851579Y-97818597D01*
X157826005Y-97794630D01*
X157568172Y-97537082D01*
X157407530Y-97335165D01*
X157337214Y-97173748D01*
X157350355Y-97037698D01*
X157440086Y-96911885D01*
X157563567Y-96829642D01*
X157754942Y-96818124D01*
X157990085Y-96914734D01*
X158276945Y-97121463D01*
X158619378Y-97429484D01*
X159187919Y-98070354D01*
X159660640Y-98794213D01*
X160038200Y-99601987D01*
X160291349Y-100253678D01*
X160351886Y-100009264D01*
X160352227Y-100007869D01*
X160371300Y-99866140D01*
X160388057Y-99622493D01*
X160401463Y-99301585D01*
X160410483Y-98928069D01*
X160414084Y-98526600D01*
X160414127Y-98351258D01*
X160411441Y-97937544D01*
X160402942Y-97614181D01*
X160386493Y-97354213D01*
X160359956Y-97130682D01*
X160321195Y-96916630D01*
X160268071Y-96685100D01*
X160232206Y-96542650D01*
X160157346Y-96266685D01*
X160088171Y-96036603D01*
X160036063Y-95891350D01*
X159975343Y-95750115D01*
X159882801Y-95529006D01*
X159783797Y-95288100D01*
X159689567Y-95071251D01*
X159572815Y-94830853D01*
X159473107Y-94653100D01*
X159425181Y-94578270D01*
X159287769Y-94362470D01*
X159150180Y-94145100D01*
X158910245Y-93804577D01*
X158593918Y-93416053D01*
X158232848Y-93015879D01*
X157855982Y-92636120D01*
X157492269Y-92308836D01*
X157009616Y-91951855D01*
X156416868Y-91595511D01*
X155768555Y-91273058D01*
X155101132Y-91002557D01*
X154451050Y-90802066D01*
X153982596Y-90704181D01*
X153211229Y-90614320D01*
X152396724Y-90593332D01*
X151576598Y-90640102D01*
X150788368Y-90753512D01*
X150069550Y-90932448D01*
X149625050Y-91072313D01*
X150101300Y-91251420D01*
X150245533Y-91308043D01*
X150604168Y-91463250D01*
X151005779Y-91652445D01*
X151427612Y-91863488D01*
X151846911Y-92084235D01*
X152240921Y-92302546D01*
X152586887Y-92506277D01*
X152862055Y-92683289D01*
X153043670Y-92821438D01*
X153053480Y-92829767D01*
X153203488Y-92911544D01*
X153392920Y-92967782D01*
X153536331Y-92995602D01*
X153916025Y-93083625D01*
X154358241Y-93200717D01*
X154831906Y-93337404D01*
X155305943Y-93484211D01*
X155749279Y-93631663D01*
X156130840Y-93770286D01*
X156419550Y-93890604D01*
X156436506Y-93898475D01*
X156631218Y-93987183D01*
X156885812Y-94101250D01*
X157149800Y-94218039D01*
X157219241Y-94248742D01*
X157432407Y-94345825D01*
X157588533Y-94421250D01*
X157657800Y-94460768D01*
X157666983Y-94467996D01*
X157761670Y-94525121D01*
X157931838Y-94619670D01*
X158148514Y-94735425D01*
X158760494Y-95082768D01*
X159387237Y-95492773D01*
X159938231Y-95911551D01*
X159980634Y-95948989D01*
X159985179Y-95977856D01*
X159880300Y-95962085D01*
X159484219Y-95891294D01*
X158554804Y-95811047D01*
X157610748Y-95842761D01*
X156683078Y-95986202D01*
X156057605Y-96123268D01*
X155540369Y-95626309D01*
X155357877Y-95450461D01*
X155168986Y-95267235D01*
X155029001Y-95130054D01*
X154959342Y-95059803D01*
X154899837Y-95005226D01*
X154743916Y-94879686D01*
X154524323Y-94712367D01*
X154264786Y-94520955D01*
X153989036Y-94323139D01*
X153720800Y-94136606D01*
X153357425Y-93900087D01*
X152929580Y-93642457D01*
X152495224Y-93398850D01*
X152090688Y-93189596D01*
X151752300Y-93035026D01*
X151534537Y-92943997D01*
X151281138Y-92834828D01*
X151085550Y-92747121D01*
X151017365Y-92718105D01*
X150799687Y-92639450D01*
X150522190Y-92550961D01*
X150228300Y-92466836D01*
X150082393Y-92427396D01*
X149807795Y-92351770D01*
X149579022Y-92287018D01*
X149434550Y-92243943D01*
X149362248Y-92222748D01*
X149137093Y-92169867D01*
X148876639Y-92121003D01*
X148620614Y-92082441D01*
X148408744Y-92060467D01*
X148280754Y-92061368D01*
X148253978Y-92082566D01*
X148276492Y-92147853D01*
X148367988Y-92266378D01*
X148536893Y-92448767D01*
X148791630Y-92705644D01*
X148797985Y-92711936D01*
X149074202Y-92978844D01*
X149363678Y-93247862D01*
X149632434Y-93487983D01*
X149846488Y-93668202D01*
X149989566Y-93779006D01*
X150226093Y-93953115D01*
X150486042Y-94136806D01*
X150748390Y-94316032D01*
X150992118Y-94476745D01*
X151196205Y-94604897D01*
X151339630Y-94686439D01*
X151401372Y-94707323D01*
X151402872Y-94701705D01*
X151386263Y-94612484D01*
X151338026Y-94440942D01*
X151266587Y-94217691D01*
X151249329Y-94165409D01*
X151184565Y-93948272D01*
X151147564Y-93787360D01*
X151145913Y-93714320D01*
X151154952Y-93710465D01*
X151235327Y-93743850D01*
X151356088Y-93839015D01*
X151359057Y-93841756D01*
X151529654Y-93987488D01*
X151789963Y-94192618D01*
X152145123Y-94461100D01*
X152600269Y-94796888D01*
X152725927Y-94887533D01*
X153027086Y-95097641D01*
X153357095Y-95320419D01*
X153689483Y-95538617D01*
X153997776Y-95734984D01*
X154255502Y-95892270D01*
X154436189Y-95993225D01*
X154513262Y-96033067D01*
X154686966Y-96130569D01*
X154800300Y-96204935D01*
X154800327Y-96204956D01*
X154904891Y-96267940D01*
X155087379Y-96359459D01*
X155308300Y-96459708D01*
X155519414Y-96550578D01*
X155810555Y-96676662D01*
X156012922Y-96770349D01*
X156143580Y-96844639D01*
X156219591Y-96912528D01*
X156258022Y-96987014D01*
X156275935Y-97081096D01*
X156290396Y-97207772D01*
X156323418Y-97459576D01*
X156440823Y-98190818D01*
X156578120Y-98816464D01*
X156738565Y-99352100D01*
X156763916Y-99424543D01*
X156911549Y-99837315D01*
X157026918Y-100140492D01*
X157114372Y-100344339D01*
X157178260Y-100459120D01*
X157222933Y-100495100D01*
X157235574Y-100496877D01*
X157276800Y-100558600D01*
X157274047Y-100576450D01*
X157208759Y-100622100D01*
X157204919Y-100621536D01*
X157120653Y-100579883D01*
X156956592Y-100482367D01*
X156734773Y-100343350D01*
X156477230Y-100177193D01*
X156206000Y-99998257D01*
X155943120Y-99820903D01*
X155710625Y-99659492D01*
X155530550Y-99528386D01*
X155508557Y-99511597D01*
X155225985Y-99282097D01*
X154901577Y-98998046D01*
X154552604Y-98676607D01*
X154196335Y-98334945D01*
X153850043Y-97990225D01*
X153530997Y-97659610D01*
X153256468Y-97360265D01*
X153043728Y-97109353D01*
X152910046Y-96924040D01*
X152876440Y-96876241D01*
X152762840Y-96777801D01*
X152577802Y-96684654D01*
X152294716Y-96582008D01*
X152230426Y-96560163D01*
X151973699Y-96464140D01*
X151676163Y-96342738D01*
X151360467Y-96206383D01*
X151049263Y-96065497D01*
X150765202Y-95930505D01*
X150530934Y-95811831D01*
X150369111Y-95719899D01*
X150302384Y-95665133D01*
X150293266Y-95647978D01*
X150207134Y-95601128D01*
X150134527Y-95574991D01*
X149988914Y-95494570D01*
X149763963Y-95354984D01*
X149451716Y-95151289D01*
X149044214Y-94878540D01*
X148892842Y-94763052D01*
X148665744Y-94569066D01*
X148392838Y-94321779D01*
X148095941Y-94040989D01*
X147796871Y-93746498D01*
X146921192Y-92865267D01*
X146685621Y-93113939D01*
X146477204Y-93337189D01*
X146313029Y-93524806D01*
X146169639Y-93708118D01*
X146017805Y-93924543D01*
X145828299Y-94211500D01*
X145774231Y-94296525D01*
X145573710Y-94638511D01*
X145374251Y-95012326D01*
X145212031Y-95351075D01*
X145054330Y-95754340D01*
X144882287Y-96302877D01*
X144733640Y-96893106D01*
X144616911Y-97486291D01*
X144540624Y-98043701D01*
X144513300Y-98526600D01*
X143762469Y-98526600D01*
X143767053Y-98202268D01*
X143772921Y-97955129D01*
X143786226Y-97548069D01*
X143806363Y-97219469D01*
X143838717Y-96937144D01*
X143888673Y-96668911D01*
X143961619Y-96382584D01*
X144062939Y-96045980D01*
X144198019Y-95626914D01*
X144258134Y-95458331D01*
X144367190Y-95187075D01*
X144498892Y-94884124D01*
X144641422Y-94574340D01*
X144782963Y-94282584D01*
X144911696Y-94033718D01*
X145015805Y-93852602D01*
X145083473Y-93764100D01*
X145085776Y-93762173D01*
X145145306Y-93689214D01*
X145251776Y-93542471D01*
X145383788Y-93351350D01*
X145412628Y-93309540D01*
X145595816Y-93064425D01*
X145817667Y-92790874D01*
X146036500Y-92540657D01*
X146431508Y-92110965D01*
X146314757Y-91937407D01*
X146288092Y-91894504D01*
X146194544Y-91722188D01*
X146077395Y-91486546D01*
X145955783Y-91225530D01*
X145853067Y-90993416D01*
X145785061Y-90820985D01*
X145761123Y-90715761D01*
X145775907Y-90652612D01*
X145824066Y-90606405D01*
X145833886Y-90600272D01*
X145968993Y-90563992D01*
X146201859Y-90539728D01*
X146507377Y-90527545D01*
X146860441Y-90527508D01*
X147235944Y-90539680D01*
X147608780Y-90564128D01*
X147953842Y-90600915D01*
X147978593Y-90604208D01*
X148242658Y-90636969D01*
X148422881Y-90647855D01*
X148558216Y-90632892D01*
X148687617Y-90588108D01*
X148850039Y-90509533D01*
X149026788Y-90422141D01*
X149217080Y-90335763D01*
X149407381Y-90262132D01*
X149628534Y-90190538D01*
X149911382Y-90110269D01*
X150286770Y-90010615D01*
X150766736Y-89898136D01*
X151789340Y-89747703D01*
X152806030Y-89722256D01*
X153825879Y-89821867D01*
X154857957Y-90046607D01*
X155405751Y-90217922D01*
X156311020Y-90591125D01*
X157171184Y-91058347D01*
X157968034Y-91607860D01*
X158683361Y-92227936D01*
X159298958Y-92906850D01*
X159528628Y-93205564D01*
X160097091Y-94055684D01*
X160550213Y-94926318D01*
X160895366Y-95835732D01*
X161139921Y-96802195D01*
X161291250Y-97843975D01*
X161296731Y-97902449D01*
X161309276Y-98351258D01*
X161319386Y-98712976D01*
X161251521Y-99576872D01*
X148327026Y-100498139D02*
X147939487Y-100506775D01*
X147939487Y-100506775D02*
X147629284Y-100520290D01*
X147629284Y-100520290D02*
X147412813Y-100537962D01*
X147412813Y-100537962D02*
X147306469Y-100559071D01*
X147306469Y-100559071D02*
X147305262Y-100559691D01*
X147305262Y-100559691D02*
X147201877Y-100675377D01*
X147201877Y-100675377D02*
X147110878Y-100888245D01*
X147110878Y-100888245D02*
X147040479Y-101168546D01*
X147040479Y-101168546D02*
X146998892Y-101486530D01*
X146998892Y-101486530D02*
X146991195Y-101697250D01*
X146991195Y-101697250D02*
X147027084Y-102078471D01*
X147027084Y-102078471D02*
X147125607Y-102405128D01*
X147125607Y-102405128D02*
X147277061Y-102650790D01*
X147277061Y-102650790D02*
X147373175Y-102737515D01*
X147373175Y-102737515D02*
X147516293Y-102837759D01*
X147516293Y-102837759D02*
X147189547Y-103214927D01*
X147189547Y-103214927D02*
X147035612Y-103397538D01*
X147035612Y-103397538D02*
X146920696Y-103543241D01*
X146920696Y-103543241D02*
X146865075Y-103626054D01*
X146865075Y-103626054D02*
X146862800Y-103633569D01*
X146862800Y-103633569D02*
X146921439Y-103650130D01*
X146921439Y-103650130D02*
X147078218Y-103659195D01*
X147078218Y-103659195D02*
X147304437Y-103659569D01*
X147304437Y-103659569D02*
X147417841Y-103656697D01*
X147417841Y-103656697D02*
X147972881Y-103638350D01*
X147972881Y-103638350D02*
X148259216Y-103244143D01*
X148259216Y-103244143D02*
X148405771Y-103055423D01*
X148405771Y-103055423D02*
X148532709Y-102915179D01*
X148532709Y-102915179D02*
X148616217Y-102849253D01*
X148616217Y-102849253D02*
X148624925Y-102847268D01*
X148624925Y-102847268D02*
X148672444Y-102894139D01*
X148672444Y-102894139D02*
X148698079Y-103046241D01*
X148698079Y-103046241D02*
X148704300Y-103257350D01*
X148704300Y-103257350D02*
X148704300Y-103670100D01*
X148704300Y-103670100D02*
X149783800Y-103670100D01*
X149783800Y-103670100D02*
X149783800Y-101193600D01*
X149783800Y-101193600D02*
X148704300Y-101193600D01*
X148704300Y-101193600D02*
X148704300Y-102273100D01*
X148704300Y-102273100D02*
X148069300Y-102273100D01*
X148069300Y-102273100D02*
X148069300Y-101193600D01*
X148069300Y-101193600D02*
X148704300Y-101193600D01*
X148704300Y-101193600D02*
X149783800Y-101193600D01*
X149783800Y-101193600D02*
X149783800Y-100851299D01*
X149783800Y-100851299D02*
X149954431Y-100673199D01*
X149954431Y-100673199D02*
X150125061Y-100495100D01*
X150125061Y-100495100D02*
X148775506Y-100495100D01*
X148775506Y-100495100D02*
X148327026Y-100498139D01*
X148327026Y-100498139D02*
X148327026Y-100498139D01*
G36*
X148704300Y-103670100D02*
G01*
X148704300Y-103257350D01*
X148698079Y-103046241D01*
X148672444Y-102894139D01*
X148624925Y-102847268D01*
X148616217Y-102849253D01*
X148532709Y-102915179D01*
X148405771Y-103055423D01*
X148259216Y-103244143D01*
X147972881Y-103638350D01*
X147417841Y-103656697D01*
X147304437Y-103659569D01*
X147078218Y-103659195D01*
X146921439Y-103650130D01*
X146862800Y-103633569D01*
X146865075Y-103626054D01*
X146920696Y-103543241D01*
X147035612Y-103397538D01*
X147189547Y-103214927D01*
X147516293Y-102837759D01*
X147373175Y-102737515D01*
X147277061Y-102650790D01*
X147125607Y-102405128D01*
X147027084Y-102078471D01*
X146991195Y-101697250D01*
X146998892Y-101486530D01*
X147037202Y-101193600D01*
X148069300Y-101193600D01*
X148069300Y-102273100D01*
X148704300Y-102273100D01*
X148704300Y-101193600D01*
X148069300Y-101193600D01*
X147037202Y-101193600D01*
X147040479Y-101168546D01*
X147110878Y-100888245D01*
X147201877Y-100675377D01*
X147305262Y-100559691D01*
X147306469Y-100559071D01*
X147412813Y-100537962D01*
X147629284Y-100520290D01*
X147939487Y-100506775D01*
X148327026Y-100498139D01*
X148775506Y-100495100D01*
X150125061Y-100495100D01*
X149954431Y-100673199D01*
X149783800Y-100851299D01*
X149783800Y-103670100D01*
X148704300Y-103670100D01*
G37*
X148704300Y-103670100D02*
X148704300Y-103257350D01*
X148698079Y-103046241D01*
X148672444Y-102894139D01*
X148624925Y-102847268D01*
X148616217Y-102849253D01*
X148532709Y-102915179D01*
X148405771Y-103055423D01*
X148259216Y-103244143D01*
X147972881Y-103638350D01*
X147417841Y-103656697D01*
X147304437Y-103659569D01*
X147078218Y-103659195D01*
X146921439Y-103650130D01*
X146862800Y-103633569D01*
X146865075Y-103626054D01*
X146920696Y-103543241D01*
X147035612Y-103397538D01*
X147189547Y-103214927D01*
X147516293Y-102837759D01*
X147373175Y-102737515D01*
X147277061Y-102650790D01*
X147125607Y-102405128D01*
X147027084Y-102078471D01*
X146991195Y-101697250D01*
X146998892Y-101486530D01*
X147037202Y-101193600D01*
X148069300Y-101193600D01*
X148069300Y-102273100D01*
X148704300Y-102273100D01*
X148704300Y-101193600D01*
X148069300Y-101193600D01*
X147037202Y-101193600D01*
X147040479Y-101168546D01*
X147110878Y-100888245D01*
X147201877Y-100675377D01*
X147305262Y-100559691D01*
X147306469Y-100559071D01*
X147412813Y-100537962D01*
X147629284Y-100520290D01*
X147939487Y-100506775D01*
X148327026Y-100498139D01*
X148775506Y-100495100D01*
X150125061Y-100495100D01*
X149954431Y-100673199D01*
X149783800Y-100851299D01*
X149783800Y-103670100D01*
X148704300Y-103670100D01*
X151931263Y-99434782D02*
X151879300Y-99479100D01*
X151879300Y-99479100D02*
X151930733Y-99535435D01*
X151930733Y-99535435D02*
X151974550Y-99542600D01*
X151974550Y-99542600D02*
X152036366Y-99597860D01*
X152036366Y-99597860D02*
X152071275Y-99736806D01*
X152071275Y-99736806D02*
X152080096Y-99919189D01*
X152080096Y-99919189D02*
X152063646Y-100104758D01*
X152063646Y-100104758D02*
X152022742Y-100253261D01*
X152022742Y-100253261D02*
X151958675Y-100324327D01*
X151958675Y-100324327D02*
X151939392Y-100344301D01*
X151939392Y-100344301D02*
X152027535Y-100358501D01*
X152027535Y-100358501D02*
X152072925Y-100360733D01*
X152072925Y-100360733D02*
X152219660Y-100358404D01*
X152219660Y-100358404D02*
X152279396Y-100313962D01*
X152279396Y-100313962D02*
X152284956Y-100190955D01*
X152284956Y-100190955D02*
X152280723Y-100129975D01*
X152280723Y-100129975D02*
X152263147Y-99891850D01*
X152263147Y-99891850D02*
X152372849Y-100129651D01*
X152372849Y-100129651D02*
X152448751Y-100277620D01*
X152448751Y-100277620D02*
X152506349Y-100361018D01*
X152506349Y-100361018D02*
X152517694Y-100367776D01*
X152517694Y-100367776D02*
X152568631Y-100318695D01*
X152568631Y-100318695D02*
X152655629Y-100194706D01*
X152655629Y-100194706D02*
X152695838Y-100129975D01*
X152695838Y-100129975D02*
X152838838Y-99891850D01*
X152838838Y-99891850D02*
X152816320Y-100129975D01*
X152816320Y-100129975D02*
X152809616Y-100285457D01*
X152809616Y-100285457D02*
X152843941Y-100351333D01*
X152843941Y-100351333D02*
X152940743Y-100363477D01*
X152940743Y-100363477D02*
X152955676Y-100363086D01*
X152955676Y-100363086D02*
X153047720Y-100349656D01*
X153047720Y-100349656D02*
X153038175Y-100326045D01*
X153038175Y-100326045D02*
X152996730Y-100253806D01*
X152996730Y-100253806D02*
X152969813Y-100103530D01*
X152969813Y-100103530D02*
X152958257Y-99916249D01*
X152958257Y-99916249D02*
X152962893Y-99732994D01*
X152962893Y-99732994D02*
X152984552Y-99594795D01*
X152984552Y-99594795D02*
X153022300Y-99542600D01*
X153022300Y-99542600D02*
X153083955Y-99494278D01*
X153083955Y-99494278D02*
X153085800Y-99479100D01*
X153085800Y-99479100D02*
X153031869Y-99429929D01*
X153031869Y-99429929D02*
X152939653Y-99415600D01*
X152939653Y-99415600D02*
X152840785Y-99441824D01*
X152840785Y-99441824D02*
X152754302Y-99537452D01*
X152754302Y-99537452D02*
X152658016Y-99727921D01*
X152658016Y-99727921D02*
X152648810Y-99748975D01*
X152648810Y-99748975D02*
X152504113Y-100082350D01*
X152504113Y-100082350D02*
X152373703Y-99748975D01*
X152373703Y-99748975D02*
X152290610Y-99556265D01*
X152290610Y-99556265D02*
X152217729Y-99456001D01*
X152217729Y-99456001D02*
X152127938Y-99419238D01*
X152127938Y-99419238D02*
X152061297Y-99415600D01*
X152061297Y-99415600D02*
X151931263Y-99434782D01*
X151931263Y-99434782D02*
X151931263Y-99434782D01*
G36*
X153031869Y-99429929D02*
G01*
X153085800Y-99479100D01*
X153083955Y-99494278D01*
X153022300Y-99542600D01*
X152984552Y-99594795D01*
X152962893Y-99732994D01*
X152958257Y-99916249D01*
X152969813Y-100103530D01*
X152996730Y-100253806D01*
X153038175Y-100326045D01*
X153047720Y-100349656D01*
X152955676Y-100363086D01*
X152940743Y-100363477D01*
X152843941Y-100351333D01*
X152809616Y-100285457D01*
X152816320Y-100129975D01*
X152838838Y-99891850D01*
X152695838Y-100129975D01*
X152655629Y-100194706D01*
X152568631Y-100318695D01*
X152517694Y-100367776D01*
X152506349Y-100361018D01*
X152448751Y-100277620D01*
X152372849Y-100129651D01*
X152263147Y-99891850D01*
X152280723Y-100129975D01*
X152284956Y-100190955D01*
X152279396Y-100313962D01*
X152219660Y-100358404D01*
X152072925Y-100360733D01*
X152027535Y-100358501D01*
X151939392Y-100344301D01*
X151958675Y-100324327D01*
X152022742Y-100253261D01*
X152063646Y-100104758D01*
X152080096Y-99919189D01*
X152071275Y-99736806D01*
X152036366Y-99597860D01*
X151974550Y-99542600D01*
X151930733Y-99535435D01*
X151879300Y-99479100D01*
X151931263Y-99434782D01*
X152061297Y-99415600D01*
X152127938Y-99419238D01*
X152217729Y-99456001D01*
X152290610Y-99556265D01*
X152373703Y-99748975D01*
X152504113Y-100082350D01*
X152648810Y-99748975D01*
X152658016Y-99727921D01*
X152754302Y-99537452D01*
X152840785Y-99441824D01*
X152939653Y-99415600D01*
X153031869Y-99429929D01*
G37*
X153031869Y-99429929D02*
X153085800Y-99479100D01*
X153083955Y-99494278D01*
X153022300Y-99542600D01*
X152984552Y-99594795D01*
X152962893Y-99732994D01*
X152958257Y-99916249D01*
X152969813Y-100103530D01*
X152996730Y-100253806D01*
X153038175Y-100326045D01*
X153047720Y-100349656D01*
X152955676Y-100363086D01*
X152940743Y-100363477D01*
X152843941Y-100351333D01*
X152809616Y-100285457D01*
X152816320Y-100129975D01*
X152838838Y-99891850D01*
X152695838Y-100129975D01*
X152655629Y-100194706D01*
X152568631Y-100318695D01*
X152517694Y-100367776D01*
X152506349Y-100361018D01*
X152448751Y-100277620D01*
X152372849Y-100129651D01*
X152263147Y-99891850D01*
X152280723Y-100129975D01*
X152284956Y-100190955D01*
X152279396Y-100313962D01*
X152219660Y-100358404D01*
X152072925Y-100360733D01*
X152027535Y-100358501D01*
X151939392Y-100344301D01*
X151958675Y-100324327D01*
X152022742Y-100253261D01*
X152063646Y-100104758D01*
X152080096Y-99919189D01*
X152071275Y-99736806D01*
X152036366Y-99597860D01*
X151974550Y-99542600D01*
X151930733Y-99535435D01*
X151879300Y-99479100D01*
X151931263Y-99434782D01*
X152061297Y-99415600D01*
X152127938Y-99419238D01*
X152217729Y-99456001D01*
X152290610Y-99556265D01*
X152373703Y-99748975D01*
X152504113Y-100082350D01*
X152648810Y-99748975D01*
X152658016Y-99727921D01*
X152754302Y-99537452D01*
X152840785Y-99441824D01*
X152939653Y-99415600D01*
X153031869Y-99429929D01*
X149469743Y-99539756D02*
X149466300Y-99569149D01*
X149466300Y-99569149D02*
X149439194Y-99666245D01*
X149439194Y-99666245D02*
X149368680Y-99835937D01*
X149368680Y-99835937D02*
X149285621Y-100009901D01*
X149285621Y-100009901D02*
X149104942Y-100368100D01*
X149104942Y-100368100D02*
X149289369Y-100368100D01*
X149289369Y-100368100D02*
X149408147Y-100351508D01*
X149408147Y-100351508D02*
X149438767Y-100311481D01*
X149438767Y-100311481D02*
X149438092Y-100310330D01*
X149438092Y-100310330D02*
X149425360Y-100191713D01*
X149425360Y-100191713D02*
X149502635Y-100089752D01*
X149502635Y-100089752D02*
X149625050Y-100050600D01*
X149625050Y-100050600D02*
X149749593Y-100090648D01*
X149749593Y-100090648D02*
X149817943Y-100181748D01*
X149817943Y-100181748D02*
X149806150Y-100280331D01*
X149806150Y-100280331D02*
X149770076Y-100314425D01*
X149770076Y-100314425D02*
X149752220Y-100353123D01*
X149752220Y-100353123D02*
X149857529Y-100367111D01*
X149857529Y-100367111D02*
X149859935Y-100367127D01*
X149859935Y-100367127D02*
X150031320Y-100368100D01*
X150031320Y-100368100D02*
X149932152Y-100129975D01*
X149932152Y-100129975D02*
X149840333Y-99923600D01*
X149840333Y-99923600D02*
X149688550Y-99923600D01*
X149688550Y-99923600D02*
X149674155Y-99977962D01*
X149674155Y-99977962D02*
X149628798Y-99987100D01*
X149628798Y-99987100D02*
X149541916Y-99953946D01*
X149541916Y-99953946D02*
X149529800Y-99923600D01*
X149529800Y-99923600D02*
X149575376Y-99861917D01*
X149575376Y-99861917D02*
X149589553Y-99860100D01*
X149589553Y-99860100D02*
X149675553Y-99906258D01*
X149675553Y-99906258D02*
X149688550Y-99923600D01*
X149688550Y-99923600D02*
X149840333Y-99923600D01*
X149840333Y-99923600D02*
X149789336Y-99808979D01*
X149789336Y-99808979D02*
X149669220Y-99583778D01*
X149669220Y-99583778D02*
X149577201Y-99463453D01*
X149577201Y-99463453D02*
X149527366Y-99448854D01*
X149527366Y-99448854D02*
X149469743Y-99539756D01*
X149469743Y-99539756D02*
X149469743Y-99539756D01*
G36*
X150031320Y-100368100D02*
G01*
X149859935Y-100367127D01*
X149857529Y-100367111D01*
X149752220Y-100353123D01*
X149770076Y-100314425D01*
X149806150Y-100280331D01*
X149817943Y-100181748D01*
X149749593Y-100090648D01*
X149625050Y-100050600D01*
X149502635Y-100089752D01*
X149425360Y-100191713D01*
X149438092Y-100310330D01*
X149438767Y-100311481D01*
X149408147Y-100351508D01*
X149289369Y-100368100D01*
X149104942Y-100368100D01*
X149285621Y-100009901D01*
X149326825Y-99923600D01*
X149529800Y-99923600D01*
X149541916Y-99953946D01*
X149628798Y-99987100D01*
X149674155Y-99977962D01*
X149688550Y-99923600D01*
X149675553Y-99906258D01*
X149589553Y-99860100D01*
X149575376Y-99861917D01*
X149529800Y-99923600D01*
X149326825Y-99923600D01*
X149368680Y-99835937D01*
X149439194Y-99666245D01*
X149466300Y-99569149D01*
X149469743Y-99539756D01*
X149527366Y-99448854D01*
X149577201Y-99463453D01*
X149669220Y-99583778D01*
X149789336Y-99808979D01*
X149840333Y-99923600D01*
X149932152Y-100129975D01*
X150031320Y-100368100D01*
G37*
X150031320Y-100368100D02*
X149859935Y-100367127D01*
X149857529Y-100367111D01*
X149752220Y-100353123D01*
X149770076Y-100314425D01*
X149806150Y-100280331D01*
X149817943Y-100181748D01*
X149749593Y-100090648D01*
X149625050Y-100050600D01*
X149502635Y-100089752D01*
X149425360Y-100191713D01*
X149438092Y-100310330D01*
X149438767Y-100311481D01*
X149408147Y-100351508D01*
X149289369Y-100368100D01*
X149104942Y-100368100D01*
X149285621Y-100009901D01*
X149326825Y-99923600D01*
X149529800Y-99923600D01*
X149541916Y-99953946D01*
X149628798Y-99987100D01*
X149674155Y-99977962D01*
X149688550Y-99923600D01*
X149675553Y-99906258D01*
X149589553Y-99860100D01*
X149575376Y-99861917D01*
X149529800Y-99923600D01*
X149326825Y-99923600D01*
X149368680Y-99835937D01*
X149439194Y-99666245D01*
X149466300Y-99569149D01*
X149469743Y-99539756D01*
X149527366Y-99448854D01*
X149577201Y-99463453D01*
X149669220Y-99583778D01*
X149789336Y-99808979D01*
X149840333Y-99923600D01*
X149932152Y-100129975D01*
X150031320Y-100368100D01*
X148519027Y-99439629D02*
X148460515Y-99513792D01*
X148460515Y-99513792D02*
X148450300Y-99610046D01*
X148450300Y-99610046D02*
X148462875Y-99755009D01*
X148462875Y-99755009D02*
X148509525Y-99783735D01*
X148509525Y-99783735D02*
X148603643Y-99699275D01*
X148603643Y-99699275D02*
X148641990Y-99653725D01*
X148641990Y-99653725D02*
X148741620Y-99560628D01*
X148741620Y-99560628D02*
X148818475Y-99571090D01*
X148818475Y-99571090D02*
X148834112Y-99584843D01*
X148834112Y-99584843D02*
X148857454Y-99649627D01*
X148857454Y-99649627D02*
X148788832Y-99730989D01*
X148788832Y-99730989D02*
X148681263Y-99807093D01*
X148681263Y-99807093D02*
X148531511Y-99918190D01*
X148531511Y-99918190D02*
X148433746Y-100016202D01*
X148433746Y-100016202D02*
X148420172Y-100039325D01*
X148420172Y-100039325D02*
X148422072Y-100163575D01*
X148422072Y-100163575D02*
X148485381Y-100294183D01*
X148485381Y-100294183D02*
X148578065Y-100370109D01*
X148578065Y-100370109D02*
X148595410Y-100373258D01*
X148595410Y-100373258D02*
X148713878Y-100381573D01*
X148713878Y-100381573D02*
X148847175Y-100391230D01*
X148847175Y-100391230D02*
X148969988Y-100384702D01*
X148969988Y-100384702D02*
X149015429Y-100314904D01*
X149015429Y-100314904D02*
X149020389Y-100211446D01*
X149020389Y-100211446D02*
X149018977Y-100018850D01*
X149018977Y-100018850D02*
X148902102Y-100170857D01*
X148902102Y-100170857D02*
X148797965Y-100265851D01*
X148797965Y-100265851D02*
X148713014Y-100278235D01*
X148713014Y-100278235D02*
X148644279Y-100185563D01*
X148644279Y-100185563D02*
X148695274Y-100075198D01*
X148695274Y-100075198D02*
X148831702Y-99974178D01*
X148831702Y-99974178D02*
X148967404Y-99851059D01*
X148967404Y-99851059D02*
X149030180Y-99701011D01*
X149030180Y-99701011D02*
X149016671Y-99561007D01*
X149016671Y-99561007D02*
X148923515Y-99468022D01*
X148923515Y-99468022D02*
X148878925Y-99454708D01*
X148878925Y-99454708D02*
X148650591Y-99422800D01*
X148650591Y-99422800D02*
X148519027Y-99439629D01*
X148519027Y-99439629D02*
X148519027Y-99439629D01*
G36*
X148878925Y-99454708D02*
G01*
X148923515Y-99468022D01*
X149016671Y-99561007D01*
X149030180Y-99701011D01*
X148967404Y-99851059D01*
X148831702Y-99974178D01*
X148695274Y-100075198D01*
X148644279Y-100185563D01*
X148713014Y-100278235D01*
X148797965Y-100265851D01*
X148902102Y-100170857D01*
X149018977Y-100018850D01*
X149020389Y-100211446D01*
X149015429Y-100314904D01*
X148969988Y-100384702D01*
X148847175Y-100391230D01*
X148713878Y-100381573D01*
X148595410Y-100373258D01*
X148578065Y-100370109D01*
X148485381Y-100294183D01*
X148422072Y-100163575D01*
X148420172Y-100039325D01*
X148433746Y-100016202D01*
X148531511Y-99918190D01*
X148681263Y-99807093D01*
X148788832Y-99730989D01*
X148857454Y-99649627D01*
X148834112Y-99584843D01*
X148818475Y-99571090D01*
X148741620Y-99560628D01*
X148641990Y-99653725D01*
X148603643Y-99699275D01*
X148509525Y-99783735D01*
X148462875Y-99755009D01*
X148450300Y-99610046D01*
X148460515Y-99513792D01*
X148519027Y-99439629D01*
X148650591Y-99422800D01*
X148878925Y-99454708D01*
G37*
X148878925Y-99454708D02*
X148923515Y-99468022D01*
X149016671Y-99561007D01*
X149030180Y-99701011D01*
X148967404Y-99851059D01*
X148831702Y-99974178D01*
X148695274Y-100075198D01*
X148644279Y-100185563D01*
X148713014Y-100278235D01*
X148797965Y-100265851D01*
X148902102Y-100170857D01*
X149018977Y-100018850D01*
X149020389Y-100211446D01*
X149015429Y-100314904D01*
X148969988Y-100384702D01*
X148847175Y-100391230D01*
X148713878Y-100381573D01*
X148595410Y-100373258D01*
X148578065Y-100370109D01*
X148485381Y-100294183D01*
X148422072Y-100163575D01*
X148420172Y-100039325D01*
X148433746Y-100016202D01*
X148531511Y-99918190D01*
X148681263Y-99807093D01*
X148788832Y-99730989D01*
X148857454Y-99649627D01*
X148834112Y-99584843D01*
X148818475Y-99571090D01*
X148741620Y-99560628D01*
X148641990Y-99653725D01*
X148603643Y-99699275D01*
X148509525Y-99783735D01*
X148462875Y-99755009D01*
X148450300Y-99610046D01*
X148460515Y-99513792D01*
X148519027Y-99439629D01*
X148650591Y-99422800D01*
X148878925Y-99454708D01*
X150094544Y-99433993D02*
X150037815Y-99478309D01*
X150037815Y-99478309D02*
X150037800Y-99479100D01*
X150037800Y-99479100D02*
X150086122Y-99540754D01*
X150086122Y-99540754D02*
X150101300Y-99542600D01*
X150101300Y-99542600D02*
X150134379Y-99600991D01*
X150134379Y-99600991D02*
X150157063Y-99755995D01*
X150157063Y-99755995D02*
X150164800Y-99960641D01*
X150164800Y-99960641D02*
X150172544Y-100168395D01*
X150172544Y-100168395D02*
X150192842Y-100310985D01*
X150192842Y-100310985D02*
X150221253Y-100357516D01*
X150221253Y-100357516D02*
X150290199Y-100300244D01*
X150290199Y-100300244D02*
X150408511Y-100174877D01*
X150408511Y-100174877D02*
X150507003Y-100060467D01*
X150507003Y-100060467D02*
X150736300Y-99784584D01*
X150736300Y-99784584D02*
X150736300Y-100039300D01*
X150736300Y-100039300D02*
X150717922Y-100212678D01*
X150717922Y-100212678D02*
X150671207Y-100316458D01*
X150671207Y-100316458D02*
X150656925Y-100326045D01*
X150656925Y-100326045D02*
X150657712Y-100347889D01*
X150657712Y-100347889D02*
X150759509Y-100361714D01*
X150759509Y-100361714D02*
X150796625Y-100363086D01*
X150796625Y-100363086D02*
X150935292Y-100357298D01*
X150935292Y-100357298D02*
X150965016Y-100325261D01*
X150965016Y-100325261D02*
X150939500Y-100291900D01*
X150939500Y-100291900D02*
X150886603Y-100177473D01*
X150886603Y-100177473D02*
X150863177Y-100001228D01*
X150863177Y-100001228D02*
X150868004Y-99809602D01*
X150868004Y-99809602D02*
X150899865Y-99649035D01*
X150899865Y-99649035D02*
X150957543Y-99565963D01*
X150957543Y-99565963D02*
X150958550Y-99565563D01*
X150958550Y-99565563D02*
X151047476Y-99501299D01*
X151047476Y-99501299D02*
X151023231Y-99441931D01*
X151023231Y-99441931D02*
X150897500Y-99415601D01*
X150897500Y-99415601D02*
X150896282Y-99415600D01*
X150896282Y-99415600D02*
X150772354Y-99451531D01*
X150772354Y-99451531D02*
X150634012Y-99571070D01*
X150634012Y-99571070D02*
X150499407Y-99737322D01*
X150499407Y-99737322D02*
X150260050Y-100059044D01*
X150260050Y-100059044D02*
X150239177Y-99851250D01*
X150239177Y-99851250D02*
X150256508Y-99655893D01*
X150256508Y-99655893D02*
X150318552Y-99570152D01*
X150318552Y-99570152D02*
X150408601Y-99481837D01*
X150408601Y-99481837D02*
X150379924Y-99431638D01*
X150379924Y-99431638D02*
X150230213Y-99415601D01*
X150230213Y-99415601D02*
X150228300Y-99415600D01*
X150228300Y-99415600D02*
X150094544Y-99433993D01*
X150094544Y-99433993D02*
X150094544Y-99433993D01*
G36*
X150897500Y-99415601D02*
G01*
X151023231Y-99441931D01*
X151047476Y-99501299D01*
X150958550Y-99565563D01*
X150957543Y-99565963D01*
X150899865Y-99649035D01*
X150868004Y-99809602D01*
X150863177Y-100001228D01*
X150886603Y-100177473D01*
X150939500Y-100291900D01*
X150965016Y-100325261D01*
X150935292Y-100357298D01*
X150796625Y-100363086D01*
X150759509Y-100361714D01*
X150657712Y-100347889D01*
X150656925Y-100326045D01*
X150671207Y-100316458D01*
X150717922Y-100212678D01*
X150736300Y-100039300D01*
X150736300Y-99784584D01*
X150507003Y-100060467D01*
X150408511Y-100174877D01*
X150290199Y-100300244D01*
X150221253Y-100357516D01*
X150192842Y-100310985D01*
X150172544Y-100168395D01*
X150164800Y-99960641D01*
X150157063Y-99755995D01*
X150134379Y-99600991D01*
X150101300Y-99542600D01*
X150086122Y-99540754D01*
X150037800Y-99479100D01*
X150037815Y-99478309D01*
X150094544Y-99433993D01*
X150228300Y-99415600D01*
X150230213Y-99415601D01*
X150379924Y-99431638D01*
X150408601Y-99481837D01*
X150318552Y-99570152D01*
X150256508Y-99655893D01*
X150239177Y-99851250D01*
X150260050Y-100059044D01*
X150499407Y-99737322D01*
X150634012Y-99571070D01*
X150772354Y-99451531D01*
X150896282Y-99415600D01*
X150897500Y-99415601D01*
G37*
X150897500Y-99415601D02*
X151023231Y-99441931D01*
X151047476Y-99501299D01*
X150958550Y-99565563D01*
X150957543Y-99565963D01*
X150899865Y-99649035D01*
X150868004Y-99809602D01*
X150863177Y-100001228D01*
X150886603Y-100177473D01*
X150939500Y-100291900D01*
X150965016Y-100325261D01*
X150935292Y-100357298D01*
X150796625Y-100363086D01*
X150759509Y-100361714D01*
X150657712Y-100347889D01*
X150656925Y-100326045D01*
X150671207Y-100316458D01*
X150717922Y-100212678D01*
X150736300Y-100039300D01*
X150736300Y-99784584D01*
X150507003Y-100060467D01*
X150408511Y-100174877D01*
X150290199Y-100300244D01*
X150221253Y-100357516D01*
X150192842Y-100310985D01*
X150172544Y-100168395D01*
X150164800Y-99960641D01*
X150157063Y-99755995D01*
X150134379Y-99600991D01*
X150101300Y-99542600D01*
X150086122Y-99540754D01*
X150037800Y-99479100D01*
X150037815Y-99478309D01*
X150094544Y-99433993D01*
X150228300Y-99415600D01*
X150230213Y-99415601D01*
X150379924Y-99431638D01*
X150408601Y-99481837D01*
X150318552Y-99570152D01*
X150256508Y-99655893D01*
X150239177Y-99851250D01*
X150260050Y-100059044D01*
X150499407Y-99737322D01*
X150634012Y-99571070D01*
X150772354Y-99451531D01*
X150896282Y-99415600D01*
X150897500Y-99415601D01*
D16*
%TO.C,U4*%
X165026400Y-107718800D02*
X165026400Y-107318800D01*
X181226400Y-107718800D02*
X165026400Y-107718800D01*
X181226400Y-91518800D02*
X165026400Y-91518800D01*
X181226400Y-91868800D02*
X182126400Y-91868800D01*
X181226400Y-107318800D02*
X181226400Y-107718800D01*
X181226400Y-91518800D02*
X181226400Y-91868800D01*
X165026400Y-91518800D02*
X165026400Y-91918800D01*
D15*
%TO.C,U5*%
X122534799Y-82081200D02*
X119374801Y-82081200D01*
X122534799Y-86981200D02*
X119374801Y-86981200D01*
X122534799Y-86981200D02*
X122534799Y-82081200D01*
X119374801Y-86981200D02*
X119374801Y-82081200D01*
D19*
X123819801Y-81776199D02*
G75*
G03*
X123819801Y-81776199I-125001J0D01*
G01*
D21*
X121829799Y-83031200D02*
G75*
G03*
X121829799Y-83031200I-299999J0D01*
G01*
%TD*%
M02*
