M48
; DRILL file {KiCad (6.0.2)} date Thu Mar 31 19:26:34 2022
; FORMAT={-:-/ absolute / inch / decimal}
; #@! TF.CreationDate,2022-03-31T19:26:34+11:00
; #@! TF.GenerationSoftware,Kicad,Pcbnew,(6.0.2)
; #@! TF.FileFunction,Plated,1,4,PTH
FMAT,2
INCH
; #@! TA.AperFunction,Plated,PTH,ViaDrill
T1C0.0177
; #@! TA.AperFunction,Plated,PTH,ComponentDrill
T2C0.0236
; #@! TA.AperFunction,Plated,PTH,ComponentDrill
T3C0.0295
; #@! TA.AperFunction,Plated,PTH,ComponentDrill
T4C0.0335
; #@! TA.AperFunction,Plated,PTH,ComponentDrill
T5C0.0394
; #@! TA.AperFunction,Plated,PTH,ComponentDrill
T6C0.0591
; #@! TA.AperFunction,Plated,PTH,ComponentDrill
T7C0.0669
; #@! TA.AperFunction,Plated,PTH,ComponentDrill
T8C0.0748
; #@! TA.AperFunction,Plated,PTH,ComponentDrill
T9C0.1260
%
G90
G05
T1
X4.235Y-3.478
X4.292Y-3.238
X4.299Y-3.518
X4.356Y-3.549
X4.416Y-3.647
X4.444Y-3.303
X4.449Y-3.425
X4.533Y-3.3459
X4.534Y-3.548
X4.5355Y-3.488
X4.536Y-3.608
X4.588Y-3.2233
X4.59Y-3.36
X4.597Y-3.586
X4.5995Y-3.4663
X4.6Y-3.3
X4.6Y-3.74
X4.7Y-3.74
X4.7221Y-3.5934
X4.77Y-3.38
X4.789Y-3.62
X4.81Y-3.35
X4.81Y-3.39
X4.869Y-3.617
X4.872Y-3.466
X4.88Y-3.54
X4.92Y-3.79
X4.93Y-3.4
X4.955Y-3.502
X4.9775Y-3.748
X4.9779Y-3.9115
X5.0385Y-3.748
X5.041Y-3.808
X5.0945Y-3.748
X5.159Y-3.419
X5.188Y-3.49
X5.2Y-3.99
X5.23Y-3.23
X5.233Y-3.715
X5.234Y-3.674
X5.247Y-3.946
X5.27Y-3.99
X5.2702Y-3.73
X5.28Y-3.58
X5.3Y-3.82
X5.3Y-3.86
X5.3085Y-4.0133
X5.3092Y-3.7248
X5.31Y-3.322
X5.32Y-3.58
X5.3498Y-3.5798
X5.35Y-3.82
X5.3584Y-3.4209
X5.3593Y-3.2387
X5.36Y-3.87
X5.4Y-3.23
X5.4202Y-3.7057
X5.43Y-3.606
X5.447Y-3.7384
X5.456Y-3.397
X5.4598Y-3.6772
X5.4647Y-3.3085
X5.4647Y-3.3085
X5.4685Y-3.4792
X5.497Y-3.626
X5.5065Y-3.7735
X5.53Y-4.04
X5.5675Y-3.804
X5.57Y-3.99
X5.62Y-3.63
X5.67Y-3.4
X5.67Y-3.88
X5.6711Y-3.982
X5.7Y-3.27
X5.83Y-3.36
X5.8343Y-3.7342
X5.89Y-3.38
X5.89Y-3.78
X5.95Y-3.78
X6.01Y-3.78
X6.05Y-3.42
X6.07Y-3.78
X6.13Y-3.36
X6.13Y-3.78
X6.1382Y-3.5939
X6.18Y-3.78
X6.18Y-3.88
X6.1969Y-3.4945
X6.24Y-3.26
X6.2915Y-3.3565
X6.3309Y-3.5206
X6.344Y-3.558
X6.366Y-3.871
X6.3665Y-4.1435
X6.39Y-3.68
X6.391Y-3.6195
X6.414Y-3.92
X6.47Y-3.52
X6.55Y-3.6
X6.55Y-3.89
X6.5514Y-3.4451
X6.5665Y-4.1212
X6.5683Y-3.676
X6.579Y-3.808
X6.58Y-4.2
X6.59Y-3.41
X6.602Y-3.575
X6.612Y-4.089
X6.64Y-3.71
X6.6474Y-4.1062
X6.7Y-3.79
X6.7Y-3.88
X6.715Y-3.644
X6.75Y-3.79
X6.75Y-3.88
X6.77Y-3.68
X6.8Y-3.79
X6.8Y-3.88
X6.84Y-3.79
X6.84Y-3.88
X6.9004Y-3.6862
X6.9261Y-3.7284
X6.94Y-4.14
X6.941Y-3.787
X6.9624Y-3.7133
X6.9701Y-3.6502
X6.985Y-4.132
X7.025Y-3.609
X7.033Y-3.804
X7.034Y-4.031
X7.0539Y-3.5823
X7.074Y-4.075
X7.1919Y-4.2041
X7.2056Y-4.014
X7.21Y-3.67
X7.22Y-3.81
X7.239Y-4.06
X7.2753Y-4.1715
X7.3Y-4.06
X7.36Y-3.89
X7.421Y-3.618
X7.454Y-3.591
X7.46Y-3.89
X7.46Y-3.99
X7.4931Y-3.5864
X7.5037Y-3.6243
X7.51Y-3.51
X7.556Y-3.8211
X7.571Y-3.407
X7.61Y-3.87
X7.61Y-3.95
X7.8978Y-3.5357
X7.8978Y-3.5357
X7.9Y-3.43
X7.9Y-3.73
X8.0Y-3.73
X8.01Y-3.46
X8.12Y-3.46
X8.12Y-3.73
T3
X7.3103Y-3.6145
X7.3103Y-3.6933
X7.3103Y-3.772
X7.3103Y-3.8507
X7.3103Y-3.9295
T4
X5.2356Y-4.0564
X5.4324Y-4.0564
T5
X4.3497Y-3.7635
X4.3497Y-4.1965
X7.705Y-3.8824
X7.705Y-3.9824
X7.705Y-4.0824
X7.705Y-4.1824
T6
X7.979Y-4.027
T7
X7.879Y-3.927
X7.879Y-4.127
X8.079Y-3.927
X8.079Y-4.127
T8
X4.7434Y-3.8816
X4.7434Y-4.0784
T9
X5.0386Y-3.3083
X5.0386Y-4.1351
X7.45Y-3.3083
X7.45Y-4.1351
T2
G00X5.1962Y-4.1765
M15
G01X5.1962Y-4.1489
M16
G05
G00X5.4718Y-4.1489
M15
G01X5.4718Y-4.1765
M16
G05
T0
M30
