%TF.GenerationSoftware,KiCad,Pcbnew,(6.0.2)*%
%TF.CreationDate,2022-03-31T19:26:32+11:00*%
%TF.ProjectId,Liaka_V3,4c69616b-615f-4563-932e-6b696361645f,2.0*%
%TF.SameCoordinates,Original*%
%TF.FileFunction,Legend,Top*%
%TF.FilePolarity,Positive*%
%FSLAX46Y46*%
G04 Gerber Fmt 4.6, Leading zero omitted, Abs format (unit mm)*
G04 Created by KiCad (PCBNEW (6.0.2)) date 2022-03-31 19:26:32*
%MOMM*%
%LPD*%
G01*
G04 APERTURE LIST*
%ADD10C,0.400000*%
%ADD11C,0.200000*%
%ADD12C,0.100000*%
%ADD13C,0.125000*%
%ADD14C,0.300000*%
%ADD15C,0.150000*%
%ADD16C,0.120000*%
%ADD17C,0.152400*%
%ADD18C,0.127000*%
G04 APERTURE END LIST*
D10*
X194056000Y-82740500D02*
X193421000Y-83451700D01*
X194056000Y-85661500D02*
X194056000Y-82740500D01*
X197002400Y-85674200D02*
X196316600Y-86283800D01*
X194577164Y-85648800D02*
G75*
G03*
X194577164Y-85648800I-521164J0D01*
G01*
X194056000Y-82740500D02*
X194665600Y-83426300D01*
X197002400Y-85674200D02*
X196291200Y-85039200D01*
X194081400Y-85674200D02*
X197002400Y-85674200D01*
D11*
X123109904Y-105499876D02*
X123048000Y-105437971D01*
X122986095Y-105314161D01*
X122986095Y-105004638D01*
X123048000Y-104880828D01*
X123109904Y-104818923D01*
X123233714Y-104757019D01*
X123357523Y-104757019D01*
X123543238Y-104818923D01*
X124286095Y-105561780D01*
X124286095Y-104757019D01*
X123790857Y-104199876D02*
X123790857Y-103209400D01*
X122986095Y-102714161D02*
X122986095Y-101909400D01*
X123481333Y-102342733D01*
X123481333Y-102157019D01*
X123543238Y-102033209D01*
X123605142Y-101971304D01*
X123728952Y-101909400D01*
X124038476Y-101909400D01*
X124162285Y-101971304D01*
X124224190Y-102033209D01*
X124286095Y-102157019D01*
X124286095Y-102528447D01*
X124224190Y-102652257D01*
X124162285Y-102714161D01*
X124224190Y-101414161D02*
X124286095Y-101290352D01*
X124286095Y-101042733D01*
X124224190Y-100918923D01*
X124100380Y-100857019D01*
X124038476Y-100857019D01*
X123914666Y-100918923D01*
X123852761Y-101042733D01*
X123852761Y-101228447D01*
X123790857Y-101352257D01*
X123667047Y-101414161D01*
X123605142Y-101414161D01*
X123481333Y-101352257D01*
X123419428Y-101228447D01*
X123419428Y-101042733D01*
X123481333Y-100918923D01*
X124286095Y-98690352D02*
X124286095Y-99309400D01*
X122986095Y-99309400D01*
X124286095Y-98257019D02*
X123419428Y-98257019D01*
X122986095Y-98257019D02*
X123048000Y-98318923D01*
X123109904Y-98257019D01*
X123048000Y-98195114D01*
X122986095Y-98257019D01*
X123109904Y-98257019D01*
X124286095Y-97637971D02*
X122986095Y-97637971D01*
X122986095Y-97142733D01*
X123048000Y-97018923D01*
X123109904Y-96957019D01*
X123233714Y-96895114D01*
X123419428Y-96895114D01*
X123543238Y-96957019D01*
X123605142Y-97018923D01*
X123667047Y-97142733D01*
X123667047Y-97637971D01*
X124286095Y-96152257D02*
X124224190Y-96276066D01*
X124162285Y-96337971D01*
X124038476Y-96399876D01*
X123667047Y-96399876D01*
X123543238Y-96337971D01*
X123481333Y-96276066D01*
X123419428Y-96152257D01*
X123419428Y-95966542D01*
X123481333Y-95842733D01*
X123543238Y-95780828D01*
X123667047Y-95718923D01*
X124038476Y-95718923D01*
X124162285Y-95780828D01*
X124224190Y-95842733D01*
X124286095Y-95966542D01*
X124286095Y-96152257D01*
D12*
X200023742Y-107691180D02*
X200214219Y-107691180D01*
X200309457Y-107643561D01*
X200357076Y-107595942D01*
X200452314Y-107453085D01*
X200499933Y-107262609D01*
X200499933Y-106881657D01*
X200452314Y-106786419D01*
X200404695Y-106738800D01*
X200309457Y-106691180D01*
X200118980Y-106691180D01*
X200023742Y-106738800D01*
X199976123Y-106786419D01*
X199928504Y-106881657D01*
X199928504Y-107119752D01*
X199976123Y-107214990D01*
X200023742Y-107262609D01*
X200118980Y-107310228D01*
X200309457Y-107310228D01*
X200404695Y-107262609D01*
X200452314Y-107214990D01*
X200499933Y-107119752D01*
X201452314Y-107691180D02*
X200880885Y-107691180D01*
X201166600Y-107691180D02*
X201166600Y-106691180D01*
X201071361Y-106834038D01*
X200976123Y-106929276D01*
X200880885Y-106976895D01*
X202357076Y-106691180D02*
X201880885Y-106691180D01*
X201833266Y-107167371D01*
X201880885Y-107119752D01*
X201976123Y-107072133D01*
X202214219Y-107072133D01*
X202309457Y-107119752D01*
X202357076Y-107167371D01*
X202404695Y-107262609D01*
X202404695Y-107500704D01*
X202357076Y-107595942D01*
X202309457Y-107643561D01*
X202214219Y-107691180D01*
X201976123Y-107691180D01*
X201880885Y-107643561D01*
X201833266Y-107595942D01*
X202833266Y-107691180D02*
X202833266Y-106691180D01*
X203166600Y-107405466D01*
X203499933Y-106691180D01*
X203499933Y-107691180D01*
X203976123Y-107691180D02*
X203976123Y-106691180D01*
X203976123Y-107167371D02*
X204547552Y-107167371D01*
X204547552Y-107691180D02*
X204547552Y-106691180D01*
X204928504Y-107024514D02*
X205452314Y-107024514D01*
X204928504Y-107691180D01*
X205452314Y-107691180D01*
D11*
X183560980Y-97229466D02*
X183084790Y-97562800D01*
X183560980Y-97800895D02*
X182560980Y-97800895D01*
X182560980Y-97419942D01*
X182608600Y-97324704D01*
X182656219Y-97277085D01*
X182751457Y-97229466D01*
X182894314Y-97229466D01*
X182989552Y-97277085D01*
X183037171Y-97324704D01*
X183084790Y-97419942D01*
X183084790Y-97800895D01*
X183560980Y-96229466D02*
X183084790Y-96562800D01*
X183560980Y-96800895D02*
X182560980Y-96800895D01*
X182560980Y-96419942D01*
X182608600Y-96324704D01*
X182656219Y-96277085D01*
X182751457Y-96229466D01*
X182894314Y-96229466D01*
X182989552Y-96277085D01*
X183037171Y-96324704D01*
X183084790Y-96419942D01*
X183084790Y-96800895D01*
X183465742Y-95229466D02*
X183513361Y-95277085D01*
X183560980Y-95419942D01*
X183560980Y-95515180D01*
X183513361Y-95658038D01*
X183418123Y-95753276D01*
X183322885Y-95800895D01*
X183132409Y-95848514D01*
X182989552Y-95848514D01*
X182799076Y-95800895D01*
X182703838Y-95753276D01*
X182608600Y-95658038D01*
X182560980Y-95515180D01*
X182560980Y-95419942D01*
X182608600Y-95277085D01*
X182656219Y-95229466D01*
X182560980Y-94896133D02*
X182560980Y-94277085D01*
X182941933Y-94610419D01*
X182941933Y-94467561D01*
X182989552Y-94372323D01*
X183037171Y-94324704D01*
X183132409Y-94277085D01*
X183370504Y-94277085D01*
X183465742Y-94324704D01*
X183513361Y-94372323D01*
X183560980Y-94467561D01*
X183560980Y-94753276D01*
X183513361Y-94848514D01*
X183465742Y-94896133D01*
D13*
X193816257Y-101882485D02*
X193844828Y-101796771D01*
X193844828Y-101653914D01*
X193816257Y-101596771D01*
X193787685Y-101568200D01*
X193730542Y-101539628D01*
X193673400Y-101539628D01*
X193616257Y-101568200D01*
X193587685Y-101596771D01*
X193559114Y-101653914D01*
X193530542Y-101768200D01*
X193501971Y-101825342D01*
X193473400Y-101853914D01*
X193416257Y-101882485D01*
X193359114Y-101882485D01*
X193301971Y-101853914D01*
X193273400Y-101825342D01*
X193244828Y-101768200D01*
X193244828Y-101625342D01*
X193273400Y-101539628D01*
X193787685Y-100939628D02*
X193816257Y-100968200D01*
X193844828Y-101053914D01*
X193844828Y-101111057D01*
X193816257Y-101196771D01*
X193759114Y-101253914D01*
X193701971Y-101282485D01*
X193587685Y-101311057D01*
X193501971Y-101311057D01*
X193387685Y-101282485D01*
X193330542Y-101253914D01*
X193273400Y-101196771D01*
X193244828Y-101111057D01*
X193244828Y-101053914D01*
X193273400Y-100968200D01*
X193301971Y-100939628D01*
X193844828Y-100396771D02*
X193844828Y-100682485D01*
X193244828Y-100682485D01*
D14*
X197549342Y-86174971D02*
X198335057Y-85174971D01*
X197549342Y-85174971D02*
X198335057Y-86174971D01*
X192393142Y-85149571D02*
X193178857Y-85149571D01*
X192393142Y-86149571D01*
X193178857Y-86149571D01*
X195095857Y-82406371D02*
X195453000Y-83406371D01*
X195810142Y-82406371D02*
X195453000Y-83406371D01*
X195310142Y-83763514D01*
X195238714Y-83834942D01*
X195095857Y-83906371D01*
D13*
X193816257Y-99509171D02*
X193844828Y-99423457D01*
X193844828Y-99280600D01*
X193816257Y-99223457D01*
X193787685Y-99194885D01*
X193730542Y-99166314D01*
X193673400Y-99166314D01*
X193616257Y-99194885D01*
X193587685Y-99223457D01*
X193559114Y-99280600D01*
X193530542Y-99394885D01*
X193501971Y-99452028D01*
X193473400Y-99480600D01*
X193416257Y-99509171D01*
X193359114Y-99509171D01*
X193301971Y-99480600D01*
X193273400Y-99452028D01*
X193244828Y-99394885D01*
X193244828Y-99252028D01*
X193273400Y-99166314D01*
X193844828Y-98909171D02*
X193244828Y-98909171D01*
X193244828Y-98766314D01*
X193273400Y-98680600D01*
X193330542Y-98623457D01*
X193387685Y-98594885D01*
X193501971Y-98566314D01*
X193587685Y-98566314D01*
X193701971Y-98594885D01*
X193759114Y-98623457D01*
X193816257Y-98680600D01*
X193844828Y-98766314D01*
X193844828Y-98909171D01*
X193673400Y-98337742D02*
X193673400Y-98052028D01*
X193844828Y-98394885D02*
X193244828Y-98194885D01*
X193844828Y-97994885D01*
X193197200Y-106679942D02*
X193168628Y-106737085D01*
X193168628Y-106822800D01*
X193197200Y-106908514D01*
X193254342Y-106965657D01*
X193311485Y-106994228D01*
X193425771Y-107022800D01*
X193511485Y-107022800D01*
X193625771Y-106994228D01*
X193682914Y-106965657D01*
X193740057Y-106908514D01*
X193768628Y-106822800D01*
X193768628Y-106765657D01*
X193740057Y-106679942D01*
X193711485Y-106651371D01*
X193511485Y-106651371D01*
X193511485Y-106765657D01*
X193768628Y-106394228D02*
X193168628Y-106394228D01*
X193768628Y-106051371D01*
X193168628Y-106051371D01*
X193768628Y-105765657D02*
X193168628Y-105765657D01*
X193168628Y-105622800D01*
X193197200Y-105537085D01*
X193254342Y-105479942D01*
X193311485Y-105451371D01*
X193425771Y-105422800D01*
X193511485Y-105422800D01*
X193625771Y-105451371D01*
X193682914Y-105479942D01*
X193740057Y-105537085D01*
X193768628Y-105622800D01*
X193768628Y-105765657D01*
D11*
X172324780Y-101748647D02*
X173039066Y-101748647D01*
X173181923Y-101796266D01*
X173277161Y-101891504D01*
X173324780Y-102034361D01*
X173324780Y-102129600D01*
X173324780Y-100796266D02*
X173324780Y-101272457D01*
X172324780Y-101272457D01*
X173229542Y-99891504D02*
X173277161Y-99939123D01*
X173324780Y-100081980D01*
X173324780Y-100177219D01*
X173277161Y-100320076D01*
X173181923Y-100415314D01*
X173086685Y-100462933D01*
X172896209Y-100510552D01*
X172753352Y-100510552D01*
X172562876Y-100462933D01*
X172467638Y-100415314D01*
X172372400Y-100320076D01*
X172324780Y-100177219D01*
X172324780Y-100081980D01*
X172372400Y-99939123D01*
X172420019Y-99891504D01*
X172324780Y-99177219D02*
X173039066Y-99177219D01*
X173181923Y-99224838D01*
X173277161Y-99320076D01*
X173324780Y-99462933D01*
X173324780Y-99558171D01*
X173324780Y-98224838D02*
X173324780Y-98701028D01*
X172324780Y-98701028D01*
X173229542Y-97320076D02*
X173277161Y-97367695D01*
X173324780Y-97510552D01*
X173324780Y-97605790D01*
X173277161Y-97748647D01*
X173181923Y-97843885D01*
X173086685Y-97891504D01*
X172896209Y-97939123D01*
X172753352Y-97939123D01*
X172562876Y-97891504D01*
X172467638Y-97843885D01*
X172372400Y-97748647D01*
X172324780Y-97605790D01*
X172324780Y-97510552D01*
X172372400Y-97367695D01*
X172420019Y-97320076D01*
X172324780Y-96605790D02*
X173039066Y-96605790D01*
X173181923Y-96653409D01*
X173277161Y-96748647D01*
X173324780Y-96891504D01*
X173324780Y-96986742D01*
X173324780Y-95653409D02*
X173324780Y-96129600D01*
X172324780Y-96129600D01*
X173229542Y-94748647D02*
X173277161Y-94796266D01*
X173324780Y-94939123D01*
X173324780Y-95034361D01*
X173277161Y-95177219D01*
X173181923Y-95272457D01*
X173086685Y-95320076D01*
X172896209Y-95367695D01*
X172753352Y-95367695D01*
X172562876Y-95320076D01*
X172467638Y-95272457D01*
X172372400Y-95177219D01*
X172324780Y-95034361D01*
X172324780Y-94939123D01*
X172372400Y-94796266D01*
X172420019Y-94748647D01*
X172324780Y-94034361D02*
X173039066Y-94034361D01*
X173181923Y-94081980D01*
X173277161Y-94177219D01*
X173324780Y-94320076D01*
X173324780Y-94415314D01*
X173324780Y-93081980D02*
X173324780Y-93558171D01*
X172324780Y-93558171D01*
X173229542Y-92177219D02*
X173277161Y-92224838D01*
X173324780Y-92367695D01*
X173324780Y-92462933D01*
X173277161Y-92605790D01*
X173181923Y-92701028D01*
X173086685Y-92748647D01*
X172896209Y-92796266D01*
X172753352Y-92796266D01*
X172562876Y-92748647D01*
X172467638Y-92701028D01*
X172372400Y-92605790D01*
X172324780Y-92462933D01*
X172324780Y-92367695D01*
X172372400Y-92224838D01*
X172420019Y-92177219D01*
D13*
X193194028Y-104508200D02*
X193794028Y-104308200D01*
X193194028Y-104108200D01*
X193794028Y-103908200D02*
X193194028Y-103908200D01*
X193194028Y-103765342D01*
X193222600Y-103679628D01*
X193279742Y-103622485D01*
X193336885Y-103593914D01*
X193451171Y-103565342D01*
X193536885Y-103565342D01*
X193651171Y-103593914D01*
X193708314Y-103622485D01*
X193765457Y-103679628D01*
X193794028Y-103765342D01*
X193794028Y-103908200D01*
X193794028Y-103308200D02*
X193194028Y-103308200D01*
X193194028Y-103165342D01*
X193222600Y-103079628D01*
X193279742Y-103022485D01*
X193336885Y-102993914D01*
X193451171Y-102965342D01*
X193536885Y-102965342D01*
X193651171Y-102993914D01*
X193708314Y-103022485D01*
X193765457Y-103079628D01*
X193794028Y-103165342D01*
X193794028Y-103308200D01*
D15*
%TO.C,R19*%
X126572542Y-95745580D02*
X126239209Y-95269390D01*
X126001114Y-95745580D02*
X126001114Y-94745580D01*
X126382066Y-94745580D01*
X126477304Y-94793200D01*
X126524923Y-94840819D01*
X126572542Y-94936057D01*
X126572542Y-95078914D01*
X126524923Y-95174152D01*
X126477304Y-95221771D01*
X126382066Y-95269390D01*
X126001114Y-95269390D01*
X127524923Y-95745580D02*
X126953495Y-95745580D01*
X127239209Y-95745580D02*
X127239209Y-94745580D01*
X127143971Y-94888438D01*
X127048733Y-94983676D01*
X126953495Y-95031295D01*
X128001114Y-95745580D02*
X128191590Y-95745580D01*
X128286828Y-95697961D01*
X128334447Y-95650342D01*
X128429685Y-95507485D01*
X128477304Y-95317009D01*
X128477304Y-94936057D01*
X128429685Y-94840819D01*
X128382066Y-94793200D01*
X128286828Y-94745580D01*
X128096352Y-94745580D01*
X128001114Y-94793200D01*
X127953495Y-94840819D01*
X127905876Y-94936057D01*
X127905876Y-95174152D01*
X127953495Y-95269390D01*
X128001114Y-95317009D01*
X128096352Y-95364628D01*
X128286828Y-95364628D01*
X128382066Y-95317009D01*
X128429685Y-95269390D01*
X128477304Y-95174152D01*
%TO.C,Q2*%
X109912161Y-83732619D02*
X109816923Y-83685000D01*
X109721685Y-83589761D01*
X109578828Y-83446904D01*
X109483590Y-83399285D01*
X109388352Y-83399285D01*
X109435971Y-83637380D02*
X109340733Y-83589761D01*
X109245495Y-83494523D01*
X109197876Y-83304047D01*
X109197876Y-82970714D01*
X109245495Y-82780238D01*
X109340733Y-82685000D01*
X109435971Y-82637380D01*
X109626447Y-82637380D01*
X109721685Y-82685000D01*
X109816923Y-82780238D01*
X109864542Y-82970714D01*
X109864542Y-83304047D01*
X109816923Y-83494523D01*
X109721685Y-83589761D01*
X109626447Y-83637380D01*
X109435971Y-83637380D01*
X110245495Y-82732619D02*
X110293114Y-82685000D01*
X110388352Y-82637380D01*
X110626447Y-82637380D01*
X110721685Y-82685000D01*
X110769304Y-82732619D01*
X110816923Y-82827857D01*
X110816923Y-82923095D01*
X110769304Y-83065952D01*
X110197876Y-83637380D01*
X110816923Y-83637380D01*
%TO.C,D5*%
X159777504Y-81216780D02*
X159777504Y-80216780D01*
X160015600Y-80216780D01*
X160158457Y-80264400D01*
X160253695Y-80359638D01*
X160301314Y-80454876D01*
X160348933Y-80645352D01*
X160348933Y-80788209D01*
X160301314Y-80978685D01*
X160253695Y-81073923D01*
X160158457Y-81169161D01*
X160015600Y-81216780D01*
X159777504Y-81216780D01*
X161253695Y-80216780D02*
X160777504Y-80216780D01*
X160729885Y-80692971D01*
X160777504Y-80645352D01*
X160872742Y-80597733D01*
X161110838Y-80597733D01*
X161206076Y-80645352D01*
X161253695Y-80692971D01*
X161301314Y-80788209D01*
X161301314Y-81026304D01*
X161253695Y-81121542D01*
X161206076Y-81169161D01*
X161110838Y-81216780D01*
X160872742Y-81216780D01*
X160777504Y-81169161D01*
X160729885Y-81121542D01*
%TO.C,H1*%
X127218095Y-80734380D02*
X127218095Y-79734380D01*
X127218095Y-80210571D02*
X127789523Y-80210571D01*
X127789523Y-80734380D02*
X127789523Y-79734380D01*
X128789523Y-80734380D02*
X128218095Y-80734380D01*
X128503809Y-80734380D02*
X128503809Y-79734380D01*
X128408571Y-79877238D01*
X128313333Y-79972476D01*
X128218095Y-80020095D01*
%TO.C,R2*%
X114222733Y-92189580D02*
X113889400Y-91713390D01*
X113651304Y-92189580D02*
X113651304Y-91189580D01*
X114032257Y-91189580D01*
X114127495Y-91237200D01*
X114175114Y-91284819D01*
X114222733Y-91380057D01*
X114222733Y-91522914D01*
X114175114Y-91618152D01*
X114127495Y-91665771D01*
X114032257Y-91713390D01*
X113651304Y-91713390D01*
X114603685Y-91284819D02*
X114651304Y-91237200D01*
X114746542Y-91189580D01*
X114984638Y-91189580D01*
X115079876Y-91237200D01*
X115127495Y-91284819D01*
X115175114Y-91380057D01*
X115175114Y-91475295D01*
X115127495Y-91618152D01*
X114556066Y-92189580D01*
X115175114Y-92189580D01*
%TO.C,Q5*%
X160381961Y-87606419D02*
X160286723Y-87558800D01*
X160191485Y-87463561D01*
X160048628Y-87320704D01*
X159953390Y-87273085D01*
X159858152Y-87273085D01*
X159905771Y-87511180D02*
X159810533Y-87463561D01*
X159715295Y-87368323D01*
X159667676Y-87177847D01*
X159667676Y-86844514D01*
X159715295Y-86654038D01*
X159810533Y-86558800D01*
X159905771Y-86511180D01*
X160096247Y-86511180D01*
X160191485Y-86558800D01*
X160286723Y-86654038D01*
X160334342Y-86844514D01*
X160334342Y-87177847D01*
X160286723Y-87368323D01*
X160191485Y-87463561D01*
X160096247Y-87511180D01*
X159905771Y-87511180D01*
X161239104Y-86511180D02*
X160762914Y-86511180D01*
X160715295Y-86987371D01*
X160762914Y-86939752D01*
X160858152Y-86892133D01*
X161096247Y-86892133D01*
X161191485Y-86939752D01*
X161239104Y-86987371D01*
X161286723Y-87082609D01*
X161286723Y-87320704D01*
X161239104Y-87415942D01*
X161191485Y-87463561D01*
X161096247Y-87511180D01*
X160858152Y-87511180D01*
X160762914Y-87463561D01*
X160715295Y-87415942D01*
%TO.C,C8*%
X118273533Y-88837542D02*
X118225914Y-88885161D01*
X118083057Y-88932780D01*
X117987819Y-88932780D01*
X117844961Y-88885161D01*
X117749723Y-88789923D01*
X117702104Y-88694685D01*
X117654485Y-88504209D01*
X117654485Y-88361352D01*
X117702104Y-88170876D01*
X117749723Y-88075638D01*
X117844961Y-87980400D01*
X117987819Y-87932780D01*
X118083057Y-87932780D01*
X118225914Y-87980400D01*
X118273533Y-88028019D01*
X118844961Y-88361352D02*
X118749723Y-88313733D01*
X118702104Y-88266114D01*
X118654485Y-88170876D01*
X118654485Y-88123257D01*
X118702104Y-88028019D01*
X118749723Y-87980400D01*
X118844961Y-87932780D01*
X119035438Y-87932780D01*
X119130676Y-87980400D01*
X119178295Y-88028019D01*
X119225914Y-88123257D01*
X119225914Y-88170876D01*
X119178295Y-88266114D01*
X119130676Y-88313733D01*
X119035438Y-88361352D01*
X118844961Y-88361352D01*
X118749723Y-88408971D01*
X118702104Y-88456590D01*
X118654485Y-88551828D01*
X118654485Y-88742304D01*
X118702104Y-88837542D01*
X118749723Y-88885161D01*
X118844961Y-88932780D01*
X119035438Y-88932780D01*
X119130676Y-88885161D01*
X119178295Y-88837542D01*
X119225914Y-88742304D01*
X119225914Y-88551828D01*
X119178295Y-88456590D01*
X119130676Y-88408971D01*
X119035438Y-88361352D01*
%TO.C,R8*%
X109447533Y-85280780D02*
X109114200Y-84804590D01*
X108876104Y-85280780D02*
X108876104Y-84280780D01*
X109257057Y-84280780D01*
X109352295Y-84328400D01*
X109399914Y-84376019D01*
X109447533Y-84471257D01*
X109447533Y-84614114D01*
X109399914Y-84709352D01*
X109352295Y-84756971D01*
X109257057Y-84804590D01*
X108876104Y-84804590D01*
X110018961Y-84709352D02*
X109923723Y-84661733D01*
X109876104Y-84614114D01*
X109828485Y-84518876D01*
X109828485Y-84471257D01*
X109876104Y-84376019D01*
X109923723Y-84328400D01*
X110018961Y-84280780D01*
X110209438Y-84280780D01*
X110304676Y-84328400D01*
X110352295Y-84376019D01*
X110399914Y-84471257D01*
X110399914Y-84518876D01*
X110352295Y-84614114D01*
X110304676Y-84661733D01*
X110209438Y-84709352D01*
X110018961Y-84709352D01*
X109923723Y-84756971D01*
X109876104Y-84804590D01*
X109828485Y-84899828D01*
X109828485Y-85090304D01*
X109876104Y-85185542D01*
X109923723Y-85233161D01*
X110018961Y-85280780D01*
X110209438Y-85280780D01*
X110304676Y-85233161D01*
X110352295Y-85185542D01*
X110399914Y-85090304D01*
X110399914Y-84899828D01*
X110352295Y-84804590D01*
X110304676Y-84756971D01*
X110209438Y-84709352D01*
%TO.C,U10*%
X133737504Y-89850980D02*
X133737504Y-90660504D01*
X133785123Y-90755742D01*
X133832742Y-90803361D01*
X133927980Y-90850980D01*
X134118457Y-90850980D01*
X134213695Y-90803361D01*
X134261314Y-90755742D01*
X134308933Y-90660504D01*
X134308933Y-89850980D01*
X135308933Y-90850980D02*
X134737504Y-90850980D01*
X135023219Y-90850980D02*
X135023219Y-89850980D01*
X134927980Y-89993838D01*
X134832742Y-90089076D01*
X134737504Y-90136695D01*
X135927980Y-89850980D02*
X136023219Y-89850980D01*
X136118457Y-89898600D01*
X136166076Y-89946219D01*
X136213695Y-90041457D01*
X136261314Y-90231933D01*
X136261314Y-90470028D01*
X136213695Y-90660504D01*
X136166076Y-90755742D01*
X136118457Y-90803361D01*
X136023219Y-90850980D01*
X135927980Y-90850980D01*
X135832742Y-90803361D01*
X135785123Y-90755742D01*
X135737504Y-90660504D01*
X135689885Y-90470028D01*
X135689885Y-90231933D01*
X135737504Y-90041457D01*
X135785123Y-89946219D01*
X135832742Y-89898600D01*
X135927980Y-89850980D01*
X131094647Y-90850980D02*
X131094647Y-89850980D01*
X131427980Y-90565266D01*
X131761314Y-89850980D01*
X131761314Y-90850980D01*
X132237504Y-90850980D02*
X132237504Y-89850980D01*
X132618457Y-89850980D01*
X132713695Y-89898600D01*
X132761314Y-89946219D01*
X132808933Y-90041457D01*
X132808933Y-90184314D01*
X132761314Y-90279552D01*
X132713695Y-90327171D01*
X132618457Y-90374790D01*
X132237504Y-90374790D01*
X133237504Y-89850980D02*
X133237504Y-90660504D01*
X133285123Y-90755742D01*
X133332742Y-90803361D01*
X133427980Y-90850980D01*
X133618457Y-90850980D01*
X133713695Y-90803361D01*
X133761314Y-90755742D01*
X133808933Y-90660504D01*
X133808933Y-89850980D01*
X134285123Y-90470028D02*
X135047028Y-90470028D01*
X135951790Y-89850980D02*
X135761314Y-89850980D01*
X135666076Y-89898600D01*
X135618457Y-89946219D01*
X135523219Y-90089076D01*
X135475600Y-90279552D01*
X135475600Y-90660504D01*
X135523219Y-90755742D01*
X135570838Y-90803361D01*
X135666076Y-90850980D01*
X135856552Y-90850980D01*
X135951790Y-90803361D01*
X135999409Y-90755742D01*
X136047028Y-90660504D01*
X136047028Y-90422409D01*
X135999409Y-90327171D01*
X135951790Y-90279552D01*
X135856552Y-90231933D01*
X135666076Y-90231933D01*
X135570838Y-90279552D01*
X135523219Y-90327171D01*
X135475600Y-90422409D01*
X136666076Y-89850980D02*
X136761314Y-89850980D01*
X136856552Y-89898600D01*
X136904171Y-89946219D01*
X136951790Y-90041457D01*
X136999409Y-90231933D01*
X136999409Y-90470028D01*
X136951790Y-90660504D01*
X136904171Y-90755742D01*
X136856552Y-90803361D01*
X136761314Y-90850980D01*
X136666076Y-90850980D01*
X136570838Y-90803361D01*
X136523219Y-90755742D01*
X136475600Y-90660504D01*
X136427980Y-90470028D01*
X136427980Y-90231933D01*
X136475600Y-90041457D01*
X136523219Y-89946219D01*
X136570838Y-89898600D01*
X136666076Y-89850980D01*
X137904171Y-89850980D02*
X137427980Y-89850980D01*
X137380361Y-90327171D01*
X137427980Y-90279552D01*
X137523219Y-90231933D01*
X137761314Y-90231933D01*
X137856552Y-90279552D01*
X137904171Y-90327171D01*
X137951790Y-90422409D01*
X137951790Y-90660504D01*
X137904171Y-90755742D01*
X137856552Y-90803361D01*
X137761314Y-90850980D01*
X137523219Y-90850980D01*
X137427980Y-90803361D01*
X137380361Y-90755742D01*
X138570838Y-89850980D02*
X138666076Y-89850980D01*
X138761314Y-89898600D01*
X138808933Y-89946219D01*
X138856552Y-90041457D01*
X138904171Y-90231933D01*
X138904171Y-90470028D01*
X138856552Y-90660504D01*
X138808933Y-90755742D01*
X138761314Y-90803361D01*
X138666076Y-90850980D01*
X138570838Y-90850980D01*
X138475600Y-90803361D01*
X138427980Y-90755742D01*
X138380361Y-90660504D01*
X138332742Y-90470028D01*
X138332742Y-90231933D01*
X138380361Y-90041457D01*
X138427980Y-89946219D01*
X138475600Y-89898600D01*
X138570838Y-89850980D01*
%TO.C,C3*%
X140510933Y-103031542D02*
X140463314Y-103079161D01*
X140320457Y-103126780D01*
X140225219Y-103126780D01*
X140082361Y-103079161D01*
X139987123Y-102983923D01*
X139939504Y-102888685D01*
X139891885Y-102698209D01*
X139891885Y-102555352D01*
X139939504Y-102364876D01*
X139987123Y-102269638D01*
X140082361Y-102174400D01*
X140225219Y-102126780D01*
X140320457Y-102126780D01*
X140463314Y-102174400D01*
X140510933Y-102222019D01*
X140844266Y-102126780D02*
X141463314Y-102126780D01*
X141129980Y-102507733D01*
X141272838Y-102507733D01*
X141368076Y-102555352D01*
X141415695Y-102602971D01*
X141463314Y-102698209D01*
X141463314Y-102936304D01*
X141415695Y-103031542D01*
X141368076Y-103079161D01*
X141272838Y-103126780D01*
X140987123Y-103126780D01*
X140891885Y-103079161D01*
X140844266Y-103031542D01*
%TO.C,R13*%
X164213780Y-96363257D02*
X163737590Y-96696590D01*
X164213780Y-96934685D02*
X163213780Y-96934685D01*
X163213780Y-96553733D01*
X163261400Y-96458495D01*
X163309019Y-96410876D01*
X163404257Y-96363257D01*
X163547114Y-96363257D01*
X163642352Y-96410876D01*
X163689971Y-96458495D01*
X163737590Y-96553733D01*
X163737590Y-96934685D01*
X164213780Y-95410876D02*
X164213780Y-95982304D01*
X164213780Y-95696590D02*
X163213780Y-95696590D01*
X163356638Y-95791828D01*
X163451876Y-95887066D01*
X163499495Y-95982304D01*
X163213780Y-95077542D02*
X163213780Y-94458495D01*
X163594733Y-94791828D01*
X163594733Y-94648971D01*
X163642352Y-94553733D01*
X163689971Y-94506114D01*
X163785209Y-94458495D01*
X164023304Y-94458495D01*
X164118542Y-94506114D01*
X164166161Y-94553733D01*
X164213780Y-94648971D01*
X164213780Y-94934685D01*
X164166161Y-95029923D01*
X164118542Y-95077542D01*
%TO.C,D1*%
X139927104Y-97193380D02*
X139927104Y-96193380D01*
X140165200Y-96193380D01*
X140308057Y-96241000D01*
X140403295Y-96336238D01*
X140450914Y-96431476D01*
X140498533Y-96621952D01*
X140498533Y-96764809D01*
X140450914Y-96955285D01*
X140403295Y-97050523D01*
X140308057Y-97145761D01*
X140165200Y-97193380D01*
X139927104Y-97193380D01*
X141450914Y-97193380D02*
X140879485Y-97193380D01*
X141165200Y-97193380D02*
X141165200Y-96193380D01*
X141069961Y-96336238D01*
X140974723Y-96431476D01*
X140879485Y-96479095D01*
%TO.C,H3*%
X188468095Y-80734380D02*
X188468095Y-79734380D01*
X188468095Y-80210571D02*
X189039523Y-80210571D01*
X189039523Y-80734380D02*
X189039523Y-79734380D01*
X189420476Y-79734380D02*
X190039523Y-79734380D01*
X189706190Y-80115333D01*
X189849047Y-80115333D01*
X189944285Y-80162952D01*
X189991904Y-80210571D01*
X190039523Y-80305809D01*
X190039523Y-80543904D01*
X189991904Y-80639142D01*
X189944285Y-80686761D01*
X189849047Y-80734380D01*
X189563333Y-80734380D01*
X189468095Y-80686761D01*
X189420476Y-80639142D01*
%TO.C,C7*%
X111212833Y-87522342D02*
X111165214Y-87569961D01*
X111022357Y-87617580D01*
X110927119Y-87617580D01*
X110784261Y-87569961D01*
X110689023Y-87474723D01*
X110641404Y-87379485D01*
X110593785Y-87189009D01*
X110593785Y-87046152D01*
X110641404Y-86855676D01*
X110689023Y-86760438D01*
X110784261Y-86665200D01*
X110927119Y-86617580D01*
X111022357Y-86617580D01*
X111165214Y-86665200D01*
X111212833Y-86712819D01*
X111546166Y-86617580D02*
X112212833Y-86617580D01*
X111784261Y-87617580D01*
%TO.C,C1*%
X140473133Y-84880742D02*
X140425514Y-84928361D01*
X140282657Y-84975980D01*
X140187419Y-84975980D01*
X140044561Y-84928361D01*
X139949323Y-84833123D01*
X139901704Y-84737885D01*
X139854085Y-84547409D01*
X139854085Y-84404552D01*
X139901704Y-84214076D01*
X139949323Y-84118838D01*
X140044561Y-84023600D01*
X140187419Y-83975980D01*
X140282657Y-83975980D01*
X140425514Y-84023600D01*
X140473133Y-84071219D01*
X141425514Y-84975980D02*
X140854085Y-84975980D01*
X141139800Y-84975980D02*
X141139800Y-83975980D01*
X141044561Y-84118838D01*
X140949323Y-84214076D01*
X140854085Y-84261695D01*
%TO.C,D3*%
X122553504Y-90400380D02*
X122553504Y-89400380D01*
X122791600Y-89400380D01*
X122934457Y-89448000D01*
X123029695Y-89543238D01*
X123077314Y-89638476D01*
X123124933Y-89828952D01*
X123124933Y-89971809D01*
X123077314Y-90162285D01*
X123029695Y-90257523D01*
X122934457Y-90352761D01*
X122791600Y-90400380D01*
X122553504Y-90400380D01*
X123458266Y-89400380D02*
X124077314Y-89400380D01*
X123743980Y-89781333D01*
X123886838Y-89781333D01*
X123982076Y-89828952D01*
X124029695Y-89876571D01*
X124077314Y-89971809D01*
X124077314Y-90209904D01*
X124029695Y-90305142D01*
X123982076Y-90352761D01*
X123886838Y-90400380D01*
X123601123Y-90400380D01*
X123505885Y-90352761D01*
X123458266Y-90305142D01*
%TO.C,C10*%
X110736642Y-89046342D02*
X110689023Y-89093961D01*
X110546166Y-89141580D01*
X110450928Y-89141580D01*
X110308071Y-89093961D01*
X110212833Y-88998723D01*
X110165214Y-88903485D01*
X110117595Y-88713009D01*
X110117595Y-88570152D01*
X110165214Y-88379676D01*
X110212833Y-88284438D01*
X110308071Y-88189200D01*
X110450928Y-88141580D01*
X110546166Y-88141580D01*
X110689023Y-88189200D01*
X110736642Y-88236819D01*
X111689023Y-89141580D02*
X111117595Y-89141580D01*
X111403309Y-89141580D02*
X111403309Y-88141580D01*
X111308071Y-88284438D01*
X111212833Y-88379676D01*
X111117595Y-88427295D01*
X112308071Y-88141580D02*
X112403309Y-88141580D01*
X112498547Y-88189200D01*
X112546166Y-88236819D01*
X112593785Y-88332057D01*
X112641404Y-88522533D01*
X112641404Y-88760628D01*
X112593785Y-88951104D01*
X112546166Y-89046342D01*
X112498547Y-89093961D01*
X112403309Y-89141580D01*
X112308071Y-89141580D01*
X112212833Y-89093961D01*
X112165214Y-89046342D01*
X112117595Y-88951104D01*
X112069976Y-88760628D01*
X112069976Y-88522533D01*
X112117595Y-88332057D01*
X112165214Y-88236819D01*
X112212833Y-88189200D01*
X112308071Y-88141580D01*
%TO.C,C13*%
X184002142Y-102051142D02*
X183954523Y-102098761D01*
X183811666Y-102146380D01*
X183716428Y-102146380D01*
X183573571Y-102098761D01*
X183478333Y-102003523D01*
X183430714Y-101908285D01*
X183383095Y-101717809D01*
X183383095Y-101574952D01*
X183430714Y-101384476D01*
X183478333Y-101289238D01*
X183573571Y-101194000D01*
X183716428Y-101146380D01*
X183811666Y-101146380D01*
X183954523Y-101194000D01*
X184002142Y-101241619D01*
X184954523Y-102146380D02*
X184383095Y-102146380D01*
X184668809Y-102146380D02*
X184668809Y-101146380D01*
X184573571Y-101289238D01*
X184478333Y-101384476D01*
X184383095Y-101432095D01*
X185287857Y-101146380D02*
X185906904Y-101146380D01*
X185573571Y-101527333D01*
X185716428Y-101527333D01*
X185811666Y-101574952D01*
X185859285Y-101622571D01*
X185906904Y-101717809D01*
X185906904Y-101955904D01*
X185859285Y-102051142D01*
X185811666Y-102098761D01*
X185716428Y-102146380D01*
X185430714Y-102146380D01*
X185335476Y-102098761D01*
X185287857Y-102051142D01*
%TO.C,R17*%
X129582942Y-92702180D02*
X129249609Y-92225990D01*
X129011514Y-92702180D02*
X129011514Y-91702180D01*
X129392466Y-91702180D01*
X129487704Y-91749800D01*
X129535323Y-91797419D01*
X129582942Y-91892657D01*
X129582942Y-92035514D01*
X129535323Y-92130752D01*
X129487704Y-92178371D01*
X129392466Y-92225990D01*
X129011514Y-92225990D01*
X130535323Y-92702180D02*
X129963895Y-92702180D01*
X130249609Y-92702180D02*
X130249609Y-91702180D01*
X130154371Y-91845038D01*
X130059133Y-91940276D01*
X129963895Y-91987895D01*
X130868657Y-91702180D02*
X131535323Y-91702180D01*
X131106752Y-92702180D01*
%TO.C,SW2*%
X202957180Y-90811980D02*
X202623847Y-90335790D01*
X202385752Y-90811980D02*
X202385752Y-89811980D01*
X202766704Y-89811980D01*
X202861942Y-89859600D01*
X202909561Y-89907219D01*
X202957180Y-90002457D01*
X202957180Y-90145314D01*
X202909561Y-90240552D01*
X202861942Y-90288171D01*
X202766704Y-90335790D01*
X202385752Y-90335790D01*
X203338133Y-90764361D02*
X203480990Y-90811980D01*
X203719085Y-90811980D01*
X203814323Y-90764361D01*
X203861942Y-90716742D01*
X203909561Y-90621504D01*
X203909561Y-90526266D01*
X203861942Y-90431028D01*
X203814323Y-90383409D01*
X203719085Y-90335790D01*
X203528609Y-90288171D01*
X203433371Y-90240552D01*
X203385752Y-90192933D01*
X203338133Y-90097695D01*
X203338133Y-90002457D01*
X203385752Y-89907219D01*
X203433371Y-89859600D01*
X203528609Y-89811980D01*
X203766704Y-89811980D01*
X203909561Y-89859600D01*
X204195276Y-89811980D02*
X204766704Y-89811980D01*
X204480990Y-90811980D02*
X204480990Y-89811980D01*
%TO.C,U8*%
X134874095Y-93696380D02*
X134874095Y-94505904D01*
X134921714Y-94601142D01*
X134969333Y-94648761D01*
X135064571Y-94696380D01*
X135255047Y-94696380D01*
X135350285Y-94648761D01*
X135397904Y-94601142D01*
X135445523Y-94505904D01*
X135445523Y-93696380D01*
X136064571Y-94124952D02*
X135969333Y-94077333D01*
X135921714Y-94029714D01*
X135874095Y-93934476D01*
X135874095Y-93886857D01*
X135921714Y-93791619D01*
X135969333Y-93744000D01*
X136064571Y-93696380D01*
X136255047Y-93696380D01*
X136350285Y-93744000D01*
X136397904Y-93791619D01*
X136445523Y-93886857D01*
X136445523Y-93934476D01*
X136397904Y-94029714D01*
X136350285Y-94077333D01*
X136255047Y-94124952D01*
X136064571Y-94124952D01*
X135969333Y-94172571D01*
X135921714Y-94220190D01*
X135874095Y-94315428D01*
X135874095Y-94505904D01*
X135921714Y-94601142D01*
X135969333Y-94648761D01*
X136064571Y-94696380D01*
X136255047Y-94696380D01*
X136350285Y-94648761D01*
X136397904Y-94601142D01*
X136445523Y-94505904D01*
X136445523Y-94315428D01*
X136397904Y-94220190D01*
X136350285Y-94172571D01*
X136255047Y-94124952D01*
%TO.C,C18*%
X139996942Y-92312742D02*
X139949323Y-92360361D01*
X139806466Y-92407980D01*
X139711228Y-92407980D01*
X139568371Y-92360361D01*
X139473133Y-92265123D01*
X139425514Y-92169885D01*
X139377895Y-91979409D01*
X139377895Y-91836552D01*
X139425514Y-91646076D01*
X139473133Y-91550838D01*
X139568371Y-91455600D01*
X139711228Y-91407980D01*
X139806466Y-91407980D01*
X139949323Y-91455600D01*
X139996942Y-91503219D01*
X140949323Y-92407980D02*
X140377895Y-92407980D01*
X140663609Y-92407980D02*
X140663609Y-91407980D01*
X140568371Y-91550838D01*
X140473133Y-91646076D01*
X140377895Y-91693695D01*
X141520752Y-91836552D02*
X141425514Y-91788933D01*
X141377895Y-91741314D01*
X141330276Y-91646076D01*
X141330276Y-91598457D01*
X141377895Y-91503219D01*
X141425514Y-91455600D01*
X141520752Y-91407980D01*
X141711228Y-91407980D01*
X141806466Y-91455600D01*
X141854085Y-91503219D01*
X141901704Y-91598457D01*
X141901704Y-91646076D01*
X141854085Y-91741314D01*
X141806466Y-91788933D01*
X141711228Y-91836552D01*
X141520752Y-91836552D01*
X141425514Y-91884171D01*
X141377895Y-91931790D01*
X141330276Y-92027028D01*
X141330276Y-92217504D01*
X141377895Y-92312742D01*
X141425514Y-92360361D01*
X141520752Y-92407980D01*
X141711228Y-92407980D01*
X141806466Y-92360361D01*
X141854085Y-92312742D01*
X141901704Y-92217504D01*
X141901704Y-92027028D01*
X141854085Y-91931790D01*
X141806466Y-91884171D01*
X141711228Y-91836552D01*
%TO.C,H4*%
X188468095Y-101734380D02*
X188468095Y-100734380D01*
X188468095Y-101210571D02*
X189039523Y-101210571D01*
X189039523Y-101734380D02*
X189039523Y-100734380D01*
X189944285Y-101067714D02*
X189944285Y-101734380D01*
X189706190Y-100686761D02*
X189468095Y-101401047D01*
X190087142Y-101401047D01*
%TO.C,R9*%
X119225533Y-95151180D02*
X118892200Y-94674990D01*
X118654104Y-95151180D02*
X118654104Y-94151180D01*
X119035057Y-94151180D01*
X119130295Y-94198800D01*
X119177914Y-94246419D01*
X119225533Y-94341657D01*
X119225533Y-94484514D01*
X119177914Y-94579752D01*
X119130295Y-94627371D01*
X119035057Y-94674990D01*
X118654104Y-94674990D01*
X119701723Y-95151180D02*
X119892200Y-95151180D01*
X119987438Y-95103561D01*
X120035057Y-95055942D01*
X120130295Y-94913085D01*
X120177914Y-94722609D01*
X120177914Y-94341657D01*
X120130295Y-94246419D01*
X120082676Y-94198800D01*
X119987438Y-94151180D01*
X119796961Y-94151180D01*
X119701723Y-94198800D01*
X119654104Y-94246419D01*
X119606485Y-94341657D01*
X119606485Y-94579752D01*
X119654104Y-94674990D01*
X119701723Y-94722609D01*
X119796961Y-94770228D01*
X119987438Y-94770228D01*
X120082676Y-94722609D01*
X120130295Y-94674990D01*
X120177914Y-94579752D01*
%TO.C,J2*%
X105435380Y-101425333D02*
X106149666Y-101425333D01*
X106292523Y-101472952D01*
X106387761Y-101568190D01*
X106435380Y-101711047D01*
X106435380Y-101806285D01*
X105530619Y-100996761D02*
X105483000Y-100949142D01*
X105435380Y-100853904D01*
X105435380Y-100615809D01*
X105483000Y-100520571D01*
X105530619Y-100472952D01*
X105625857Y-100425333D01*
X105721095Y-100425333D01*
X105863952Y-100472952D01*
X106435380Y-101044380D01*
X106435380Y-100425333D01*
X120590142Y-107163428D02*
X120590142Y-106020571D01*
X121161571Y-106592000D02*
X120018714Y-106592000D01*
X120590142Y-96163428D02*
X120590142Y-95020571D01*
%TO.C,R6*%
X114222733Y-90665580D02*
X113889400Y-90189390D01*
X113651304Y-90665580D02*
X113651304Y-89665580D01*
X114032257Y-89665580D01*
X114127495Y-89713200D01*
X114175114Y-89760819D01*
X114222733Y-89856057D01*
X114222733Y-89998914D01*
X114175114Y-90094152D01*
X114127495Y-90141771D01*
X114032257Y-90189390D01*
X113651304Y-90189390D01*
X115079876Y-89665580D02*
X114889400Y-89665580D01*
X114794161Y-89713200D01*
X114746542Y-89760819D01*
X114651304Y-89903676D01*
X114603685Y-90094152D01*
X114603685Y-90475104D01*
X114651304Y-90570342D01*
X114698923Y-90617961D01*
X114794161Y-90665580D01*
X114984638Y-90665580D01*
X115079876Y-90617961D01*
X115127495Y-90570342D01*
X115175114Y-90475104D01*
X115175114Y-90237009D01*
X115127495Y-90141771D01*
X115079876Y-90094152D01*
X114984638Y-90046533D01*
X114794161Y-90046533D01*
X114698923Y-90094152D01*
X114651304Y-90141771D01*
X114603685Y-90237009D01*
%TO.C,R14*%
X159872742Y-82740780D02*
X159539409Y-82264590D01*
X159301314Y-82740780D02*
X159301314Y-81740780D01*
X159682266Y-81740780D01*
X159777504Y-81788400D01*
X159825123Y-81836019D01*
X159872742Y-81931257D01*
X159872742Y-82074114D01*
X159825123Y-82169352D01*
X159777504Y-82216971D01*
X159682266Y-82264590D01*
X159301314Y-82264590D01*
X160825123Y-82740780D02*
X160253695Y-82740780D01*
X160539409Y-82740780D02*
X160539409Y-81740780D01*
X160444171Y-81883638D01*
X160348933Y-81978876D01*
X160253695Y-82026495D01*
X161682266Y-82074114D02*
X161682266Y-82740780D01*
X161444171Y-81693161D02*
X161206076Y-82407447D01*
X161825123Y-82407447D01*
%TO.C,R7*%
X111186933Y-90665580D02*
X110853600Y-90189390D01*
X110615504Y-90665580D02*
X110615504Y-89665580D01*
X110996457Y-89665580D01*
X111091695Y-89713200D01*
X111139314Y-89760819D01*
X111186933Y-89856057D01*
X111186933Y-89998914D01*
X111139314Y-90094152D01*
X111091695Y-90141771D01*
X110996457Y-90189390D01*
X110615504Y-90189390D01*
X111520266Y-89665580D02*
X112186933Y-89665580D01*
X111758361Y-90665580D01*
%TO.C,SW3*%
X202147657Y-91966371D02*
X202290514Y-92013990D01*
X202338133Y-92061609D01*
X202385752Y-92156847D01*
X202385752Y-92299704D01*
X202338133Y-92394942D01*
X202290514Y-92442561D01*
X202195276Y-92490180D01*
X201814323Y-92490180D01*
X201814323Y-91490180D01*
X202147657Y-91490180D01*
X202242895Y-91537800D01*
X202290514Y-91585419D01*
X202338133Y-91680657D01*
X202338133Y-91775895D01*
X202290514Y-91871133D01*
X202242895Y-91918752D01*
X202147657Y-91966371D01*
X201814323Y-91966371D01*
X203004800Y-91490180D02*
X203195276Y-91490180D01*
X203290514Y-91537800D01*
X203385752Y-91633038D01*
X203433371Y-91823514D01*
X203433371Y-92156847D01*
X203385752Y-92347323D01*
X203290514Y-92442561D01*
X203195276Y-92490180D01*
X203004800Y-92490180D01*
X202909561Y-92442561D01*
X202814323Y-92347323D01*
X202766704Y-92156847D01*
X202766704Y-91823514D01*
X202814323Y-91633038D01*
X202909561Y-91537800D01*
X203004800Y-91490180D01*
X204052419Y-91490180D02*
X204242895Y-91490180D01*
X204338133Y-91537800D01*
X204433371Y-91633038D01*
X204480990Y-91823514D01*
X204480990Y-92156847D01*
X204433371Y-92347323D01*
X204338133Y-92442561D01*
X204242895Y-92490180D01*
X204052419Y-92490180D01*
X203957180Y-92442561D01*
X203861942Y-92347323D01*
X203814323Y-92156847D01*
X203814323Y-91823514D01*
X203861942Y-91633038D01*
X203957180Y-91537800D01*
X204052419Y-91490180D01*
X204766704Y-91490180D02*
X205338133Y-91490180D01*
X205052419Y-92490180D02*
X205052419Y-91490180D01*
%TO.C,J4*%
X195373666Y-95735180D02*
X195373666Y-96449466D01*
X195326047Y-96592323D01*
X195230809Y-96687561D01*
X195087952Y-96735180D01*
X194992714Y-96735180D01*
X196278428Y-96068514D02*
X196278428Y-96735180D01*
X196040333Y-95687561D02*
X195802238Y-96401847D01*
X196421285Y-96401847D01*
%TO.C,R18*%
X129608342Y-95745580D02*
X129275009Y-95269390D01*
X129036914Y-95745580D02*
X129036914Y-94745580D01*
X129417866Y-94745580D01*
X129513104Y-94793200D01*
X129560723Y-94840819D01*
X129608342Y-94936057D01*
X129608342Y-95078914D01*
X129560723Y-95174152D01*
X129513104Y-95221771D01*
X129417866Y-95269390D01*
X129036914Y-95269390D01*
X130560723Y-95745580D02*
X129989295Y-95745580D01*
X130275009Y-95745580D02*
X130275009Y-94745580D01*
X130179771Y-94888438D01*
X130084533Y-94983676D01*
X129989295Y-95031295D01*
X131132152Y-95174152D02*
X131036914Y-95126533D01*
X130989295Y-95078914D01*
X130941676Y-94983676D01*
X130941676Y-94936057D01*
X130989295Y-94840819D01*
X131036914Y-94793200D01*
X131132152Y-94745580D01*
X131322628Y-94745580D01*
X131417866Y-94793200D01*
X131465485Y-94840819D01*
X131513104Y-94936057D01*
X131513104Y-94983676D01*
X131465485Y-95078914D01*
X131417866Y-95126533D01*
X131322628Y-95174152D01*
X131132152Y-95174152D01*
X131036914Y-95221771D01*
X130989295Y-95269390D01*
X130941676Y-95364628D01*
X130941676Y-95555104D01*
X130989295Y-95650342D01*
X131036914Y-95697961D01*
X131132152Y-95745580D01*
X131322628Y-95745580D01*
X131417866Y-95697961D01*
X131465485Y-95650342D01*
X131513104Y-95555104D01*
X131513104Y-95364628D01*
X131465485Y-95269390D01*
X131417866Y-95221771D01*
X131322628Y-95174152D01*
%TO.C,SW4*%
X191653161Y-94447904D02*
X191700780Y-94305047D01*
X191700780Y-94066952D01*
X191653161Y-93971714D01*
X191605542Y-93924095D01*
X191510304Y-93876476D01*
X191415066Y-93876476D01*
X191319828Y-93924095D01*
X191272209Y-93971714D01*
X191224590Y-94066952D01*
X191176971Y-94257428D01*
X191129352Y-94352666D01*
X191081733Y-94400285D01*
X190986495Y-94447904D01*
X190891257Y-94447904D01*
X190796019Y-94400285D01*
X190748400Y-94352666D01*
X190700780Y-94257428D01*
X190700780Y-94019333D01*
X190748400Y-93876476D01*
X191700780Y-93447904D02*
X190700780Y-93447904D01*
X190700780Y-93209809D01*
X190748400Y-93066952D01*
X190843638Y-92971714D01*
X190938876Y-92924095D01*
X191129352Y-92876476D01*
X191272209Y-92876476D01*
X191462685Y-92924095D01*
X191557923Y-92971714D01*
X191653161Y-93066952D01*
X191700780Y-93209809D01*
X191700780Y-93447904D01*
X191796019Y-92686000D02*
X191796019Y-91924095D01*
X191700780Y-91686000D02*
X190700780Y-91686000D01*
X190700780Y-91447904D01*
X190748400Y-91305047D01*
X190843638Y-91209809D01*
X190938876Y-91162190D01*
X191129352Y-91114571D01*
X191272209Y-91114571D01*
X191462685Y-91162190D01*
X191557923Y-91209809D01*
X191653161Y-91305047D01*
X191700780Y-91447904D01*
X191700780Y-91686000D01*
X190700780Y-90686000D02*
X191510304Y-90686000D01*
X191605542Y-90638380D01*
X191653161Y-90590761D01*
X191700780Y-90495523D01*
X191700780Y-90305047D01*
X191653161Y-90209809D01*
X191605542Y-90162190D01*
X191510304Y-90114571D01*
X190700780Y-90114571D01*
X191700780Y-89638380D02*
X190700780Y-89638380D01*
X191415066Y-89305047D01*
X190700780Y-88971714D01*
X191700780Y-88971714D01*
X191700780Y-88495523D02*
X190700780Y-88495523D01*
X190700780Y-88114571D01*
X190748400Y-88019333D01*
X190796019Y-87971714D01*
X190891257Y-87924095D01*
X191034114Y-87924095D01*
X191129352Y-87971714D01*
X191176971Y-88019333D01*
X191224590Y-88114571D01*
X191224590Y-88495523D01*
%TO.C,R4*%
X108151133Y-94135180D02*
X107817800Y-93658990D01*
X107579704Y-94135180D02*
X107579704Y-93135180D01*
X107960657Y-93135180D01*
X108055895Y-93182800D01*
X108103514Y-93230419D01*
X108151133Y-93325657D01*
X108151133Y-93468514D01*
X108103514Y-93563752D01*
X108055895Y-93611371D01*
X107960657Y-93658990D01*
X107579704Y-93658990D01*
X109008276Y-93468514D02*
X109008276Y-94135180D01*
X108770180Y-93087561D02*
X108532085Y-93801847D01*
X109151133Y-93801847D01*
%TO.C,J1*%
X202333266Y-96988180D02*
X202333266Y-97702466D01*
X202285647Y-97845323D01*
X202190409Y-97940561D01*
X202047552Y-97988180D01*
X201952314Y-97988180D01*
X203333266Y-97988180D02*
X202761838Y-97988180D01*
X203047552Y-97988180D02*
X203047552Y-96988180D01*
X202952314Y-97131038D01*
X202857076Y-97226276D01*
X202761838Y-97273895D01*
%TO.C,H2*%
X127218095Y-101734380D02*
X127218095Y-100734380D01*
X127218095Y-101210571D02*
X127789523Y-101210571D01*
X127789523Y-101734380D02*
X127789523Y-100734380D01*
X128218095Y-100829619D02*
X128265714Y-100782000D01*
X128360952Y-100734380D01*
X128599047Y-100734380D01*
X128694285Y-100782000D01*
X128741904Y-100829619D01*
X128789523Y-100924857D01*
X128789523Y-101020095D01*
X128741904Y-101162952D01*
X128170476Y-101734380D01*
X128789523Y-101734380D01*
%TO.C,U7*%
X119710295Y-82789780D02*
X119710295Y-83599304D01*
X119757914Y-83694542D01*
X119805533Y-83742161D01*
X119900771Y-83789780D01*
X120091247Y-83789780D01*
X120186485Y-83742161D01*
X120234104Y-83694542D01*
X120281723Y-83599304D01*
X120281723Y-82789780D01*
X120662676Y-82789780D02*
X121329342Y-82789780D01*
X120900771Y-83789780D01*
%TO.C,U1*%
X151033495Y-99325180D02*
X151033495Y-100134704D01*
X151081114Y-100229942D01*
X151128733Y-100277561D01*
X151223971Y-100325180D01*
X151414447Y-100325180D01*
X151509685Y-100277561D01*
X151557304Y-100229942D01*
X151604923Y-100134704D01*
X151604923Y-99325180D01*
X152604923Y-100325180D02*
X152033495Y-100325180D01*
X152319209Y-100325180D02*
X152319209Y-99325180D01*
X152223971Y-99468038D01*
X152128733Y-99563276D01*
X152033495Y-99610895D01*
X149009685Y-100325180D02*
X148533495Y-100325180D01*
X148533495Y-99325180D01*
X149485876Y-99753752D02*
X149390638Y-99706133D01*
X149343019Y-99658514D01*
X149295400Y-99563276D01*
X149295400Y-99515657D01*
X149343019Y-99420419D01*
X149390638Y-99372800D01*
X149485876Y-99325180D01*
X149676352Y-99325180D01*
X149771590Y-99372800D01*
X149819209Y-99420419D01*
X149866828Y-99515657D01*
X149866828Y-99563276D01*
X149819209Y-99658514D01*
X149771590Y-99706133D01*
X149676352Y-99753752D01*
X149485876Y-99753752D01*
X149390638Y-99801371D01*
X149343019Y-99848990D01*
X149295400Y-99944228D01*
X149295400Y-100134704D01*
X149343019Y-100229942D01*
X149390638Y-100277561D01*
X149485876Y-100325180D01*
X149676352Y-100325180D01*
X149771590Y-100277561D01*
X149819209Y-100229942D01*
X149866828Y-100134704D01*
X149866828Y-99944228D01*
X149819209Y-99848990D01*
X149771590Y-99801371D01*
X149676352Y-99753752D01*
X150485876Y-99325180D02*
X150581114Y-99325180D01*
X150676352Y-99372800D01*
X150723971Y-99420419D01*
X150771590Y-99515657D01*
X150819209Y-99706133D01*
X150819209Y-99944228D01*
X150771590Y-100134704D01*
X150723971Y-100229942D01*
X150676352Y-100277561D01*
X150581114Y-100325180D01*
X150485876Y-100325180D01*
X150390638Y-100277561D01*
X150343019Y-100229942D01*
X150295400Y-100134704D01*
X150247780Y-99944228D01*
X150247780Y-99706133D01*
X150295400Y-99515657D01*
X150343019Y-99420419D01*
X150390638Y-99372800D01*
X150485876Y-99325180D01*
X151247780Y-99944228D02*
X152009685Y-99944228D01*
X152485876Y-100325180D02*
X152485876Y-99325180D01*
X152819209Y-100039466D01*
X153152542Y-99325180D01*
X153152542Y-100325180D01*
X153533495Y-99325180D02*
X154152542Y-99325180D01*
X153819209Y-99706133D01*
X153962066Y-99706133D01*
X154057304Y-99753752D01*
X154104923Y-99801371D01*
X154152542Y-99896609D01*
X154152542Y-100134704D01*
X154104923Y-100229942D01*
X154057304Y-100277561D01*
X153962066Y-100325180D01*
X153676352Y-100325180D01*
X153581114Y-100277561D01*
X153533495Y-100229942D01*
X154628733Y-100325180D02*
X154819209Y-100325180D01*
X154914447Y-100277561D01*
X154962066Y-100229942D01*
X155057304Y-100087085D01*
X155104923Y-99896609D01*
X155104923Y-99515657D01*
X155057304Y-99420419D01*
X155009685Y-99372800D01*
X154914447Y-99325180D01*
X154723971Y-99325180D01*
X154628733Y-99372800D01*
X154581114Y-99420419D01*
X154533495Y-99515657D01*
X154533495Y-99753752D01*
X154581114Y-99848990D01*
X154628733Y-99896609D01*
X154723971Y-99944228D01*
X154914447Y-99944228D01*
X155009685Y-99896609D01*
X155057304Y-99848990D01*
X155104923Y-99753752D01*
%TO.C,Q4*%
X156317961Y-86006219D02*
X156222723Y-85958600D01*
X156127485Y-85863361D01*
X155984628Y-85720504D01*
X155889390Y-85672885D01*
X155794152Y-85672885D01*
X155841771Y-85910980D02*
X155746533Y-85863361D01*
X155651295Y-85768123D01*
X155603676Y-85577647D01*
X155603676Y-85244314D01*
X155651295Y-85053838D01*
X155746533Y-84958600D01*
X155841771Y-84910980D01*
X156032247Y-84910980D01*
X156127485Y-84958600D01*
X156222723Y-85053838D01*
X156270342Y-85244314D01*
X156270342Y-85577647D01*
X156222723Y-85768123D01*
X156127485Y-85863361D01*
X156032247Y-85910980D01*
X155841771Y-85910980D01*
X157127485Y-85244314D02*
X157127485Y-85910980D01*
X156889390Y-84863361D02*
X156651295Y-85577647D01*
X157270342Y-85577647D01*
%TO.C,D4*%
X139749304Y-82450180D02*
X139749304Y-81450180D01*
X139987400Y-81450180D01*
X140130257Y-81497800D01*
X140225495Y-81593038D01*
X140273114Y-81688276D01*
X140320733Y-81878752D01*
X140320733Y-82021609D01*
X140273114Y-82212085D01*
X140225495Y-82307323D01*
X140130257Y-82402561D01*
X139987400Y-82450180D01*
X139749304Y-82450180D01*
X141177876Y-81783514D02*
X141177876Y-82450180D01*
X140939780Y-81402561D02*
X140701685Y-82116847D01*
X141320733Y-82116847D01*
%TO.C,R15*%
X190619142Y-99301580D02*
X190285809Y-98825390D01*
X190047714Y-99301580D02*
X190047714Y-98301580D01*
X190428666Y-98301580D01*
X190523904Y-98349200D01*
X190571523Y-98396819D01*
X190619142Y-98492057D01*
X190619142Y-98634914D01*
X190571523Y-98730152D01*
X190523904Y-98777771D01*
X190428666Y-98825390D01*
X190047714Y-98825390D01*
X191571523Y-99301580D02*
X191000095Y-99301580D01*
X191285809Y-99301580D02*
X191285809Y-98301580D01*
X191190571Y-98444438D01*
X191095333Y-98539676D01*
X191000095Y-98587295D01*
X192476285Y-98301580D02*
X192000095Y-98301580D01*
X191952476Y-98777771D01*
X192000095Y-98730152D01*
X192095333Y-98682533D01*
X192333428Y-98682533D01*
X192428666Y-98730152D01*
X192476285Y-98777771D01*
X192523904Y-98873009D01*
X192523904Y-99111104D01*
X192476285Y-99206342D01*
X192428666Y-99253961D01*
X192333428Y-99301580D01*
X192095333Y-99301580D01*
X192000095Y-99253961D01*
X191952476Y-99206342D01*
%TO.C,R16*%
X129582942Y-94221580D02*
X129249609Y-93745390D01*
X129011514Y-94221580D02*
X129011514Y-93221580D01*
X129392466Y-93221580D01*
X129487704Y-93269200D01*
X129535323Y-93316819D01*
X129582942Y-93412057D01*
X129582942Y-93554914D01*
X129535323Y-93650152D01*
X129487704Y-93697771D01*
X129392466Y-93745390D01*
X129011514Y-93745390D01*
X130535323Y-94221580D02*
X129963895Y-94221580D01*
X130249609Y-94221580D02*
X130249609Y-93221580D01*
X130154371Y-93364438D01*
X130059133Y-93459676D01*
X129963895Y-93507295D01*
X131392466Y-93221580D02*
X131201990Y-93221580D01*
X131106752Y-93269200D01*
X131059133Y-93316819D01*
X130963895Y-93459676D01*
X130916276Y-93650152D01*
X130916276Y-94031104D01*
X130963895Y-94126342D01*
X131011514Y-94173961D01*
X131106752Y-94221580D01*
X131297228Y-94221580D01*
X131392466Y-94173961D01*
X131440085Y-94126342D01*
X131487704Y-94031104D01*
X131487704Y-93793009D01*
X131440085Y-93697771D01*
X131392466Y-93650152D01*
X131297228Y-93602533D01*
X131106752Y-93602533D01*
X131011514Y-93650152D01*
X130963895Y-93697771D01*
X130916276Y-93793009D01*
%TO.C,R1*%
X140511733Y-98742780D02*
X140178400Y-98266590D01*
X139940304Y-98742780D02*
X139940304Y-97742780D01*
X140321257Y-97742780D01*
X140416495Y-97790400D01*
X140464114Y-97838019D01*
X140511733Y-97933257D01*
X140511733Y-98076114D01*
X140464114Y-98171352D01*
X140416495Y-98218971D01*
X140321257Y-98266590D01*
X139940304Y-98266590D01*
X141464114Y-98742780D02*
X140892685Y-98742780D01*
X141178400Y-98742780D02*
X141178400Y-97742780D01*
X141083161Y-97885638D01*
X140987923Y-97980876D01*
X140892685Y-98028495D01*
%TO.C,C19*%
X139996942Y-90976742D02*
X139949323Y-91024361D01*
X139806466Y-91071980D01*
X139711228Y-91071980D01*
X139568371Y-91024361D01*
X139473133Y-90929123D01*
X139425514Y-90833885D01*
X139377895Y-90643409D01*
X139377895Y-90500552D01*
X139425514Y-90310076D01*
X139473133Y-90214838D01*
X139568371Y-90119600D01*
X139711228Y-90071980D01*
X139806466Y-90071980D01*
X139949323Y-90119600D01*
X139996942Y-90167219D01*
X140949323Y-91071980D02*
X140377895Y-91071980D01*
X140663609Y-91071980D02*
X140663609Y-90071980D01*
X140568371Y-90214838D01*
X140473133Y-90310076D01*
X140377895Y-90357695D01*
X141425514Y-91071980D02*
X141615990Y-91071980D01*
X141711228Y-91024361D01*
X141758847Y-90976742D01*
X141854085Y-90833885D01*
X141901704Y-90643409D01*
X141901704Y-90262457D01*
X141854085Y-90167219D01*
X141806466Y-90119600D01*
X141711228Y-90071980D01*
X141520752Y-90071980D01*
X141425514Y-90119600D01*
X141377895Y-90167219D01*
X141330276Y-90262457D01*
X141330276Y-90500552D01*
X141377895Y-90595790D01*
X141425514Y-90643409D01*
X141520752Y-90691028D01*
X141711228Y-90691028D01*
X141806466Y-90643409D01*
X141854085Y-90595790D01*
X141901704Y-90500552D01*
%TO.C,C20*%
X139996942Y-86404742D02*
X139949323Y-86452361D01*
X139806466Y-86499980D01*
X139711228Y-86499980D01*
X139568371Y-86452361D01*
X139473133Y-86357123D01*
X139425514Y-86261885D01*
X139377895Y-86071409D01*
X139377895Y-85928552D01*
X139425514Y-85738076D01*
X139473133Y-85642838D01*
X139568371Y-85547600D01*
X139711228Y-85499980D01*
X139806466Y-85499980D01*
X139949323Y-85547600D01*
X139996942Y-85595219D01*
X140377895Y-85595219D02*
X140425514Y-85547600D01*
X140520752Y-85499980D01*
X140758847Y-85499980D01*
X140854085Y-85547600D01*
X140901704Y-85595219D01*
X140949323Y-85690457D01*
X140949323Y-85785695D01*
X140901704Y-85928552D01*
X140330276Y-86499980D01*
X140949323Y-86499980D01*
X141568371Y-85499980D02*
X141663609Y-85499980D01*
X141758847Y-85547600D01*
X141806466Y-85595219D01*
X141854085Y-85690457D01*
X141901704Y-85880933D01*
X141901704Y-86119028D01*
X141854085Y-86309504D01*
X141806466Y-86404742D01*
X141758847Y-86452361D01*
X141663609Y-86499980D01*
X141568371Y-86499980D01*
X141473133Y-86452361D01*
X141425514Y-86404742D01*
X141377895Y-86309504D01*
X141330276Y-86119028D01*
X141330276Y-85880933D01*
X141377895Y-85690457D01*
X141425514Y-85595219D01*
X141473133Y-85547600D01*
X141568371Y-85499980D01*
%TO.C,C2*%
X140473133Y-98408742D02*
X140425514Y-98456361D01*
X140282657Y-98503980D01*
X140187419Y-98503980D01*
X140044561Y-98456361D01*
X139949323Y-98361123D01*
X139901704Y-98265885D01*
X139854085Y-98075409D01*
X139854085Y-97932552D01*
X139901704Y-97742076D01*
X139949323Y-97646838D01*
X140044561Y-97551600D01*
X140187419Y-97503980D01*
X140282657Y-97503980D01*
X140425514Y-97551600D01*
X140473133Y-97599219D01*
X140854085Y-97599219D02*
X140901704Y-97551600D01*
X140996942Y-97503980D01*
X141235038Y-97503980D01*
X141330276Y-97551600D01*
X141377895Y-97599219D01*
X141425514Y-97694457D01*
X141425514Y-97789695D01*
X141377895Y-97932552D01*
X140806466Y-98503980D01*
X141425514Y-98503980D01*
%TO.C,C15*%
X126750042Y-86957942D02*
X126702423Y-87005561D01*
X126559566Y-87053180D01*
X126464328Y-87053180D01*
X126321471Y-87005561D01*
X126226233Y-86910323D01*
X126178614Y-86815085D01*
X126130995Y-86624609D01*
X126130995Y-86481752D01*
X126178614Y-86291276D01*
X126226233Y-86196038D01*
X126321471Y-86100800D01*
X126464328Y-86053180D01*
X126559566Y-86053180D01*
X126702423Y-86100800D01*
X126750042Y-86148419D01*
X127702423Y-87053180D02*
X127130995Y-87053180D01*
X127416709Y-87053180D02*
X127416709Y-86053180D01*
X127321471Y-86196038D01*
X127226233Y-86291276D01*
X127130995Y-86338895D01*
X128607185Y-86053180D02*
X128130995Y-86053180D01*
X128083376Y-86529371D01*
X128130995Y-86481752D01*
X128226233Y-86434133D01*
X128464328Y-86434133D01*
X128559566Y-86481752D01*
X128607185Y-86529371D01*
X128654804Y-86624609D01*
X128654804Y-86862704D01*
X128607185Y-86957942D01*
X128559566Y-87005561D01*
X128464328Y-87053180D01*
X128226233Y-87053180D01*
X128130995Y-87005561D01*
X128083376Y-86957942D01*
%TO.C,C12*%
X159885142Y-84169542D02*
X159837523Y-84217161D01*
X159694666Y-84264780D01*
X159599428Y-84264780D01*
X159456571Y-84217161D01*
X159361333Y-84121923D01*
X159313714Y-84026685D01*
X159266095Y-83836209D01*
X159266095Y-83693352D01*
X159313714Y-83502876D01*
X159361333Y-83407638D01*
X159456571Y-83312400D01*
X159599428Y-83264780D01*
X159694666Y-83264780D01*
X159837523Y-83312400D01*
X159885142Y-83360019D01*
X160837523Y-84264780D02*
X160266095Y-84264780D01*
X160551809Y-84264780D02*
X160551809Y-83264780D01*
X160456571Y-83407638D01*
X160361333Y-83502876D01*
X160266095Y-83550495D01*
X161218476Y-83360019D02*
X161266095Y-83312400D01*
X161361333Y-83264780D01*
X161599428Y-83264780D01*
X161694666Y-83312400D01*
X161742285Y-83360019D01*
X161789904Y-83455257D01*
X161789904Y-83550495D01*
X161742285Y-83693352D01*
X161170857Y-84264780D01*
X161789904Y-84264780D01*
%TO.C,C16*%
X164118542Y-93352857D02*
X164166161Y-93400476D01*
X164213780Y-93543333D01*
X164213780Y-93638571D01*
X164166161Y-93781428D01*
X164070923Y-93876666D01*
X163975685Y-93924285D01*
X163785209Y-93971904D01*
X163642352Y-93971904D01*
X163451876Y-93924285D01*
X163356638Y-93876666D01*
X163261400Y-93781428D01*
X163213780Y-93638571D01*
X163213780Y-93543333D01*
X163261400Y-93400476D01*
X163309019Y-93352857D01*
X164213780Y-92400476D02*
X164213780Y-92971904D01*
X164213780Y-92686190D02*
X163213780Y-92686190D01*
X163356638Y-92781428D01*
X163451876Y-92876666D01*
X163499495Y-92971904D01*
X163213780Y-91543333D02*
X163213780Y-91733809D01*
X163261400Y-91829047D01*
X163309019Y-91876666D01*
X163451876Y-91971904D01*
X163642352Y-92019523D01*
X164023304Y-92019523D01*
X164118542Y-91971904D01*
X164166161Y-91924285D01*
X164213780Y-91829047D01*
X164213780Y-91638571D01*
X164166161Y-91543333D01*
X164118542Y-91495714D01*
X164023304Y-91448095D01*
X163785209Y-91448095D01*
X163689971Y-91495714D01*
X163642352Y-91543333D01*
X163594733Y-91638571D01*
X163594733Y-91829047D01*
X163642352Y-91924285D01*
X163689971Y-91971904D01*
X163785209Y-92019523D01*
%TO.C,D6*%
X129538504Y-97294980D02*
X129538504Y-96294980D01*
X129776600Y-96294980D01*
X129919457Y-96342600D01*
X130014695Y-96437838D01*
X130062314Y-96533076D01*
X130109933Y-96723552D01*
X130109933Y-96866409D01*
X130062314Y-97056885D01*
X130014695Y-97152123D01*
X129919457Y-97247361D01*
X129776600Y-97294980D01*
X129538504Y-97294980D01*
X130967076Y-96294980D02*
X130776600Y-96294980D01*
X130681361Y-96342600D01*
X130633742Y-96390219D01*
X130538504Y-96533076D01*
X130490885Y-96723552D01*
X130490885Y-97104504D01*
X130538504Y-97199742D01*
X130586123Y-97247361D01*
X130681361Y-97294980D01*
X130871838Y-97294980D01*
X130967076Y-97247361D01*
X131014695Y-97199742D01*
X131062314Y-97104504D01*
X131062314Y-96866409D01*
X131014695Y-96771171D01*
X130967076Y-96723552D01*
X130871838Y-96675933D01*
X130681361Y-96675933D01*
X130586123Y-96723552D01*
X130538504Y-96771171D01*
X130490885Y-96866409D01*
%TO.C,U3*%
X134402580Y-85242304D02*
X135212104Y-85242304D01*
X135307342Y-85194685D01*
X135354961Y-85147066D01*
X135402580Y-85051828D01*
X135402580Y-84861352D01*
X135354961Y-84766114D01*
X135307342Y-84718495D01*
X135212104Y-84670876D01*
X134402580Y-84670876D01*
X134402580Y-84289923D02*
X134402580Y-83670876D01*
X134783533Y-84004209D01*
X134783533Y-83861352D01*
X134831152Y-83766114D01*
X134878771Y-83718495D01*
X134974009Y-83670876D01*
X135212104Y-83670876D01*
X135307342Y-83718495D01*
X135354961Y-83766114D01*
X135402580Y-83861352D01*
X135402580Y-84147066D01*
X135354961Y-84242304D01*
X135307342Y-84289923D01*
X138596666Y-91885209D02*
X138596666Y-91409019D01*
X138882380Y-91980447D02*
X137882380Y-91647114D01*
X138882380Y-91313780D01*
X138882380Y-90980447D02*
X137882380Y-90980447D01*
X137882380Y-90742352D01*
X137930000Y-90599495D01*
X138025238Y-90504257D01*
X138120476Y-90456638D01*
X138310952Y-90409019D01*
X138453809Y-90409019D01*
X138644285Y-90456638D01*
X138739523Y-90504257D01*
X138834761Y-90599495D01*
X138882380Y-90742352D01*
X138882380Y-90980447D01*
X137882380Y-90075685D02*
X138882380Y-89409019D01*
X137882380Y-89409019D02*
X138882380Y-90075685D01*
X138882380Y-88551876D02*
X138882380Y-89028066D01*
X137882380Y-89028066D01*
X137882380Y-88313780D02*
X137882380Y-87694733D01*
X138263333Y-88028066D01*
X138263333Y-87885209D01*
X138310952Y-87789971D01*
X138358571Y-87742352D01*
X138453809Y-87694733D01*
X138691904Y-87694733D01*
X138787142Y-87742352D01*
X138834761Y-87789971D01*
X138882380Y-87885209D01*
X138882380Y-88170923D01*
X138834761Y-88266161D01*
X138787142Y-88313780D01*
X137882380Y-87361400D02*
X137882380Y-86694733D01*
X138882380Y-87123304D01*
X137882380Y-85837590D02*
X137882380Y-86313780D01*
X138358571Y-86361400D01*
X138310952Y-86313780D01*
X138263333Y-86218542D01*
X138263333Y-85980447D01*
X138310952Y-85885209D01*
X138358571Y-85837590D01*
X138453809Y-85789971D01*
X138691904Y-85789971D01*
X138787142Y-85837590D01*
X138834761Y-85885209D01*
X138882380Y-85980447D01*
X138882380Y-86218542D01*
X138834761Y-86313780D01*
X138787142Y-86361400D01*
X138358571Y-85028066D02*
X138406190Y-84885209D01*
X138453809Y-84837590D01*
X138549047Y-84789971D01*
X138691904Y-84789971D01*
X138787142Y-84837590D01*
X138834761Y-84885209D01*
X138882380Y-84980447D01*
X138882380Y-85361400D01*
X137882380Y-85361400D01*
X137882380Y-85028066D01*
X137930000Y-84932828D01*
X137977619Y-84885209D01*
X138072857Y-84837590D01*
X138168095Y-84837590D01*
X138263333Y-84885209D01*
X138310952Y-84932828D01*
X138358571Y-85028066D01*
X138358571Y-85361400D01*
X138787142Y-83789971D02*
X138834761Y-83837590D01*
X138882380Y-83980447D01*
X138882380Y-84075685D01*
X138834761Y-84218542D01*
X138739523Y-84313780D01*
X138644285Y-84361400D01*
X138453809Y-84409019D01*
X138310952Y-84409019D01*
X138120476Y-84361400D01*
X138025238Y-84313780D01*
X137930000Y-84218542D01*
X137882380Y-84075685D01*
X137882380Y-83980447D01*
X137930000Y-83837590D01*
X137977619Y-83789971D01*
X138787142Y-82789971D02*
X138834761Y-82837590D01*
X138882380Y-82980447D01*
X138882380Y-83075685D01*
X138834761Y-83218542D01*
X138739523Y-83313780D01*
X138644285Y-83361400D01*
X138453809Y-83409019D01*
X138310952Y-83409019D01*
X138120476Y-83361400D01*
X138025238Y-83313780D01*
X137930000Y-83218542D01*
X137882380Y-83075685D01*
X137882380Y-82980447D01*
X137930000Y-82837590D01*
X137977619Y-82789971D01*
X137882380Y-82456638D02*
X137882380Y-81789971D01*
X138882380Y-82456638D01*
X138882380Y-81789971D01*
X138501428Y-81409019D02*
X138501428Y-80647114D01*
X138882380Y-79599495D02*
X138406190Y-79932828D01*
X138882380Y-80170923D02*
X137882380Y-80170923D01*
X137882380Y-79789971D01*
X137930000Y-79694733D01*
X137977619Y-79647114D01*
X138072857Y-79599495D01*
X138215714Y-79599495D01*
X138310952Y-79647114D01*
X138358571Y-79694733D01*
X138406190Y-79789971D01*
X138406190Y-80170923D01*
X138882380Y-78694733D02*
X138882380Y-79170923D01*
X137882380Y-79170923D01*
X137882380Y-78456638D02*
X137882380Y-77789971D01*
X138882380Y-78218542D01*
X136802580Y-81915600D02*
X137040676Y-81915600D01*
X136945438Y-82153695D02*
X137040676Y-81915600D01*
X136945438Y-81677504D01*
X137231152Y-82058457D02*
X137040676Y-81915600D01*
X137231152Y-81772742D01*
X136802580Y-81915600D02*
X137040676Y-81915600D01*
X136945438Y-82153695D02*
X137040676Y-81915600D01*
X136945438Y-81677504D01*
X137231152Y-82058457D02*
X137040676Y-81915600D01*
X137231152Y-81772742D01*
%TO.C,Q1*%
X113747561Y-83859619D02*
X113652323Y-83812000D01*
X113557085Y-83716761D01*
X113414228Y-83573904D01*
X113318990Y-83526285D01*
X113223752Y-83526285D01*
X113271371Y-83764380D02*
X113176133Y-83716761D01*
X113080895Y-83621523D01*
X113033276Y-83431047D01*
X113033276Y-83097714D01*
X113080895Y-82907238D01*
X113176133Y-82812000D01*
X113271371Y-82764380D01*
X113461847Y-82764380D01*
X113557085Y-82812000D01*
X113652323Y-82907238D01*
X113699942Y-83097714D01*
X113699942Y-83431047D01*
X113652323Y-83621523D01*
X113557085Y-83716761D01*
X113461847Y-83764380D01*
X113271371Y-83764380D01*
X114652323Y-83764380D02*
X114080895Y-83764380D01*
X114366609Y-83764380D02*
X114366609Y-82764380D01*
X114271371Y-82907238D01*
X114176133Y-83002476D01*
X114080895Y-83050095D01*
%TO.C,LS1*%
X150258542Y-78829780D02*
X149782352Y-78829780D01*
X149782352Y-77829780D01*
X150544257Y-78782161D02*
X150687114Y-78829780D01*
X150925209Y-78829780D01*
X151020447Y-78782161D01*
X151068066Y-78734542D01*
X151115685Y-78639304D01*
X151115685Y-78544066D01*
X151068066Y-78448828D01*
X151020447Y-78401209D01*
X150925209Y-78353590D01*
X150734733Y-78305971D01*
X150639495Y-78258352D01*
X150591876Y-78210733D01*
X150544257Y-78115495D01*
X150544257Y-78020257D01*
X150591876Y-77925019D01*
X150639495Y-77877400D01*
X150734733Y-77829780D01*
X150972828Y-77829780D01*
X151115685Y-77877400D01*
X152068066Y-78829780D02*
X151496638Y-78829780D01*
X151782352Y-78829780D02*
X151782352Y-77829780D01*
X151687114Y-77972638D01*
X151591876Y-78067876D01*
X151496638Y-78115495D01*
%TO.C,C9*%
X114223033Y-91906342D02*
X114175414Y-91953961D01*
X114032557Y-92001580D01*
X113937319Y-92001580D01*
X113794461Y-91953961D01*
X113699223Y-91858723D01*
X113651604Y-91763485D01*
X113603985Y-91573009D01*
X113603985Y-91430152D01*
X113651604Y-91239676D01*
X113699223Y-91144438D01*
X113794461Y-91049200D01*
X113937319Y-91001580D01*
X114032557Y-91001580D01*
X114175414Y-91049200D01*
X114223033Y-91096819D01*
X114699223Y-92001580D02*
X114889700Y-92001580D01*
X114984938Y-91953961D01*
X115032557Y-91906342D01*
X115127795Y-91763485D01*
X115175414Y-91573009D01*
X115175414Y-91192057D01*
X115127795Y-91096819D01*
X115080176Y-91049200D01*
X114984938Y-91001580D01*
X114794461Y-91001580D01*
X114699223Y-91049200D01*
X114651604Y-91096819D01*
X114603985Y-91192057D01*
X114603985Y-91430152D01*
X114651604Y-91525390D01*
X114699223Y-91573009D01*
X114794461Y-91620628D01*
X114984938Y-91620628D01*
X115080176Y-91573009D01*
X115127795Y-91525390D01*
X115175414Y-91430152D01*
%TO.C,C14*%
X184002142Y-103575142D02*
X183954523Y-103622761D01*
X183811666Y-103670380D01*
X183716428Y-103670380D01*
X183573571Y-103622761D01*
X183478333Y-103527523D01*
X183430714Y-103432285D01*
X183383095Y-103241809D01*
X183383095Y-103098952D01*
X183430714Y-102908476D01*
X183478333Y-102813238D01*
X183573571Y-102718000D01*
X183716428Y-102670380D01*
X183811666Y-102670380D01*
X183954523Y-102718000D01*
X184002142Y-102765619D01*
X184954523Y-103670380D02*
X184383095Y-103670380D01*
X184668809Y-103670380D02*
X184668809Y-102670380D01*
X184573571Y-102813238D01*
X184478333Y-102908476D01*
X184383095Y-102956095D01*
X185811666Y-103003714D02*
X185811666Y-103670380D01*
X185573571Y-102622761D02*
X185335476Y-103337047D01*
X185954523Y-103337047D01*
%TO.C,J5*%
X135150266Y-100835480D02*
X135150266Y-101549766D01*
X135102647Y-101692623D01*
X135007409Y-101787861D01*
X134864552Y-101835480D01*
X134769314Y-101835480D01*
X136102647Y-100835480D02*
X135626457Y-100835480D01*
X135578838Y-101311671D01*
X135626457Y-101264052D01*
X135721695Y-101216433D01*
X135959790Y-101216433D01*
X136055028Y-101264052D01*
X136102647Y-101311671D01*
X136150266Y-101406909D01*
X136150266Y-101645004D01*
X136102647Y-101740242D01*
X136055028Y-101787861D01*
X135959790Y-101835480D01*
X135721695Y-101835480D01*
X135626457Y-101787861D01*
X135578838Y-101740242D01*
%TO.C,R21*%
X190606942Y-97777580D02*
X190273609Y-97301390D01*
X190035514Y-97777580D02*
X190035514Y-96777580D01*
X190416466Y-96777580D01*
X190511704Y-96825200D01*
X190559323Y-96872819D01*
X190606942Y-96968057D01*
X190606942Y-97110914D01*
X190559323Y-97206152D01*
X190511704Y-97253771D01*
X190416466Y-97301390D01*
X190035514Y-97301390D01*
X190987895Y-96872819D02*
X191035514Y-96825200D01*
X191130752Y-96777580D01*
X191368847Y-96777580D01*
X191464085Y-96825200D01*
X191511704Y-96872819D01*
X191559323Y-96968057D01*
X191559323Y-97063295D01*
X191511704Y-97206152D01*
X190940276Y-97777580D01*
X191559323Y-97777580D01*
X192511704Y-97777580D02*
X191940276Y-97777580D01*
X192225990Y-97777580D02*
X192225990Y-96777580D01*
X192130752Y-96920438D01*
X192035514Y-97015676D01*
X191940276Y-97063295D01*
%TO.C,R10*%
X155846542Y-89395580D02*
X155513209Y-88919390D01*
X155275114Y-89395580D02*
X155275114Y-88395580D01*
X155656066Y-88395580D01*
X155751304Y-88443200D01*
X155798923Y-88490819D01*
X155846542Y-88586057D01*
X155846542Y-88728914D01*
X155798923Y-88824152D01*
X155751304Y-88871771D01*
X155656066Y-88919390D01*
X155275114Y-88919390D01*
X156798923Y-89395580D02*
X156227495Y-89395580D01*
X156513209Y-89395580D02*
X156513209Y-88395580D01*
X156417971Y-88538438D01*
X156322733Y-88633676D01*
X156227495Y-88681295D01*
X157417971Y-88395580D02*
X157513209Y-88395580D01*
X157608447Y-88443200D01*
X157656066Y-88490819D01*
X157703685Y-88586057D01*
X157751304Y-88776533D01*
X157751304Y-89014628D01*
X157703685Y-89205104D01*
X157656066Y-89300342D01*
X157608447Y-89347961D01*
X157513209Y-89395580D01*
X157417971Y-89395580D01*
X157322733Y-89347961D01*
X157275114Y-89300342D01*
X157227495Y-89205104D01*
X157179876Y-89014628D01*
X157179876Y-88776533D01*
X157227495Y-88586057D01*
X157275114Y-88490819D01*
X157322733Y-88443200D01*
X157417971Y-88395580D01*
%TO.C,C17*%
X139996942Y-87928742D02*
X139949323Y-87976361D01*
X139806466Y-88023980D01*
X139711228Y-88023980D01*
X139568371Y-87976361D01*
X139473133Y-87881123D01*
X139425514Y-87785885D01*
X139377895Y-87595409D01*
X139377895Y-87452552D01*
X139425514Y-87262076D01*
X139473133Y-87166838D01*
X139568371Y-87071600D01*
X139711228Y-87023980D01*
X139806466Y-87023980D01*
X139949323Y-87071600D01*
X139996942Y-87119219D01*
X140949323Y-88023980D02*
X140377895Y-88023980D01*
X140663609Y-88023980D02*
X140663609Y-87023980D01*
X140568371Y-87166838D01*
X140473133Y-87262076D01*
X140377895Y-87309695D01*
X141282657Y-87023980D02*
X141949323Y-87023980D01*
X141520752Y-88023980D01*
%TO.C,R5*%
X114210833Y-87617580D02*
X113877500Y-87141390D01*
X113639404Y-87617580D02*
X113639404Y-86617580D01*
X114020357Y-86617580D01*
X114115595Y-86665200D01*
X114163214Y-86712819D01*
X114210833Y-86808057D01*
X114210833Y-86950914D01*
X114163214Y-87046152D01*
X114115595Y-87093771D01*
X114020357Y-87141390D01*
X113639404Y-87141390D01*
X115115595Y-86617580D02*
X114639404Y-86617580D01*
X114591785Y-87093771D01*
X114639404Y-87046152D01*
X114734642Y-86998533D01*
X114972738Y-86998533D01*
X115067976Y-87046152D01*
X115115595Y-87093771D01*
X115163214Y-87189009D01*
X115163214Y-87427104D01*
X115115595Y-87522342D01*
X115067976Y-87569961D01*
X114972738Y-87617580D01*
X114734642Y-87617580D01*
X114639404Y-87569961D01*
X114591785Y-87522342D01*
%TO.C,R11*%
X152823942Y-89395580D02*
X152490609Y-88919390D01*
X152252514Y-89395580D02*
X152252514Y-88395580D01*
X152633466Y-88395580D01*
X152728704Y-88443200D01*
X152776323Y-88490819D01*
X152823942Y-88586057D01*
X152823942Y-88728914D01*
X152776323Y-88824152D01*
X152728704Y-88871771D01*
X152633466Y-88919390D01*
X152252514Y-88919390D01*
X153776323Y-89395580D02*
X153204895Y-89395580D01*
X153490609Y-89395580D02*
X153490609Y-88395580D01*
X153395371Y-88538438D01*
X153300133Y-88633676D01*
X153204895Y-88681295D01*
X154728704Y-89395580D02*
X154157276Y-89395580D01*
X154442990Y-89395580D02*
X154442990Y-88395580D01*
X154347752Y-88538438D01*
X154252514Y-88633676D01*
X154157276Y-88681295D01*
%TO.C,R12*%
X139996942Y-95455980D02*
X139663609Y-94979790D01*
X139425514Y-95455980D02*
X139425514Y-94455980D01*
X139806466Y-94455980D01*
X139901704Y-94503600D01*
X139949323Y-94551219D01*
X139996942Y-94646457D01*
X139996942Y-94789314D01*
X139949323Y-94884552D01*
X139901704Y-94932171D01*
X139806466Y-94979790D01*
X139425514Y-94979790D01*
X140949323Y-95455980D02*
X140377895Y-95455980D01*
X140663609Y-95455980D02*
X140663609Y-94455980D01*
X140568371Y-94598838D01*
X140473133Y-94694076D01*
X140377895Y-94741695D01*
X141330276Y-94551219D02*
X141377895Y-94503600D01*
X141473133Y-94455980D01*
X141711228Y-94455980D01*
X141806466Y-94503600D01*
X141854085Y-94551219D01*
X141901704Y-94646457D01*
X141901704Y-94741695D01*
X141854085Y-94884552D01*
X141282657Y-95455980D01*
X141901704Y-95455980D01*
%TO.C,R20*%
X126572542Y-97269580D02*
X126239209Y-96793390D01*
X126001114Y-97269580D02*
X126001114Y-96269580D01*
X126382066Y-96269580D01*
X126477304Y-96317200D01*
X126524923Y-96364819D01*
X126572542Y-96460057D01*
X126572542Y-96602914D01*
X126524923Y-96698152D01*
X126477304Y-96745771D01*
X126382066Y-96793390D01*
X126001114Y-96793390D01*
X126953495Y-96364819D02*
X127001114Y-96317200D01*
X127096352Y-96269580D01*
X127334447Y-96269580D01*
X127429685Y-96317200D01*
X127477304Y-96364819D01*
X127524923Y-96460057D01*
X127524923Y-96555295D01*
X127477304Y-96698152D01*
X126905876Y-97269580D01*
X127524923Y-97269580D01*
X128143971Y-96269580D02*
X128239209Y-96269580D01*
X128334447Y-96317200D01*
X128382066Y-96364819D01*
X128429685Y-96460057D01*
X128477304Y-96650533D01*
X128477304Y-96888628D01*
X128429685Y-97079104D01*
X128382066Y-97174342D01*
X128334447Y-97221961D01*
X128239209Y-97269580D01*
X128143971Y-97269580D01*
X128048733Y-97221961D01*
X128001114Y-97174342D01*
X127953495Y-97079104D01*
X127905876Y-96888628D01*
X127905876Y-96650533D01*
X127953495Y-96460057D01*
X128001114Y-96364819D01*
X128048733Y-96317200D01*
X128143971Y-96269580D01*
%TO.C,C4*%
X127036533Y-94126342D02*
X126988914Y-94173961D01*
X126846057Y-94221580D01*
X126750819Y-94221580D01*
X126607961Y-94173961D01*
X126512723Y-94078723D01*
X126465104Y-93983485D01*
X126417485Y-93793009D01*
X126417485Y-93650152D01*
X126465104Y-93459676D01*
X126512723Y-93364438D01*
X126607961Y-93269200D01*
X126750819Y-93221580D01*
X126846057Y-93221580D01*
X126988914Y-93269200D01*
X127036533Y-93316819D01*
X127893676Y-93554914D02*
X127893676Y-94221580D01*
X127655580Y-93173961D02*
X127417485Y-93888247D01*
X128036533Y-93888247D01*
%TO.C,U9*%
X161765580Y-106727904D02*
X162575104Y-106727904D01*
X162670342Y-106680285D01*
X162717961Y-106632666D01*
X162765580Y-106537428D01*
X162765580Y-106346952D01*
X162717961Y-106251714D01*
X162670342Y-106204095D01*
X162575104Y-106156476D01*
X161765580Y-106156476D01*
X162765580Y-105632666D02*
X162765580Y-105442190D01*
X162717961Y-105346952D01*
X162670342Y-105299333D01*
X162527485Y-105204095D01*
X162337009Y-105156476D01*
X161956057Y-105156476D01*
X161860819Y-105204095D01*
X161813200Y-105251714D01*
X161765580Y-105346952D01*
X161765580Y-105537428D01*
X161813200Y-105632666D01*
X161860819Y-105680285D01*
X161956057Y-105727904D01*
X162194152Y-105727904D01*
X162289390Y-105680285D01*
X162337009Y-105632666D01*
X162384628Y-105537428D01*
X162384628Y-105346952D01*
X162337009Y-105251714D01*
X162289390Y-105204095D01*
X162194152Y-105156476D01*
%TO.C,R3*%
X108189733Y-88277980D02*
X107856400Y-87801790D01*
X107618304Y-88277980D02*
X107618304Y-87277980D01*
X107999257Y-87277980D01*
X108094495Y-87325600D01*
X108142114Y-87373219D01*
X108189733Y-87468457D01*
X108189733Y-87611314D01*
X108142114Y-87706552D01*
X108094495Y-87754171D01*
X107999257Y-87801790D01*
X107618304Y-87801790D01*
X108523066Y-87277980D02*
X109142114Y-87277980D01*
X108808780Y-87658933D01*
X108951638Y-87658933D01*
X109046876Y-87706552D01*
X109094495Y-87754171D01*
X109142114Y-87849409D01*
X109142114Y-88087504D01*
X109094495Y-88182742D01*
X109046876Y-88230361D01*
X108951638Y-88277980D01*
X108665923Y-88277980D01*
X108570685Y-88230361D01*
X108523066Y-88182742D01*
%TO.C,Q6*%
X156470361Y-82526419D02*
X156375123Y-82478800D01*
X156279885Y-82383561D01*
X156137028Y-82240704D01*
X156041790Y-82193085D01*
X155946552Y-82193085D01*
X155994171Y-82431180D02*
X155898933Y-82383561D01*
X155803695Y-82288323D01*
X155756076Y-82097847D01*
X155756076Y-81764514D01*
X155803695Y-81574038D01*
X155898933Y-81478800D01*
X155994171Y-81431180D01*
X156184647Y-81431180D01*
X156279885Y-81478800D01*
X156375123Y-81574038D01*
X156422742Y-81764514D01*
X156422742Y-82097847D01*
X156375123Y-82288323D01*
X156279885Y-82383561D01*
X156184647Y-82431180D01*
X155994171Y-82431180D01*
X157279885Y-81431180D02*
X157089409Y-81431180D01*
X156994171Y-81478800D01*
X156946552Y-81526419D01*
X156851314Y-81669276D01*
X156803695Y-81859752D01*
X156803695Y-82240704D01*
X156851314Y-82335942D01*
X156898933Y-82383561D01*
X156994171Y-82431180D01*
X157184647Y-82431180D01*
X157279885Y-82383561D01*
X157327504Y-82335942D01*
X157375123Y-82240704D01*
X157375123Y-82002609D01*
X157327504Y-81907371D01*
X157279885Y-81859752D01*
X157184647Y-81812133D01*
X156994171Y-81812133D01*
X156898933Y-81859752D01*
X156851314Y-81907371D01*
X156803695Y-82002609D01*
%TO.C,D2*%
X112762604Y-85117180D02*
X112762604Y-84117180D01*
X113000700Y-84117180D01*
X113143557Y-84164800D01*
X113238795Y-84260038D01*
X113286414Y-84355276D01*
X113334033Y-84545752D01*
X113334033Y-84688609D01*
X113286414Y-84879085D01*
X113238795Y-84974323D01*
X113143557Y-85069561D01*
X113000700Y-85117180D01*
X112762604Y-85117180D01*
X113714985Y-84212419D02*
X113762604Y-84164800D01*
X113857842Y-84117180D01*
X114095938Y-84117180D01*
X114191176Y-84164800D01*
X114238795Y-84212419D01*
X114286414Y-84307657D01*
X114286414Y-84402895D01*
X114238795Y-84545752D01*
X113667366Y-85117180D01*
X114286414Y-85117180D01*
%TO.C,C11*%
X139996942Y-96884742D02*
X139949323Y-96932361D01*
X139806466Y-96979980D01*
X139711228Y-96979980D01*
X139568371Y-96932361D01*
X139473133Y-96837123D01*
X139425514Y-96741885D01*
X139377895Y-96551409D01*
X139377895Y-96408552D01*
X139425514Y-96218076D01*
X139473133Y-96122838D01*
X139568371Y-96027600D01*
X139711228Y-95979980D01*
X139806466Y-95979980D01*
X139949323Y-96027600D01*
X139996942Y-96075219D01*
X140949323Y-96979980D02*
X140377895Y-96979980D01*
X140663609Y-96979980D02*
X140663609Y-95979980D01*
X140568371Y-96122838D01*
X140473133Y-96218076D01*
X140377895Y-96265695D01*
X141901704Y-96979980D02*
X141330276Y-96979980D01*
X141615990Y-96979980D02*
X141615990Y-95979980D01*
X141520752Y-96122838D01*
X141425514Y-96218076D01*
X141330276Y-96265695D01*
%TO.C,C6*%
X127849333Y-90402742D02*
X127801714Y-90450361D01*
X127658857Y-90497980D01*
X127563619Y-90497980D01*
X127420761Y-90450361D01*
X127325523Y-90355123D01*
X127277904Y-90259885D01*
X127230285Y-90069409D01*
X127230285Y-89926552D01*
X127277904Y-89736076D01*
X127325523Y-89640838D01*
X127420761Y-89545600D01*
X127563619Y-89497980D01*
X127658857Y-89497980D01*
X127801714Y-89545600D01*
X127849333Y-89593219D01*
X128706476Y-89497980D02*
X128516000Y-89497980D01*
X128420761Y-89545600D01*
X128373142Y-89593219D01*
X128277904Y-89736076D01*
X128230285Y-89926552D01*
X128230285Y-90307504D01*
X128277904Y-90402742D01*
X128325523Y-90450361D01*
X128420761Y-90497980D01*
X128611238Y-90497980D01*
X128706476Y-90450361D01*
X128754095Y-90402742D01*
X128801714Y-90307504D01*
X128801714Y-90069409D01*
X128754095Y-89974171D01*
X128706476Y-89926552D01*
X128611238Y-89878933D01*
X128420761Y-89878933D01*
X128325523Y-89926552D01*
X128277904Y-89974171D01*
X128230285Y-90069409D01*
%TO.C,C5*%
X127023533Y-92602342D02*
X126975914Y-92649961D01*
X126833057Y-92697580D01*
X126737819Y-92697580D01*
X126594961Y-92649961D01*
X126499723Y-92554723D01*
X126452104Y-92459485D01*
X126404485Y-92269009D01*
X126404485Y-92126152D01*
X126452104Y-91935676D01*
X126499723Y-91840438D01*
X126594961Y-91745200D01*
X126737819Y-91697580D01*
X126833057Y-91697580D01*
X126975914Y-91745200D01*
X127023533Y-91792819D01*
X127928295Y-91697580D02*
X127452104Y-91697580D01*
X127404485Y-92173771D01*
X127452104Y-92126152D01*
X127547342Y-92078533D01*
X127785438Y-92078533D01*
X127880676Y-92126152D01*
X127928295Y-92173771D01*
X127975914Y-92269009D01*
X127975914Y-92507104D01*
X127928295Y-92602342D01*
X127880676Y-92649961D01*
X127785438Y-92697580D01*
X127547342Y-92697580D01*
X127452104Y-92649961D01*
X127404485Y-92602342D01*
D16*
%TO.C,R19*%
X126978142Y-97245700D02*
X127452658Y-97245700D01*
X126978142Y-96200700D02*
X127452658Y-96200700D01*
%TO.C,Q2*%
X109995500Y-85303800D02*
X109345500Y-85303800D01*
X109995500Y-82183800D02*
X110645500Y-82183800D01*
X109995500Y-85303800D02*
X110645500Y-85303800D01*
X109995500Y-82183800D02*
X108320500Y-82183800D01*
%TO.C,D5*%
X159030600Y-82929400D02*
X161315600Y-82929400D01*
X159030600Y-81459400D02*
X159030600Y-82929400D01*
X161315600Y-81459400D02*
X159030600Y-81459400D01*
%TO.C,R2*%
X114152142Y-92644700D02*
X114626658Y-92644700D01*
X114152142Y-93689700D02*
X114626658Y-93689700D01*
%TO.C,Q5*%
X160477200Y-91018800D02*
X161127200Y-91018800D01*
X160477200Y-87898800D02*
X158802200Y-87898800D01*
X160477200Y-91018800D02*
X159827200Y-91018800D01*
X160477200Y-87898800D02*
X161127200Y-87898800D01*
%TO.C,C8*%
X120190200Y-89320400D02*
X115980200Y-89320400D01*
X115980200Y-92340400D02*
X120190200Y-92340400D01*
X115980200Y-89320400D02*
X115980200Y-92340400D01*
%TO.C,R8*%
X109376942Y-86780900D02*
X109851458Y-86780900D01*
X109376942Y-85735900D02*
X109851458Y-85735900D01*
D17*
%TO.C,U10*%
X132803900Y-88226900D02*
X132803900Y-88688860D01*
X135035099Y-93002100D02*
X135035099Y-93256100D01*
X137147300Y-92570300D02*
X137147300Y-92108340D01*
X132803900Y-92570300D02*
X133265860Y-92570300D01*
X135535101Y-87541100D02*
X135916101Y-87541100D01*
X137147300Y-88226900D02*
X136685340Y-88226900D01*
X132803900Y-92108340D02*
X132803900Y-92570300D01*
X135535101Y-87795100D02*
X135535101Y-87541100D01*
X135416100Y-93256100D02*
X135416100Y-93002100D01*
X137147300Y-88688860D02*
X137147300Y-88226900D01*
X135416100Y-93002100D02*
X135035099Y-93002100D01*
X135916101Y-87795100D02*
X135535101Y-87795100D01*
X136685340Y-92570300D02*
X137147300Y-92570300D01*
X135035099Y-93256100D02*
X135416100Y-93256100D01*
X135916101Y-87541100D02*
X135916101Y-87795100D01*
X133265860Y-88226900D02*
X132803900Y-88226900D01*
D16*
%TO.C,C3*%
X140818180Y-100734400D02*
X140537020Y-100734400D01*
X140818180Y-101754400D02*
X140537020Y-101754400D01*
%TO.C,R13*%
X162853900Y-95483142D02*
X162853900Y-95957658D01*
X161808900Y-95483142D02*
X161808900Y-95957658D01*
%TO.C,D1*%
X141465200Y-97436000D02*
X139180200Y-97436000D01*
X139180200Y-98906000D02*
X141465200Y-98906000D01*
X139180200Y-97436000D02*
X139180200Y-98906000D01*
%TO.C,C7*%
X111238920Y-89105200D02*
X111520080Y-89105200D01*
X111238920Y-88085200D02*
X111520080Y-88085200D01*
%TO.C,C1*%
X140499220Y-86463600D02*
X140780380Y-86463600D01*
X140499220Y-85443600D02*
X140780380Y-85443600D01*
%TO.C,D3*%
X121041600Y-92948000D02*
X124941600Y-92948000D01*
X121041600Y-90948000D02*
X124941600Y-90948000D01*
X121041600Y-90948000D02*
X121041600Y-92948000D01*
%TO.C,C10*%
X111238920Y-90629200D02*
X111520080Y-90629200D01*
X111238920Y-89609200D02*
X111520080Y-89609200D01*
%TO.C,C13*%
X184504420Y-102614000D02*
X184785580Y-102614000D01*
X184504420Y-103634000D02*
X184785580Y-103634000D01*
%TO.C,R17*%
X129988542Y-93157300D02*
X130463058Y-93157300D01*
X129988542Y-94202300D02*
X130463058Y-94202300D01*
%TO.C,SW2*%
X200294800Y-91379600D02*
X200294800Y-91789600D01*
X206714800Y-91379600D02*
X200294800Y-91379600D01*
X200294800Y-97389600D02*
X200294800Y-97799600D01*
X200294800Y-93389600D02*
X200294800Y-95789600D01*
X206714800Y-95789600D02*
X206714800Y-93389600D01*
X206714800Y-97799600D02*
X206714800Y-97519600D01*
X200294800Y-97799600D02*
X206714800Y-97799600D01*
X206714800Y-91789600D02*
X206714800Y-91379600D01*
%TO.C,U8*%
X133751000Y-100654000D02*
X133026000Y-100654000D01*
X137521000Y-100654000D02*
X138246000Y-100654000D01*
X133751000Y-95434000D02*
X133026000Y-95434000D01*
X138246000Y-100654000D02*
X138246000Y-99929000D01*
X137521000Y-95434000D02*
X138246000Y-95434000D01*
X138246000Y-95434000D02*
X138246000Y-96159000D01*
X133026000Y-100654000D02*
X133026000Y-99929000D01*
%TO.C,C18*%
X140780380Y-90015600D02*
X140499220Y-90015600D01*
X140780380Y-91035600D02*
X140499220Y-91035600D01*
%TO.C,R9*%
X119629458Y-92746300D02*
X119154942Y-92746300D01*
X119629458Y-93791300D02*
X119154942Y-93791300D01*
%TO.C,J2*%
X111593000Y-96032000D02*
X111593000Y-95442000D01*
X116493000Y-106152000D02*
X116493000Y-96032000D01*
X111593000Y-96032000D02*
X116493000Y-96032000D01*
X111593000Y-106742000D02*
X111593000Y-106152000D01*
X107273000Y-96032000D02*
X109373000Y-96032000D01*
X107273000Y-106152000D02*
X107273000Y-96032000D01*
X109373000Y-96032000D02*
X109373000Y-95442000D01*
X111593000Y-106152000D02*
X116493000Y-106152000D01*
X107273000Y-106152000D02*
X109373000Y-106152000D01*
X109373000Y-106742000D02*
X109373000Y-106152000D01*
X111593000Y-95442000D02*
G75*
G03*
X109373000Y-95442000I-1110000J0D01*
G01*
X109373000Y-106742000D02*
G75*
G03*
X111593000Y-106742000I1110000J0D01*
G01*
%TO.C,R6*%
X114152142Y-91120700D02*
X114626658Y-91120700D01*
X114152142Y-92165700D02*
X114626658Y-92165700D01*
%TO.C,R14*%
X160278342Y-84240900D02*
X160752858Y-84240900D01*
X160278342Y-83195900D02*
X160752858Y-83195900D01*
%TO.C,R7*%
X111116342Y-91120700D02*
X111590858Y-91120700D01*
X111116342Y-92165700D02*
X111590858Y-92165700D01*
%TO.C,SW3*%
X206714800Y-84597800D02*
X200294800Y-84597800D01*
X206714800Y-91017800D02*
X206714800Y-90607800D01*
X200294800Y-91017800D02*
X206714800Y-91017800D01*
X206714800Y-89007800D02*
X206714800Y-86607800D01*
X200294800Y-90607800D02*
X200294800Y-91017800D01*
X206714800Y-85007800D02*
X206714800Y-84597800D01*
X200294800Y-86607800D02*
X200294800Y-89007800D01*
X200294800Y-84597800D02*
X200294800Y-84877800D01*
%TO.C,J4*%
X194377000Y-107562800D02*
X197037000Y-107562800D01*
X194377000Y-99882800D02*
X197037000Y-99882800D01*
X194377000Y-98612800D02*
X194377000Y-97282800D01*
X194377000Y-97282800D02*
X195707000Y-97282800D01*
X194377000Y-99882800D02*
X194377000Y-107562800D01*
X197037000Y-99882800D02*
X197037000Y-107562800D01*
%TO.C,R18*%
X130013942Y-96200700D02*
X130488458Y-96200700D01*
X130013942Y-97245700D02*
X130488458Y-97245700D01*
%TO.C,SW4*%
X198688400Y-87976000D02*
X198408400Y-87976000D01*
X194278400Y-94396000D02*
X196678400Y-94396000D01*
X192678400Y-87976000D02*
X192268400Y-87976000D01*
X192268400Y-94396000D02*
X192678400Y-94396000D01*
X198278400Y-94396000D02*
X198688400Y-94396000D01*
X198688400Y-94396000D02*
X198688400Y-87976000D01*
X196678400Y-87976000D02*
X194278400Y-87976000D01*
X192268400Y-87976000D02*
X192268400Y-94396000D01*
%TO.C,R4*%
X108555058Y-91730300D02*
X108080542Y-91730300D01*
X108555058Y-92775300D02*
X108080542Y-92775300D01*
%TO.C,J1*%
X199056600Y-100625800D02*
X199056600Y-103945800D01*
X201006600Y-105895800D02*
X204326600Y-105895800D01*
X201006600Y-98675800D02*
X204326600Y-98675800D01*
X206276600Y-100625800D02*
X206276600Y-103945800D01*
%TO.C,U7*%
X122268700Y-82111800D02*
X122268700Y-83371800D01*
X118508700Y-88931800D02*
X122268700Y-88931800D01*
X116258700Y-82111800D02*
X122268700Y-82111800D01*
X122268700Y-88931800D02*
X122268700Y-87671800D01*
%TO.C,U1*%
X143591200Y-99430840D02*
X143591200Y-100314760D01*
X143591200Y-96890840D02*
X143591200Y-97774760D01*
X159999600Y-108077000D02*
X159999600Y-107050840D01*
X159999600Y-97774760D02*
X159999600Y-96890840D01*
X159999600Y-91668600D02*
X143591200Y-91668600D01*
X143591200Y-101970840D02*
X143591200Y-102854760D01*
X143591200Y-107050840D02*
X143591200Y-108077000D01*
X143591200Y-108077000D02*
X159999600Y-108077000D01*
X159999600Y-102854760D02*
X159999600Y-101970840D01*
X159999600Y-92694760D02*
X159999600Y-91668600D01*
X143591200Y-94350840D02*
X143591200Y-95234760D01*
X143591200Y-91668600D02*
X143591200Y-92694760D01*
X159999600Y-100314760D02*
X159999600Y-99430840D01*
X143591200Y-104510840D02*
X143591200Y-105394760D01*
X159999600Y-105394760D02*
X159999600Y-104510840D01*
X159999600Y-95234760D02*
X159999600Y-94350840D01*
X140311600Y-93522800D02*
G75*
G03*
X140311600Y-93522800I-127000J0D01*
G01*
%TO.C,Q4*%
X156413200Y-86298600D02*
X157063200Y-86298600D01*
X156413200Y-89418600D02*
X155763200Y-89418600D01*
X156413200Y-89418600D02*
X157063200Y-89418600D01*
X156413200Y-86298600D02*
X154738200Y-86298600D01*
%TO.C,D4*%
X138237400Y-82997800D02*
X138237400Y-84997800D01*
X138237400Y-84997800D02*
X142137400Y-84997800D01*
X138237400Y-82997800D02*
X142137400Y-82997800D01*
%TO.C,R15*%
X191024742Y-100801700D02*
X191499258Y-100801700D01*
X191024742Y-99756700D02*
X191499258Y-99756700D01*
%TO.C,R16*%
X129988542Y-95721700D02*
X130463058Y-95721700D01*
X129988542Y-94676700D02*
X130463058Y-94676700D01*
%TO.C,R1*%
X140441142Y-100242900D02*
X140915658Y-100242900D01*
X140441142Y-99197900D02*
X140915658Y-99197900D01*
%TO.C,C19*%
X140499220Y-91539600D02*
X140780380Y-91539600D01*
X140499220Y-92559600D02*
X140780380Y-92559600D01*
%TO.C,C20*%
X140499220Y-86967600D02*
X140780380Y-86967600D01*
X140499220Y-87987600D02*
X140780380Y-87987600D01*
%TO.C,C2*%
X140780380Y-97131600D02*
X140499220Y-97131600D01*
X140780380Y-96111600D02*
X140499220Y-96111600D01*
%TO.C,C15*%
X124932900Y-87440800D02*
X124932900Y-90460800D01*
X129142900Y-87440800D02*
X124932900Y-87440800D01*
X124932900Y-90460800D02*
X129142900Y-90460800D01*
%TO.C,C12*%
X160387420Y-84732400D02*
X160668580Y-84732400D01*
X160387420Y-85752400D02*
X160668580Y-85752400D01*
%TO.C,C16*%
X162841400Y-92569420D02*
X162841400Y-92850580D01*
X161821400Y-92569420D02*
X161821400Y-92850580D01*
%TO.C,D6*%
X128791600Y-99007600D02*
X131076600Y-99007600D01*
X131076600Y-97537600D02*
X128791600Y-97537600D01*
X128791600Y-97537600D02*
X128791600Y-99007600D01*
%TO.C,U3*%
X137577200Y-86107400D02*
X137577200Y-82853400D01*
X132323200Y-82853400D02*
X132323200Y-86107400D01*
D12*
X134740701Y-86765801D02*
X134359701Y-86765801D01*
X134359701Y-86765801D02*
X134359701Y-86511801D01*
X134359701Y-86511801D02*
X134740701Y-86511801D01*
X134740701Y-86511801D02*
X134740701Y-86765801D01*
G36*
X134740701Y-86765801D02*
G01*
X134359701Y-86765801D01*
X134359701Y-86511801D01*
X134740701Y-86511801D01*
X134740701Y-86765801D01*
G37*
X134740701Y-86765801D02*
X134359701Y-86765801D01*
X134359701Y-86511801D01*
X134740701Y-86511801D01*
X134740701Y-86765801D01*
D16*
%TO.C,Q1*%
X113881700Y-85303800D02*
X114531700Y-85303800D01*
X113881700Y-82183800D02*
X114531700Y-82183800D01*
X113881700Y-82183800D02*
X112206700Y-82183800D01*
X113881700Y-85303800D02*
X113231700Y-85303800D01*
D18*
%TO.C,LS1*%
X150186400Y-90382400D02*
X150376400Y-90252400D01*
X147376400Y-91102400D02*
X147656400Y-91112400D01*
X145736400Y-90652400D02*
X146056400Y-90792400D01*
X143846400Y-88892400D02*
X144016400Y-89162400D01*
X146386400Y-90912400D02*
X146746400Y-91002400D01*
X151276400Y-89382400D02*
X151496400Y-89072400D01*
X151496400Y-89072400D02*
X151646400Y-88822400D01*
X155226400Y-86512400D02*
X156226400Y-86512400D01*
X151646400Y-84402400D02*
X151776400Y-84652400D01*
X149916400Y-90542400D02*
X150186400Y-90382400D01*
X143646400Y-84712400D02*
X143806400Y-84402400D01*
X143476400Y-85122400D02*
X143646400Y-84712400D01*
X151046400Y-89652400D02*
X151276400Y-89382400D01*
X150566400Y-90102400D02*
X150766400Y-89932400D01*
X150616400Y-83162400D02*
X150846400Y-83362400D01*
X148146400Y-91092400D02*
X148386400Y-91062400D01*
X150326400Y-82932400D02*
X150616400Y-83162400D01*
X145126400Y-80512400D02*
X150326400Y-80512400D01*
X150376400Y-90252400D02*
X150566400Y-90102400D01*
X143496400Y-88152400D02*
X143676400Y-88582400D01*
X144196400Y-89412400D02*
X144386400Y-89632400D01*
X150846400Y-83362400D02*
X151136400Y-83672400D01*
X144016400Y-89162400D02*
X144196400Y-89412400D01*
X144616400Y-89862400D02*
X144826400Y-90052400D01*
X147906400Y-91112400D02*
X148146400Y-91092400D01*
X147036400Y-91062400D02*
X147376400Y-91102400D01*
X145316400Y-90412400D02*
X145736400Y-90652400D01*
X151776400Y-84652400D02*
X152026400Y-85282400D01*
X139726400Y-86012400D02*
X139726400Y-87012400D01*
X144036400Y-84032400D02*
X144366400Y-83612400D01*
X147656400Y-91112400D02*
X147906400Y-91112400D01*
X149176400Y-90872400D02*
X149446400Y-90772400D01*
X144366400Y-83612400D02*
X144636400Y-83342400D01*
X151796400Y-88542400D02*
X151926400Y-88242400D01*
X148386400Y-91062400D02*
X148856400Y-90972400D01*
X151136400Y-83672400D02*
X151406400Y-84022400D01*
X145126400Y-82942400D02*
X145126400Y-80512400D01*
X151646400Y-88822400D02*
X151796400Y-88542400D01*
X149446400Y-90772400D02*
X149726400Y-90642400D01*
X144826400Y-90052400D02*
X145076400Y-90252400D01*
X140226400Y-86512400D02*
X139226400Y-86512400D01*
X151926400Y-88242400D02*
X152046400Y-87882400D01*
X152026400Y-85282400D02*
X152096400Y-85512400D01*
X149726400Y-90642400D02*
X149916400Y-90542400D01*
X150766400Y-89932400D02*
X151046400Y-89652400D01*
X146056400Y-90792400D02*
X146386400Y-90912400D01*
X144966400Y-83062400D02*
X145126400Y-82942400D01*
X144386400Y-89632400D02*
X144616400Y-89862400D01*
X145076400Y-90252400D02*
X145316400Y-90412400D01*
X150326400Y-80512400D02*
X150326400Y-82932400D01*
X151406400Y-84022400D02*
X151646400Y-84402400D01*
X152046400Y-87882400D02*
X152136400Y-87512400D01*
X143476400Y-85122400D02*
X143366400Y-85512400D01*
X143316400Y-87512400D02*
X143366400Y-87742400D01*
X143806400Y-84402400D02*
X144036400Y-84032400D01*
X148856400Y-90972400D02*
X149176400Y-90872400D01*
X144636400Y-83342400D02*
X144966400Y-83062400D01*
X143676400Y-88582400D02*
X143846400Y-88892400D01*
X146746400Y-91002400D02*
X147036400Y-91062400D01*
X143366400Y-87742400D02*
X143496400Y-88152400D01*
D16*
%TO.C,J3*%
X187982800Y-94808800D02*
X187482800Y-94808800D01*
X183872800Y-89748800D02*
X183872800Y-101868800D01*
X187482800Y-94708800D02*
X187982800Y-94708800D01*
X187982800Y-92808800D02*
X187482800Y-92808800D01*
X187982800Y-101258800D02*
X187982800Y-90358800D01*
X187482800Y-98708800D02*
X187982800Y-98708800D01*
X187482800Y-98908800D02*
X187482800Y-98708800D01*
X184482800Y-101258800D02*
X187982800Y-101258800D01*
X186482800Y-101868800D02*
X186482800Y-101258800D01*
X187982800Y-96908800D02*
X187482800Y-96908800D01*
X183772800Y-100108800D02*
X183772800Y-100408800D01*
X187982800Y-98808800D02*
X187482800Y-98808800D01*
X183872800Y-101868800D02*
X188592800Y-101868800D01*
X187482800Y-92908800D02*
X187482800Y-92708800D01*
X187982800Y-98908800D02*
X187482800Y-98908800D01*
X183572800Y-102168800D02*
X184822800Y-102168800D01*
X188592800Y-89748800D02*
X183872800Y-89748800D01*
X187982800Y-94908800D02*
X187482800Y-94908800D01*
X188592800Y-101868800D02*
X188592800Y-89748800D01*
X187982800Y-92908800D02*
X187482800Y-92908800D01*
X183872800Y-100108800D02*
X183672800Y-100108800D01*
X185182800Y-101868800D02*
X185182800Y-101258800D01*
X187482800Y-92708800D02*
X187982800Y-92708800D01*
X184482800Y-90358800D02*
X184482800Y-92308800D01*
X187482800Y-96708800D02*
X187982800Y-96708800D01*
X185182800Y-89748800D02*
X185182800Y-90358800D01*
X187482800Y-94908800D02*
X187482800Y-94708800D01*
X187982800Y-96808800D02*
X187482800Y-96808800D01*
X184482800Y-99308800D02*
X184482800Y-101258800D01*
X183572800Y-100918800D02*
X183572800Y-102168800D01*
X183872800Y-99308800D02*
X184482800Y-99308800D01*
X184482800Y-92308800D02*
X183872800Y-92308800D01*
X186482800Y-89748800D02*
X186482800Y-90358800D01*
X183672800Y-100108800D02*
X183672800Y-100408800D01*
X187482800Y-96908800D02*
X187482800Y-96708800D01*
X187982800Y-90358800D02*
X184482800Y-90358800D01*
X183672800Y-100408800D02*
X183872800Y-100408800D01*
%TO.C,C9*%
X114530280Y-90629200D02*
X114249120Y-90629200D01*
X114530280Y-89609200D02*
X114249120Y-89609200D01*
%TO.C,C14*%
X184504420Y-104138000D02*
X184785580Y-104138000D01*
X184504420Y-105158000D02*
X184785580Y-105158000D01*
%TO.C,J5*%
X133783600Y-102183100D02*
X134233600Y-102183100D01*
X131583600Y-104583100D02*
X131583600Y-102733100D01*
X131583600Y-102733100D02*
X132033600Y-102733100D01*
X139383600Y-107133100D02*
X139383600Y-106883100D01*
X139383600Y-102733100D02*
X138933600Y-102733100D01*
X133783600Y-102183100D02*
X133783600Y-102633100D01*
X139383600Y-104583100D02*
X139383600Y-102733100D01*
X131583600Y-107133100D02*
X131583600Y-106883100D01*
%TO.C,R21*%
X191012542Y-98232700D02*
X191487058Y-98232700D01*
X191012542Y-99277700D02*
X191487058Y-99277700D01*
%TO.C,R10*%
X156252142Y-89850700D02*
X156726658Y-89850700D01*
X156252142Y-90895700D02*
X156726658Y-90895700D01*
%TO.C,C17*%
X140499220Y-88491600D02*
X140780380Y-88491600D01*
X140499220Y-89511600D02*
X140780380Y-89511600D01*
%TO.C,R5*%
X114140242Y-88072700D02*
X114614758Y-88072700D01*
X114140242Y-89117700D02*
X114614758Y-89117700D01*
%TO.C,R11*%
X153229542Y-90895700D02*
X153704058Y-90895700D01*
X153229542Y-89850700D02*
X153704058Y-89850700D01*
%TO.C,R12*%
X140877058Y-94096100D02*
X140402542Y-94096100D01*
X140877058Y-93051100D02*
X140402542Y-93051100D01*
%TO.C,R20*%
X126978142Y-98769700D02*
X127452658Y-98769700D01*
X126978142Y-97724700D02*
X127452658Y-97724700D01*
%TO.C,C4*%
X127062620Y-95709200D02*
X127343780Y-95709200D01*
X127062620Y-94689200D02*
X127343780Y-94689200D01*
%TO.C,U9*%
X182043200Y-81671000D02*
X182043200Y-88091000D01*
X182043200Y-106636000D02*
X182043200Y-107416000D01*
X163803200Y-106636000D02*
X163803200Y-107416000D01*
X163803200Y-81671000D02*
X163803200Y-88091000D01*
X163803200Y-81671000D02*
X182043200Y-81671000D01*
X163803200Y-88091000D02*
X163423200Y-88091000D01*
X182043200Y-107416000D02*
X181043200Y-107416000D01*
X163803200Y-107416000D02*
X164803200Y-107416000D01*
%TO.C,R3*%
X108119142Y-89778100D02*
X108593658Y-89778100D01*
X108119142Y-88733100D02*
X108593658Y-88733100D01*
%TO.C,Q6*%
X156565600Y-85938800D02*
X155915600Y-85938800D01*
X156565600Y-82818800D02*
X157215600Y-82818800D01*
X156565600Y-85938800D02*
X157215600Y-85938800D01*
X156565600Y-82818800D02*
X154890600Y-82818800D01*
%TO.C,D2*%
X111250700Y-87664800D02*
X115150700Y-87664800D01*
X111250700Y-85664800D02*
X115150700Y-85664800D01*
X111250700Y-85664800D02*
X111250700Y-87664800D01*
%TO.C,C11*%
X140780380Y-95607600D02*
X140499220Y-95607600D01*
X140780380Y-94587600D02*
X140499220Y-94587600D01*
%TO.C,C6*%
X129616000Y-90860600D02*
X125706000Y-90860600D01*
X125706000Y-92730600D02*
X129616000Y-92730600D01*
X125706000Y-90860600D02*
X125706000Y-92730600D01*
%TO.C,C5*%
X127049620Y-94185200D02*
X127330780Y-94185200D01*
X127049620Y-93165200D02*
X127330780Y-93165200D01*
%TD*%
M02*
