%TF.GenerationSoftware,KiCad,Pcbnew,(6.0.2)*%
%TF.CreationDate,2022-03-31T19:26:31+11:00*%
%TF.ProjectId,Liaka_V3,4c69616b-615f-4563-932e-6b696361645f,2.0*%
%TF.SameCoordinates,Original*%
%TF.FileFunction,Paste,Top*%
%TF.FilePolarity,Positive*%
%FSLAX46Y46*%
G04 Gerber Fmt 4.6, Leading zero omitted, Abs format (unit mm)*
G04 Created by KiCad (PCBNEW (6.0.2)) date 2022-03-31 19:26:31*
%MOMM*%
%LPD*%
G01*
G04 APERTURE LIST*
G04 Aperture macros list*
%AMRoundRect*
0 Rectangle with rounded corners*
0 $1 Rounding radius*
0 $2 $3 $4 $5 $6 $7 $8 $9 X,Y pos of 4 corners*
0 Add a 4 corners polygon primitive as box body*
4,1,4,$2,$3,$4,$5,$6,$7,$8,$9,$2,$3,0*
0 Add four circle primitives for the rounded corners*
1,1,$1+$1,$2,$3*
1,1,$1+$1,$4,$5*
1,1,$1+$1,$6,$7*
1,1,$1+$1,$8,$9*
0 Add four rect primitives between the rounded corners*
20,1,$1+$1,$2,$3,$4,$5,0*
20,1,$1+$1,$4,$5,$6,$7,0*
20,1,$1+$1,$6,$7,$8,$9,0*
20,1,$1+$1,$8,$9,$2,$3,0*%
G04 Aperture macros list end*
%ADD10C,0.152400*%
%ADD11RoundRect,0.200000X-0.200000X-0.275000X0.200000X-0.275000X0.200000X0.275000X-0.200000X0.275000X0*%
%ADD12RoundRect,0.150000X-0.587500X-0.150000X0.587500X-0.150000X0.587500X0.150000X-0.587500X0.150000X0*%
%ADD13RoundRect,0.218750X-0.218750X-0.256250X0.218750X-0.256250X0.218750X0.256250X-0.218750X0.256250X0*%
%ADD14RoundRect,0.250000X-0.412500X-0.925000X0.412500X-0.925000X0.412500X0.925000X-0.412500X0.925000X0*%
%ADD15R,0.711200X0.254000*%
%ADD16R,0.254000X0.711200*%
%ADD17R,2.743200X2.641600*%
%ADD18RoundRect,0.225000X0.225000X0.250000X-0.225000X0.250000X-0.225000X-0.250000X0.225000X-0.250000X0*%
%ADD19RoundRect,0.200000X-0.275000X0.200000X-0.275000X-0.200000X0.275000X-0.200000X0.275000X0.200000X0*%
%ADD20RoundRect,0.225000X-0.225000X-0.250000X0.225000X-0.250000X0.225000X0.250000X-0.225000X0.250000X0*%
%ADD21R,0.900000X1.200000*%
%ADD22R,2.800000X1.000000*%
%ADD23RoundRect,0.225000X-0.225000X-0.225000X0.225000X-0.225000X0.225000X0.225000X-0.225000X0.225000X0*%
%ADD24RoundRect,0.062500X-0.337500X-0.062500X0.337500X-0.062500X0.337500X0.062500X-0.337500X0.062500X0*%
%ADD25RoundRect,0.062500X-0.062500X-0.337500X0.062500X-0.337500X0.062500X0.337500X-0.062500X0.337500X0*%
%ADD26RoundRect,0.200000X0.200000X0.275000X-0.200000X0.275000X-0.200000X-0.275000X0.200000X-0.275000X0*%
%ADD27R,1.000000X2.800000*%
%ADD28R,2.000000X1.500000*%
%ADD29R,2.000000X3.800000*%
%ADD30R,2.489200X0.990600*%
%ADD31RoundRect,0.225000X-0.250000X0.225000X-0.250000X-0.225000X0.250000X-0.225000X0.250000X0.225000X0*%
%ADD32R,0.449200X1.117800*%
%ADD33R,0.813000X0.500000*%
%ADD34R,2.200000X1.500000*%
%ADD35R,0.400000X1.350000*%
%ADD36R,1.500000X1.900000*%
%ADD37R,2.000000X0.900000*%
%ADD38R,0.900000X2.000000*%
%ADD39R,5.000000X5.000000*%
%ADD40RoundRect,0.250000X-0.450000X-0.425000X0.450000X-0.425000X0.450000X0.425000X-0.450000X0.425000X0*%
G04 APERTURE END LIST*
D10*
%TO.C,U10*%
X133704000Y-90298600D02*
X134875600Y-90298600D01*
X133704000Y-90498600D02*
X133704000Y-91619400D01*
X136247200Y-90498600D02*
X135075600Y-90498600D01*
X134875600Y-89177800D02*
X133704000Y-89177800D01*
X135075600Y-90298600D02*
X136247200Y-90298600D01*
X135075600Y-91619400D02*
X136247200Y-91619400D01*
X135075600Y-90498600D02*
X135075600Y-91619400D01*
X136247200Y-90298600D02*
X136247200Y-89177800D01*
X133704000Y-91619400D02*
X134875600Y-91619400D01*
X134875600Y-90298600D02*
X134875600Y-89177800D01*
X134875600Y-91619400D02*
X134875600Y-90498600D01*
X133704000Y-89177800D02*
X133704000Y-90298600D01*
X135075600Y-89177800D02*
X135075600Y-90298600D01*
X136247200Y-89177800D02*
X135075600Y-89177800D01*
X136247200Y-91619400D02*
X136247200Y-90498600D01*
X134875600Y-90498600D02*
X133704000Y-90498600D01*
%TD*%
D11*
%TO.C,R19*%
X126390400Y-96723200D03*
X128040400Y-96723200D03*
%TD*%
D12*
%TO.C,Q2*%
X109058000Y-82793800D03*
X109058000Y-84693800D03*
X110933000Y-83743800D03*
%TD*%
D13*
%TO.C,D5*%
X159728100Y-82194400D03*
X161303100Y-82194400D03*
%TD*%
D11*
%TO.C,R2*%
X113564400Y-93167200D03*
X115214400Y-93167200D03*
%TD*%
D12*
%TO.C,Q5*%
X159539700Y-88508800D03*
X159539700Y-90408800D03*
X161414700Y-89458800D03*
%TD*%
D14*
%TO.C,C8*%
X116902700Y-90830400D03*
X119977700Y-90830400D03*
%TD*%
D11*
%TO.C,R8*%
X108789200Y-86258400D03*
X110439200Y-86258400D03*
%TD*%
D15*
%TO.C,U10*%
X132981700Y-89148600D03*
X132981700Y-89648599D03*
X132981700Y-90148600D03*
X132981700Y-90648600D03*
X132981700Y-91148601D03*
X132981700Y-91648600D03*
D16*
X133725600Y-92392500D03*
X134225599Y-92392500D03*
X134725600Y-92392500D03*
X135225600Y-92392500D03*
X135725601Y-92392500D03*
X136225600Y-92392500D03*
D15*
X136969500Y-91648600D03*
X136969500Y-91148601D03*
X136969500Y-90648600D03*
X136969500Y-90148600D03*
X136969500Y-89648599D03*
X136969500Y-89148600D03*
D16*
X136225600Y-88404700D03*
X135725601Y-88404700D03*
X135225600Y-88404700D03*
X134725600Y-88404700D03*
X134225599Y-88404700D03*
X133725600Y-88404700D03*
D17*
X134975600Y-90398600D03*
%TD*%
D18*
%TO.C,C3*%
X141452600Y-101244400D03*
X139902600Y-101244400D03*
%TD*%
D19*
%TO.C,R13*%
X162331400Y-94895400D03*
X162331400Y-96545400D03*
%TD*%
D13*
%TO.C,D1*%
X139877700Y-98171000D03*
X141452700Y-98171000D03*
%TD*%
D20*
%TO.C,C7*%
X110604500Y-88595200D03*
X112154500Y-88595200D03*
%TD*%
%TO.C,C1*%
X139864800Y-85953600D03*
X141414800Y-85953600D03*
%TD*%
D21*
%TO.C,D3*%
X121641600Y-91948000D03*
X124941600Y-91948000D03*
%TD*%
D20*
%TO.C,C10*%
X110604500Y-90119200D03*
X112154500Y-90119200D03*
%TD*%
%TO.C,C13*%
X183870000Y-103124000D03*
X185420000Y-103124000D03*
%TD*%
D11*
%TO.C,R17*%
X129400800Y-93679800D03*
X131050800Y-93679800D03*
%TD*%
D22*
%TO.C,SW2*%
X200604800Y-92589600D03*
X206404800Y-92589600D03*
X200604800Y-96589600D03*
X206404800Y-96589600D03*
%TD*%
D23*
%TO.C,U8*%
X134516000Y-99164000D03*
X134516000Y-98044000D03*
X136756000Y-96924000D03*
X136756000Y-99164000D03*
X136756000Y-98044000D03*
X134516000Y-96924000D03*
X135636000Y-96924000D03*
X135636000Y-98044000D03*
X135636000Y-99164000D03*
D24*
X133186000Y-96544000D03*
X133186000Y-97044000D03*
X133186000Y-97544000D03*
X133186000Y-98044000D03*
X133186000Y-98544000D03*
X133186000Y-99044000D03*
X133186000Y-99544000D03*
D25*
X134136000Y-100494000D03*
X134636000Y-100494000D03*
X135136000Y-100494000D03*
X135636000Y-100494000D03*
X136136000Y-100494000D03*
X136636000Y-100494000D03*
X137136000Y-100494000D03*
D24*
X138086000Y-99544000D03*
X138086000Y-99044000D03*
X138086000Y-98544000D03*
X138086000Y-98044000D03*
X138086000Y-97544000D03*
X138086000Y-97044000D03*
X138086000Y-96544000D03*
D25*
X137136000Y-95594000D03*
X136636000Y-95594000D03*
X136136000Y-95594000D03*
X135636000Y-95594000D03*
X135136000Y-95594000D03*
X134636000Y-95594000D03*
X134136000Y-95594000D03*
%TD*%
D18*
%TO.C,C18*%
X141414800Y-90525600D03*
X139864800Y-90525600D03*
%TD*%
D26*
%TO.C,R9*%
X120217200Y-93268800D03*
X118567200Y-93268800D03*
%TD*%
D11*
%TO.C,R6*%
X113564400Y-91643200D03*
X115214400Y-91643200D03*
%TD*%
%TO.C,R14*%
X159690600Y-83718400D03*
X161340600Y-83718400D03*
%TD*%
%TO.C,R7*%
X110528600Y-91643200D03*
X112178600Y-91643200D03*
%TD*%
D22*
%TO.C,SW3*%
X200604800Y-89807800D03*
X206404800Y-89807800D03*
X206404800Y-85807800D03*
X200604800Y-85807800D03*
%TD*%
D11*
%TO.C,R18*%
X129426200Y-96723200D03*
X131076200Y-96723200D03*
%TD*%
D27*
%TO.C,SW4*%
X193478400Y-94086000D03*
X193478400Y-88286000D03*
X197478400Y-88286000D03*
X197478400Y-94086000D03*
%TD*%
D26*
%TO.C,R4*%
X109142800Y-92252800D03*
X107492800Y-92252800D03*
%TD*%
D28*
%TO.C,U7*%
X117208700Y-83221800D03*
X117208700Y-85521800D03*
D29*
X123508700Y-85521800D03*
D28*
X117208700Y-87821800D03*
%TD*%
D30*
%TO.C,U1*%
X144045400Y-93522800D03*
X144045400Y-96062800D03*
X144045400Y-98602800D03*
X144045400Y-101142800D03*
X144045400Y-103682800D03*
X144045400Y-106222800D03*
X159545400Y-106222800D03*
X159545400Y-103682800D03*
X159545400Y-101142800D03*
X159545400Y-98602800D03*
X159545400Y-96062800D03*
X159545400Y-93522800D03*
%TD*%
D12*
%TO.C,Q4*%
X155475700Y-86908600D03*
X155475700Y-88808600D03*
X157350700Y-87858600D03*
%TD*%
D21*
%TO.C,D4*%
X138837400Y-83997800D03*
X142137400Y-83997800D03*
%TD*%
D11*
%TO.C,R15*%
X190437000Y-100279200D03*
X192087000Y-100279200D03*
%TD*%
%TO.C,R16*%
X129400800Y-95199200D03*
X131050800Y-95199200D03*
%TD*%
%TO.C,R1*%
X139853400Y-99720400D03*
X141503400Y-99720400D03*
%TD*%
D20*
%TO.C,C19*%
X139864800Y-92049600D03*
X141414800Y-92049600D03*
%TD*%
%TO.C,C20*%
X139864800Y-87477600D03*
X141414800Y-87477600D03*
%TD*%
D18*
%TO.C,C2*%
X141414800Y-96621600D03*
X139864800Y-96621600D03*
%TD*%
D14*
%TO.C,C15*%
X125855400Y-88950800D03*
X128930400Y-88950800D03*
%TD*%
D20*
%TO.C,C12*%
X159753000Y-85242400D03*
X161303000Y-85242400D03*
%TD*%
D31*
%TO.C,C16*%
X162331400Y-91935000D03*
X162331400Y-93485000D03*
%TD*%
D13*
%TO.C,D6*%
X129489100Y-98272600D03*
X131064100Y-98272600D03*
%TD*%
D32*
%TO.C,U3*%
X136950201Y-83109499D03*
X136150200Y-83109499D03*
X135350199Y-83109499D03*
X134550201Y-83109499D03*
X133750200Y-83109499D03*
X132950201Y-83109499D03*
D33*
X133231702Y-84480400D03*
D32*
X132950199Y-85851301D03*
X133750200Y-85851301D03*
X134550201Y-85851301D03*
X135350199Y-85851301D03*
X136150200Y-85851301D03*
X136950199Y-85851301D03*
D33*
X136668698Y-84480400D03*
%TD*%
D12*
%TO.C,Q1*%
X112944200Y-82793800D03*
X112944200Y-84693800D03*
X114819200Y-83743800D03*
%TD*%
D34*
%TO.C,LS1*%
X151876400Y-86512400D03*
X143576400Y-86512400D03*
%TD*%
D18*
%TO.C,C9*%
X115164700Y-90119200D03*
X113614700Y-90119200D03*
%TD*%
D20*
%TO.C,C14*%
X183870000Y-104648000D03*
X185420000Y-104648000D03*
%TD*%
D35*
%TO.C,J5*%
X134183600Y-103033100D03*
X134833600Y-103033100D03*
X135483600Y-103033100D03*
X136133600Y-103033100D03*
X136783600Y-103033100D03*
D36*
X136483600Y-105733100D03*
X134483600Y-105733100D03*
%TD*%
D11*
%TO.C,R21*%
X190424800Y-98755200D03*
X192074800Y-98755200D03*
%TD*%
%TO.C,R10*%
X155664400Y-90373200D03*
X157314400Y-90373200D03*
%TD*%
D20*
%TO.C,C17*%
X139864800Y-89001600D03*
X141414800Y-89001600D03*
%TD*%
D11*
%TO.C,R5*%
X113552500Y-88595200D03*
X115202500Y-88595200D03*
%TD*%
%TO.C,R11*%
X152641800Y-90373200D03*
X154291800Y-90373200D03*
%TD*%
D26*
%TO.C,R12*%
X141464800Y-93573600D03*
X139814800Y-93573600D03*
%TD*%
D11*
%TO.C,R20*%
X126390400Y-98247200D03*
X128040400Y-98247200D03*
%TD*%
D20*
%TO.C,C4*%
X126428200Y-95199200D03*
X127978200Y-95199200D03*
%TD*%
D37*
%TO.C,U9*%
X164423200Y-89281000D03*
X164423200Y-90551000D03*
X164423200Y-91821000D03*
X164423200Y-93091000D03*
X164423200Y-94361000D03*
X164423200Y-95631000D03*
X164423200Y-96901000D03*
X164423200Y-98171000D03*
X164423200Y-99441000D03*
X164423200Y-100711000D03*
X164423200Y-101981000D03*
X164423200Y-103251000D03*
X164423200Y-104521000D03*
X164423200Y-105791000D03*
D38*
X167208200Y-106791000D03*
X168478200Y-106791000D03*
X169748200Y-106791000D03*
X171018200Y-106791000D03*
X172288200Y-106791000D03*
X173558200Y-106791000D03*
X174828200Y-106791000D03*
X176098200Y-106791000D03*
X177368200Y-106791000D03*
X178638200Y-106791000D03*
D37*
X181423200Y-105791000D03*
X181423200Y-104521000D03*
X181423200Y-103251000D03*
X181423200Y-101981000D03*
X181423200Y-100711000D03*
X181423200Y-99441000D03*
X181423200Y-98171000D03*
X181423200Y-96901000D03*
X181423200Y-95631000D03*
X181423200Y-94361000D03*
X181423200Y-93091000D03*
X181423200Y-91821000D03*
X181423200Y-90551000D03*
X181423200Y-89281000D03*
D39*
X171923200Y-96781000D03*
%TD*%
D11*
%TO.C,R3*%
X107531400Y-89255600D03*
X109181400Y-89255600D03*
%TD*%
D12*
%TO.C,Q6*%
X155628100Y-83428800D03*
X155628100Y-85328800D03*
X157503100Y-84378800D03*
%TD*%
D21*
%TO.C,D2*%
X111850700Y-86664800D03*
X115150700Y-86664800D03*
%TD*%
D18*
%TO.C,C11*%
X141414800Y-95097600D03*
X139864800Y-95097600D03*
%TD*%
D40*
%TO.C,C6*%
X126666000Y-91795600D03*
X129366000Y-91795600D03*
%TD*%
D20*
%TO.C,C5*%
X126415200Y-93675200D03*
X127965200Y-93675200D03*
%TD*%
M02*
